<svg width="56" height="42" viewBox="0 0 56 42" fill="none" xmlns="http://www.w3.org/2000/svg">
<g>
<circle cx="28" cy="21" r="20" fill="#5041ac"/>
</g>
<g clip-path="url(#clip0)">
<path d="M34.2803 25.6222C35.301 25.407 36.2083 24.8057 36.826 23.935C37.4438 23.0643 37.7279 21.9864 37.6232 20.9104C37.5185 19.8345 37.0325 18.8373 36.2596 18.1124C35.4866 17.3876 34.4818 16.9868 33.4403 16.9879H32.3819C32.1036 15.8692 31.5621 14.8398 30.806 13.992C30.0499 13.1443 29.1028 12.5048 28.0499 12.1309C26.997 11.757 25.8711 11.6605 24.7734 11.85C23.6756 12.0395 22.6404 12.5091 21.7606 13.2166C20.8809 13.9241 20.1841 14.8474 19.7328 15.9035C19.2816 16.9597 19.09 18.1157 19.1754 19.2677C19.2607 20.4197 19.6202 21.5317 20.2216 22.5038C20.8231 23.4759 21.6476 24.2777 22.6212 24.8373" stroke="white" stroke-linecap="round" stroke-linejoin="round"/>
<path d="M29.1703 19.8444L26.0888 25.0444H30.711L27.6295 30.2444" stroke="white" stroke-linecap="round" stroke-linejoin="round"/>
</g>
</svg>