<svg width="320" height="124" viewBox="0 0 320 124" xmlns="http://www.w3.org/2000/svg">
 <!-- Created with SVG Editor - http://github.com/mzalive/SVG Editor/ -->

 <g>
  <title>background</title>
  <rect fill="none" id="canvas_background" height="126" width="322" y="-1" x="-1"/>
  <g display="none" overflow="visible" y="0" x="0" height="100%" width="100%" id="canvasGrid">
   <rect fill="url(#gridpattern)" stroke-width="0" y="0" x="0" height="100%" width="100%"/>
  </g>
 </g>
 <g>
  <title>Layer 1</title>
  <metadata transform="matrix(0.0034699462539516395,0,0,0.0034699462539516395,0,0) ">Created by potrace 1.15, written by Peter Selinger 2001-2017</metadata>
  <metadata transform="matrix(0.0034699462539516395,0,0,0.0034699462539516395,0,0) ">Created by potrace 1.15, written by Peter Selinger 2001-2017</metadata>
  <metadata transform="matrix(0.0030825628457797905,0,0,0.0030825628457797905,0,0) ">Created by potrace 1.15, written by Peter Selinger 2001-2017</metadata>
  <g stroke="null" id="svg_24">
   <g id="svg_22" fill="#000000" transform="matrix(0.0244669137146399,0,0,-0.0244669137146399,-12537.980232065345,-6269.347935061986) ">
    <path stroke="null" id="svg_23" d="m515495.745735,-256439.913322c-201,-13 -369,-28 -460,-40c-898,-123 -1532,-455 -1858,-975c-97,-154 -186,-377 -241,-604l-27,-110l-138,-5c-136,-5 -138,-5 -162,-33c-23,-27 -24,-32 -24,-207l0,-180l29,-32c29,-32 31,-33 129,-36l99,-4l7,-171c22,-583 197,-1075 522,-1467c92,-111 306,-316 414,-397c236,-177 456,-289 715,-364c1023,-298 2088,181 3105,1396c637,761 917,1470 803,2037c-5,26 -2,30 48,52c123,54 263,79 439,79c197,-1 393,-48 510,-123c73,-47 71,-43 59,-165c-29,-285 59,-652 243,-1020c313,-623 983,-1389 1598,-1825c586,-415 1204,-585 1800,-495c475,71 891,287 1255,650c195,194 322,370 435,600c156,319 234,641 247,1027l6,187l139,3l140,3l29,33l29,32l0,181l0,181l-29,29l-29,29l-171,0l-170,0l-10,38c-5,20 -17,66 -25,102c-25,113 -94,310 -146,417c-208,437 -566,739 -1121,946c-285,107 -614,174 -1074,218c-170,17 -779,17 -950,1c-327,-32 -561,-65 -762,-108l-113,-24l-1838,0c-1806,0 -1840,0 -1933,20c-209,45 -491,85 -769,110c-118,11 -651,21 -750,14zm4570,-402c-242,-166 -404,-344 -495,-542c-16,-36 -30,-67 -32,-69c-1,-2 -37,14 -80,36c-140,72 -272,107 -458,122c-216,17 -458,-19 -627,-93l-36,-16l-41,74c-91,166 -242,331 -400,437c-44,30 -80,57 -81,62c0,4 512,7 1138,6c1073,0 1136,-1 1112,-17z"/>
   </g>
  </g>
 </g>
</svg>