<svg width="320" height="164" viewBox="0 0 320 164" xmlns="http://www.w3.org/2000/svg">
 <!-- Created with SVG Editor - http://github.com/mzalive/SVG Editor/ -->

 <g>
  <title>background</title>
  <rect fill="none" id="canvas_background" height="166" width="322" y="-1" x="-1"/>
  <g display="none" overflow="visible" y="0" x="0" height="100%" width="100%" id="canvasGrid">
   <rect fill="url(#gridpattern)" stroke-width="0" y="0" x="0" height="100%" width="100%"/>
  </g>
 </g>
 <g>
  <title>Layer 1</title>
  <metadata transform="matrix(0.0034699462539516395,0,0,0.0034699462539516395,0,0) ">Created by potrace 1.15, written by Peter Selinger 2001-2017</metadata>
  <metadata transform="matrix(0.0034699462539516395,0,0,0.0034699462539516395,0,0) ">Created by potrace 1.15, written by Peter Selinger 2001-2017</metadata>
  <g stroke="null" transform="rotate(-179.95909118652344 160.0001220703125,82.42584228515625) " id="svg_18">
   <g id="svg_16" fill="#000000" transform="matrix(-0.024176821318493427,0,0,0.024176821318493427,20484.185947230268,5988.3125542543685) ">
    <path stroke="null" id="svg_17" d="m841387.566635,-241148.361099c-226,-50 -443,-172 -646,-364l-94,-89l-90,83c-138,126 -233,193 -375,263c-187,92 -261,110 -460,111c-137,0 -172,-3 -245,-23c-211,-58 -449,-205 -659,-407c-273,-264 -460,-597 -560,-1000c-70,-282 -100,-506 -155,-1165c-20,-229 -45,-488 -56,-575c-57,-446 -139,-759 -275,-1043c-236,-492 -631,-842 -1145,-1012c-424,-142 -849,-127 -1182,41c-281,142 -503,427 -589,757c-26,100 -36,301 -20,413c15,100 66,260 115,356c200,396 620,639 1071,620c207,-9 260,-27 585,-197c104,-54 240,-99 269,-88c26,9 -230,311 -367,435c-264,235 -517,343 -807,343c-438,0 -886,-272 -1178,-715c-257,-390 -338,-849 -228,-1281c75,-294 230,-591 448,-860c91,-112 288,-310 408,-409c488,-405 1124,-550 1874,-429c368,59 724,172 1086,343c471,224 939,581 1495,1140c373,375 750,816 956,1117c37,54 71,103 74,107c4,5 56,-64 115,-153c572,-858 1287,-1552 2093,-2031c349,-208 686,-348 1079,-448c787,-200 1459,-142 1971,170c209,128 535,456 743,749c306,429 448,896 398,1305c-42,344 -204,652 -498,946c-226,226 -428,349 -681,416c-137,36 -348,43 -480,15c-248,-51 -451,-173 -681,-409c-105,-107 -289,-327 -289,-345c0,-13 32,-9 116,12c51,13 151,56 279,120c219,108 263,126 363,140c212,31 468,-13 667,-113c112,-56 186,-108 277,-195c166,-159 273,-346 330,-581c27,-111 29,-338 4,-449c-34,-156 -114,-332 -213,-470c-277,-389 -803,-553 -1370,-426c-443,99 -819,327 -1086,659c-112,139 -168,227 -247,390c-193,393 -267,750 -340,1620c-57,684 -98,982 -176,1258c-138,493 -425,888 -841,1161c-119,78 -281,157 -373,181c-100,26 -304,29 -410,6z"/>
   </g>
  </g>
 </g>
</svg>