<svg width="580" height="174" viewBox="0 0 580 174" xmlns="http://www.w3.org/2000/svg">
 <!-- Created with SVG Editor - http://github.com/mzalive/SVG Editor/ -->

 <g>
  <title>background</title>
  <rect fill="none" id="canvas_background" height="176" width="582" y="-1" x="-1"/>
  <g display="none" overflow="visible" y="0" x="0" height="100%" width="100%" id="canvasGrid">
   <rect fill="url(#gridpattern)" stroke-width="0" y="0" x="0" height="100%" width="100%"/>
  </g>
 </g>
 <g>
  <title>Layer 1</title>
  <metadata transform="matrix(0.0034699462539516395,0,0,0.0034699462539516395,0,0) ">Created by potrace 1.15, written by Peter Selinger 2001-2017</metadata>
  <g stroke="null" id="svg_12">
   <g id="svg_10" fill="#000000" transform="matrix(0.044797517481892854,0,0,-0.044797517481892854,-37148.27361576217,-10858.441317725204) ">
    <path stroke="null" id="svg_11" d="m834378.469936,-242570.515625c-277,-32 -403,-60 -615,-136c-197,-71 -456,-222 -660,-384c-176,-140 -451,-430 -770,-809c-395,-470 -612,-682 -853,-831c-222,-138 -443,-221 -717,-271c-141,-25 -421,-23 -556,5c-258,52 -417,140 -480,264c-76,150 -70,337 15,461c61,89 186,167 267,167c85,0 149,-79 180,-222c10,-43 22,-78 27,-78c18,0 0,209 -24,285c-77,248 -256,300 -547,159c-157,-76 -253,-197 -304,-381c-28,-101 -30,-338 -4,-451c112,-501 487,-885 1077,-1105c617,-231 1395,-245 2479,-46c282,52 463,96 695,170c656,210 1291,540 1743,906c115,93 283,261 337,336c22,31 43,56 46,57c3,0 22,-24 43,-54c48,-70 247,-266 366,-361c527,-420 1357,-815 2065,-984c270,-64 747,-143 1055,-175c607,-63 1139,-36 1552,80c709,198 1168,616 1294,1176c26,113 24,350 -4,451c-51,184 -147,305 -304,381c-122,59 -203,80 -293,74c-79,-5 -116,-21 -164,-70c-70,-71 -109,-184 -118,-340c-7,-129 6,-142 31,-30c42,195 136,261 276,196c230,-107 308,-373 179,-615c-89,-167 -382,-272 -759,-273c-353,0 -675,94 -989,289c-221,137 -468,376 -821,795c-536,636 -788,875 -1131,1072c-524,302 -1174,381 -1664,201c-197,-73 -364,-183 -515,-340l-100,-103l-100,103c-282,293 -656,441 -1100,435c-58,0 -118,-3 -135,-4z"/>
   </g>
  </g>
 </g>
</svg>