<svg width="580" height="174" viewBox="0 0 580 174" fill="none" xmlns="http://www.w3.org/2000/svg">
 <!-- Created with SVG Editor - http://github.com/mzalive/SVG Editor/ -->

 <g>
  <title>background</title>
  <rect fill="none" id="canvas_background" height="176" width="582" y="-1" x="-1"/>
  <g display="none" overflow="visible" y="0" x="0" height="100%" width="100%" id="canvasGrid">
   <rect fill="url(#gridpattern)" stroke-width="0" y="0" x="0" height="100%" width="100%"/>
  </g>
 </g>
 <g>
  <title>Layer 1</title>
  <g stroke="null" id="svg_6">
   <g id="svg_4" fill="#000000" transform="matrix(0.04443205004544003,0,0,-0.04443205004544003,-11583.774248419757,-7765.7637058609325) ">
    <path stroke="null" id="svg_5" d="m266138.079912,-174866.560852c-92,-6 -135,-13 -154,-25c-21,-14 -27,-15 -34,-4c-6,11 -11,10 -26,-3c-10,-9 -45,-18 -78,-22c-111,-10 -180,-24 -210,-40c-16,-9 -36,-16 -44,-16c-8,0 -33,-8 -55,-18c-47,-21 -122,-52 -214,-89c-38,-15 -83,-44 -110,-69c-25,-24 -52,-44 -59,-44c-19,0 -93,-48 -93,-60c0,-6 -12,-15 -27,-21c-15,-5 -33,-19 -40,-29c-8,-11 -38,-31 -67,-44c-29,-14 -56,-31 -59,-40c-4,-9 -26,-25 -51,-36c-24,-12 -47,-28 -50,-35c-2,-7 -22,-22 -43,-31c-21,-10 -62,-38 -91,-61c-29,-24 -71,-52 -93,-63c-22,-12 -45,-32 -51,-46c-13,-28 -74,-64 -108,-64c-12,0 -35,-15 -53,-34c-18,-18 -48,-41 -67,-51c-73,-37 -90,-47 -97,-58c-12,-19 -62,-49 -72,-43c-5,3 -37,-6 -72,-20c-208,-83 -397,-117 -771,-139c-83,-5 -114,-3 -140,8c-18,8 -74,18 -124,21c-51,4 -130,18 -175,31c-46,14 -97,25 -114,25c-27,0 -104,26 -190,65c-90,41 -292,137 -305,146c-8,5 -28,17 -44,27c-16,9 -41,27 -57,40c-23,19 -32,21 -49,12c-23,-12 -40,-6 -40,16c0,10 -9,14 -27,12c-21,-2 -28,2 -31,17c-5,23 -31,55 -45,55c-6,0 -18,-6 -26,-14c-14,-13 -23,-11 -71,13c-30,14 -73,39 -94,54c-27,18 -47,25 -63,21c-14,-4 -34,1 -51,12c-41,27 -195,104 -208,104c-7,0 -15,-8 -19,-17c-6,-16 -8,-15 -16,5c-6,17 -16,22 -45,22c-24,0 -34,-4 -32,-12c3,-7 -2,-19 -10,-27c-12,-13 -11,-17 10,-32c12,-10 17,-19 11,-19c-16,0 -17,-42 -1,-58c7,-7 22,-12 35,-12c14,0 23,-6 23,-15c0,-8 7,-15 15,-15c28,0 89,-38 142,-88c56,-52 73,-88 28,-58c-31,20 -54,20 -84,0c-20,-14 -28,-15 -63,-3c-31,10 -46,10 -72,1c-18,-7 -46,-10 -62,-6c-16,3 -40,1 -53,-4c-23,-8 -98,11 -117,31c-4,4 -17,7 -29,7c-13,0 -39,7 -58,15c-26,11 -53,13 -97,8c-74,-7 -74,-24 1,-39c62,-13 108,-35 134,-64c10,-11 33,-23 52,-26c23,-4 37,-14 43,-29c5,-13 20,-25 37,-28c119,-24 185,-50 195,-76c5,-15 16,-21 36,-21c28,0 52,-15 52,-33c0,-5 -8,-6 -17,-2c-29,12 -166,44 -190,45c-14,0 -23,-6 -23,-15c0,-11 -7,-14 -25,-9c-36,9 -44,-20 -15,-52c13,-13 29,-24 36,-24c6,0 17,-7 24,-15c16,-19 96,-55 123,-55c11,0 36,-12 56,-27c52,-40 82,-54 102,-48c10,4 28,-4 46,-20l28,-27l-35,7c-94,16 -118,17 -125,5c-9,-15 20,-40 46,-40c18,0 162,-91 174,-110c3,-6 36,-25 73,-43c77,-38 122,-66 122,-77c0,-4 -9,-10 -21,-13c-14,-4 -20,-12 -17,-28c4,-31 33,-47 57,-32c16,10 22,8 41,-12c15,-16 18,-24 9,-27c-20,-7 0,-28 25,-28c21,0 56,-27 56,-43c0,-4 -11,-7 -24,-7c-14,0 -38,15 -62,40c-46,47 -58,49 -90,14c-17,-18 -30,-23 -45,-19c-25,8 -109,-25 -109,-44c0,-9 12,-12 45,-9c27,2 44,-1 42,-7c-4,-12 71,-87 112,-111c17,-10 31,-22 31,-26c0,-5 -10,-2 -22,6c-13,8 -42,22 -66,32c-35,14 -47,14 -66,5c-19,-11 -28,-9 -58,7c-37,21 -58,15 -58,-17c0,-17 49,-71 64,-71c27,0 125,-55 134,-75c6,-13 20,-26 31,-30c11,-3 21,-16 23,-28c2,-14 20,-30 53,-48c28,-14 59,-40 70,-57c11,-17 24,-31 28,-32c4,0 24,-7 45,-16l37,-16l-65,-20c-36,-11 -71,-21 -77,-23c-20,-7 -15,-23 8,-30c11,-4 52,-7 90,-8c63,-1 82,-8 61,-21c-4,-2 -46,-10 -92,-16c-118,-16 -130,-19 -130,-41c0,-13 10,-20 38,-24c20,-3 51,-10 69,-16c23,-7 38,-7 52,1c27,14 71,2 71,-19c0,-16 51,-32 150,-47c74,-11 80,-14 80,-38c0,-31 -16,-36 -106,-36c-42,0 -84,-5 -95,-10c-15,-9 -21,-7 -25,5c-8,19 -40,20 -48,0c-7,-20 20,-45 49,-45c13,0 27,-5 31,-11c4,-8 -3,-9 -24,-4c-35,7 -102,-13 -102,-30c0,-22 77,-45 113,-34c29,8 110,3 130,-8c4,-3 3,-11 -3,-18c-9,-11 -6,-15 17,-20c15,-4 48,-13 72,-21c25,-8 52,-14 62,-14c9,0 19,-7 23,-15c7,-20 34,-19 78,4c22,11 42,15 50,10c7,-5 35,-6 62,-2c34,4 47,3 42,-5c-3,-6 2,-16 11,-22c14,-8 1,-10 -55,-5c-61,5 -77,3 -92,-10c-12,-11 -20,-13 -25,-6c-3,6 -19,11 -36,11c-22,0 -29,-5 -29,-20c0,-24 35,-40 86,-40c23,0 34,-5 34,-15c0,-9 14,-16 38,-20c107,-18 110,-20 62,-49c-17,-9 -28,-22 -25,-27c9,-14 49,-11 71,6c30,22 87,19 102,-6c11,-17 20,-20 48,-16c18,3 36,1 39,-4c4,-5 17,-9 30,-9c13,0 27,-4 30,-10c3,-5 28,-10 55,-10c26,0 55,-3 64,-6c30,-12 5,-24 -50,-24c-40,0 -54,-4 -54,-14c0,-16 53,-26 130,-25c120,2 359,-7 366,-13c4,-4 1,-14 -6,-23c-7,-8 -9,-15 -5,-15c4,0 1,-7 -6,-16c-7,-9 -18,-26 -24,-37c-7,-16 -30,-26 -80,-39c-123,-30 -130,-33 -133,-58c-3,-15 3,-29 14,-37c20,-15 120,-18 128,-4c3,5 27,12 53,15c27,4 60,9 76,12c22,5 27,2 27,-14c0,-18 9,-21 76,-27c41,-4 97,-4 122,1c26,4 73,7 106,6c32,-1 65,3 72,9c19,16 78,3 111,-24c31,-26 76,-27 152,-6c39,11 45,10 57,-6c20,-28 101,-15 132,20c23,27 52,28 52,1c0,-26 32,-26 88,-1c30,14 57,23 60,20c7,-7 -19,-35 -32,-35c-20,0 -57,-46 -51,-62c4,-11 -9,-29 -39,-54c-45,-37 -60,-74 -31,-74c8,0 19,-9 25,-20c6,-11 16,-20 23,-20c7,0 41,32 76,71c63,70 127,119 156,119c8,0 15,4 15,8c0,5 23,19 50,32c28,13 55,29 61,36c5,6 19,10 30,7c12,-3 39,7 70,26c28,17 60,31 72,31c12,0 50,24 84,53c88,75 164,127 185,127c10,0 18,7 18,15c0,8 7,15 15,15c8,0 15,-4 15,-10c0,-15 28,-12 55,6c14,9 25,12 24,8c0,-10 -124,-117 -142,-123c-7,-2 -24,-15 -39,-30c-33,-31 -36,-75 -8,-111c18,-24 21,-24 47,-10c15,9 37,30 48,47c11,17 30,34 43,37c12,4 22,12 22,19c0,11 34,47 44,47c2,0 26,21 53,48c28,26 69,61 92,77c23,17 85,67 137,113c53,45 105,82 115,82c10,0 25,11 34,24c21,32 115,83 115,62c0,-18 -61,-69 -92,-76c-16,-4 -24,-14 -26,-33c-3,-22 2,-28 24,-33c23,-6 32,-2 56,27c15,18 28,30 28,25c0,-4 -29,-40 -65,-79c-66,-72 -79,-102 -49,-114c11,-4 26,4 43,24c16,18 33,28 44,26c19,-5 22,-18 7,-28c-12,-7 -40,-71 -40,-91c0,-24 16,-15 66,37c27,28 66,64 87,80c33,24 42,26 63,17c18,-9 28,-8 36,0c7,7 19,12 28,12c22,-1 -30,-39 -53,-40c-10,0 -26,-14 -35,-31c-9,-17 -29,-50 -44,-73c-16,-24 -23,-43 -16,-45c18,-6 89,22 98,40c6,10 17,15 27,13c18,-5 104,87 213,229c29,37 52,57 66,57c13,0 65,44 145,124c68,69 125,124 126,123c3,-3 -44,-106 -57,-127c-26,-39 -43,-80 -37,-86c12,-13 56,15 71,44c8,16 24,32 35,35c11,2 33,27 50,53c33,54 89,115 143,156c19,15 53,44 76,65c23,21 66,56 97,78c54,39 55,40 55,89c0,51 15,55 22,6c2,-14 10,-25 18,-25c12,0 16,18 21,78c4,43 9,81 13,84c3,4 6,1 6,-5c0,-7 9,-12 20,-12c11,0 20,-7 20,-15c0,-21 26,-19 36,3c6,11 10,-12 14,-68c4,-67 8,-85 21,-88c11,-2 19,7 25,30l8,33l4,-45c3,-44 32,-90 56,-90c6,0 52,-36 101,-80c50,-43 95,-79 100,-80c6,0 19,-13 28,-30c10,-16 26,-34 37,-40c10,-5 33,-35 50,-65c17,-30 36,-55 41,-55c6,0 29,-20 51,-45c48,-52 74,-60 63,-18c-3,15 -15,39 -26,54c-10,15 -19,30 -19,34c0,4 -11,29 -25,56c-13,27 -20,49 -16,49c5,0 30,-24 56,-52c109,-121 191,-198 210,-198c20,0 47,-26 90,-86c11,-15 54,-67 95,-116c54,-65 79,-88 92,-84c11,2 22,-3 28,-14c10,-20 70,-44 95,-38c11,2 9,12 -13,44c-15,23 -35,56 -44,73c-9,17 -25,31 -35,31c-23,1 -75,39 -52,40c8,0 20,-5 27,-12c8,-8 18,-9 36,0c30,13 67,-11 143,-92c29,-31 57,-56 63,-56c17,0 11,33 -15,79c-14,24 -24,45 -23,46c14,14 42,5 61,-19c16,-20 29,-27 40,-23c31,12 18,42 -48,114c-36,39 -65,75 -65,79c0,5 13,-7 28,-25c24,-29 33,-33 56,-27c22,5 27,11 24,33c-2,19 -10,29 -26,33c-31,7 -92,58 -92,76c0,13 10,10 48,-11c26,-15 55,-38 65,-51c10,-13 26,-24 35,-24c10,0 60,-37 113,-83c52,-45 117,-98 144,-117c27,-19 84,-70 127,-112c43,-43 81,-78 84,-78c4,0 24,-20 46,-45c22,-25 48,-45 58,-45c22,0 50,41 50,73c0,24 -54,82 -97,105c-21,12 -113,99 -113,107c0,4 10,-1 22,-9c25,-18 58,-21 58,-6c0,18 22,10 27,-10c3,-12 14,-20 25,-20c23,0 130,-73 194,-132c25,-23 51,-38 66,-38c14,0 36,-8 49,-19c35,-27 71,-44 94,-45c27,-2 145,-64 145,-76c0,-6 7,-10 15,-10c28,0 89,-47 156,-119c37,-39 71,-71 77,-71c6,0 13,9 17,19c3,10 15,21 25,24c32,8 23,32 -25,71c-30,25 -45,45 -45,61c0,22 -19,43 -66,71c-36,22 -5,26 36,5c54,-28 100,-28 100,-1c0,28 27,25 53,-6c29,-34 99,-44 127,-19c17,15 25,16 62,6c74,-21 120,-19 144,5c24,25 98,41 117,25c7,-6 40,-10 73,-9c32,0 82,-3 111,-7c77,-11 184,2 190,24c4,15 12,16 65,9c33,-4 80,-15 105,-23c55,-19 67,-19 103,0c42,22 42,63 0,72c-17,3 -33,10 -36,14c-3,5 -14,9 -26,9c-11,0 -44,7 -74,16c-41,12 -54,20 -54,34c0,11 -8,23 -17,29c-10,5 -15,13 -11,17c5,4 3,13 -4,21c-6,7 -8,17 -4,21c8,7 240,14 402,12c54,-1 84,3 89,10c11,18 -14,30 -62,30c-66,0 -59,17 10,25c34,4 69,11 78,16c9,5 43,12 75,15c40,5 63,13 72,26c16,22 74,24 92,3c13,-15 80,-21 80,-7c0,4 -14,15 -31,24c-17,10 -28,22 -24,27c3,6 32,13 64,17c46,5 60,11 64,25c4,15 14,19 49,19c45,0 68,13 68,38c0,11 -10,13 -42,9c-30,-4 -45,-2 -52,9c-9,12 -21,12 -70,3c-42,-7 -62,-7 -69,0c-8,8 -8,11 1,11c7,0 12,6 12,14c0,11 14,14 63,12c35,-2 73,-8 84,-15c31,-16 80,-14 87,4c3,8 14,15 25,15c20,0 143,29 150,36c2,2 -2,10 -8,18c-11,12 -7,16 24,22c20,3 62,4 92,0c58,-7 123,9 123,29c0,20 -69,46 -90,35c-24,-13 -43,-13 -35,0c3,5 14,10 24,10c11,0 29,9 42,19c22,18 23,21 8,36c-15,15 -17,15 -32,0c-14,-13 -23,-14 -59,-4c-25,6 -67,8 -100,5c-60,-7 -70,-2 -76,42c-2,20 1,22 43,22c25,0 62,7 82,15c19,8 51,15 69,15c23,0 34,5 34,14c0,22 19,29 85,32c125,5 184,28 137,53c-10,5 -59,15 -108,22c-90,11 -123,24 -105,42c5,5 16,5 29,-2c13,-7 38,-7 78,-1c33,6 60,10 62,10c1,0 2,6 2,13c0,8 -21,19 -47,26c-27,6 -61,16 -78,20l-30,8l35,15c19,8 43,18 53,21c9,4 17,13 17,20c0,17 52,58 98,76c17,8 32,20 32,28c0,34 142,143 185,143c14,0 75,62 75,77c0,6 -6,16 -14,22c-12,10 -23,7 -55,-14c-23,-14 -41,-21 -41,-16c0,28 -80,14 -148,-25c-25,-14 -25,-14 3,8c67,53 126,112 121,123c-3,9 8,11 39,8c25,-3 45,-1 49,5c10,16 -78,54 -108,46c-17,-4 -28,1 -44,20c-28,36 -48,33 -93,-14c-25,-26 -48,-40 -64,-40c-23,0 -24,2 -15,20c6,11 25,23 43,28c24,6 32,14 32,31c0,29 33,55 51,40c18,-15 52,-2 59,21c8,24 -1,40 -21,40c-42,0 3,39 100,85c32,16 77,44 99,62c22,19 57,43 76,54c20,10 43,23 51,29c8,5 28,11 43,15c20,4 27,11 25,23c-4,19 -23,20 -100,9c-27,-4 -48,-3 -48,1c0,13 58,42 73,36c8,-3 43,13 77,35c35,23 71,41 80,41c25,0 105,37 120,55c7,8 18,15 24,15c15,0 56,42 56,57c0,14 -28,25 -42,17c-5,-3 -15,2 -22,12c-12,16 -18,16 -77,4c-35,-7 -82,-19 -103,-27c-22,-7 -41,-11 -44,-8c-11,10 22,35 47,35c17,0 30,7 36,21c11,23 40,35 156,65c50,13 73,24 77,36c2,10 20,22 41,28c21,5 48,21 61,35c13,14 31,25 40,25c9,0 21,5 27,11c7,7 35,15 64,20c58,9 67,15 52,30c-12,12 -125,7 -188,-9c-22,-5 -62,-19 -89,-31c-37,-16 -56,-20 -75,-13c-14,5 -41,7 -59,4c-19,-2 -44,1 -57,8c-19,10 -33,10 -69,0c-38,-10 -48,-10 -67,4c-30,20 -53,20 -85,0c-47,-32 -36,-5 22,51c59,56 119,95 149,95c8,0 15,6 15,14c0,8 12,16 26,18c37,4 53,31 36,59c-12,18 -11,21 7,26c24,6 26,16 8,35c-8,7 -12,19 -9,26c2,8 -8,12 -31,12c-27,0 -37,-5 -42,-21c-6,-19 -8,-20 -26,-3c-18,16 -23,14 -111,-31c-51,-26 -101,-54 -110,-62c-11,-10 -28,-14 -47,-10c-22,5 -39,-1 -68,-21c-21,-15 -62,-38 -90,-51c-47,-22 -56,-23 -78,-11c-22,12 -27,11 -45,-5c-11,-10 -20,-23 -20,-29c0,-6 -4,-17 -9,-25c-8,-12 -12,-13 -26,-1c-14,11 -17,10 -22,-9c-5,-20 -10,-22 -40,-16c-29,5 -39,2 -60,-19c-14,-14 -31,-26 -38,-26c-6,0 -20,-9 -30,-20c-10,-11 -27,-22 -38,-26c-11,-4 -85,-37 -165,-75c-79,-38 -148,-69 -153,-69c-4,0 -33,-11 -63,-25c-31,-14 -77,-28 -103,-31c-26,-3 -77,-14 -113,-24c-78,-22 -171,-35 -222,-31c-20,1 -51,-5 -69,-14c-29,-15 -54,-17 -198,-11c-149,6 -221,14 -401,47c-84,16 -237,60 -314,91c-37,15 -74,28 -82,28c-23,0 -63,23 -69,39c-3,9 -31,27 -62,41c-30,14 -73,42 -95,63c-22,20 -47,37 -56,37c-31,1 -94,37 -106,61c-6,13 -40,42 -74,65c-34,22 -72,50 -84,61c-13,11 -39,29 -58,39c-19,10 -53,34 -74,52c-22,17 -45,32 -51,32c-6,0 -22,11 -35,25c-13,14 -43,35 -67,47c-23,12 -53,32 -65,45c-12,13 -27,23 -34,23c-7,0 -22,11 -32,25c-11,14 -44,38 -74,53c-29,15 -67,41 -84,57c-17,17 -42,35 -55,41c-107,52 -184,84 -198,84c-9,0 -25,6 -36,14c-11,8 -44,21 -74,30c-29,9 -60,21 -67,27c-14,11 -90,25 -199,35c-37,4 -65,12 -72,21c-10,13 -15,14 -27,4c-12,-10 -20,-9 -39,3c-17,12 -68,19 -178,26c-162,10 -228,7 -294,-15c-22,-8 -70,-16 -107,-19c-37,-3 -102,-17 -145,-31c-86,-28 -85,-28 -193,-78c-41,-19 -92,-42 -113,-51c-21,-8 -59,-32 -85,-51c-26,-20 -65,-47 -86,-61l-39,-26l-26,21c-14,12 -39,28 -56,37c-16,10 -48,32 -71,50c-22,19 -66,45 -96,58c-31,14 -94,43 -140,64c-118,56 -200,82 -292,94c-45,5 -99,16 -121,23c-56,19 -169,24 -318,15zm941,-2367c-2,-10 -11,-19 -21,-21c-16,-3 -17,-1 -5,17c16,25 31,27 26,4zm348,-51c-10,-10 -39,25 -31,38c5,8 12,5 22,-10c8,-12 12,-24 9,-28zm59,-70c-3,-3 -11,0 -18,7c-9,10 -8,11 6,5c10,-3 15,-9 12,-12zm-1039,-267c-11,-8 -22,-12 -25,-9c-6,6 19,24 34,24c6,-1 1,-7 -9,-15zm1599,-25c3,-5 -1,-10 -9,-10c-8,0 -18,5 -21,10c-3,6 1,10 9,10c8,0 18,-4 21,-10zm-2050,-270c-3,-5 -11,-10 -16,-10c-6,0 -7,5 -4,10c3,6 11,10 16,10c6,0 7,-4 4,-10zm2500,-31c11,-17 -1,-21 -15,-4c-8,9 -8,15 -2,15c6,0 14,-5 17,-11zm-3575,-208c0,-5 -7,-12 -16,-15c-14,-5 -15,-4 -4,9c14,17 20,19 20,6zm4651,-48c13,-16 12,-17 -3,-4c-10,7 -18,15 -18,17c0,8 8,3 21,-13zm-4749,-28c-34,-28 -42,-31 -42,-12c0,8 10,19 23,25c40,19 49,13 19,-13zm4838,-20c17,-9 30,-22 30,-30c0,-12 -8,-10 -35,7c-19,13 -35,26 -35,31c0,10 7,9 40,-8z"/>
   </g>
  </g>
 </g>
</svg>