<svg width="709" height="360" viewBox="0 0 709 360" fill="none" xmlns="http://www.w3.org/2000/svg">
    <defs>
      <linearGradient id="Gradient2" x1="0" x2="0" y1="0" y2="1">
        <stop offset="0%" stop-color="red"/>
        <stop offset="100%" stop-color="orange"/>
      </linearGradient>
  </defs>
  <g transform="rotate(-90 180,180) " id="svg_5">
    <path d="M21.1289 687.375C27.2699 689.783 33.7669 691.317 40.1049 693.143C45.4439 694.676 50.7749 696.259 55.9839 698.156C61.4509 700.136 66.8429 702.305 72.2649 704.385C75.7099 705.706 79.1399 707.016 82.7829 707.617C87.6219 708.428 90.9909 708.758 95.8299 707.633C98.6089 706.982 101.464 705.805 103.971 704.544C108.34 702.34 112.24 699.178 115.723 695.755C118.941 692.59 121.577 688.631 124.287 685.068C126.066 682.724 127.732 680.245 129.285 677.742C131.11 674.808 132.95 671.878 134.783 668.943C137.464 664.654 139.977 660.222 142.438 655.8C151.593 639.338 160.097 622.576 167.995 605.479C176.491 587.1 185.116 568.756 193.045 550.125C192.817 550.645 192.606 551.163 192.386 551.682C192.681 550.989 192.977 550.289 193.272 549.589C193.734 548.502 194.189 547.419 194.643 546.333C194.589 546.473 194.529 546.609 194.468 546.753C194.877 545.795 195.279 544.83 195.68 543.872C195.763 543.667 195.855 543.458 195.938 543.261C195.87 543.42 195.801 543.584 195.733 543.75C195.824 543.523 195.916 543.303 196.013 543.083C196.043 543.019 196.066 542.959 196.097 542.898C196.126 542.826 196.158 542.757 196.18 542.685C196.195 542.659 196.21 542.629 196.225 542.599C196.218 542.607 196.21 542.618 196.21 542.625C196.535 541.845 196.868 541.064 197.194 540.284C197.194 540.284 197.194 540.284 197.202 540.284C197.505 539.557 197.807 538.831 198.11 538.104C198.155 537.998 198.201 537.891 198.247 537.781C198.194 537.91 198.141 538.039 198.088 538.164C198.034 538.293 197.982 538.419 197.929 538.544C197.967 538.445 198.012 538.346 198.05 538.243C198.095 538.144 198.133 538.043 198.171 537.94C198.201 537.898 198.217 537.857 198.232 537.808C198.262 537.744 198.293 537.668 198.323 537.604C198.301 537.653 198.278 537.71 198.256 537.763C198.263 537.744 198.278 537.724 198.278 537.709C198.285 537.701 198.285 537.693 198.293 537.686C198.293 537.686 198.293 537.686 198.293 537.683C198.293 537.683 198.301 537.672 198.301 537.664C198.309 537.649 198.317 537.633 198.323 537.618C198.331 537.591 198.345 537.565 198.353 537.539C198.345 537.559 198.338 537.572 198.331 537.591C198.339 537.576 198.346 537.558 198.346 537.542C198.354 537.52 198.369 537.494 198.377 537.471C198.399 537.418 198.422 537.361 198.452 537.308C198.414 537.383 198.384 537.46 198.353 537.539C198.383 537.46 198.421 537.379 198.452 537.3C198.474 537.254 198.49 537.21 198.513 537.164C198.521 537.142 198.528 537.118 198.543 537.092C198.535 537.103 198.527 537.114 198.527 537.126C198.535 537.106 198.535 537.092 198.543 537.076C198.543 537.08 198.543 537.089 198.543 537.089C198.543 537.077 198.551 537.062 198.559 537.042C198.566 537.038 198.566 537.031 198.574 537.023V537.019C198.574 537.007 198.582 536.998 198.582 536.99C198.582 536.982 198.589 536.978 198.589 536.971C198.589 536.974 198.589 536.977 198.589 536.977C198.597 536.966 198.605 536.947 198.612 536.928C198.612 536.928 198.62 536.916 198.62 536.909V536.906C198.688 536.755 198.749 536.602 198.816 536.451C198.816 536.451 198.809 536.458 198.809 536.462C198.816 536.451 198.816 536.44 198.824 536.428C198.832 536.406 198.839 536.384 198.854 536.365C198.846 536.373 198.838 536.38 198.838 536.391C198.876 536.299 198.906 536.217 198.952 536.13C198.997 536.021 199.043 535.906 199.088 535.797C199.164 535.622 199.24 535.447 199.308 535.277C199.308 535.284 199.301 535.292 199.301 535.303C199.301 535.295 199.301 535.292 199.301 535.292C199.301 535.3 199.293 535.31 199.285 535.321C199.285 535.329 199.285 535.338 199.277 535.344C199.262 535.378 199.247 535.411 199.232 535.446L199.24 535.435C199.24 535.443 199.232 535.451 199.232 535.458C199.224 535.477 199.209 535.494 199.202 535.51C199.217 535.488 199.232 535.457 199.24 535.427C199.269 535.359 199.301 535.287 199.33 535.216C199.384 535.075 199.444 534.942 199.505 534.802V534.81C199.505 534.81 199.505 534.798 199.512 534.79C199.497 534.816 199.49 534.844 199.483 534.87C199.49 534.848 199.498 534.833 199.505 534.81C199.475 534.867 199.451 534.927 199.429 534.984C199.445 534.954 199.459 534.922 199.475 534.888C199.445 534.964 199.407 535.036 199.376 535.117C199.414 535.041 199.444 534.958 199.475 534.878C199.497 534.833 199.512 534.783 199.536 534.737C199.536 534.733 199.544 534.727 199.544 534.719C199.642 534.484 199.74 534.253 199.839 534.018C199.869 533.951 199.892 533.881 199.922 533.813C199.915 533.835 199.907 533.86 199.892 533.878C199.862 533.946 199.839 534.015 199.809 534.078C199.801 534.101 199.787 534.123 199.779 534.149C209.381 511.466 217.301 488.167 223.843 464.427C226.721 453.992 229.257 443.459 231.257 432.809C232.294 427.323 233.438 421.84 234.285 416.32C235.277 409.952 236.247 403.588 237.238 397.219C239.382 383.467 240.866 369.576 242.493 355.745C243.819 344.485 244.909 333.202 246.022 321.919C248.241 299.475 250.058 277.005 251.239 254.489C251.884 242.025 252.156 229.538 252.405 217.067C252.511 211.607 252.58 206.163 252.626 200.711C258.244 205.19 264.128 209.37 270.095 213.323C274.252 216.075 278.523 218.987 283.529 219.854C285.603 220.505 287.686 220.679 289.783 220.357C291.396 220.141 293.01 219.929 294.622 219.713C296.56 219.005 298.454 218.172 300.287 217.214C302.369 216.177 304.762 213.765 306.504 212.016C306.988 211.531 307.442 211.013 307.912 210.509C311.069 207.116 314.016 203.489 317.036 199.976C323.511 192.411 329.652 184.608 335.724 176.74C338.943 172.632 342.214 168.573 345.5 164.507C348.657 160.596 351.891 156.681 354.594 152.441C355.889 150.419 356.889 147.773 357.714 145.66C358.577 143.441 359.281 140.431 359.281 138.087C359.281 137.94 359.273 137.78 359.273 137.64C359.16 134.937 358.918 132.264 358.085 129.682C356.745 125.483 354.526 122.243 351.641 118.941C344.827 111.142 336.103 105.375 328.432 98.4805C324.169 94.6415 319.974 90.7345 315.65 86.9635C310.145 82.1545 304.36 77.7175 298.347 73.5525C293.925 70.4925 289.276 67.7215 284.778 64.7835C280.439 61.9635 276.153 59.0365 271.89 56.1055C256.957 45.8785 241.668 36.3345 225.949 27.3875C218.475 23.1395 210.956 18.9895 203.512 14.6845C195.341 9.9665 186.95 5.77551 178.409 1.75051C175.153 0.213505 172.018 -0.543494 168.436 0.444506C167.966 0.576506 167.504 0.736505 167.058 0.917505C161.636 1.12951 156.335 3.92751 153.602 8.91051C147.022 20.8675 140.297 32.7295 133.421 44.5265C127.962 53.8935 122.116 63.0595 116.285 72.2075C110.159 81.8095 103.95 91.3615 97.4829 100.737C90.9629 110.198 84.1859 119.486 77.3859 128.751C70.4339 138.212 63.5359 147.705 56.9939 157.461C53.9729 161.966 51.0499 166.57 48.4139 171.311C45.1129 177.282 41.8329 183.48 40.0389 190.094C38.3429 196.33 38.9629 203.061 42.0529 208.743C44.5819 213.362 48.0959 216.199 52.3359 219.145C55.0319 221.023 58.0149 222.56 60.8779 224.166C65.6329 226.839 70.3279 229.587 75.0759 232.261C79.6719 234.851 84.2009 237.553 88.7139 240.275C90.6829 241.456 92.6439 242.627 94.6509 243.74C95.7569 244.349 96.9229 244.86 98.0739 245.382C100.421 246.454 102.549 247.426 105.04 247.896C108.75 248.596 111.499 248.449 115.202 247.624C119.284 246.707 123.039 243.971 126.205 241.381C128.545 239.477 130.574 237.272 132.58 235.038C134.693 232.702 136.707 230.303 138.706 227.872C142.47 223.268 146.104 218.55 149.777 213.874C150.731 212.678 151.67 211.481 152.617 210.285C153.124 217.557 153.291 224.843 153.003 232.184C152.45 246.14 150.807 260.094 148.997 273.944C147.332 285.98 145.499 298.096 142.78 309.923C141.053 317.397 139.327 324.867 137.608 332.349C135.102 343.238 131.482 353.847 128.211 364.527C126.568 369.854 124.425 375.068 122.524 380.316C120.926 384.754 119.351 389.198 117.67 393.605C113.149 405.391 108.621 417.17 104.055 428.93C94.1579 454.362 84.0269 479.675 73.6669 504.907C69.1459 515.334 64.6099 525.742 59.9159 536.094C55.1979 546.513 50.1399 556.774 45.0659 567.027C35.1989 586.946 24.6279 606.513 14.3299 626.216C11.8239 631.017 9.33987 635.852 7.02287 640.751C6.25787 642.375 5.48586 643.999 4.72786 645.631C3.57786 648.114 2.55486 650.67 1.54786 653.222C0.562863 655.672 0.327862 658.395 0.0778618 660.966C-0.535138 667.451 2.54686 673.611 6.66586 678.355C10.5799 682.855 15.7069 685.247 21.1289 687.375ZM110.528 214.35L110.52 214.346L110.717 214.115C110.656 214.195 110.588 214.27 110.528 214.35ZM45.2089 651.91C45.2919 651.932 45.3829 651.957 45.4739 651.979C45.3829 651.957 45.2919 651.936 45.2019 651.914L45.2089 651.91Z" fill="url(#Gradient2)"/>
  </g>
</svg>
