<svg width="512" height="512" viewBox="0 0 512 512" fill="none" xmlns="http://www.w3.org/2000/svg">
<path fill-rule="evenodd" clip-rule="evenodd" d="M0 40C0 17.9086 17.9086 0 40 0H472C494.091 0 512 17.9086 512 40V472C512 494.091 494.091 512 472 512H40C17.9086 512 0 494.091 0 472V40ZM480.839 290.011C413.272 383.879 374.732 354.018 338.07 325.612C321.027 312.407 304.389 299.516 285.43 299.516C262.075 299.516 255.942 318.28 255.942 326.505C255.942 318.335 249.809 299.516 226.455 299.516C207.486 299.516 190.844 312.408 173.799 325.613C137.135 354.017 98.6027 383.868 31.0184 289.984C29.1292 440.861 173.393 476.537 255.942 382.171C338.492 476.537 482.756 440.888 480.839 290.011ZM435.444 249.759C445.93 245.211 458.196 239.356 469.285 233.419C470.223 232.852 470.942 231.988 471.325 230.965C471.707 229.941 471.731 228.82 471.393 227.781C470.079 223.315 467.588 215.635 464.001 206.974C463.751 206.351 463.373 205.787 462.891 205.317C462.41 204.848 461.835 204.484 461.203 204.248C460.572 204.012 459.898 203.91 459.225 203.948C458.551 203.986 457.893 204.163 457.293 204.469C446.56 209.916 437.963 213.783 429.913 217.16V151.798C429.912 150.652 429.505 149.543 428.763 148.666C407.655 123.422 381.22 103.109 351.334 89.168C321.448 75.227 288.843 68 255.833 68C222.824 68 190.219 75.227 160.332 89.168C130.446 103.109 104.011 123.422 82.9031 148.666C82.1617 149.543 81.7545 150.652 81.7532 151.798V217.16C73.7583 213.783 65.1611 209.916 54.3735 204.469C53.7703 204.167 53.1109 203.993 52.4367 203.957C51.7625 203.92 51.0881 204.023 50.4557 204.258C49.8233 204.494 49.2466 204.856 48.7617 205.324C48.2769 205.791 47.8943 206.353 47.6381 206.974C44.0788 215.635 41.5598 223.397 40.2456 227.781C39.9237 228.847 39.9823 229.99 40.4114 231.018C40.8406 232.045 41.614 232.894 42.6003 233.419C53.7164 239.41 65.9825 245.265 76.4689 249.759C79.9301 251.23 83.6571 251.98 87.4208 251.965H424.492C428.255 251.977 431.982 251.227 435.444 249.759Z" fill="white"/>
</svg>
