<svg width="48" height="48" viewBox="0 0 48 48" fill="none" xmlns="http://www.w3.org/2000/svg">
<path d="M48 24C47.9996 28.4422 46.7665 32.7971 44.438 36.58C42.1094 40.3629 38.7767 43.4253 34.8108 45.4265C30.8449 47.4276 26.4015 48.289 21.9752 47.9146C17.5488 47.5402 13.3132 45.9448 9.73979 43.306C11.9708 40.9916 14.2471 38.8332 15.6836 37.2606H36.934C40.5798 37.2606 43.5326 33.3737 43.5326 29.7298V17.396C43.5326 16.5296 43.3619 15.6716 43.0303 14.8712C42.6987 14.0707 42.2126 13.3434 41.5998 12.7308C40.9871 12.1182 40.2596 11.6323 39.4591 11.3009C38.6585 10.9695 37.8005 10.7991 36.934 10.7993H11.0639C10.1974 10.7993 9.33944 10.97 8.53897 11.3016C7.73849 11.6332 7.01119 12.1193 6.3986 12.7321C5.786 13.3448 5.30013 14.0723 4.96871 14.8728C4.6373 15.6734 4.46685 16.5314 4.46709 17.3978V37.9499C1.90517 34.361 0.381323 30.1358 0.0627409 25.7379C-0.255841 21.34 0.643155 16.9393 2.66109 13.0187C4.67902 9.09809 7.73791 5.80908 11.5021 3.51255C15.2663 1.21602 19.5904 0.000721927 23.9999 0L24.4207 0C30.7126 0.108465 36.7102 2.68457 41.1207 7.17317C45.5313 11.6618 48.0019 17.7035 48 23.9964V24Z" fill="white"/>
<path fill-rule="evenodd" clip-rule="evenodd" d="M13.9895 35.1875H35.4141C36.1792 35.1875 36.9369 35.0367 37.6437 34.7438C38.3506 34.4509 38.9928 34.0216 39.5336 33.4804C40.0745 32.9392 40.5034 32.2967 40.7959 31.5897C41.0884 30.8826 41.2387 30.1249 41.2382 29.3598V18.6385C41.2377 17.0942 40.6239 15.6132 39.5317 14.5214C38.4395 13.4296 36.9584 12.8162 35.4141 12.8162H12.5875C11.0431 12.8162 9.56202 13.4296 8.46985 14.5214C7.37767 15.6132 6.76385 17.0942 6.76337 18.6385V43.0829L13.9895 35.1875ZM30.7362 23.3707C30.8404 23.4352 30.9265 23.525 30.9865 23.6318C31.0354 23.7183 31.0665 23.8138 31.0779 23.9125C31.0893 24.0112 31.0807 24.1111 31.0528 24.2065C31.025 24.3019 30.9782 24.3907 30.9154 24.4677C30.8526 24.5447 30.7751 24.6083 30.6873 24.6548L19.3293 30.4009C19.2382 30.448 19.1376 30.4737 19.0351 30.4759C18.9326 30.4781 18.831 30.4568 18.738 30.4136C18.575 30.3382 18.4457 30.2051 18.3752 30.04C18.3362 29.9469 18.3165 29.847 18.3172 29.7461V18.2485C18.3135 18.1275 18.3411 18.0077 18.3972 17.9004C18.4534 17.7932 18.5363 17.7023 18.6379 17.6365C18.7394 17.5707 18.8563 17.5322 18.9771 17.5247C19.0979 17.5172 19.2186 17.541 19.3275 17.5937L30.6855 23.3435L30.7362 23.3707Z" fill="white"/>
</svg>
