<svg width="52" height="52" viewBox="0 0 52 52" fill="none" xmlns="http://www.w3.org/2000/svg">
<rect width="52" height="52" rx="26" fill="#2A2A2A"/>
<path d="M50 26C49.9996 30.4422 48.7665 34.7971 46.438 38.58C44.1094 42.3629 40.7767 45.4253 36.8108 47.4265C32.8449 49.4276 28.4015 50.289 23.9752 49.9146C19.5488 49.5402 15.3132 47.9448 11.7398 45.306C13.9708 42.9916 16.2471 40.8332 17.6836 39.2606H38.934C42.5798 39.2606 45.5326 35.3737 45.5326 31.7298V19.396C45.5326 18.5296 45.3619 17.6716 45.0303 16.8712C44.6987 16.0707 44.2126 15.3434 43.5998 14.7308C42.9871 14.1182 42.2596 13.6323 41.4591 13.3009C40.6585 12.9695 39.8005 12.7991 38.934 12.7993H13.0639C12.1974 12.7993 11.3394 12.97 10.539 13.3016C9.73849 13.6332 9.01119 14.1193 8.3986 14.7321C7.786 15.3448 7.30013 16.0723 6.96871 16.8728C6.6373 17.6734 6.46685 18.5314 6.46709 19.3978V39.9499C3.90517 36.361 2.38132 32.1358 2.06274 27.7379C1.74416 23.34 2.64316 18.9393 4.66109 15.0187C6.67902 11.0981 9.73791 7.80908 13.5021 5.51255C17.2663 3.21602 21.5904 2.00072 25.9999 2L26.4207 2C32.7126 2.10847 38.7102 4.68457 43.1207 9.17317C47.5313 13.6618 50.0019 19.7035 50 25.9964V26Z" fill="white"/>
<path fill-rule="evenodd" clip-rule="evenodd" d="M15.9895 37.1875H37.4141C38.1792 37.1875 38.9369 37.0367 39.6437 36.7438C40.3506 36.4509 40.9928 36.0216 41.5336 35.4804C42.0745 34.9392 42.5034 34.2967 42.7959 33.5897C43.0884 32.8826 43.2387 32.1249 43.2382 31.3598V20.6385C43.2377 19.0942 42.6239 17.6132 41.5317 16.5214C40.4395 15.4296 38.9584 14.8162 37.4141 14.8162H14.5875C13.0431 14.8162 11.562 15.4296 10.4698 16.5214C9.37767 17.6132 8.76385 19.0942 8.76337 20.6385V45.0829L15.9895 37.1875ZM32.7362 25.3707C32.8404 25.4352 32.9265 25.525 32.9865 25.6318C33.0354 25.7183 33.0665 25.8138 33.0779 25.9125C33.0893 26.0112 33.0807 26.1111 33.0528 26.2065C33.025 26.3019 32.9782 26.3907 32.9154 26.4677C32.8526 26.5447 32.7751 26.6083 32.6873 26.6548L21.3293 32.4009C21.2382 32.448 21.1376 32.4737 21.0351 32.4759C20.9326 32.4781 20.831 32.4568 20.738 32.4136C20.575 32.3382 20.4457 32.2051 20.3752 32.04C20.3362 31.9469 20.3165 31.847 20.3172 31.7461V20.2485C20.3135 20.1275 20.3411 20.0077 20.3972 19.9004C20.4534 19.7932 20.5363 19.7023 20.6379 19.6365C20.7394 19.5707 20.8563 19.5322 20.9771 19.5247C21.0979 19.5172 21.2186 19.541 21.3275 19.5937L32.6855 25.3435L32.7362 25.3707Z" fill="white"/>
</svg>
