<svg width="16" height="16" viewBox="29 55 16 16" fill="none" xmlns="http://www.w3.org/2000/svg">
<g>
<path d="M33.4645 57.5363C35.4171 55.5836 38.5829 55.5836 40.5355 57.5363L42.464 59.4647C44.4166 61.4173 44.4166 64.5832 42.464 66.5358L40.5355 68.4642C38.5829 70.4169 35.4171 70.4169 33.4645 68.4642L31.536 66.5358C29.5834 64.5832 29.5834 61.4173 31.536 59.4647L33.4645 57.5363Z" fill="#D9304F"/>
<path d="M34.1716 58.2434C35.7337 56.6813 38.2663 56.6813 39.8284 58.2434L41.7569 60.1718C43.319 61.7339 43.319 64.2666 41.7569 65.8287L39.8284 67.7571C38.2663 69.3192 35.7337 69.3192 34.1716 67.7571L32.2431 65.8287C30.681 64.2666 30.681 61.7339 32.2431 60.1718L34.1716 58.2434Z" stroke="#D9304F" stroke-width="2"/>
</g>
</svg>
