<svg width="20" height="20" viewBox="0 0 20 20" fill="none" xmlns="http://www.w3.org/2000/svg">
<rect width="20" height="20" rx="10" fill="#D9304F"/>
<path d="M10.8333 14.1667H6.66668C6.44337 14.1744 6.22687 14.0891 6.06888 13.9311C5.91089 13.7731 5.82558 13.5566 5.83334 13.3333V9.16668C5.82558 8.94337 5.91089 8.72687 6.06888 8.56888C6.22687 8.41089 6.44337 8.32558 6.66668 8.33334H8.33334V6.66668C8.32558 6.44337 8.41089 6.22687 8.56888 6.06888C8.72687 5.91089 8.94337 5.82558 9.16668 5.83334H13.3333C13.5566 5.82558 13.7731 5.91089 13.9311 6.06888C14.0891 6.22687 14.1744 6.44337 14.1667 6.66668V10.8333C14.1743 11.0566 14.089 11.273 13.931 11.431C13.773 11.589 13.5566 11.6743 13.3333 11.6667H11.6667V13.3333C11.6743 13.5566 11.589 13.773 11.431 13.931C11.273 14.089 11.0566 14.1743 10.8333 14.1667ZM6.66668 9.16668V13.3333H10.8333V11.6667H9.16668C8.94341 11.6743 8.72698 11.589 8.56902 11.431C8.41105 11.273 8.32571 11.0566 8.33334 10.8333V9.16668H6.66668ZM9.16668 6.66668V10.8333H13.3333V6.66668H9.16668Z" fill="white"/>
</svg>
