<svg width="20" height="20" viewBox="0 0 20 20" fill="none" xmlns="http://www.w3.org/2000/svg">
<rect width="20" height="20" rx="10" fill="#D9304F"/>
<path d="M7.29167 11.25C7.65611 11.2489 8.00677 11.1106 8.27376 10.8625L10.8821 12.3529C10.7014 13.0589 11.0665 13.7904 11.7392 14.0705C12.4119 14.3506 13.1882 14.0944 13.562 13.4689C13.9358 12.8433 13.7936 12.0382 13.2282 11.5785C12.6628 11.1188 11.8457 11.1439 11.3096 11.6375L8.70126 10.1471C8.7286 10.0425 8.7437 9.93512 8.74626 9.82708L11.3092 8.36249C11.8179 8.82496 12.581 8.86784 13.1383 8.46527C13.6956 8.0627 13.8948 7.32476 13.6156 6.69649C13.3364 6.06821 12.6553 5.72141 11.983 5.86523C11.3107 6.00904 10.831 6.60415 10.8333 7.29166C10.8348 7.41169 10.8512 7.53107 10.8821 7.64707L8.51376 8.99999C8.13438 8.41308 7.39197 8.17781 6.7438 8.43908C6.09563 8.70035 5.72392 9.38471 5.85762 10.0707C5.99131 10.7566 6.59283 11.2513 7.29167 11.25Z" fill="white"/>
</svg>
