<svg width="113" height="47" viewBox="-98 12 113 47" fill="none" xmlns="http://www.w3.org/2000/svg">
<path transform="rotate(73)" d="M10.7418 67.3632C13.1518 67.4332 13.1618 67.4232 14.2718 69.2832C14.4718 69.6232 14.5318 69.9932 15.0418 70.0132C15.3018 70.0232 15.2718 70.3432 15.3218 70.5832C15.5218 71.4832 16.4418 71.7632 16.9718 71.0632C17.2918 70.6432 17.8218 70.8432 18.1718 70.4132C17.6618 69.9232 17.4018 69.4531 18.2318 68.9332C18.7718 68.5932 18.7818 67.4732 19.8618 67.8332C20.0618 67.9032 20.0718 67.5432 20.1118 67.3632C20.1718 67.1031 20.0118 66.8932 19.9518 66.6532C19.6818 65.5932 19.7918 65.4632 20.9518 65.2432C21.1818 65.1932 21.4618 65.2232 21.5918 64.9432C21.6218 64.3932 20.7618 64.9032 20.8218 64.3032C20.8418 64.0732 20.9518 63.6132 21.1018 63.8032C21.7818 64.7132 21.9818 63.7432 22.2618 63.5232C22.8018 63.0932 22.1618 62.1932 22.8418 61.7632C23.5118 61.3432 23.1118 60.6832 23.2218 60.0932C23.6218 60.0932 24.0018 60.0932 24.3418 60.0932C24.6918 59.6632 23.8418 59.3731 24.2818 59.0032C24.6018 58.7432 24.9318 59.2132 25.2918 59.0132C25.5318 58.5032 24.3818 58.6032 24.8118 58.0332C25.0618 57.7032 25.4018 57.5232 25.8718 57.6632C26.1818 57.7632 26.4218 57.4231 26.3418 57.2532C26.0518 56.6332 26.5618 56.6132 26.8618 56.4132C27.5618 55.9432 27.5518 55.9432 26.8118 55.3032C26.7418 55.2432 26.6718 55.1731 26.5618 55.0732C26.9718 54.6432 27.3618 54.2232 27.7618 53.8032C27.6118 54.4032 27.7118 54.8732 28.4718 55.1632C28.3818 54.4432 28.6618 53.7532 28.3418 53.0832C28.7018 52.6332 29.0218 53.3932 29.2818 53.0632C29.6218 52.6332 29.8618 52.1032 29.8318 51.5532C29.7718 50.4532 29.8218 49.4732 31.0718 49.0332C31.3518 48.9332 31.3118 48.6632 31.2718 48.3932C31.1018 47.2632 31.4818 46.4932 32.6918 46.2532C32.9818 46.1931 33.1818 45.9832 33.2318 45.6232C33.3318 44.8432 33.8318 44.1832 33.8918 43.3532C33.9418 42.7132 34.2118 41.9332 35.2418 42.1832C35.4518 42.2332 35.6918 42.1032 35.7318 41.7732C35.8518 40.8232 36.2118 39.7532 36.5418 39.2732C36.6118 39.1732 36.5518 38.8832 36.8818 39.1332C37.4418 39.5432 37.6118 39.4532 37.4818 38.8532C37.2118 37.6332 37.8718 37.0632 38.8118 36.6532C39.2218 36.4732 39.5418 36.3932 38.9318 36.0332C38.6418 35.8632 38.8818 35.7332 39.0318 35.6232C39.3918 35.3832 39.8218 35.6032 40.1618 35.4432C40.3318 35.2932 40.3118 35.1332 40.1818 35.0532C39.5718 34.7032 39.8018 34.2832 40.2518 34.2132C40.7718 34.1332 40.8118 33.8932 40.9818 33.5132C41.1418 33.1732 41.1318 33.1031 40.9318 32.7532C40.6618 32.2732 40.6318 31.6132 40.7818 30.9432C39.9918 31.5132 39.0818 31.4132 38.3118 31.7632C37.8518 31.9732 37.1718 31.8032 37.1818 32.6432C37.1818 32.9632 36.8818 32.7532 36.7218 32.7532C35.1718 32.7432 33.8718 33.4432 32.6118 34.2232C32.3218 34.4032 32.0518 34.5532 31.7518 34.7032C30.3618 35.4132 28.8218 35.7032 27.4418 36.5032C26.5718 37.0131 25.5818 37.7132 24.3518 37.6432C23.8118 37.6132 23.0618 37.8432 22.8118 38.5832C21.8218 38.5032 21.2018 39.2732 20.3918 39.6132C19.1018 40.1532 17.7618 40.5432 16.5118 41.2532C15.9118 41.5932 14.9718 41.6332 14.2318 41.9632C13.6618 42.2232 12.9418 42.2932 12.6318 42.9732C12.5918 43.0532 12.5318 43.1232 12.4818 43.2032C11.7718 42.4832 11.4618 43.6132 10.8918 43.5532C10.3918 43.5032 10.0018 43.6132 9.79179 44.1132C9.6818 44.3832 9.40179 44.3932 9.16179 44.4232C8.34179 44.5232 7.56181 44.7032 7.06181 45.4432C7.00181 45.5232 6.9618 45.6332 6.8618 45.5832C5.5418 44.9132 4.51184 46.5932 3.21184 46.0332C2.81184 46.6832 2.18184 46.5232 1.59184 46.5032C1.30184 46.1931 1.62183 45.9632 1.70183 45.7032C1.81183 45.3232 1.70184 45.1432 1.27184 45.2832C1.05184 45.3532 0.881792 45.2032 0.851792 44.9732C0.831792 44.7532 0.961841 44.6532 1.15184 44.5232C1.82184 44.0632 1.85184 43.4232 1.27184 42.7632C0.611836 42.0232 0.611838 41.7032 1.46184 41.2332C1.87184 41.0032 2.15179 40.8832 1.91179 40.3632C1.55179 39.5832 1.85184 39.0632 2.59184 38.7232C2.90184 38.5732 3.19179 38.3832 3.47179 38.1832C3.71179 38.0132 3.85184 38.0032 4.09184 38.2532C4.66184 38.8432 4.83184 38.2132 4.71184 37.9032C4.48184 37.2832 4.59179 37.0432 5.22179 36.8532C5.69179 36.7132 6.00184 36.2632 6.34184 35.8832C6.51184 35.6932 6.53178 35.7032 7.28178 35.9132C7.51178 35.9832 7.70182 35.8732 7.82182 35.7332C8.74182 34.6132 9.6818 33.5332 11.1118 33.0432C11.4218 32.9432 11.4318 32.7032 11.4018 32.4432C11.3718 32.1132 11.5318 32.1332 11.8218 32.0732C12.8418 31.8632 13.4618 31.1432 13.7618 30.1732C13.8318 29.9432 13.9118 29.8132 14.1418 29.8032C14.9418 29.7832 15.3618 29.1732 15.8118 28.6832C16.6118 27.8032 17.1618 27.4132 18.4118 26.8732C19.1618 26.5432 19.6118 25.7932 20.2418 25.2832C20.7918 24.8432 21.2418 24.2832 21.6018 23.5532C22.1618 22.4332 23.1618 21.4332 24.5518 21.0932C24.7418 21.0432 24.9918 21.0032 25.0818 20.8732C25.6218 20.0832 26.0418 19.1932 27.2518 19.2532C27.4518 19.2632 27.4918 18.8332 27.4818 18.5932C27.4818 18.1732 27.6518 18.0632 28.0318 18.2032C28.0818 18.2232 28.1418 18.2432 28.1818 18.2232C28.7518 17.9932 28.6018 17.0632 29.4818 17.0232C29.9918 16.9932 30.5918 16.6232 30.6218 15.8532C30.6418 15.5132 30.9918 15.3332 31.2418 15.1332C31.4318 14.9732 32.7018 13.5832 32.7518 13.3732C32.8318 13.0332 33.0818 12.8832 33.3618 12.7632C34.3718 12.3332 35.3518 11.8732 35.6818 10.6832C36.4618 10.6532 36.7118 9.70316 37.3718 9.63316C37.9618 9.57316 38.1318 9.18316 38.3718 8.85316C39.1118 7.85316 40.1118 7.02315 41.0618 6.37315C43.6918 4.58315 43.8618 4.77316 45.1518 2.79316C45.6218 2.06316 46.7718 1.97315 46.7918 0.913154C46.7918 0.893154 46.9018 0.833153 46.9118 0.853153C48.0118 1.83315 48.1818 0.393155 48.7918 0.113155C49.4718 -0.206845 50.7918 0.423153 50.8118 1.19315C50.8318 1.95315 50.7018 2.65315 50.1318 3.26315C48.4618 5.04315 46.7718 6.80315 44.8218 8.29315C42.6118 9.99315 40.4918 11.7932 38.5018 13.7532C37.0018 15.2332 35.4418 16.6432 33.9418 18.1332C32.8518 19.2232 31.6418 20.2132 30.4118 21.1632C30.1618 21.3532 29.8818 21.6032 29.6818 21.8532C28.2618 23.6532 26.5318 25.0832 24.7818 26.5432C23.9918 27.2032 23.1418 27.9032 22.4418 28.7332C21.7018 29.6132 20.7418 30.3032 19.8818 31.0732C20.0518 31.9332 20.8018 31.5632 21.2618 31.7832C21.3918 31.8432 21.5818 31.7832 21.5518 31.5932C21.4018 30.5232 22.3018 30.8632 22.6418 30.9532C23.4618 31.1732 24.3018 30.9932 25.1418 31.2632C25.1418 30.5932 24.9018 30.2232 23.9518 30.4732C25.0318 29.3232 26.1418 29.5632 27.1718 29.6632C27.6118 29.7032 27.9118 29.9132 27.8318 29.2632C28.2018 29.2532 28.4618 28.6632 28.8818 28.9832C29.3618 29.3532 29.7218 28.9232 30.1418 28.9032C31.1918 28.8632 31.6118 28.2632 31.6618 27.3332C32.1018 27.1032 32.2118 27.4832 32.4118 27.6632C32.4818 27.7232 32.6518 27.8132 32.6518 27.8032C33.3218 26.7932 34.6718 27.3632 35.4418 26.6032C35.8118 26.2332 35.7618 25.6832 35.9318 25.2332C36.2918 25.1732 36.3318 25.4932 36.5118 25.6332C37.3018 26.2632 37.5718 26.1832 37.9818 25.2332C38.1918 24.7432 38.3118 24.1232 39.0818 24.6932C39.2418 24.8132 39.5418 24.6032 39.6718 24.3532C39.8918 23.9232 40.3518 23.7831 40.7218 23.5732C41.4218 23.1732 41.4318 23.1932 42.2918 23.7632C42.8618 23.5532 42.2918 22.5832 43.0918 22.5232C43.6718 22.4732 44.1318 22.7832 44.5918 23.0532C45.1618 22.6332 44.6818 22.2432 44.6018 21.8632C44.6518 21.8232 44.6818 21.7732 44.7218 21.7732C46.5118 21.7032 46.5118 21.7032 47.8618 20.5432C48.3718 20.1032 48.8718 19.9932 49.4218 20.4732C49.7218 20.7332 50.0518 20.9832 50.4918 20.7832C50.5318 20.7632 50.6318 20.7532 50.6318 20.7632C50.8318 21.6232 51.3918 22.0132 52.2518 22.0632C52.4118 22.0732 52.3818 22.3932 52.3118 22.5932C52.1618 22.9832 52.0718 23.3632 52.5318 23.6432C52.9818 23.9132 52.8418 22.9632 53.3018 23.2832C52.7818 24.3632 52.7818 24.3632 53.1618 25.9332C52.0518 26.5732 51.1618 27.3532 51.0818 28.7732C51.0418 29.4132 50.4318 29.9732 50.0618 30.1232C49.4118 30.3832 49.3218 30.8332 49.1018 31.3032C48.5018 32.5632 47.7718 33.7432 46.9418 34.8632C46.7618 35.1032 46.6618 35.3832 46.3018 35.4232C45.6518 35.5032 45.5818 36.0632 45.7818 36.4332C46.0718 36.9832 45.7618 37.1231 45.4318 37.3632C44.4618 38.0331 44.5218 38.2432 43.5918 39.8332C43.1918 40.5132 42.4918 41.1632 41.9818 41.8432C41.4418 42.5532 40.6518 43.2132 40.8718 44.2932C40.9218 44.5332 40.7518 44.6231 40.5918 44.7532C39.2718 45.8731 38.4518 47.3832 37.5518 48.8232C37.3918 49.0732 37.3218 49.3832 37.4618 49.6832C37.5118 49.7932 37.7318 49.9732 37.6318 49.9832C36.4618 50.1532 36.6618 51.5232 35.8018 52.0132C35.2418 52.3332 35.3118 53.2032 34.9118 53.7932C33.8918 55.3032 32.8818 56.8432 32.1518 58.5332C31.1018 58.9332 31.4018 60.4732 30.2218 60.7932C29.8918 60.8832 30.3218 61.3132 30.0218 61.5632C29.3918 62.0932 29.2818 63.0532 28.4718 63.4532C28.4318 63.4732 28.4118 63.5332 28.3718 63.5632C27.7418 64.0232 28.5218 65.1132 27.3618 65.4832C26.7118 65.6932 26.4618 66.6632 26.1918 67.4432C25.9918 68.0331 25.4018 68.5032 25.0318 69.0732C24.8318 69.3932 24.5318 69.5932 24.5518 70.0432C24.5618 70.4332 24.4818 70.8332 24.3718 71.2032C24.2318 71.6932 23.6718 70.6632 23.7118 71.2832C23.7718 72.0832 23.0818 72.1032 22.7718 72.5032C22.3818 73.0132 22.4718 73.6632 22.1118 74.1532C22.0318 74.2732 21.9818 74.4131 21.8618 74.6631C22.4318 74.7731 22.9618 74.5632 23.2318 74.3032C24.2818 73.3232 25.7518 73.0932 26.8218 72.1832C27.3018 71.7731 27.9318 71.7332 28.4918 71.5332C29.2218 71.2732 30.0618 71.2532 30.4218 70.3532C30.4918 70.1632 30.8618 69.9332 31.0318 69.9732C32.0118 70.2232 33.0518 69.9032 34.0218 70.3532C34.4018 70.5232 34.6118 70.9132 34.9718 71.0332C35.2718 71.1232 35.6518 70.8932 35.9218 71.2332C35.9418 71.6632 35.3918 71.4831 35.3218 71.7731C35.2518 72.0531 35.4918 72.3431 35.2618 72.6331C33.9918 74.2631 32.8818 76.0331 31.2118 77.3232C30.4418 77.9231 29.8418 78.7632 29.0918 79.3332C27.8318 80.2932 26.8218 81.5432 25.3418 82.2932C24.4018 82.7732 23.7418 83.8132 22.9518 84.6132C21.8718 85.6932 20.7818 86.7632 19.7318 87.8732C18.7918 88.8732 17.7218 89.7332 16.8718 90.8332C15.3318 92.8232 13.2418 94.2932 11.5018 96.1031C10.9618 96.6631 10.5318 97.3131 9.82182 97.7431C9.45182 97.9732 8.75179 98.3431 8.97179 99.1031C9.01179 99.2431 8.92183 99.4132 8.76183 99.4432C7.17183 99.7232 6.80182 101.263 5.88182 102.233C5.68182 102.443 5.58179 102.743 5.35179 102.953C5.01179 103.253 4.64179 103.233 4.10179 103.273C4.60179 102.383 4.42179 101.443 4.91179 100.683C5.03179 100.493 5.03184 100.353 4.90184 100.153C4.48184 99.5132 4.76182 98.8531 5.07182 98.3232C5.51182 97.5631 5.35184 96.6731 5.77184 95.9131C5.89184 95.7031 5.87183 95.3032 5.58183 95.0932C5.40183 94.9632 5.24182 94.8431 5.50182 94.6631C6.62182 93.8831 6.35182 92.6031 6.44182 91.5732C6.51182 90.7232 7.16182 90.0332 6.94182 89.1732C7.69182 88.8432 7.25183 88.2431 7.26183 87.7431C7.28183 86.7132 7.17182 85.6631 7.82182 84.7431C7.90182 84.6231 7.96182 84.4532 7.94182 84.3132C7.78182 83.0932 8.27183 81.9732 8.45183 80.8132C8.50183 80.4732 8.44184 80.1232 8.71184 79.8432C8.97184 79.5632 8.85181 79.1432 8.99181 78.8632C9.24181 78.3732 8.59179 77.7132 8.97179 77.5832C9.71179 77.3132 9.27179 76.8332 9.35179 76.4832C9.97179 73.6132 10.1718 70.6832 10.7318 67.8032C10.7618 67.6432 10.7418 67.5032 10.7418 67.3632Z" fill="#51D346"/>
</svg>
