<svg width="323" height="131" viewBox="0 0 323 131" fill="none" xmlns="http://www.w3.org/2000/svg">
<path d="M322.98 76.5485V34.8385C322.98 26.3685 319.66 18.3785 313.63 12.3485C307.6 6.31854 299.61 2.99854 291.14 2.99854H33.43C24.96 2.99854 16.97 6.31854 10.94 12.3485C4.91002 18.3785 1.59001 26.3685 1.59001 34.8385V76.5485C1.59001 85.0185 4.91002 93.0085 10.94 99.0385C16.97 105.069 24.96 108.389 33.43 108.389H270.92C278.65 116.339 293.65 124.839 309.57 130.239C310.01 130.389 310.46 130.459 310.91 130.459C312.32 130.459 313.65 129.709 314.39 128.509C315.12 127.329 315.18 125.879 314.55 124.629C311.33 118.249 308.96 111.259 307.51 103.829C317.09 98.0685 322.98 87.7685 322.98 76.5485Z" fill="#F1F2F2"/>
<path d="M316.69 71.8384V30.1284C316.69 13.9084 303.42 0.648438 287.21 0.648438H29.5C13.28 0.648438 0.0200195 13.9184 0.0200195 30.1284V71.8384C0.0200195 88.0584 13.29 101.318 29.5 101.318H272.59C279.77 109.148 290.43 117.878 306.4 123.298C307.85 123.788 309.19 122.338 308.51 120.988C306.19 116.408 301.5 109.528 300.94 97.8984C310.29 92.9384 316.69 83.0984 316.69 71.8384Z" fill="white"/>
<path d="M83.11 29.7582C83.66 30.3282 83.93 31.0582 83.93 31.9482V67.6882C83.93 68.5882 83.66 69.3182 83.11 69.8782C82.56 70.4382 81.84 70.7282 80.95 70.7282C80.05 70.7282 79.33 70.4582 78.78 69.9082C78.23 69.3582 77.96 68.6182 77.96 67.6882V51.9582H54.91V67.6982C54.91 68.5982 54.64 69.3282 54.09 69.8882C53.54 70.4482 52.82 70.7382 51.93 70.7382C51.03 70.7382 50.31 70.4682 49.77 69.9182C49.22 69.3682 48.95 68.6282 48.95 67.6982V31.9582C48.95 31.0582 49.22 30.3282 49.77 29.7682C50.31 29.2082 51.04 28.9182 51.93 28.9182C52.83 28.9182 53.55 29.1982 54.09 29.7682C54.64 30.3382 54.91 31.0682 54.91 31.9582V47.0482H77.96V31.9582C77.96 31.0582 78.23 30.3282 78.78 29.7682C79.33 29.2082 80.05 28.9182 80.95 28.9182C81.84 28.9082 82.56 29.1982 83.11 29.7582Z" fill="#58595B"/>
<path d="M116.51 63.898C116.86 64.328 117.04 64.878 117.04 65.538C117.04 66.668 116.34 67.628 114.93 68.408C113.56 69.188 112.07 69.788 110.46 70.218C108.84 70.648 107.29 70.858 105.81 70.858C101.29 70.858 97.72 69.538 95.1 66.908C92.49 64.278 91.18 60.678 91.18 56.118C91.18 53.198 91.76 50.598 92.91 48.338C94.06 46.078 95.68 44.318 97.77 43.078C99.86 41.828 102.23 41.208 104.88 41.208C108.7 41.208 111.72 42.438 113.95 44.898C116.17 47.358 117.28 50.668 117.28 54.838C117.28 56.398 116.58 57.178 115.17 57.178H97.09C97.48 63.228 100.38 66.248 105.81 66.248C107.25 66.248 108.5 66.058 109.55 65.668C110.6 65.278 111.72 64.768 112.88 64.148C113 64.068 113.32 63.908 113.84 63.648C114.37 63.398 114.8 63.268 115.16 63.268C115.71 63.248 116.16 63.468 116.51 63.898ZM99.55 47.688C98.18 49.128 97.37 51.158 97.09 53.768H112.18C112.06 51.118 111.39 49.078 110.16 47.658C108.93 46.238 107.21 45.528 104.98 45.528C102.73 45.528 100.91 46.248 99.55 47.688Z" fill="#58595B"/>
<path d="M144.68 41.7782C145.13 41.5082 145.61 41.3682 146.11 41.3682C146.85 41.3682 147.5 41.6182 148.07 42.1282C148.63 42.6382 148.92 43.2382 148.92 43.9382C148.92 44.3282 148.84 44.6982 148.69 45.0482L132.43 79.5582C132.2 80.1082 131.85 80.5181 131.41 80.8181C130.96 81.1081 130.48 81.2581 129.98 81.2581C129.28 81.2581 128.64 81.0282 128.08 80.5582C127.51 80.0882 127.23 79.5082 127.23 78.8082C127.23 78.4982 127.33 78.1082 127.52 77.6382L131.56 69.0381L120.27 45.0582C120.11 44.7482 120.04 44.3981 120.04 44.0081C120.04 43.2681 120.35 42.6482 120.98 42.1382C121.6 41.6282 122.31 41.3782 123.09 41.3782C124.26 41.3782 125.1 41.9282 125.6 43.0182L134.67 63.1382L143.68 43.0782C143.89 42.4882 144.23 42.0582 144.68 41.7782Z" fill="#58595B"/>
<path d="M159.83 69.6882C159.11 68.9882 158.75 68.0882 158.75 66.9982C158.75 65.9082 159.11 64.9982 159.83 64.2782C160.55 63.5582 161.44 63.1982 162.49 63.1982C163.54 63.1982 164.42 63.5582 165.12 64.2782C165.82 64.9982 166.17 65.9082 166.17 66.9982C166.17 68.0882 165.82 68.9882 165.12 69.6882C164.42 70.3882 163.54 70.7382 162.49 70.7382C161.44 70.7382 160.55 70.3882 159.83 69.6882ZM161.26 58.8082C160.91 58.4582 160.71 57.9882 160.67 57.4082L158.92 32.6082C158.8 31.5182 159.09 30.6282 159.77 29.9482C160.45 29.2682 161.36 28.9282 162.49 28.9282C163.58 28.9282 164.47 29.2682 165.15 29.9482C165.83 30.6282 166.11 31.5182 166 32.6082L164.24 57.4082C164.2 58.0282 164.03 58.5082 163.71 58.8382C163.4 59.1682 162.99 59.3382 162.48 59.3382C162.02 59.3282 161.62 59.1582 161.26 58.8082Z" fill="#58595B"/>
<path d="M173.75 69.6882C173.03 68.9882 172.67 68.0882 172.67 66.9982C172.67 65.9082 173.03 64.9982 173.75 64.2782C174.47 63.5582 175.36 63.1982 176.41 63.1982C177.46 63.1982 178.34 63.5582 179.04 64.2782C179.74 64.9982 180.09 65.9082 180.09 66.9982C180.09 68.0882 179.74 68.9882 179.04 69.6882C178.34 70.3882 177.46 70.7382 176.41 70.7382C175.36 70.7382 174.47 70.3882 173.75 69.6882ZM175.19 58.8082C174.84 58.4582 174.64 57.9882 174.61 57.4082L172.86 32.6082C172.74 31.5182 173.03 30.6282 173.71 29.9482C174.39 29.2682 175.3 28.9282 176.43 28.9282C177.52 28.9282 178.41 29.2682 179.09 29.9482C179.77 30.6282 180.05 31.5182 179.94 32.6082L178.18 57.4082C178.14 58.0282 177.97 58.5082 177.65 58.8382C177.34 59.1682 176.93 59.3382 176.42 59.3382C175.95 59.3282 175.54 59.1582 175.19 58.8082Z" fill="#58595B"/>
<path d="M260.841 74.8067C273.927 61.7204 273.927 40.5032 260.841 27.4169C247.755 14.3305 226.538 14.3306 213.451 27.4169C200.365 40.5033 200.365 61.7204 213.451 74.8067C226.538 87.8931 247.755 87.8931 260.841 74.8067Z" fill="#FFD05D"/>
<path d="M254.69 22.5083C258.03 27.7183 259.96 33.9083 259.96 40.5583C259.96 59.0683 244.96 74.0683 226.45 74.0683C220.02 74.0683 214.02 72.2583 208.92 69.1183C214.88 78.4183 225.3 84.5783 237.16 84.5783C255.67 84.5783 270.67 69.5783 270.67 51.0683C270.66 38.9883 264.27 28.4083 254.69 22.5083Z" fill="#FDC453"/>
<path d="M208.2 54.6381C208.2 37.4581 222.13 23.5281 239.31 23.5281C249.35 23.5281 258.28 28.2881 263.97 35.6781C258.6 26.3481 248.53 20.0781 236.99 20.0781C219.81 20.0781 205.88 34.0081 205.88 51.1881C205.88 58.3281 208.29 64.8981 212.33 70.1481C209.7 65.5881 208.2 60.2881 208.2 54.6381Z" fill="#FFD77F"/>
<path d="M219.08 51.6481C218.66 51.6481 218.24 51.4581 217.96 51.0981C217.48 50.4781 217.59 49.5881 218.21 49.1081L223.04 45.3381L218.04 42.3981C217.36 41.9981 217.14 41.1281 217.54 40.4581C217.94 39.7781 218.81 39.5581 219.48 39.9581L226.28 43.9581C226.69 44.1981 226.95 44.6181 226.98 45.0881C227.01 45.5581 226.81 46.0081 226.44 46.2981L219.96 51.3481C219.69 51.5481 219.39 51.6481 219.08 51.6481Z" fill="#303030"/>
<path d="M255.23 51.6483C254.92 51.6483 254.62 51.5483 254.36 51.3483L247.88 46.2983C247.51 46.0083 247.3 45.5583 247.34 45.0883C247.37 44.6183 247.63 44.1983 248.04 43.9583L254.84 39.9583C255.51 39.5583 256.39 39.7883 256.78 40.4583C257.18 41.1383 256.95 42.0083 256.28 42.3983L251.28 45.3383L256.11 49.1083C256.73 49.5883 256.84 50.4783 256.36 51.0983C256.07 51.4583 255.65 51.6483 255.23 51.6483Z" fill="#303030"/>
<path d="M217.96 55.5483C219.05 65.1883 227.22 72.6783 237.16 72.6783C247.09 72.6783 255.27 65.1883 256.36 55.5483H217.96Z" fill="#695342"/>
<path d="M223.89 67.4084C227.35 70.6784 232.01 72.6884 237.15 72.6884C242.06 72.6884 246.55 70.8484 249.96 67.8284L249.78 67.4084C236.89 61.1184 224.07 67.3184 223.89 67.4084Z" fill="#F06669"/>
</svg>
