<svg width="319" height="130" viewBox="0 0 319 130" fill="none" xmlns="http://www.w3.org/2000/svg">
<path d="M318.24 75.948V34.2379C318.24 25.7679 314.92 17.7779 308.89 11.7479C302.86 5.71794 294.87 2.39795 286.4 2.39795H34.1899C25.7199 2.39795 17.73 5.71794 11.7 11.7479C5.66995 17.7779 2.34998 25.7679 2.34998 34.2379V75.948C2.34998 84.418 5.66995 92.4079 11.7 98.4379C17.73 104.468 25.7199 107.788 34.1899 107.788H266.19C273.92 115.738 288.92 124.238 304.84 129.638C305.28 129.788 305.73 129.858 306.18 129.858C307.59 129.858 308.92 129.108 309.66 127.908C310.39 126.728 310.45 125.278 309.82 124.028C306.6 117.648 304.23 110.658 302.77 103.228C312.35 97.468 318.24 87.168 318.24 75.948Z" fill="#F1F2F2"/>
<path d="M311.95 71.2281V29.5181C311.95 13.2981 298.68 0.0380859 282.47 0.0380859H30.25C14.03 0.0380859 0.77002 13.3081 0.77002 29.5181V71.2281C0.77002 87.4481 14.04 100.708 30.25 100.708H267.84C275.02 108.538 285.68 117.268 301.65 122.688C303.1 123.178 304.44 121.728 303.76 120.378C301.44 115.798 296.75 108.918 296.19 97.2881C305.54 92.3381 311.95 82.4981 311.95 71.2281Z" fill="#4478BB"/>
<path d="M56.74 71.728C56.21 71.218 55.95 70.538 55.95 69.678V33.998C55.95 33.098 56.22 32.368 56.77 31.808C57.31 31.248 58.0401 30.958 58.9301 30.958C59.8701 30.958 60.61 31.228 61.15 31.778C61.7 32.328 61.97 33.068 61.97 33.998V67.458H79.75C80.65 67.458 81.34 67.668 81.83 68.098C82.32 68.528 82.5601 69.148 82.5601 69.968C82.5601 70.788 82.32 71.408 81.83 71.838C81.34 72.268 80.65 72.478 79.75 72.478H58.87C57.98 72.488 57.27 72.238 56.74 71.728Z" fill="white"/>
<path d="M88.77 71.9678C88.22 71.4178 87.95 70.6778 87.95 69.7478V34.0078C87.95 33.1078 88.22 32.3778 88.77 31.8178C89.31 31.2578 90.0401 30.9678 90.9301 30.9678C91.8701 30.9678 92.61 31.2378 93.15 31.7878C93.7 32.3378 93.97 33.0778 93.97 34.0078V69.7478C93.97 70.6878 93.7101 71.4278 93.1801 71.9678C92.6501 72.5178 91.9001 72.7878 90.9301 72.7878C90.0301 72.7878 89.31 72.5078 88.77 71.9678Z" fill="white"/>
<path d="M135.27 69.978C135.27 70.718 134.99 71.358 134.42 71.908C133.85 72.458 133.2 72.728 132.46 72.728C131.72 72.728 131.04 72.418 130.41 71.788L109.58 53.008V69.738C109.58 70.678 109.32 71.418 108.79 71.958C108.26 72.508 107.51 72.778 106.54 72.778C105.64 72.778 104.92 72.508 104.38 71.958C103.83 71.408 103.56 70.668 103.56 69.738V33.998C103.56 33.098 103.83 32.368 104.38 31.808C104.92 31.248 105.65 30.958 106.54 30.958C107.48 30.958 108.22 31.228 108.76 31.778C109.31 32.328 109.58 33.068 109.58 33.998V50.028L129.53 31.838C130.08 31.288 130.72 31.018 131.46 31.018C132.2 31.018 132.84 31.288 133.39 31.838C133.94 32.388 134.21 33.008 134.21 33.708C134.21 34.448 133.88 35.128 133.21 35.758L115.78 51.318L134.27 67.928C134.94 68.558 135.27 69.238 135.27 69.978Z" fill="white"/>
<path d="M141.91 71.6978C141.38 71.1678 141.12 70.4578 141.12 69.5678V34.1778C141.12 33.2778 141.38 32.5678 141.91 32.0478C142.44 31.5178 143.17 31.2578 144.1 31.2578H165.63C166.53 31.2578 167.22 31.4678 167.71 31.8978C168.2 32.3278 168.44 32.9278 168.44 33.7078C168.44 34.4878 168.2 35.0778 167.71 35.4878C167.22 35.8978 166.53 36.0978 165.63 36.0978H147.03V49.0878H164.46C165.36 49.0878 166.05 49.2978 166.54 49.7278C167.03 50.1578 167.27 50.7578 167.27 51.5378C167.27 52.3178 167.03 52.9178 166.54 53.3478C166.05 53.7778 165.36 53.9878 164.46 53.9878H147.03V67.6178H165.63C167.5 67.6178 168.44 68.4178 168.44 70.0178C168.44 70.7978 168.2 71.3978 167.71 71.8278C167.22 72.2578 166.53 72.4678 165.63 72.4678H144.1C143.17 72.4878 142.44 72.2278 141.91 71.6978Z" fill="white"/>
<path d="M255.97 40.2881H248.25H245.12H239.16C238.73 40.2881 238.41 39.8881 238.53 39.4781C239.21 37.0481 239.27 34.4181 239.27 31.9381C239.27 30.5681 239.34 29.0081 239.18 27.5081C239.03 25.9781 238.65 24.5081 237.75 23.3481C236.75 22.0581 235.26 21.0981 233.61 21.0981C229.77 21.0981 229.16 24.8581 228.81 27.9081C228.39 31.4681 228.23 35.1382 226.66 38.4182C225.56 40.7082 224 42.6781 221.55 43.6481C219.67 44.3881 218.29 44.9681 216.3 45.3581C215.99 45.4181 215.77 45.6781 215.77 45.9981V70.8481C215.77 71.2081 216.06 71.4981 216.42 71.4981H223.29C223.5 71.4981 223.69 71.5981 223.82 71.7681C225.18 73.5881 227.34 74.7681 229.79 74.7681H240.48H248.25H251.33C254.47 74.7681 257.05 72.1981 257.05 69.0481C257.05 68.2381 256.85 67.4682 256.51 66.7782C256.37 66.5082 256.44 66.1781 256.68 65.9881C257.85 65.0581 258.6 62.9382 258.6 61.3382V60.6881C258.6 59.8781 258.4 59.1082 258.06 58.4182C257.92 58.1482 257.99 57.8181 258.23 57.6281C259.4 56.6981 260.15 55.2681 260.15 53.6781V53.0282C260.15 52.2182 259.95 51.4481 259.61 50.7581C259.47 50.4881 259.54 50.1581 259.78 49.9681C260.95 49.0381 261.7 47.6081 261.7 46.0181C261.68 42.8681 259.11 40.2881 255.97 40.2881Z" fill="white"/>
<path d="M209.53 74.0181H201.76C200.24 74.0181 199.02 72.7881 199.02 71.2781V45.2781C199.02 43.7581 200.25 42.5381 201.76 42.5381H209.53C211.05 42.5381 212.27 43.7681 212.27 45.2781V71.2781C212.27 72.7881 211.04 74.0181 209.53 74.0181Z" fill="white"/>
</svg>
