<svg width="136" height="71" viewBox="-111 -89 136 71" fill="none" xmlns="http://www.w3.org/2000/svg">
<path transform="rotate(204)" d="M1.50192 42.1531C1.11192 42.0631 0.931916 41.7931 0.921916 41.5631C0.771916 38.4731 0.231921 35.3731 1.16192 32.3031C1.24192 32.0431 1.31191 31.7731 1.45191 31.5531C3.64191 28.2431 5.98191 25.0831 8.93191 22.3431C12.8919 18.6731 17.0919 15.3031 21.3119 11.9631C24.3919 9.52315 27.9419 8.07314 31.7419 7.26314C34.8019 6.61314 37.1519 8.07315 38.2719 10.9931C38.6919 12.0831 38.9319 13.2131 39.0119 14.3531C39.2219 17.3231 39.0019 20.2831 38.5919 23.2431C38.1319 26.5231 36.7019 29.3731 35.4419 32.3531C32.5919 39.0831 28.7319 45.2731 25.3219 51.7131C22.8219 56.4231 20.6819 61.3031 18.3919 66.1231C16.8119 69.4531 16.3019 73.0631 14.9119 76.4231C14.6119 77.1532 14.4619 77.9931 14.5819 78.8131C14.7419 79.9231 15.6519 80.4432 16.4219 79.7232C17.6019 78.6232 19.2919 78.2031 20.2019 76.7431C20.5119 76.2531 21.0519 75.8432 21.5719 75.5532C24.3719 73.9932 26.4019 71.4931 28.9719 69.6331C30.1719 68.7631 31.0919 67.4332 32.3319 66.5032C35.7219 63.9632 38.0519 60.2331 41.7919 58.0731C43.1019 56.1331 45.0919 54.8631 46.8519 53.4731C48.8519 51.8931 50.7219 50.1531 52.7019 48.5431C54.4219 47.1431 56.1619 45.7731 57.6719 44.1131C58.4719 43.2431 59.4519 42.5131 60.5619 41.9331C62.1219 41.1331 63.2519 39.7231 64.6619 38.6731C68.2519 35.9831 71.4819 32.8431 75.1919 30.2731C77.0619 28.9831 78.6019 27.2131 80.2519 25.6131C81.4619 24.4331 82.5019 23.0931 83.7519 21.9431C84.9619 20.8331 84.8319 20.1931 83.2519 19.6931C81.5619 19.1631 79.9619 18.5231 78.4819 17.5331C77.1819 16.6631 76.4819 14.0131 77.2519 12.6431C77.5319 12.1331 78.0319 11.7831 78.5719 11.8231C80.2119 11.9431 81.6619 11.3231 83.0019 10.5631C85.4019 9.20315 88.1019 8.83315 90.6619 8.03315C92.7819 7.37315 95.0319 7.07314 97.1019 6.37314C101.092 5.01314 105.352 4.94314 109.272 3.40314C109.952 3.14314 110.722 3.05314 111.452 3.00314C113.422 2.87314 115.322 2.60314 117.002 1.41314C117.462 1.08314 118.152 1.04314 118.752 0.93314C120.112 0.68314 120.932 1.08315 121.552 2.35315C121.782 2.83315 121.942 3.36315 122.042 3.89315C122.662 7.23315 122.362 10.2531 120.552 13.3931C117.662 18.4031 113.512 22.2531 109.752 26.4531C107.412 29.0631 105.142 31.7131 102.932 34.4231C101.822 35.7831 100.672 37.1131 99.5419 38.4531C99.3719 38.6631 99.1119 38.8131 98.9919 39.0431C96.8919 42.9231 93.1819 45.4231 90.5519 48.8531C90.1019 49.4331 89.6019 50.0231 88.7019 49.8331C87.7919 49.6331 87.6619 48.8531 87.4419 48.1531C87.3419 47.8331 87.3019 47.4931 87.2919 47.1531C87.2719 44.5131 87.3219 41.8731 87.2219 39.2331C87.1319 36.8531 88.3419 34.8531 88.9219 32.6631C89.0219 32.2831 89.3719 31.9031 88.9019 31.6131C88.5919 31.4231 88.2519 31.6531 88.0019 31.9131C84.9319 35.1631 81.2919 37.7631 77.8119 40.5231C75.0119 42.7431 72.2819 45.0431 69.5019 47.2931C66.9819 49.3331 64.3219 51.1631 61.6719 53.0131C60.3119 53.9631 59.4719 55.5431 57.9819 56.4431C56.3519 57.4231 55.2119 59.0131 53.7719 60.1831C51.9519 61.6631 50.3819 63.4731 48.3119 64.6231C47.4019 65.1331 46.5819 65.7732 45.9919 66.5532C44.9819 67.8832 43.6819 68.8031 42.4019 69.7831C40.0319 71.5832 37.9519 73.6932 35.8119 75.7532C34.2719 77.2431 32.5519 78.5431 30.9419 79.9531C27.8919 82.6132 24.5719 84.9231 21.2819 87.2431C19.5619 88.4531 17.6419 89.2831 15.4219 89.0832C13.4319 88.9032 12.5019 88.2631 11.8719 86.3431C10.3219 81.6331 10.0919 76.8131 10.7719 71.9231C10.9219 70.8531 10.8719 69.7331 11.1519 68.7131C11.7019 66.7031 12.4619 64.7631 13.0819 62.7631C13.9919 59.8131 15.5819 57.1131 16.2719 54.0731C16.4619 53.2531 16.9619 52.4331 17.5019 51.7631C18.3819 50.6831 18.8419 49.4031 19.2919 48.1531C19.9519 46.3031 20.9319 44.6131 21.8619 42.9131C24.0519 38.8931 26.3919 34.9431 28.7019 30.9831C29.0919 30.3131 28.9019 29.4431 29.3819 28.8831C30.7419 27.3131 31.1019 25.2531 32.1419 23.5531C33.0719 22.0331 33.5419 20.3431 34.2419 18.7431C34.2919 18.6231 34.3619 18.4931 34.3819 18.3631C34.4719 17.5731 34.7619 16.6531 34.0319 16.1031C33.3619 15.6031 32.5519 15.8131 31.7319 16.1331C28.7719 17.3031 26.0819 18.9531 23.4819 20.7231C20.5319 22.7331 17.8019 25.0431 15.1219 27.4131C14.1119 28.3031 13.0319 29.1231 11.9619 29.9531C10.8919 30.7931 9.92191 31.7031 9.01191 32.7231C7.18191 34.7831 5.20191 36.7031 3.85191 39.1731C3.26191 40.3131 2.28192 41.2031 1.50192 42.1531Z" fill="#ffeb00"/>
</svg>
