<svg width="91" height="28" viewBox="0 -28 91 28" fill="none" xmlns="http://www.w3.org/2000/svg">
<path transform="rotate(270)" d="M3.10594 22.9128L3.10455 22.9127C1.31568 22.8963 0.240028 20.9362 1.18461 19.4167L12.0036 2.06837C12.0037 2.06818 12.0038 2.06799 12.0039 2.0678C12.9165 0.613583 15.0318 0.641843 15.8998 2.10749L15.9006 2.10888L26.2506 19.4589L26.2508 19.4593C27.1519 20.9666 26.0705 22.8963 24.3053 22.9127L24.3038 22.9128L18.6738 22.9828L18.18 22.9889V23.4827V85.5327C18.18 87.9372 16.2332 89.8927 13.82 89.8927C11.4154 89.8927 9.45998 87.9459 9.45998 85.5327V23.4827V22.9886L8.96596 22.9827L3.10594 22.9128Z" fill="#D34646" stroke="white"/>
</svg>
