<svg width="453" height="130" viewBox="0 0 453 130" fill="none" xmlns="http://www.w3.org/2000/svg">
<path d="M452.88 75.948V34.2379C452.88 25.7679 449.56 17.7779 443.53 11.7479C437.5 5.71794 429.51 2.39795 421.04 2.39795H33.5302C25.0602 2.39795 17.0701 5.71794 11.0401 11.7479C5.0101 17.7779 1.69012 25.7679 1.69012 34.2379V75.948C1.69012 84.418 5.0101 92.4079 11.0401 98.4379C17.0701 104.468 25.0602 107.788 33.5302 107.788H400.82C408.55 115.738 423.55 124.238 439.47 129.638C439.91 129.788 440.36 129.858 440.81 129.858C442.22 129.858 443.55 129.108 444.29 127.908C445.02 126.728 445.08 125.278 444.45 124.028C441.23 117.648 438.86 110.658 437.4 103.228C446.99 97.468 452.88 87.168 452.88 75.948Z" fill="#F1F2F2"/>
<path d="M446.59 71.2281V29.5181C446.59 13.2981 433.32 0.0380859 417.11 0.0380859H29.6001C13.3801 0.0380859 0.120117 13.3081 0.120117 29.5181V71.2281C0.120117 87.4481 13.3901 100.708 29.6001 100.708H402.49C409.67 108.538 420.33 117.268 436.3 122.688C437.75 123.178 439.09 121.728 438.41 120.378C436.09 115.798 431.4 108.918 430.84 97.2881C440.19 92.3381 446.59 82.4981 446.59 71.2281Z" fill="white"/>
<path d="M47.8501 70.6684C47.3201 70.1584 47.0601 69.4784 47.0601 68.6184V32.9384C47.0601 32.0384 47.3301 31.3084 47.8801 30.7484C48.4201 30.1884 49.1501 29.8984 50.0401 29.8984C50.9801 29.8984 51.7201 30.1684 52.2601 30.7184C52.8101 31.2684 53.0801 32.0084 53.0801 32.9384V66.3984H70.8601C71.7601 66.3984 72.4501 66.6084 72.9401 67.0384C73.4301 67.4684 73.6701 68.0884 73.6701 68.9084C73.6701 69.7284 73.4301 70.3484 72.9401 70.7784C72.4501 71.2084 71.7601 71.4184 70.8601 71.4184H49.9801C49.0801 71.4284 48.3701 71.1784 47.8501 70.6684Z" fill="#58595B"/>
<path d="M84.4701 69.3283C81.6001 67.6083 79.3901 65.1783 77.8301 62.0183C76.2701 58.8583 75.4901 55.1383 75.4901 50.8483C75.4901 46.5183 76.2601 42.7683 77.8001 39.5883C79.3401 36.4083 81.5501 33.9683 84.4401 32.2783C87.3301 30.5783 90.7201 29.7383 94.6201 29.7383C98.5601 29.7383 101.97 30.5883 104.86 32.2783C107.75 33.9783 109.96 36.4083 111.5 39.5883C113.04 42.7683 113.81 46.4983 113.81 50.7883C113.81 55.0783 113.04 58.8083 111.5 61.9883C109.96 65.1683 107.75 67.6183 104.86 69.3283C101.97 71.0483 98.5601 71.8983 94.6201 71.8983C90.7201 71.8983 87.3301 71.0383 84.4701 69.3283ZM104.27 62.7783C106.57 59.9683 107.72 55.9783 107.72 50.7883C107.72 45.5983 106.58 41.6183 104.3 38.8283C102.02 36.0383 98.7901 34.6483 94.6201 34.6483C90.5301 34.6483 87.3401 36.0483 85.0601 38.8283C82.7801 41.6183 81.6401 45.6083 81.6401 50.7883C81.6401 55.9783 82.7801 59.9683 85.0601 62.7783C87.3401 65.5883 90.5301 66.9883 94.6201 66.9883C98.7501 66.9883 101.97 65.5783 104.27 62.7783Z" fill="#58595B"/>
<path d="M122.78 70.6684C122.25 70.1584 121.99 69.4784 121.99 68.6184V32.9384C121.99 32.0384 122.26 31.3084 122.81 30.7484C123.35 30.1884 124.08 29.8984 124.97 29.8984C125.91 29.8984 126.65 30.1684 127.19 30.7184C127.74 31.2684 128.01 32.0084 128.01 32.9384V66.3984H145.79C146.69 66.3984 147.38 66.6084 147.87 67.0384C148.36 67.4684 148.6 68.0884 148.6 68.9084C148.6 69.7284 148.36 70.3484 147.87 70.7784C147.38 71.2084 146.69 71.4184 145.79 71.4184H124.91C124.02 71.4284 123.31 71.1784 122.78 70.6684Z" fill="#58595B"/>
<path d="M217.821 77.6316C233.904 70.9696 241.541 52.5308 234.879 36.4476C228.217 20.3643 209.779 12.7269 193.695 19.3889C177.612 26.051 169.975 44.4897 176.637 60.573C183.299 76.6563 201.737 84.2937 217.821 77.6316Z" fill="#FFD05D"/>
<path d="M222.24 21.6182C225.38 26.5182 227.2 32.3482 227.2 38.5982C227.2 56.0082 213.09 70.1182 195.68 70.1182C189.63 70.1182 183.99 68.4182 179.19 65.4582C184.79 74.2082 194.6 79.9982 205.75 79.9982C223.16 79.9982 237.27 65.8882 237.27 48.4782C237.27 37.1182 231.26 27.1582 222.24 21.6182Z" fill="#FDC453"/>
<path d="M178.51 51.8481C178.51 35.6881 191.61 22.5781 207.78 22.5781C217.23 22.5781 225.63 27.0581 230.98 34.0081C225.93 25.2381 216.45 19.3281 205.6 19.3281C189.44 19.3281 176.33 32.4281 176.33 48.5981C176.33 55.3181 178.59 61.4981 182.4 66.4381C179.92 62.1381 178.51 57.1581 178.51 51.8481Z" fill="#FFD77F"/>
<path d="M188.74 49.0279C188.34 49.0279 187.95 48.8479 187.69 48.5179C187.24 47.9379 187.34 47.0979 187.92 46.6379L192.47 43.0979L187.77 40.3379C187.13 39.9679 186.92 39.1479 187.3 38.5079C187.67 37.8679 188.49 37.6579 189.13 38.0379L195.52 41.7979C195.9 42.0179 196.15 42.4179 196.18 42.8579C196.21 43.2979 196.02 43.7279 195.67 43.9979L189.57 48.7479C189.32 48.9379 189.03 49.0279 188.74 49.0279Z" fill="#303030"/>
<path d="M222.75 49.0281C222.46 49.0281 222.17 48.9381 221.93 48.7481L215.83 43.9981C215.48 43.7281 215.29 43.2981 215.32 42.8581C215.35 42.4181 215.59 42.0181 215.98 41.7981L222.37 38.0381C223.01 37.6681 223.82 37.8781 224.2 38.5081C224.57 39.1481 224.36 39.9681 223.73 40.3381L219.03 43.0981L223.58 46.6381C224.16 47.0881 224.27 47.9281 223.81 48.5181C223.54 48.8581 223.15 49.0281 222.75 49.0281Z" fill="#303030"/>
<path d="M225.66 47.6084C223.33 61.5984 227.43 66.2684 227.43 66.2684C229.84 70.1684 234.96 71.3784 238.86 68.9684C242.76 66.5584 243.97 61.4384 241.56 57.5384C241.56 57.5384 239.22 51.7884 225.66 47.6084Z" fill="#7CC4E8"/>
<path d="M232.16 69.8683C234.34 70.5083 236.77 70.2483 238.86 68.9683C242.76 66.5583 243.97 61.4383 241.56 57.5383C241.56 57.5383 240.57 55.1183 236.19 52.2783C240.44 62.3083 235.72 67.5283 232.16 69.8683Z" fill="#62BBE8"/>
<path d="M185.48 47.4082C172.02 51.9082 169.83 57.7182 169.83 57.7182C167.51 61.6782 168.84 66.7582 172.8 69.0782C176.76 71.3982 181.84 70.0682 184.16 66.1082C184.16 66.0982 188.15 61.3382 185.48 47.4082Z" fill="#7CC4E8"/>
<path d="M168.86 63.5782C169.32 65.7982 170.68 67.8282 172.8 69.0682C176.76 71.3882 181.84 70.0582 184.16 66.0982C184.16 66.0982 185.83 64.0982 186.29 58.8882C179.42 67.3482 172.6 65.6182 168.86 63.5782Z" fill="#62BBE8"/>
<path d="M187.69 52.6982C188.71 61.7682 196.41 68.8182 205.75 68.8182C215.09 68.8182 222.79 61.7682 223.81 52.6982H187.69Z" fill="#695342"/>
<path d="M193.27 63.8481C196.52 66.9281 200.91 68.8082 205.74 68.8082C210.36 68.8082 214.58 67.0781 217.79 64.2381L217.62 63.8481C205.5 57.9381 193.44 63.7681 193.27 63.8481Z" fill="#F06669"/>
<path d="M309.009 70.8127C321.318 58.5035 321.318 38.5463 309.009 26.2371C296.699 13.9279 276.742 13.9279 264.433 26.2371C252.124 38.5463 252.124 58.5035 264.433 70.8127C276.742 83.1219 296.699 83.1219 309.009 70.8127Z" fill="#FFD05D"/>
<path d="M303.22 21.6182C306.36 26.5182 308.18 32.3482 308.18 38.5982C308.18 56.0082 294.07 70.1182 276.66 70.1182C270.61 70.1182 264.97 68.4182 260.17 65.4582C265.77 74.2082 275.58 79.9982 286.73 79.9982C304.14 79.9982 318.25 65.8882 318.25 48.4782C318.26 37.1182 312.24 27.1582 303.22 21.6182Z" fill="#FDC453"/>
<path d="M259.49 51.8481C259.49 35.6881 272.59 22.5781 288.76 22.5781C298.21 22.5781 306.61 27.0581 311.96 34.0081C306.91 25.2381 297.43 19.3281 286.58 19.3281C270.42 19.3281 257.31 32.4281 257.31 48.5981C257.31 55.3181 259.57 61.4981 263.38 66.4381C260.91 62.1381 259.49 57.1581 259.49 51.8481Z" fill="#FFD77F"/>
<path d="M269.73 49.0279C269.33 49.0279 268.94 48.8479 268.68 48.5179C268.23 47.9379 268.33 47.0979 268.91 46.6379L273.46 43.0979L268.76 40.3379C268.12 39.9679 267.91 39.1479 268.29 38.5079C268.66 37.8679 269.48 37.6579 270.12 38.0379L276.51 41.7979C276.89 42.0179 277.14 42.4179 277.17 42.8579C277.2 43.2979 277.01 43.7279 276.66 43.9979L270.56 48.7479C270.3 48.9379 270.01 49.0279 269.73 49.0279Z" fill="#303030"/>
<path d="M303.74 49.0281C303.45 49.0281 303.16 48.9381 302.92 48.7481L296.82 43.9981C296.47 43.7281 296.28 43.2981 296.31 42.8581C296.34 42.4181 296.58 42.0181 296.97 41.7981L303.36 38.0381C304 37.6681 304.81 37.8781 305.19 38.5081C305.56 39.1481 305.35 39.9681 304.72 40.3381L300.02 43.0981L304.57 46.6381C305.15 47.0881 305.26 47.9281 304.8 48.5181C304.53 48.8581 304.13 49.0281 303.74 49.0281Z" fill="#303030"/>
<path d="M306.65 47.6084C304.32 61.5984 308.42 66.2684 308.42 66.2684C310.83 70.1684 315.95 71.3784 319.85 68.9684C323.75 66.5584 324.96 61.4384 322.55 57.5384C322.55 57.5384 320.21 51.7884 306.65 47.6084Z" fill="#7CC4E8"/>
<path d="M313.15 69.8683C315.33 70.5083 317.76 70.2483 319.85 68.9683C323.75 66.5583 324.96 61.4383 322.55 57.5383C322.55 57.5383 321.56 55.1183 317.18 52.2783C321.43 62.3083 316.7 67.5283 313.15 69.8683Z" fill="#62BBE8"/>
<path d="M266.47 47.4082C253.01 51.9082 250.82 57.7182 250.82 57.7182C248.5 61.6782 249.83 66.7582 253.79 69.0782C257.75 71.3982 262.83 70.0682 265.15 66.1082C265.15 66.0982 269.13 61.3382 266.47 47.4082Z" fill="#7CC4E8"/>
<path d="M249.85 63.5782C250.31 65.7982 251.67 67.8282 253.79 69.0682C257.75 71.3882 262.83 70.0582 265.15 66.0982C265.15 66.0982 266.82 64.0982 267.28 58.8882C260.41 67.3482 253.59 65.6182 249.85 63.5782Z" fill="#62BBE8"/>
<path d="M268.67 52.6982C269.69 61.7682 277.39 68.8182 286.73 68.8182C296.07 68.8182 303.77 61.7682 304.79 52.6982H268.67Z" fill="#695342"/>
<path d="M274.26 63.8481C277.51 66.9281 281.9 68.8082 286.73 68.8082C291.35 68.8082 295.57 67.0781 298.78 64.2381L298.61 63.8481C286.49 57.9381 274.42 63.7681 274.26 63.8481Z" fill="#F06669"/>
<path d="M379.804 77.6263C395.887 70.9642 403.524 52.5255 396.862 36.4422C390.2 20.359 371.761 12.7216 355.678 19.3836C339.595 26.0456 331.957 44.4844 338.62 60.5676C345.282 76.6509 363.72 84.2883 379.804 77.6263Z" fill="#FFD05D"/>
<path d="M384.21 21.6182C387.35 26.5182 389.17 32.3482 389.17 38.5982C389.17 56.0082 375.06 70.1182 357.65 70.1182C351.6 70.1182 345.96 68.4182 341.16 65.4582C346.76 74.2082 356.57 79.9982 367.72 79.9982C385.13 79.9982 399.24 65.8882 399.24 48.4782C399.24 37.1182 393.23 27.1582 384.21 21.6182Z" fill="#FDC453"/>
<path d="M340.48 51.8481C340.48 35.6881 353.58 22.5781 369.75 22.5781C379.2 22.5781 387.6 27.0581 392.95 34.0081C387.9 25.2381 378.42 19.3281 367.57 19.3281C351.41 19.3281 338.3 32.4281 338.3 48.5981C338.3 55.3181 340.56 61.4981 344.37 66.4381C341.89 62.1381 340.48 57.1581 340.48 51.8481Z" fill="#FFD77F"/>
<path d="M350.71 49.0279C350.31 49.0279 349.92 48.8479 349.66 48.5179C349.21 47.9379 349.31 47.0979 349.89 46.6379L354.44 43.0979L349.74 40.3379C349.1 39.9679 348.89 39.1479 349.27 38.5079C349.64 37.8679 350.46 37.6579 351.1 38.0379L357.5 41.7979C357.88 42.0179 358.13 42.4179 358.16 42.8579C358.19 43.2979 358 43.7279 357.65 43.9979L351.55 48.7479C351.29 48.9379 351 49.0279 350.71 49.0279Z" fill="#303030"/>
<path d="M384.72 49.0281C384.43 49.0281 384.14 48.9381 383.9 48.7481L377.8 43.9981C377.45 43.7281 377.26 43.2981 377.29 42.8581C377.32 42.4181 377.56 42.0181 377.95 41.7981L384.34 38.0381C384.98 37.6681 385.79 37.8781 386.17 38.5081C386.54 39.1481 386.33 39.9681 385.7 40.3381L381 43.0981L385.55 46.6381C386.13 47.0881 386.24 47.9281 385.78 48.5181C385.51 48.8581 385.12 49.0281 384.72 49.0281Z" fill="#303030"/>
<path d="M387.64 47.6084C385.31 61.5984 389.41 66.2684 389.41 66.2684C391.82 70.1684 396.94 71.3784 400.84 68.9684C404.74 66.5584 405.95 61.4384 403.54 57.5384C403.53 57.5384 401.2 51.7884 387.64 47.6084Z" fill="#7CC4E8"/>
<path d="M394.14 69.8683C396.32 70.5083 398.75 70.2483 400.84 68.9683C404.74 66.5583 405.95 61.4383 403.54 57.5383C403.54 57.5383 402.55 55.1183 398.17 52.2783C402.41 62.3083 397.69 67.5283 394.14 69.8683Z" fill="#62BBE8"/>
<path d="M347.46 47.4082C334 51.9082 331.81 57.7182 331.81 57.7182C329.49 61.6782 330.82 66.7582 334.78 69.0782C338.74 71.3982 343.82 70.0682 346.14 66.1082C346.13 66.0982 350.12 61.3382 347.46 47.4082Z" fill="#7CC4E8"/>
<path d="M330.84 63.5782C331.3 65.7982 332.66 67.8282 334.78 69.0682C338.74 71.3882 343.82 70.0582 346.14 66.0982C346.14 66.0982 347.81 64.0982 348.27 58.8882C341.4 67.3482 334.57 65.6182 330.84 63.5782Z" fill="#62BBE8"/>
<path d="M349.66 52.6978C350.68 61.7678 358.38 68.8177 367.72 68.8177C377.06 68.8177 384.76 61.7678 385.78 52.6978H349.66Z" fill="#695342"/>
<path d="M355.24 63.8477C358.49 66.9277 362.88 68.8077 367.71 68.8077C372.33 68.8077 376.55 67.0777 379.76 64.2377L379.59 63.8477C367.47 57.9377 355.41 63.7677 355.24 63.8477Z" fill="#F06669"/>
</svg>
