<svg width="456" height="131" viewBox="0 0 456 131" fill="none" xmlns="http://www.w3.org/2000/svg">
<path d="M455.98 76.758V35.048C455.98 26.578 452.66 18.588 446.63 12.558C440.6 6.52798 432.61 3.20801 424.14 3.20801H33.41C24.94 3.20801 16.95 6.52798 10.92 12.558C4.89001 18.588 1.57001 26.578 1.57001 35.048V76.758C1.57001 85.228 4.89001 93.218 10.92 99.248C16.95 105.278 24.94 108.598 33.41 108.598H403.93C411.66 116.548 426.66 125.048 442.58 130.448C443.02 130.598 443.47 130.668 443.92 130.668C445.33 130.668 446.66 129.918 447.4 128.718C448.13 127.538 448.19 126.088 447.56 124.838C444.34 118.458 441.97 111.468 440.52 104.038C450.09 98.268 455.98 87.968 455.98 76.758Z" fill="#F1F2F2"/>
<path d="M449.69 72.0381V30.3281C449.69 14.1081 436.42 0.848145 420.21 0.848145H29.48C13.26 0.848145 0 14.1181 0 30.3281V72.0381C0 88.2581 13.27 101.518 29.48 101.518H405.59C412.77 109.348 423.43 118.078 439.4 123.498C440.85 123.988 442.19 122.538 441.51 121.188C439.19 116.608 434.5 109.728 433.94 98.0981C443.29 93.1381 449.69 83.3081 449.69 72.0381Z" fill="white"/>
<path d="M370.15 84.8183C388.657 84.8183 403.66 69.8154 403.66 51.3083C403.66 32.8012 388.657 17.7983 370.15 17.7983C351.643 17.7983 336.64 32.8012 336.64 51.3083C336.64 69.8154 351.643 84.8183 370.15 84.8183Z" fill="#FFD05D"/>
<path d="M387.69 22.7085C391.03 27.9185 392.96 34.1085 392.96 40.7585C392.96 59.2685 377.96 74.2685 359.45 74.2685C353.02 74.2685 347.02 72.4585 341.92 69.3185C347.88 78.6185 358.3 84.7785 370.16 84.7785C388.67 84.7785 403.67 69.7785 403.67 51.2685C403.66 39.1985 397.27 28.6085 387.69 22.7085Z" fill="#FDC453"/>
<path d="M341.2 54.8481C341.2 37.6681 355.13 23.7381 372.31 23.7381C382.35 23.7381 391.28 28.4981 396.97 35.8881C391.6 26.5581 381.53 20.2881 369.99 20.2881C352.81 20.2881 338.88 34.2181 338.88 51.3981C338.88 58.5381 341.29 65.1081 345.33 70.3581C342.7 65.7881 341.2 60.4981 341.2 54.8481Z" fill="#FFD77F"/>
<path d="M360.28 43.1785C360.28 45.4785 359.17 47.3386 357.81 47.3386C356.45 47.3386 355.34 45.4785 355.34 43.1785C355.34 40.8785 356.45 39.0186 357.81 39.0186C359.17 39.0186 360.28 40.8885 360.28 43.1785Z" fill="#303030"/>
<path d="M384.97 43.1785C384.97 45.4785 383.86 47.3386 382.5 47.3386C381.14 47.3386 380.03 45.4785 380.03 43.1785C380.03 40.8785 381.14 39.0186 382.5 39.0186C383.86 39.0186 384.97 40.8885 384.97 43.1785Z" fill="#303030"/>
<path d="M347.64 54.4785C348.92 65.7885 358.51 74.5785 370.16 74.5785C381.81 74.5785 391.4 65.7885 392.68 54.4785H347.64Z" fill="#695342"/>
<path d="M354.6 68.3882C358.66 72.2182 364.13 74.5782 370.15 74.5782C375.91 74.5782 381.17 72.4282 385.17 68.8782L384.96 68.3882C369.85 61.0182 354.81 68.2882 354.6 68.3882Z" fill="#F06669"/>
<path d="M52.56 71.6783C51.99 71.1083 51.71 70.3783 51.71 69.4883V36.0283H40.01C38.14 36.0283 37.2 35.1883 37.2 33.5183C37.2 32.6983 37.44 32.0783 37.93 31.6483C38.42 31.2183 39.11 31.0083 40.01 31.0083H69.49C70.39 31.0083 71.08 31.2183 71.57 31.6483C72.06 32.0783 72.3 32.6983 72.3 33.5183C72.3 35.1983 71.36 36.0283 69.49 36.0283H57.79V69.4883C57.79 70.3883 57.52 71.1183 56.97 71.6783C56.42 72.2383 55.68 72.5283 54.75 72.5283C53.86 72.5283 53.13 72.2483 52.56 71.6783Z" fill="#58595B"/>
<path d="M102.2 54.518V69.728C102.2 70.588 101.93 71.268 101.38 71.778C100.83 72.288 100.11 72.538 99.21 72.538C98.31 72.538 97.6 72.288 97.08 71.778C96.55 71.268 96.29 70.588 96.29 69.728V54.578C96.29 52.238 95.81 50.518 94.86 49.428C93.9 48.338 92.41 47.788 90.38 47.788C88 47.788 86.09 48.528 84.65 50.008C83.21 51.488 82.48 53.478 82.48 55.978V69.728C82.48 70.588 82.22 71.268 81.69 71.778C81.16 72.288 80.45 72.538 79.55 72.538C78.65 72.538 77.93 72.288 77.39 71.778C76.84 71.268 76.57 70.588 76.57 69.728V33.518C76.57 32.658 76.85 31.978 77.42 31.468C77.98 30.958 78.72 30.708 79.61 30.708C80.47 30.708 81.16 30.948 81.69 31.438C82.22 31.928 82.48 32.578 82.48 33.398V48.018C83.45 46.378 84.76 45.138 86.4 44.278C88.04 43.418 89.91 42.988 92.02 42.988C98.81 42.988 102.2 46.828 102.2 54.518Z" fill="#58595B"/>
<path d="M130.72 45.8583C132.57 47.7683 133.5 50.6783 133.5 54.5783V69.7283C133.5 70.6283 133.25 71.3182 132.74 71.8082C132.23 72.2982 131.53 72.5383 130.63 72.5383C129.77 72.5383 129.09 72.2883 128.58 71.7783C128.07 71.2683 127.82 70.5883 127.82 69.7283V67.5682C127.08 69.2082 125.98 70.4683 124.51 71.3383C123.05 72.2183 121.34 72.6583 119.39 72.6583C117.52 72.6583 115.8 72.2783 114.24 71.5183C112.68 70.7583 111.46 69.6983 110.58 68.3283C109.7 66.9583 109.26 65.4383 109.26 63.7683C109.26 61.6983 109.8 60.0783 110.87 58.8883C111.94 57.6983 113.72 56.8483 116.19 56.3483C118.67 55.8383 122.07 55.5883 126.4 55.5883H127.75V53.8883C127.75 51.7083 127.3 50.1283 126.4 49.1483C125.5 48.1783 124.06 47.6882 122.07 47.6882C120.7 47.6882 119.42 47.8683 118.21 48.2183C117 48.5683 115.67 49.0783 114.23 49.7383C113.18 50.3183 112.44 50.6182 112.01 50.6182C111.43 50.6182 110.95 50.4083 110.58 49.9783C110.21 49.5483 110.02 49.0083 110.02 48.3383C110.02 47.7583 110.18 47.2383 110.52 46.7883C110.85 46.3383 111.39 45.8983 112.13 45.4683C113.49 44.7283 115.09 44.1282 116.93 43.6882C118.76 43.2382 120.54 43.0183 122.25 43.0183C126.04 42.9883 128.86 43.9483 130.72 45.8583ZM125.71 66.0682C127.08 64.6082 127.76 62.7282 127.76 60.4282V58.9083H126.71C123.67 58.9083 121.33 59.0482 119.69 59.3182C118.05 59.5882 116.88 60.0482 116.18 60.6882C115.48 61.3282 115.13 62.2583 115.13 63.4683C115.13 64.8683 115.64 66.0183 116.65 66.9183C117.66 67.8183 118.93 68.2683 120.45 68.2683C122.59 68.2583 124.35 67.5282 125.71 66.0682Z" fill="#58595B"/>
<path d="M167.19 54.5182V69.7283C167.19 70.6283 166.93 71.3182 166.4 71.8082C165.87 72.2982 165.14 72.5383 164.21 72.5383C163.31 72.5383 162.6 72.2883 162.08 71.7783C161.55 71.2683 161.29 70.5883 161.29 69.7283V54.8082C161.29 52.3882 160.81 50.6183 159.86 49.4883C158.9 48.3583 157.41 47.7883 155.38 47.7883C153 47.7883 151.09 48.5282 149.65 50.0082C148.21 51.4882 147.49 53.4783 147.49 55.9783V69.7283C147.49 70.5883 147.23 71.2683 146.7 71.7783C146.17 72.2883 145.46 72.5383 144.56 72.5383C143.66 72.5383 142.94 72.2883 142.4 71.7783C141.85 71.2683 141.58 70.5883 141.58 69.7283V45.9183C141.58 45.0983 141.86 44.4283 142.43 43.8983C142.99 43.3683 143.71 43.1083 144.56 43.1083C145.42 43.1083 146.1 43.3582 146.61 43.8682C147.12 44.3782 147.37 45.0383 147.37 45.8583V48.2582C148.31 46.5382 149.61 45.2383 151.29 44.3383C152.97 43.4383 154.86 42.9883 156.96 42.9883C163.78 42.9883 167.19 46.8282 167.19 54.5182Z" fill="#58595B"/>
<path d="M200.3 69.7783C200.3 70.5183 200.05 71.1583 199.54 71.7083C199.03 72.2583 198.43 72.5283 197.73 72.5283C196.99 72.5283 196.33 72.2583 195.74 71.7083L181.17 58.8383V69.6583C181.17 70.5983 180.9 71.3083 180.35 71.7983C179.8 72.2883 179.1 72.5283 178.24 72.5283C177.38 72.5283 176.67 72.2883 176.11 71.7983C175.54 71.3083 175.26 70.5983 175.26 69.6583V33.5682C175.26 32.6282 175.54 31.9182 176.11 31.4282C176.67 30.9382 177.39 30.6982 178.24 30.6982C179.1 30.6982 179.8 30.9382 180.35 31.4282C180.89 31.9182 181.17 32.6282 181.17 33.5682V56.4982L194.51 44.0383C195.17 43.4483 195.82 43.1583 196.44 43.1583C197.18 43.1583 197.82 43.4283 198.37 43.9783C198.91 44.5283 199.19 45.1683 199.19 45.9083C199.19 46.6483 198.86 47.3283 198.2 47.9583L187.79 57.4982L199.26 67.6182C199.95 68.1982 200.3 68.9283 200.3 69.7783Z" fill="#58595B"/>
<path d="M242.27 43.5784C242.72 43.3084 243.2 43.1685 243.7 43.1685C244.44 43.1685 245.09 43.4184 245.66 43.9284C246.22 44.4384 246.51 45.0385 246.51 45.7385C246.51 46.1285 246.43 46.4984 246.28 46.8484L230.02 81.3585C229.79 81.9085 229.44 82.3184 229 82.6184C228.55 82.9084 228.07 83.0584 227.57 83.0584C226.87 83.0584 226.23 82.8285 225.67 82.3585C225.1 81.8885 224.82 81.3085 224.82 80.6085C224.82 80.2985 224.92 79.9084 225.11 79.4384L229.15 70.8384L217.86 46.8585C217.7 46.5485 217.63 46.1984 217.63 45.8084C217.63 45.0684 217.94 44.4484 218.57 43.9384C219.19 43.4284 219.9 43.1784 220.68 43.1784C221.85 43.1784 222.69 43.7284 223.19 44.8184L232.26 64.9384L241.25 44.8585C241.48 44.2785 241.82 43.8484 242.27 43.5784Z" fill="#58595B"/>
<path d="M255.96 70.8383C253.83 69.6283 252.2 67.9083 251.05 65.6583C249.9 63.4183 249.32 60.8083 249.32 57.8483C249.32 54.8483 249.9 52.2283 251.05 49.9783C252.2 47.7383 253.84 46.0083 255.96 44.7983C258.08 43.5883 260.55 42.9883 263.36 42.9883C266.17 42.9883 268.63 43.5883 270.76 44.7983C272.88 46.0083 274.52 47.7283 275.67 49.9783C276.82 52.2183 277.4 54.8483 277.4 57.8483C277.4 60.8083 276.82 63.4183 275.67 65.6583C274.52 67.8983 272.88 69.6283 270.76 70.8383C268.63 72.0483 266.17 72.6483 263.36 72.6483C260.55 72.6483 258.08 72.0483 255.96 70.8383ZM269.35 65.3983C270.73 63.6883 271.43 61.1683 271.43 57.8483C271.43 54.5683 270.73 52.0682 269.32 50.3282C267.92 48.5882 265.93 47.7283 263.35 47.7283C260.78 47.7283 258.79 48.5982 257.38 50.3282C255.98 52.0682 255.27 54.5683 255.27 57.8483C255.27 61.1683 255.96 63.6783 257.35 65.3983C258.73 67.1183 260.73 67.9683 263.35 67.9683C265.97 67.9683 267.97 67.1083 269.35 65.3983Z" fill="#58595B"/>
<path d="M308.2 43.8683C308.73 44.3783 308.99 45.0784 308.99 45.9784V69.7884C308.99 70.6084 308.72 71.2684 308.17 71.7784C307.62 72.2884 306.9 72.5384 306 72.5384C305.18 72.5384 304.52 72.2983 304.01 71.8083C303.5 71.3183 303.25 70.6684 303.25 69.8484V67.6284C302.35 69.2684 301.11 70.5183 299.54 71.3683C297.96 72.2283 296.2 72.6584 294.25 72.6584C287.31 72.6584 283.84 68.8384 283.84 61.1884V45.9784C283.84 45.0784 284.1 44.3783 284.63 43.8683C285.16 43.3583 285.89 43.1084 286.82 43.1084C287.72 43.1084 288.43 43.3583 288.96 43.8683C289.49 44.3783 289.75 45.0784 289.75 45.9784V61.1284C289.75 63.4284 290.22 65.1284 291.15 66.2184C292.09 67.3084 293.53 67.8584 295.48 67.8584C297.78 67.8584 299.62 67.1184 301.01 65.6384C302.39 64.1584 303.09 62.1884 303.09 59.7284V45.9784C303.09 45.1184 303.36 44.4284 303.91 43.8984C304.46 43.3684 305.18 43.1084 306.07 43.1084C306.96 43.1084 307.67 43.3583 308.2 43.8683Z" fill="#58595B"/>
</svg>
