<svg width="347" height="131" viewBox="0 0 347 131" fill="none" xmlns="http://www.w3.org/2000/svg">
<path d="M346.24 76.3582V34.6481C346.24 26.1781 342.92 18.1881 336.89 12.1581C330.86 6.12814 322.87 2.80811 314.4 2.80811H33.47C25 2.80811 17.01 6.12814 10.98 12.1581C4.94998 18.1881 1.63 26.1781 1.63 34.6481V76.3582C1.63 84.8282 4.94998 92.8181 10.98 98.8481C17.01 104.878 25 108.198 33.47 108.198H294.18C301.91 116.148 316.91 124.648 332.83 130.048C333.27 130.198 333.72 130.268 334.17 130.268C335.58 130.268 336.91 129.518 337.65 128.318C338.38 127.138 338.44 125.688 337.81 124.438C334.59 118.058 332.22 111.068 330.76 103.638C340.35 97.8781 346.24 87.5682 346.24 76.3582Z" fill="#F1F2F2"/>
<path d="M339.95 71.6382V29.9282C339.95 13.7082 326.68 0.448242 310.47 0.448242H29.54C13.32 0.448242 0.0600586 13.7182 0.0600586 29.9282V71.6382C0.0600586 87.8582 13.33 101.118 29.54 101.118H295.85C303.03 108.948 313.69 117.678 329.66 123.098C331.11 123.588 332.45 122.138 331.77 120.788C329.45 116.208 324.76 109.328 324.2 97.6982C333.54 92.7482 339.95 82.9082 339.95 71.6382Z" fill="white"/>
<path d="M293.07 58.7438C297.323 40.7328 286.17 22.6842 268.159 18.4313C250.148 14.1784 232.099 25.3316 227.846 43.3426C223.593 61.3537 234.746 79.4023 252.758 83.6552C270.769 87.9081 288.817 76.7549 293.07 58.7438Z" fill="#FFD05D"/>
<path d="M277.94 22.3184C281.28 27.5284 283.21 33.7183 283.21 40.3683C283.21 58.8783 268.21 73.8784 249.7 73.8784C243.27 73.8784 237.27 72.0683 232.17 68.9283C238.13 78.2283 248.55 84.3884 260.41 84.3884C278.92 84.3884 293.92 69.3884 293.92 50.8784C293.92 38.7984 287.53 28.2084 277.94 22.3184Z" fill="#FDC453"/>
<path d="M231.46 54.4482C231.46 37.2682 245.39 23.3382 262.57 23.3382C272.61 23.3382 281.54 28.0982 287.23 35.4882C281.86 26.1582 271.79 19.8882 260.25 19.8882C243.07 19.8882 229.14 33.8182 229.14 50.9982C229.14 58.1382 231.55 64.7082 235.59 69.9582C232.96 65.3882 231.46 60.0982 231.46 54.4482Z" fill="#FFD77F"/>
<path d="M246.68 57.9484C245.82 57.1084 244.43 58.0384 244.88 59.1584C247.36 65.3484 253.4 69.7184 260.47 69.7184C267.42 69.7184 273.39 65.4884 275.94 59.4684C276.41 58.3684 275.01 57.4184 274.15 58.2484C269.25 62.9984 258.84 69.7684 246.68 57.9484Z" fill="#5E4939"/>
<path d="M284.06 38.1982L270.45 39.3282C270.29 39.3282 270.13 39.3382 269.97 39.3482C269.85 39.3582 265.46 39.8882 260.58 40.1682C260.47 40.1782 260.35 40.1782 260.23 40.1682C255.35 39.8782 250.96 39.3582 250.84 39.3482C250.68 39.3282 250.52 39.3282 250.36 39.3282L236.75 38.1982C234.07 38.1482 232.6 39.4582 232.74 41.7882C232.75 41.8782 233.7 47.1781 233.7 47.1781C234.01 48.9981 234.35 50.4882 235.46 52.1382C236.04 52.9982 236.9 53.6382 237.82 54.1082C238.29 54.3482 238.78 54.5282 239.3 54.6582C239.73 54.7582 240.2 54.7582 240.66 54.7782C241.07 54.7982 241.73 54.8282 242.13 54.8282H245.24C246.11 54.8282 246.43 54.8282 246.53 54.8282C247.97 54.8282 249.43 54.4882 250.72 53.8482C252.74 52.8382 253.91 51.1682 254.75 49.1482C255.54 47.2282 257.13 45.7881 258.82 44.6781C259.78 44.0481 261.02 44.0481 261.99 44.6781C262.9 45.2781 263.75 45.9782 264.48 46.7882C265.02 47.3782 265.46 48.1282 265.89 48.8182C266.39 49.5882 266.7 50.5082 267.22 51.2982C267.74 52.0882 268.32 52.7382 269.11 53.2882C270.45 54.2082 272.06 54.7082 273.68 54.8182C273.88 54.8282 274.07 54.8382 274.27 54.8382C274.37 54.8382 274.69 54.8382 275.56 54.8382H278.67C279.08 54.8382 279.74 54.8082 280.14 54.7882C280.6 54.7582 281.07 54.7682 281.5 54.6682C282.01 54.5482 282.51 54.3581 282.98 54.1181C283.9 53.6481 284.76 52.9982 285.34 52.1482C286.45 50.5082 286.79 49.0081 287.1 47.1881C287.1 47.1881 288.06 41.8882 288.06 41.7982C288.21 39.4682 286.74 38.1482 284.06 38.1982Z" fill="#2D292A"/>
<path d="M274.28 54.8279C274.38 54.8279 274.7 54.8279 275.57 54.8279H278.68C279.09 54.8279 279.75 54.798 280.15 54.778C280.61 54.748 281.08 54.758 281.51 54.658C282.02 54.538 282.52 54.348 282.99 54.108C283.91 53.638 284.77 52.9879 285.35 52.1379C286.46 50.4979 286.8 48.9979 287.11 47.1779C287.11 47.1779 288.07 41.878 288.07 41.788C288.09 41.468 288.07 41.1579 288.03 40.8779C281.76 50.5779 274.16 52.9279 269.28 53.3779C270.58 54.2279 272.13 54.698 273.68 54.798C273.89 54.818 274.08 54.8279 274.28 54.8279Z" fill="#414042"/>
<path d="M237.83 54.108C238.3 54.348 238.79 54.528 239.31 54.658C239.74 54.758 240.21 54.758 240.67 54.778C241.08 54.798 241.74 54.828 242.14 54.828H245.25C246.12 54.828 246.44 54.828 246.54 54.828C247.98 54.828 249.44 54.488 250.73 53.848C252.75 52.838 253.92 51.168 254.76 49.148C255.18 48.128 255.83 47.248 256.59 46.478C247.53 52.488 239.99 53.428 236.86 53.528C237.17 53.738 237.5 53.938 237.83 54.108Z" fill="#414042"/>
<path d="M62.4301 70.828C59.5101 69.128 57.26 66.698 55.7 63.518C54.14 60.338 53.36 56.588 53.36 52.258C53.36 47.968 54.14 44.238 55.7 41.058C57.26 37.878 59.5001 35.438 62.4301 33.748C65.3501 32.048 68.79 31.208 72.73 31.208C75.3 31.208 77.74 31.608 80.04 32.408C82.34 33.208 84.3499 34.368 86.0699 35.888C86.8099 36.468 87.1801 37.258 87.1801 38.228C87.1801 38.928 86.98 39.528 86.6 40.008C86.21 40.498 85.74 40.738 85.2 40.738C84.54 40.738 83.89 40.488 83.27 39.978C81.4 38.578 79.69 37.588 78.15 37.028C76.61 36.468 74.86 36.178 72.91 36.178C68.62 36.178 65.32 37.558 63.02 40.328C60.72 43.098 59.5699 47.078 59.5699 52.258C59.5699 57.488 60.72 61.478 63.02 64.248C65.32 67.018 68.62 68.398 72.91 68.398C74.78 68.398 76.49 68.108 78.03 67.518C79.57 66.938 81.32 65.958 83.27 64.598C84.05 64.088 84.69 63.838 85.2 63.838C85.75 63.838 86.21 64.078 86.6 64.568C86.99 65.058 87.1801 65.648 87.1801 66.348C87.1801 67.328 86.8099 68.098 86.0699 68.688C84.3499 70.208 82.35 71.368 80.04 72.168C77.74 72.968 75.3 73.368 72.73 73.368C68.79 73.368 65.3601 72.518 62.4301 70.828Z" fill="#58595B"/>
<path d="M98.09 71.4979C95.96 70.2879 94.3301 68.5679 93.1801 66.3179C92.0301 64.0779 91.45 61.4679 91.45 58.5079C91.45 55.5079 92.0301 52.8879 93.1801 50.6379C94.3301 48.3979 95.97 46.6679 98.09 45.4579C100.21 44.2479 102.68 43.6479 105.49 43.6479C108.3 43.6479 110.76 44.2479 112.89 45.4579C115.01 46.6679 116.65 48.3879 117.8 50.6379C118.95 52.8779 119.53 55.5079 119.53 58.5079C119.53 61.4679 118.95 64.0779 117.8 66.3179C116.65 68.5579 115.01 70.2879 112.89 71.4979C110.76 72.7079 108.3 73.3079 105.49 73.3079C102.68 73.3079 100.21 72.7079 98.09 71.4979ZM111.48 66.0579C112.86 64.3479 113.56 61.8279 113.56 58.5079C113.56 55.2279 112.86 52.728 111.45 50.988C110.05 49.248 108.06 48.3879 105.48 48.3879C102.91 48.3879 100.92 49.258 99.51 50.988C98.11 52.728 97.4 55.2279 97.4 58.5079C97.4 61.8279 98.09 64.3379 99.48 66.0579C100.86 67.7779 102.86 68.6279 105.48 68.6279C108.1 68.6279 110.1 67.7679 111.48 66.0579Z" fill="#58595B"/>
<path d="M131.08 71.4979C128.95 70.2879 127.32 68.5679 126.17 66.3179C125.02 64.0779 124.44 61.4679 124.44 58.5079C124.44 55.5079 125.02 52.8879 126.17 50.6379C127.32 48.3979 128.96 46.6679 131.08 45.4579C133.2 44.2479 135.67 43.6479 138.48 43.6479C141.29 43.6479 143.75 44.2479 145.88 45.4579C148 46.6679 149.64 48.3879 150.79 50.6379C151.94 52.8779 152.52 55.5079 152.52 58.5079C152.52 61.4679 151.94 64.0779 150.79 66.3179C149.64 68.5579 148 70.2879 145.88 71.4979C143.75 72.7079 141.29 73.3079 138.48 73.3079C135.67 73.3079 133.21 72.7079 131.08 71.4979ZM144.48 66.0579C145.86 64.3479 146.56 61.8279 146.56 58.5079C146.56 55.2279 145.86 52.728 144.45 50.988C143.05 49.248 141.06 48.3879 138.48 48.3879C135.91 48.3879 133.92 49.258 132.51 50.988C131.11 52.728 130.4 55.2279 130.4 58.5079C130.4 61.8279 131.09 64.3379 132.48 66.0579C133.86 67.7779 135.86 68.6279 138.48 68.6279C141.1 68.6279 143.09 67.7679 144.48 66.0579Z" fill="#58595B"/>
<path d="M159.92 72.4879C159.35 72.0179 159.07 71.3179 159.07 70.3779V34.2279C159.07 33.2879 159.35 32.5779 159.92 32.0879C160.48 31.5979 161.2 31.3579 162.05 31.3579C162.91 31.3579 163.61 31.5979 164.16 32.0879C164.7 32.5779 164.98 33.2879 164.98 34.2279V70.3779C164.98 71.3179 164.71 72.0179 164.16 72.4879C163.61 72.9579 162.91 73.1879 162.05 73.1879C161.2 73.1979 160.49 72.9579 159.92 72.4879Z" fill="#58595B"/>
<path d="M179.28 72.1379C178.56 71.4379 178.2 70.5379 178.2 69.4479C178.2 68.3579 178.56 67.448 179.28 66.728C180 66.008 180.89 65.6479 181.94 65.6479C182.99 65.6479 183.87 66.008 184.57 66.728C185.27 67.448 185.62 68.3579 185.62 69.4479C185.62 70.5379 185.27 71.4379 184.57 72.1379C183.87 72.8379 182.99 73.1879 181.94 73.1879C180.89 73.1979 180 72.8379 179.28 72.1379ZM180.72 61.2579C180.37 60.9079 180.17 60.438 180.14 59.858L178.38 35.0579C178.26 33.9679 178.55 33.0779 179.23 32.3979C179.91 31.7179 180.82 31.3779 181.95 31.3779C183.04 31.3779 183.93 31.7179 184.61 32.3979C185.29 33.0779 185.57 33.9679 185.46 35.0579L183.7 59.858C183.66 60.478 183.49 60.958 183.17 61.288C182.86 61.618 182.45 61.788 181.94 61.788C181.48 61.788 181.07 61.6079 180.72 61.2579Z" fill="#58595B"/>
<path d="M194.37 72.1379C193.65 71.4379 193.29 70.5379 193.29 69.4479C193.29 68.3579 193.65 67.448 194.37 66.728C195.09 66.008 195.98 65.6479 197.03 65.6479C198.08 65.6479 198.96 66.008 199.66 66.728C200.36 67.448 200.71 68.3579 200.71 69.4479C200.71 70.5379 200.36 71.4379 199.66 72.1379C198.96 72.8379 198.08 73.1879 197.03 73.1879C195.98 73.1979 195.1 72.8379 194.37 72.1379ZM195.81 61.2579C195.46 60.9079 195.26 60.438 195.23 59.858L193.47 35.0579C193.35 33.9679 193.64 33.0779 194.32 32.3979C195 31.7179 195.91 31.3779 197.04 31.3779C198.13 31.3779 199.02 31.7179 199.7 32.3979C200.38 33.0779 200.66 33.9679 200.55 35.0579L198.79 59.858C198.75 60.478 198.58 60.958 198.26 61.288C197.95 61.618 197.54 61.788 197.03 61.788C196.57 61.788 196.16 61.6079 195.81 61.2579Z" fill="#58595B"/>
</svg>
