<svg width="152" height="44" viewBox="-119 -86 152 44" fill="none" xmlns="http://www.w3.org/2000/svg">
<path transform="rotate(207.5)" d="M66.6018 43.2931C65.2418 43.5131 64.1618 43.6231 63.3618 44.8731C62.8518 45.6831 61.5918 46.0331 60.6418 46.5531C59.9318 46.9331 59.1818 47.2531 58.4518 47.5931C58.0718 47.3631 58.5118 46.9331 58.2118 46.7031C57.8718 46.4431 57.5718 46.5831 57.3218 46.8431C57.0918 47.0831 56.7818 47.3431 56.7118 47.6431C56.4418 48.9331 55.5318 48.3631 55.0118 48.1231C53.6918 47.5031 53.1518 47.4131 52.4818 48.4431C52.1218 48.9931 51.9518 49.2031 51.3118 49.0231C51.0518 48.9531 50.6818 49.2131 50.3818 49.3631C48.5918 50.2531 46.9118 51.3631 45.0718 52.2231C46.5918 52.6131 47.8818 50.7131 49.4918 51.7431C49.2018 52.3131 48.7318 52.3231 48.3818 52.2831C47.2318 52.1631 46.3018 52.7031 45.2818 53.0631C44.5018 53.3331 44.2218 54.3331 43.5718 54.3531C42.8818 54.3731 42.2618 53.9531 41.5918 54.6331C41.1218 55.1131 40.6618 54.2531 40.1318 54.2731C39.7518 54.2831 39.3318 54.0631 39.0218 54.5131C38.6818 55.0031 39.0118 55.5431 39.7618 55.6131C40.1518 55.6431 40.7218 55.4731 40.5718 56.1031C40.4618 56.5631 41.1618 57.1031 40.3718 57.4931C38.5318 58.4031 37.0918 60.1431 34.8018 60.0631C34.4918 60.0531 34.2618 60.1531 34.1518 60.4231C33.6718 61.6731 32.5418 61.7331 31.4918 61.8931C30.7918 62.0031 30.4118 62.3431 29.9318 62.9231C28.9418 64.1031 27.6818 65.2131 25.9018 64.8131C24.7018 64.5431 23.5718 64.7031 22.6018 65.3031C21.3818 66.0531 20.0918 66.6231 18.8318 67.2731C17.6918 67.8631 16.5918 68.5031 15.6918 69.4531C15.2318 69.9331 14.7318 70.3531 14.0418 70.5831C13.1318 70.8831 12.2318 71.0931 11.9918 72.4431C11.7918 73.5631 8.82183 74.0031 7.93183 73.0831C7.11183 72.2231 6.52183 72.2531 5.77183 73.0431C5.49183 73.3331 5.14184 73.5531 4.80184 73.7731C3.53184 74.5631 3.11183 74.4931 2.54183 73.0931C2.24183 72.3531 1.73183 72.1131 1.08183 71.8631C0.111834 71.4931 -0.0181681 70.8031 0.00183186 69.9931C0.111832 65.7331 3.85183 64.4731 6.35183 62.2231C7.18183 61.4731 8.27183 60.9831 9.38183 60.6231C9.82183 60.4831 10.2918 60.2831 10.6318 59.9831C13.2418 57.6531 16.5218 56.4931 19.4918 54.7831C19.9018 54.5531 20.4218 54.3831 20.6818 54.0331C21.4118 53.0531 22.4218 52.5731 23.5318 52.2131C24.0418 52.0431 24.5718 51.8631 24.9518 51.4531C27.5718 48.5531 31.2718 47.1031 34.2118 44.6331C34.5218 44.3731 34.8918 44.1131 35.2618 44.0431C37.1818 43.6931 38.5218 42.3531 40.0718 41.3531C40.8018 40.8731 41.6018 40.4931 42.3918 40.1031C44.3118 39.1731 46.4018 38.6031 48.2318 37.4731C48.5218 37.2931 48.8718 37.2031 49.1018 36.9731C50.8118 35.2431 53.0118 34.4231 55.2018 33.5531C56.2418 33.1331 57.1218 32.3731 58.0618 31.7831C61.6818 29.5231 65.5918 27.8331 69.2518 25.6631C71.2218 24.4931 73.3518 23.6831 75.4518 22.8131C75.8418 22.6531 76.2518 22.5231 76.2118 22.0131C76.1718 21.4331 75.7518 21.2331 75.2318 21.2031C74.4218 21.1531 73.6618 20.8131 72.8318 20.8431C71.7018 20.8931 70.7518 20.3331 69.8118 19.8031C69.4318 19.5831 69.0618 19.3231 69.1618 18.8831C69.3518 17.9831 68.7118 17.9031 68.1418 17.6831C66.0918 16.9131 66.1318 16.8631 66.2718 14.8231C66.3218 14.1431 66.4118 13.7731 67.1118 13.7731C67.5918 13.7731 67.7718 13.3631 68.0918 13.1631C69.1418 12.5031 70.0718 11.4531 71.5318 11.8831C74.8618 10.7531 78.4318 10.8531 81.7718 9.90313C85.6118 8.81313 89.5618 8.35312 93.4418 7.54312C94.3418 7.35312 95.1718 7.62313 96.0418 7.49313C99.0418 7.03313 102.022 6.50311 104.872 5.41311C106.082 4.95311 107.392 4.95312 108.612 4.82312C112.672 4.40312 116.602 3.47311 120.502 2.38312C121.292 2.16312 122.052 1.96312 122.872 2.01312C123.262 2.03312 123.752 2.01313 124.052 1.80313C125.602 0.713128 127.362 1.15312 129.042 1.04312C129.982 0.973119 130.932 0.933109 131.852 0.783109C132.752 0.633109 133.422 0.923109 134.042 1.53311C135.032 2.49311 135.082 3.46311 133.962 4.22311C130.662 6.48311 128.002 9.45312 125.002 12.0431C119.822 16.5131 114.772 21.1431 109.472 25.4631C106.712 27.7131 104.142 30.1831 101.332 32.3631C101.012 32.6131 100.692 32.8831 100.452 33.2031C97.7818 36.7131 94.3018 39.4331 91.3318 42.6431C89.5018 44.6231 87.6218 46.5331 85.9418 48.6831C84.6318 50.3631 83.2018 52.0031 81.8518 53.6731C81.3618 54.2731 80.8418 54.8331 79.9718 54.4131C79.0918 53.9931 78.9418 53.1931 79.1018 52.3431C79.2418 51.6131 79.2818 50.8431 79.5018 50.1631C80.0018 48.5931 79.4118 46.9231 80.0618 45.3931C81.2318 42.6531 82.6818 40.0431 84.1518 37.4631C84.7918 36.3331 85.9118 35.4731 86.3018 34.1531C86.5418 33.3231 86.5418 32.7431 85.4318 32.5931C84.8418 32.5131 84.2518 32.3331 83.6418 32.3631C83.0518 32.3831 82.0918 32.1031 82.9218 33.2631C81.7718 33.9231 81.7318 35.4331 80.5218 36.1431C78.1918 37.5231 75.5918 38.3831 73.3618 39.9431C72.9318 40.2431 72.5518 40.1031 72.0718 39.8531C71.2518 39.4231 70.4418 39.2231 69.5918 40.1831C68.9818 40.8631 67.8818 41.1231 66.9818 41.5331C65.9718 41.9931 65.9618 41.9631 66.6018 43.2931Z" fill="#9546D3"/>
</svg>
