<svg width="302" height="130" viewBox="0 0 302 130" fill="none" xmlns="http://www.w3.org/2000/svg">
<path d="M301.89 75.948V34.2379C301.89 25.7679 298.57 17.7779 292.54 11.7479C286.51 5.71794 278.52 2.39795 270.05 2.39795H33.7299C25.2599 2.39795 17.2699 5.71794 11.2399 11.7479C5.20987 17.7779 1.88989 25.7679 1.88989 34.2379V75.948C1.88989 84.418 5.20987 92.4079 11.2399 98.4379C17.2699 104.468 25.2599 107.788 33.7299 107.788H249.84C257.57 115.738 272.57 124.238 288.49 129.638C288.93 129.788 289.38 129.858 289.83 129.858C291.24 129.858 292.57 129.108 293.31 127.908C294.04 126.728 294.1 125.278 293.47 124.028C290.25 117.648 287.88 110.658 286.42 103.228C296 97.468 301.89 87.168 301.89 75.948Z" fill="#F1F2F2"/>
<path d="M295.6 71.2281V29.5181C295.6 13.2981 282.33 0.0380859 266.12 0.0380859H29.7999C13.5799 0.0380859 0.319824 13.3081 0.319824 29.5181V71.2281C0.319824 87.4481 13.5899 100.708 29.7999 100.708H251.51C258.69 108.538 269.35 117.268 285.32 122.688C286.77 123.178 288.11 121.728 287.43 120.378C285.11 115.798 280.42 108.918 279.86 97.2881C289.2 92.3381 295.6 82.4981 295.6 71.2281Z" fill="white"/>
<path d="M239.754 74.2072C252.841 61.1209 252.841 39.9037 239.754 26.8174C226.668 13.731 205.451 13.731 192.365 26.8174C179.278 39.9037 179.278 61.1208 192.365 74.2071C205.451 87.2935 226.668 87.2936 239.754 74.2072Z" fill="#FFD05D"/>
<path d="M233.6 21.9082C236.94 27.1182 238.87 33.3082 238.87 39.9582C238.87 58.4682 223.87 73.4682 205.36 73.4682C198.93 73.4682 192.93 71.6582 187.83 68.5182C193.79 77.8182 204.21 83.9782 216.07 83.9782C234.58 83.9782 249.58 68.9782 249.58 50.4682C249.57 38.3882 243.18 27.7982 233.6 21.9082Z" fill="#FDC453"/>
<path d="M187.11 54.038C187.11 36.858 201.04 22.928 218.22 22.928C228.26 22.928 237.19 27.688 242.88 35.078C237.51 25.748 227.44 19.478 215.9 19.478C198.72 19.478 184.79 33.408 184.79 50.588C184.79 57.728 187.2 64.298 191.24 69.548C188.62 64.978 187.11 59.688 187.11 54.038Z" fill="#FFD77F"/>
<path d="M202.33 55.5783C201.47 54.7383 200.08 55.6683 200.53 56.7883C203.01 62.9783 209.05 67.3483 216.12 67.3483C223.07 67.3483 229.04 63.1183 231.59 57.0983C232.06 55.9983 230.66 55.0483 229.8 55.8783C224.9 60.6283 214.49 67.3883 202.33 55.5783Z" fill="#5E4939"/>
<path d="M206.19 44.5081C206.19 46.8081 205.08 48.6682 203.72 48.6682C202.36 48.6682 201.25 46.8081 201.25 44.5081C201.25 42.2081 202.36 40.3481 203.72 40.3481C205.08 40.3481 206.19 42.2081 206.19 44.5081Z" fill="#303030"/>
<path d="M230.88 44.5081C230.88 46.8081 229.77 48.6682 228.41 48.6682C227.05 48.6682 225.94 46.8081 225.94 44.5081C225.94 42.2081 227.05 40.3481 228.41 40.3481C229.77 40.3481 230.88 42.2081 230.88 44.5081Z" fill="#303030"/>
<path d="M78.0399 32.0181C78.7399 32.0181 79.3798 32.2981 79.9398 32.8681C80.5098 33.4381 80.7899 34.0881 80.7899 34.8281C80.7899 35.5281 80.5598 36.1381 80.0898 36.6381L66.2799 53.8381V70.7981C66.2799 71.7681 65.9999 72.5281 65.4299 73.0481C64.8599 73.5781 64.1299 73.8381 63.2399 73.8381C62.3399 73.8381 61.6198 73.5781 61.0798 73.0481C60.5298 72.5181 60.2599 71.7681 60.2599 70.7981V53.8381L46.4498 36.6381C45.9798 36.1281 45.7499 35.5081 45.7499 34.7681C45.7499 34.0281 46.0198 33.3881 46.5698 32.8381C47.1198 32.2881 47.7599 32.0181 48.4999 32.0181C49.2799 32.0181 49.9599 32.3681 50.5499 33.0681L63.2999 49.0981L75.9899 33.0681C76.5399 32.3681 77.2199 32.0181 78.0399 32.0181Z" fill="#58595B"/>
<path d="M104.42 66.9981C104.77 67.4281 104.95 67.9781 104.95 68.6381C104.95 69.7681 104.25 70.7281 102.84 71.5081C101.47 72.2881 99.9799 72.8881 98.3699 73.3181C96.7499 73.7481 95.1998 73.9581 93.7198 73.9581C89.1998 73.9581 85.6299 72.6381 83.0099 70.0081C80.3999 67.3781 79.0898 63.7781 79.0898 59.2181C79.0898 56.2981 79.6698 53.6981 80.8198 51.4381C81.9698 49.1781 83.5899 47.4181 85.6799 46.1781C87.7699 44.9281 90.1399 44.3081 92.7899 44.3081C96.6099 44.3081 99.6299 45.5381 101.86 47.9981C104.08 50.4581 105.19 53.7681 105.19 57.9381C105.19 59.4981 104.49 60.2781 103.08 60.2781H84.9999C85.3899 66.3281 88.2998 69.3481 93.7198 69.3481C95.1598 69.3481 96.4098 69.1581 97.4598 68.7681C98.5098 68.3781 99.6299 67.8681 100.8 67.2481C100.92 67.1681 101.24 67.0081 101.76 66.7481C102.29 66.4981 102.72 66.3681 103.08 66.3681C103.62 66.3581 104.07 66.5681 104.42 66.9981ZM87.4598 50.7981C86.0898 52.2381 85.2799 54.2681 84.9999 56.8781H100.09C99.9698 54.2281 99.2998 52.1881 98.0698 50.7681C96.8398 49.3481 95.1199 48.6381 92.8899 48.6381C90.6399 48.6281 88.8198 49.3481 87.4598 50.7981Z" fill="#58595B"/>
<path d="M111.85 71.4981C111.15 71.0681 110.65 70.6181 110.36 70.1581C110.07 69.6881 109.92 69.1581 109.92 68.5781C109.92 67.9581 110.1 67.4281 110.45 66.9981C110.8 66.5681 111.25 66.3581 111.8 66.3581C112.31 66.3581 113.11 66.6681 114.2 67.2981C115.37 67.9181 116.51 68.4281 117.62 68.8181C118.73 69.2081 120.13 69.3981 121.8 69.3981C123.67 69.3981 125.13 69.0681 126.19 68.4081C127.25 67.7481 127.77 66.8081 127.77 65.5981C127.77 64.8181 127.57 64.1981 127.16 63.7281C126.75 63.2581 126.04 62.8381 125.03 62.4681C124.02 62.0981 122.51 61.6981 120.53 61.2681C117.1 60.5281 114.63 59.5181 113.13 58.2581C111.63 56.9881 110.88 55.2681 110.88 53.0781C110.88 51.3981 111.37 49.8881 112.34 48.5481C113.31 47.1981 114.66 46.1581 116.38 45.4181C118.1 44.6781 120.05 44.3081 122.23 44.3081C123.79 44.3081 125.31 44.5181 126.79 44.9181C128.27 45.3281 129.58 45.9181 130.71 46.6981C132 47.5581 132.64 48.5481 132.64 49.6781C132.64 50.2981 132.45 50.8281 132.08 51.2581C131.71 51.6881 131.27 51.8981 130.76 51.8981C130.41 51.8981 130.06 51.8181 129.71 51.6681C129.36 51.5081 128.89 51.2581 128.31 50.9081C127.26 50.2881 126.27 49.7981 125.36 49.4481C124.44 49.0981 123.3 48.9181 121.94 48.9181C120.3 48.9181 118.99 49.2681 117.99 49.9681C116.99 50.6681 116.5 51.6281 116.5 52.8381C116.5 53.9281 116.96 54.7781 117.88 55.3781C118.8 55.9881 120.52 56.5581 123.06 57.1081C125.67 57.6581 127.72 58.2781 129.2 58.9781C130.68 59.6781 131.74 60.5481 132.39 61.5781C133.03 62.6081 133.35 63.9281 133.35 65.5281C133.35 68.0681 132.29 70.0981 130.16 71.6381C128.03 73.1781 125.2 73.9481 121.65 73.9481C117.64 73.9581 114.39 73.1381 111.85 71.4981Z" fill="#58595B"/>
<path d="M143.59 72.7883C142.87 72.0883 142.51 71.1883 142.51 70.0983C142.51 69.0083 142.87 68.0983 143.59 67.3783C144.31 66.6583 145.2 66.2983 146.25 66.2983C147.3 66.2983 148.18 66.6583 148.88 67.3783C149.58 68.0983 149.93 69.0083 149.93 70.0983C149.93 71.1883 149.58 72.0883 148.88 72.7883C148.18 73.4883 147.3 73.8383 146.25 73.8383C145.2 73.8483 144.31 73.4883 143.59 72.7883ZM145.02 61.9083C144.67 61.5583 144.47 61.0883 144.44 60.5083L142.69 35.7083C142.57 34.6183 142.86 33.7283 143.54 33.0483C144.22 32.3683 145.13 32.0283 146.26 32.0283C147.35 32.0283 148.24 32.3683 148.92 33.0483C149.6 33.7283 149.88 34.6183 149.77 35.7083L148.01 60.5083C147.97 61.1283 147.8 61.6083 147.48 61.9383C147.17 62.2683 146.76 62.4383 146.25 62.4383C145.78 62.4383 145.37 62.2583 145.02 61.9083Z" fill="#58595B"/>
</svg>
