<svg width="368" height="131" viewBox="0 0 368 131" fill="none" xmlns="http://www.w3.org/2000/svg">
<path d="M367.88 76.5485V34.8385C367.88 26.3685 364.56 18.3785 358.53 12.3485C352.5 6.31854 344.51 2.99854 336.04 2.99854H33.7802C25.3102 2.99854 17.3201 6.31854 11.2901 12.3485C5.2601 18.3785 1.94012 26.3685 1.94012 34.8385V76.5485C1.94012 85.0185 5.2601 93.0085 11.2901 99.0385C17.3201 105.069 25.3102 108.389 33.7802 108.389H315.82C323.55 116.339 338.55 124.839 354.47 130.239C354.91 130.389 355.36 130.459 355.81 130.459C357.22 130.459 358.55 129.709 359.29 128.509C360.02 127.329 360.08 125.879 359.45 124.629C356.23 118.249 353.86 111.259 352.4 103.829C361.99 98.0685 367.88 87.7685 367.88 76.5485Z" fill="#F1F2F2"/>
<path d="M361.59 71.8384V30.1284C361.59 13.9084 348.32 0.648438 332.11 0.648438H29.8501C13.6301 0.648438 0.370117 13.9184 0.370117 30.1284V71.8384C0.370117 88.0584 13.6401 101.318 29.8501 101.318H317.49C324.67 109.148 335.33 117.878 351.3 123.298C352.75 123.788 354.09 122.338 353.41 120.988C351.09 116.408 346.4 109.528 345.84 97.8984C355.19 92.9384 361.59 83.0984 361.59 71.8384Z" fill="white"/>
<path d="M78.9801 32.6182C79.6801 32.6182 80.3201 32.8982 80.8801 33.4682C81.4501 34.0382 81.7301 34.6882 81.7301 35.4282C81.7301 36.1282 81.5002 36.7382 81.0302 37.2382L67.2201 54.4382V71.3982C67.2201 72.3682 66.9401 73.1282 66.3701 73.6482C65.8001 74.1782 65.0701 74.4382 64.1801 74.4382C63.2801 74.4382 62.5601 74.1782 62.0201 73.6482C61.4701 73.1182 61.2001 72.3682 61.2001 71.3982V54.4382L47.3901 37.2382C46.9201 36.7282 46.6901 36.1082 46.6901 35.3682C46.6901 34.6282 46.9601 33.9882 47.5101 33.4382C48.0601 32.8882 48.7001 32.6182 49.4401 32.6182C50.2201 32.6182 50.9001 32.9682 51.4901 33.6682L64.2401 49.6982L76.9301 33.6682C77.4801 32.9682 78.1601 32.6182 78.9801 32.6182Z" fill="#58595B"/>
<path d="M87.6701 73.3682C87.1401 72.8382 86.8801 72.1282 86.8801 71.2382V35.8482C86.8801 34.9482 87.1401 34.2382 87.6701 33.7182C88.2001 33.1882 88.9301 32.9282 89.8601 32.9282H111.39C112.29 32.9282 112.98 33.1382 113.47 33.5682C113.96 33.9982 114.2 34.5982 114.2 35.3782C114.2 36.1582 113.96 36.7482 113.47 37.1582C112.98 37.5682 112.29 37.7682 111.39 37.7682H92.7901V50.7582H110.22C111.12 50.7582 111.81 50.9682 112.3 51.3982C112.79 51.8282 113.03 52.4282 113.03 53.2082C113.03 53.9882 112.79 54.5882 112.3 55.0182C111.81 55.4482 111.12 55.6582 110.22 55.6582H92.7901V69.2882H111.39C113.26 69.2882 114.2 70.0882 114.2 71.6882C114.2 72.4682 113.96 73.0682 113.47 73.4982C112.98 73.9282 112.29 74.1382 111.39 74.1382H89.8601C88.9301 74.1582 88.2001 73.8882 87.6701 73.3682Z" fill="#58595B"/>
<path d="M157.02 71.8184C157.02 72.5584 156.72 73.1884 156.11 73.6884C155.51 74.1984 154.83 74.4484 154.09 74.4484C153.58 74.4484 153.1 74.2984 152.66 74.0084C152.21 73.7184 151.87 73.2984 151.64 72.7484L147.78 63.9784H126.37L122.51 72.7484C122.28 73.2984 121.92 73.7184 121.46 74.0084C120.99 74.2984 120.5 74.4484 120 74.4484C119.22 74.4484 118.53 74.1984 117.92 73.6884C117.31 73.1784 117.01 72.5584 117.01 71.8184C117.01 71.5084 117.11 71.1184 117.3 70.6484L133.8 34.5584C134.07 33.9384 134.51 33.4484 135.12 33.0984C135.72 32.7484 136.36 32.5684 137.02 32.5684C137.68 32.5684 138.32 32.7484 138.92 33.0984C139.52 33.4484 139.96 33.9384 140.24 34.5584L156.74 70.6484C156.92 71.1084 157.02 71.4984 157.02 71.8184ZM128.53 59.1784H145.67L137.07 39.8184L128.53 59.1784Z" fill="#58595B"/>
<path d="M197.44 33.4682C197.99 34.0382 198.26 34.7682 198.26 35.6582V71.3982C198.26 72.2982 197.99 73.0282 197.44 73.5882C196.89 74.1482 196.17 74.4382 195.28 74.4382C194.38 74.4382 193.66 74.1682 193.12 73.6182C192.57 73.0682 192.3 72.3282 192.3 71.3982V55.6582H169.25V71.3982C169.25 72.2982 168.98 73.0282 168.43 73.5882C167.88 74.1482 167.16 74.4382 166.27 74.4382C165.37 74.4382 164.65 74.1682 164.11 73.6182C163.56 73.0682 163.29 72.3282 163.29 71.3982V35.6582C163.29 34.7582 163.56 34.0282 164.11 33.4682C164.65 32.9082 165.38 32.6182 166.27 32.6182C167.17 32.6182 167.89 32.8982 168.43 33.4682C168.98 34.0382 169.25 34.7682 169.25 35.6582V50.7482H192.3V35.6582C192.3 34.7582 192.57 34.0282 193.12 33.4682C193.67 32.9082 194.39 32.6182 195.28 32.6182C196.17 32.6182 196.9 32.9082 197.44 33.4682Z" fill="#58595B"/>
<path d="M213.21 73.3884C212.49 72.6884 212.13 71.7884 212.13 70.6984C212.13 69.6084 212.49 68.6984 213.21 67.9784C213.93 67.2584 214.82 66.8984 215.87 66.8984C216.92 66.8984 217.8 67.2584 218.5 67.9784C219.2 68.6984 219.55 69.6084 219.55 70.6984C219.55 71.7884 219.2 72.6884 218.5 73.3884C217.8 74.0884 216.92 74.4384 215.87 74.4384C214.82 74.4484 213.93 74.0984 213.21 73.3884ZM214.64 62.5084C214.29 62.1584 214.09 61.6884 214.06 61.1084L212.31 36.3084C212.19 35.2184 212.48 34.3284 213.16 33.6484C213.84 32.9684 214.75 32.6284 215.88 32.6284C216.97 32.6284 217.86 32.9684 218.54 33.6484C219.22 34.3284 219.5 35.2184 219.39 36.3084L217.63 61.1084C217.59 61.7284 217.42 62.2084 217.1 62.5384C216.79 62.8684 216.38 63.0384 215.87 63.0384C215.4 63.0384 214.99 62.8684 214.64 62.5084Z" fill="#58595B"/>
<path d="M314.694 58.8757C318.947 40.8646 307.794 22.8161 289.783 18.5631C271.772 14.3102 253.723 25.4634 249.47 43.4745C245.218 61.4856 256.371 79.5341 274.382 83.787C292.393 88.0399 310.441 76.8868 314.694 58.8757Z" fill="#FFD05D"/>
<path d="M299.59 22.5083C302.93 27.7183 304.86 33.9083 304.86 40.5583C304.86 59.0683 289.86 74.0683 271.35 74.0683C264.92 74.0683 258.92 72.2583 253.82 69.1183C259.78 78.4183 270.2 84.5783 282.06 84.5783C300.57 84.5783 315.57 69.5783 315.57 51.0683C315.56 38.9883 309.17 28.4083 299.59 22.5083Z" fill="#FDC453"/>
<path d="M253.1 54.6381C253.1 37.4581 267.03 23.5281 284.21 23.5281C294.25 23.5281 303.18 28.2881 308.87 35.6781C303.5 26.3481 293.43 20.0781 281.89 20.0781C264.71 20.0781 250.78 34.0081 250.78 51.1881C250.78 58.3281 253.19 64.8981 257.23 70.1481C254.6 65.5881 253.1 60.2881 253.1 54.6381Z" fill="#FFD77F"/>
<path d="M263.98 51.6481C263.56 51.6481 263.14 51.4581 262.86 51.0981C262.38 50.4781 262.49 49.5881 263.11 49.1081L267.94 45.3381L262.94 42.3981C262.26 41.9981 262.04 41.1281 262.44 40.4581C262.84 39.7781 263.71 39.5581 264.38 39.9581L271.18 43.9581C271.59 44.1981 271.85 44.6181 271.88 45.0881C271.91 45.5581 271.71 46.0081 271.34 46.2981L264.86 51.3481C264.59 51.5481 264.29 51.6481 263.98 51.6481Z" fill="#303030"/>
<path d="M300.13 51.6483C299.82 51.6483 299.52 51.5483 299.26 51.3483L292.78 46.2983C292.41 46.0083 292.2 45.5583 292.24 45.0883C292.27 44.6183 292.53 44.1983 292.94 43.9583L299.74 39.9583C300.41 39.5583 301.29 39.7883 301.68 40.4583C302.08 41.1383 301.85 42.0083 301.18 42.3983L296.18 45.3383L301.01 49.1083C301.63 49.5883 301.74 50.4783 301.26 51.0983C300.97 51.4583 300.55 51.6483 300.13 51.6483Z" fill="#303030"/>
<path d="M262.86 55.5483C263.95 65.1883 272.12 72.6783 282.06 72.6783C291.99 72.6783 300.17 65.1883 301.26 55.5483H262.86Z" fill="#695342"/>
<path d="M268.79 67.4084C272.25 70.6784 276.91 72.6884 282.05 72.6884C286.96 72.6884 291.45 70.8484 294.86 67.8284L294.68 67.4084C281.79 61.1184 268.97 67.3184 268.79 67.4084Z" fill="#F06669"/>
</svg>
