<svg width="411" height="130" viewBox="0 0 411 130" fill="none" xmlns="http://www.w3.org/2000/svg">
<path d="M410.98 75.948V34.2379C410.98 25.7679 407.66 17.7779 401.63 11.7479C395.6 5.71794 387.61 2.39795 379.14 2.39795H33.9798C25.5098 2.39795 17.5198 5.71794 11.4898 11.7479C5.45984 17.7779 2.13983 25.7679 2.13983 34.2379V75.948C2.13983 84.418 5.45984 92.4079 11.4898 98.4379C17.5198 104.468 25.5098 107.788 33.9798 107.788H358.92C366.65 115.738 381.65 124.238 397.57 129.638C398.01 129.788 398.46 129.858 398.91 129.858C400.32 129.858 401.65 129.108 402.39 127.908C403.12 126.728 403.18 125.278 402.55 124.028C399.33 117.648 396.96 110.658 395.51 103.228C405.09 97.4679 410.98 87.168 410.98 75.948Z" fill="#F1F2F2"/>
<path d="M404.69 71.2281V29.5181C404.69 13.2981 391.42 0.0380859 375.21 0.0380859H30.0498C13.8298 0.0380859 0.569824 13.3081 0.569824 29.5181V71.2281C0.569824 87.4481 13.8398 100.708 30.0498 100.708H360.59C367.77 108.538 378.43 117.268 394.4 122.688C395.85 123.178 397.19 121.728 396.51 120.378C394.19 115.798 389.5 108.918 388.94 97.2881C398.29 92.3381 404.69 82.4981 404.69 71.2281Z" fill="white"/>
<path d="M325.15 84.0181C343.657 84.0181 358.66 69.0151 358.66 50.5081C358.66 32.001 343.657 16.998 325.15 16.998C306.643 16.998 291.64 32.001 291.64 50.5081C291.64 69.0151 306.643 84.0181 325.15 84.0181Z" fill="#FFD05D"/>
<path d="M342.69 21.9082C346.03 27.1182 347.96 33.3082 347.96 39.9582C347.96 58.4682 332.96 73.4682 314.45 73.4682C308.02 73.4682 302.02 71.6582 296.92 68.5182C302.88 77.8182 313.3 83.9782 325.16 83.9782C343.67 83.9782 358.67 68.9782 358.67 50.4682C358.66 38.3882 352.27 27.7982 342.69 21.9082Z" fill="#FDC453"/>
<path d="M296.2 54.038C296.2 36.858 310.13 22.928 327.31 22.928C337.35 22.928 346.28 27.688 351.97 35.078C346.6 25.748 336.53 19.478 324.99 19.478C307.81 19.478 293.88 33.408 293.88 50.588C293.88 57.728 296.29 64.298 300.33 69.548C297.7 64.978 296.2 59.688 296.2 54.038Z" fill="#FFD77F"/>
<path d="M315.28 42.3783C315.28 44.6783 314.17 46.5383 312.81 46.5383C311.45 46.5383 310.34 44.6783 310.34 42.3783C310.34 40.0783 311.45 38.2183 312.81 38.2183C314.17 38.2183 315.28 40.0783 315.28 42.3783Z" fill="#303030"/>
<path d="M337.5 46.5383C338.864 46.5383 339.97 44.6758 339.97 42.3783C339.97 40.0808 338.864 38.2183 337.5 38.2183C336.136 38.2183 335.03 40.0808 335.03 42.3783C335.03 44.6758 336.136 46.5383 337.5 46.5383Z" fill="#303030"/>
<path d="M302.64 53.6782C303.92 64.9882 313.51 73.7782 325.16 73.7782C336.81 73.7782 346.4 64.9882 347.68 53.6782H302.64Z" fill="#695342"/>
<path d="M309.6 67.5782C313.66 71.4082 319.13 73.7682 325.15 73.7682C330.91 73.7682 336.17 71.6182 340.17 68.0682L339.96 67.5782C324.85 60.2082 309.81 67.4782 309.6 67.5782Z" fill="#F06669"/>
<path d="M88.4198 31.2782C88.9698 31.8482 89.2398 32.5782 89.2398 33.4682V69.2082C89.2398 70.1082 88.9698 70.8382 88.4198 71.3982C87.8698 71.9582 87.1498 72.2482 86.2598 72.2482C85.3598 72.2482 84.6398 71.9782 84.0898 71.4282C83.5398 70.8782 83.2698 70.1382 83.2698 69.2082V53.4682H60.2198V69.2082C60.2198 70.1082 59.9498 70.8382 59.3998 71.3982C58.8498 71.9582 58.1298 72.2482 57.2398 72.2482C56.3398 72.2482 55.6198 71.9782 55.0798 71.4282C54.5298 70.8782 54.2598 70.1382 54.2598 69.2082V33.4682C54.2598 32.5682 54.5298 31.8382 55.0798 31.2782C55.6198 30.7182 56.3498 30.4282 57.2398 30.4282C58.1398 30.4282 58.8598 30.7082 59.3998 31.2782C59.9498 31.8482 60.2198 32.5782 60.2198 33.4682V48.5582H83.2698V33.4682C83.2698 32.5682 83.5398 31.8382 84.0898 31.2782C84.6398 30.7182 85.3598 30.4282 86.2598 30.4282C87.1498 30.4282 87.8698 30.7082 88.4198 31.2782Z" fill="#58595B"/>
<path d="M99.6198 71.168C99.0898 70.638 98.8298 69.928 98.8298 69.038V33.648C98.8298 32.748 99.0898 32.038 99.6198 31.518C100.15 30.988 100.88 30.728 101.81 30.728H123.34C124.24 30.728 124.93 30.938 125.42 31.368C125.91 31.798 126.15 32.398 126.15 33.178C126.15 33.958 125.91 34.548 125.42 34.958C124.93 35.368 124.24 35.568 123.34 35.568H104.74V48.558H122.17C123.07 48.558 123.76 48.768 124.25 49.198C124.74 49.628 124.98 50.228 124.98 51.008C124.98 51.788 124.74 52.388 124.25 52.818C123.76 53.248 123.07 53.458 122.17 53.458H104.74V67.088H123.34C125.21 67.088 126.15 67.888 126.15 69.488C126.15 70.268 125.91 70.868 125.42 71.298C124.93 71.728 124.24 71.938 123.34 71.938H101.81C100.88 71.958 100.15 71.698 99.6198 71.168Z" fill="#58595B"/>
<path d="M133.84 71.1982C133.31 70.6882 133.05 70.0082 133.05 69.1482V33.4682C133.05 32.5682 133.32 31.8382 133.87 31.2782C134.42 30.7182 135.14 30.4282 136.03 30.4282C136.97 30.4282 137.71 30.6982 138.25 31.2482C138.8 31.7982 139.07 32.5382 139.07 33.4682V66.9282H156.85C157.75 66.9282 158.44 67.1382 158.93 67.5682C159.42 67.9982 159.66 68.6182 159.66 69.4382C159.66 70.2582 159.42 70.8782 158.93 71.3082C158.44 71.7382 157.75 71.9482 156.85 71.9482H135.97C135.08 71.9582 134.37 71.7082 133.84 71.1982Z" fill="#58595B"/>
<path d="M165.84 71.1982C165.31 70.6882 165.05 70.0082 165.05 69.1482V33.4682C165.05 32.5682 165.32 31.8382 165.87 31.2782C166.41 30.7182 167.14 30.4282 168.03 30.4282C168.97 30.4282 169.71 30.6982 170.25 31.2482C170.8 31.7982 171.07 32.5382 171.07 33.4682V66.9282H188.85C189.75 66.9282 190.44 67.1382 190.93 67.5682C191.42 67.9982 191.66 68.6182 191.66 69.4382C191.66 70.2582 191.42 70.8782 190.93 71.3082C190.44 71.7382 189.75 71.9482 188.85 71.9482H167.97C167.08 71.9582 166.37 71.7082 165.84 71.1982Z" fill="#58595B"/>
<path d="M202.46 69.8581C199.59 68.1381 197.38 65.7081 195.82 62.5481C194.26 59.3881 193.48 55.6681 193.48 51.3781C193.48 47.0481 194.25 43.2981 195.79 40.1181C197.33 36.9381 199.54 34.4981 202.43 32.8081C205.32 31.1081 208.71 30.2681 212.61 30.2681C216.55 30.2681 219.96 31.1181 222.85 32.8081C225.74 34.5081 227.95 36.9381 229.49 40.1181C231.03 43.2981 231.8 47.0281 231.8 51.3181C231.8 55.6081 231.03 59.3381 229.49 62.5181C227.95 65.6981 225.74 68.1481 222.85 69.8581C219.96 71.5781 216.55 72.4281 212.61 72.4281C208.71 72.4281 205.33 71.5781 202.46 69.8581ZM222.26 63.3081C224.56 60.4981 225.71 56.5081 225.71 51.3181C225.71 46.1281 224.57 42.1481 222.29 39.3581C220.01 36.5681 216.78 35.1781 212.61 35.1781C208.52 35.1781 205.33 36.5781 203.05 39.3581C200.77 42.1481 199.63 46.1381 199.63 51.3181C199.63 56.5081 200.77 60.4981 203.05 63.3081C205.33 66.1181 208.52 67.5181 212.61 67.5181C216.74 67.5181 219.96 66.1181 222.26 63.3081Z" fill="#58595B"/>
<path d="M254.93 71.198C254.21 70.498 253.85 69.598 253.85 68.508C253.85 67.418 254.21 66.508 254.93 65.788C255.65 65.068 256.54 64.708 257.59 64.708C258.64 64.708 259.52 65.068 260.22 65.788C260.92 66.508 261.27 67.418 261.27 68.508C261.27 69.598 260.92 70.498 260.22 71.198C259.52 71.898 258.64 72.248 257.59 72.248C256.54 72.258 255.65 71.908 254.93 71.198ZM256.36 60.318C256.01 59.968 255.81 59.498 255.78 58.918L254.03 34.118C253.91 33.028 254.2 32.138 254.88 31.458C255.56 30.778 256.47 30.438 257.6 30.438C258.69 30.438 259.58 30.778 260.26 31.458C260.94 32.138 261.22 33.028 261.11 34.118L259.35 58.918C259.31 59.538 259.14 60.018 258.82 60.348C258.51 60.678 258.1 60.848 257.59 60.848C257.12 60.848 256.72 60.668 256.36 60.318Z" fill="#58595B"/>
</svg>
