<svg width="322" height="131" viewBox="0 0 322 131" fill="none" xmlns="http://www.w3.org/2000/svg">
<path d="M321.88 76.3582V34.6481C321.88 26.1781 318.56 18.1881 312.53 12.1581C306.5 6.12814 298.51 2.80811 290.04 2.80811H33.7601C25.2901 2.80811 17.3001 6.12814 11.2701 12.1581C5.24014 18.1881 1.9201 26.1781 1.9201 34.6481V76.3582C1.9201 84.8282 5.24014 92.8181 11.2701 98.8481C17.3001 104.878 25.2901 108.198 33.7601 108.198H269.83C277.56 116.148 292.56 124.648 308.48 130.048C308.92 130.198 309.37 130.268 309.82 130.268C311.23 130.268 312.56 129.518 313.3 128.318C314.03 127.138 314.09 125.688 313.46 124.438C310.24 118.058 307.87 111.068 306.41 103.638C315.99 97.8781 321.88 87.5682 321.88 76.3582Z" fill="#F1F2F2"/>
<path d="M315.59 71.6382V29.9282C315.59 13.7082 302.32 0.448242 286.11 0.448242H29.8301C13.6101 0.448242 0.350098 13.7182 0.350098 29.9282V71.6382C0.350098 87.8582 13.6201 101.118 29.8301 101.118H271.49C278.67 108.948 289.33 117.678 305.3 123.098C306.75 123.588 308.09 122.138 307.41 120.788C305.09 116.208 300.4 109.328 299.84 97.6982C309.19 92.7482 315.59 82.9082 315.59 71.6382Z" fill="white"/>
<path d="M87.1401 33.2783C87.6901 33.8483 87.9601 34.5783 87.9601 35.4683V71.2083C87.9601 72.1083 87.6901 72.8383 87.1401 73.3983C86.5901 73.9583 85.8701 74.2482 84.9801 74.2482C84.0801 74.2482 83.3601 73.9782 82.8101 73.4282C82.2601 72.8782 81.9901 72.1383 81.9901 71.2083V55.4683H58.9401V71.2083C58.9401 72.1083 58.6701 72.8383 58.1201 73.3983C57.5701 73.9583 56.8501 74.2482 55.9601 74.2482C55.0601 74.2482 54.3401 73.9782 53.8001 73.4282C53.2501 72.8782 52.9801 72.1383 52.9801 71.2083V35.4683C52.9801 34.5683 53.2501 33.8383 53.8001 33.2783C54.3401 32.7183 55.0701 32.4282 55.9601 32.4282C56.8601 32.4282 57.5801 32.7083 58.1201 33.2783C58.6701 33.8483 58.9401 34.5783 58.9401 35.4683V50.5582H81.9901V35.4683C81.9901 34.5683 82.2601 33.8383 82.8101 33.2783C83.3601 32.7183 84.0801 32.4282 84.9801 32.4282C85.8701 32.4282 86.5901 32.7083 87.1401 33.2783Z" fill="#58595B"/>
<path d="M127.36 56.2985C128.67 58.0185 129.32 60.1585 129.32 62.7285C129.32 66.2785 128.1 69.0385 125.66 71.0085C123.22 72.9785 119.82 73.9585 115.45 73.9585H100.53C99.5902 73.9585 98.8601 73.6985 98.3401 73.1685C97.8101 72.6385 97.5501 71.9285 97.5501 71.0385V35.6485C97.5501 34.7485 97.8101 34.0385 98.3401 33.5185C98.8701 32.9885 99.6002 32.7285 100.53 32.7285H114.8C119.05 32.7285 122.38 33.6785 124.77 35.5685C127.17 37.4585 128.37 40.0985 128.37 43.4985C128.37 45.6785 127.79 47.5785 126.64 49.1685C125.49 50.7685 123.88 51.9585 121.81 52.7385C124.21 53.3885 126.05 54.5785 127.36 56.2985ZM103.46 50.5585H113.87C119.64 50.5585 122.53 48.3785 122.53 44.0085C122.53 41.8285 121.82 40.2085 120.4 39.1485C118.98 38.0985 116.8 37.5685 113.88 37.5685H103.47V50.5585H103.46ZM121.42 67.4685C122.82 66.3785 123.53 64.6785 123.53 62.3785C123.53 60.0385 122.82 58.2985 121.39 57.1385C119.97 55.9885 117.77 55.4085 114.81 55.4085H103.46V69.0985H114.81C117.81 69.1085 120.01 68.5585 121.42 67.4685Z" fill="#58595B"/>
<path d="M138 73.1685C137.47 72.6385 137.21 71.9285 137.21 71.0385V35.6485C137.21 34.7485 137.47 34.0385 138 33.5185C138.53 32.9885 139.26 32.7285 140.19 32.7285H151.66C158.33 32.7285 163.5 34.5185 167.16 38.1085C170.83 41.6985 172.66 46.7685 172.66 53.3185C172.66 59.8685 170.83 64.9485 167.16 68.5585C163.49 72.1685 158.33 73.9685 151.66 73.9685H140.19C139.26 73.9585 138.53 73.6985 138 73.1685ZM151.31 68.9285C161.45 68.9285 166.52 63.7185 166.52 53.3085C166.52 42.9385 161.45 37.7485 151.31 37.7485H143.24V68.9285H151.31Z" fill="#58595B"/>
<path d="M268.671 58.2785C272.924 40.2674 261.77 22.2189 243.759 17.966C225.748 13.7131 207.7 24.8662 203.447 42.8773C199.194 60.8884 210.347 78.9369 228.358 83.1899C246.369 87.4428 264.418 76.2896 268.671 58.2785Z" fill="#FFD05D"/>
<path d="M253.59 21.8882C256.93 27.0982 258.86 33.2882 258.86 39.9382C258.86 58.4482 243.86 73.4482 225.35 73.4482C218.92 73.4482 212.92 71.6382 207.82 68.4982C213.78 77.7982 224.2 83.9582 236.06 83.9582C254.57 83.9582 269.57 68.9582 269.57 50.4482C269.56 38.3682 263.17 27.7882 253.59 21.8882Z" fill="#FDC453"/>
<path d="M207.1 54.018C207.1 36.838 221.03 22.908 238.21 22.908C248.25 22.908 257.18 27.668 262.87 35.058C257.5 25.728 247.43 19.458 235.89 19.458C218.71 19.458 204.78 33.388 204.78 50.568C204.78 57.708 207.19 64.278 211.23 69.528C208.6 64.958 207.1 59.668 207.1 54.018Z" fill="#FFD77F"/>
<path d="M222.32 55.5583C221.46 54.7183 220.07 55.6483 220.52 56.7683C223 62.9583 229.04 67.3283 236.11 67.3283C243.06 67.3283 249.03 63.0983 251.58 57.0783C252.05 55.9783 250.65 55.0283 249.79 55.8583C244.89 60.6083 234.48 67.3683 222.32 55.5583Z" fill="#5E4939"/>
<path d="M227.4 45.688C226.45 43.318 224.19 41.7881 221.64 41.7881C219.14 41.7881 216.9 43.2781 215.92 45.5781C215.73 46.0181 215.88 46.5181 216.28 46.7881C216.68 47.0581 217.19 47.018 217.54 46.678C219.4 44.878 222.34 43.4281 225.78 46.7781C225.97 46.9681 226.22 47.0681 226.48 47.0681C226.67 47.0681 226.87 47.0081 227.04 46.8981C227.43 46.6181 227.58 46.128 227.4 45.688Z" fill="#303030"/>
<path d="M256.19 45.688C255.24 43.318 252.98 41.7881 250.43 41.7881C247.93 41.7881 245.69 43.2781 244.71 45.5781C244.52 46.0181 244.67 46.5181 245.07 46.7881C245.47 47.0581 245.98 47.018 246.33 46.688C248.19 44.888 251.13 43.4381 254.57 46.7881C254.76 46.9781 255.01 47.0781 255.27 47.0781C255.46 47.0781 255.66 47.0181 255.83 46.9081C256.22 46.6181 256.37 46.128 256.19 45.688Z" fill="#303030"/>
<path d="M217.27 55.4081C217.27 58.6381 214.65 61.2581 211.42 61.2581C208.19 61.2581 205.57 58.6381 205.57 55.4081C205.57 52.1781 208.19 49.5581 211.42 49.5581C214.65 49.5581 217.27 52.1781 217.27 55.4081Z" fill="#F5A6AC"/>
<path d="M260.69 61.2581C263.921 61.2581 266.54 58.639 266.54 55.4081C266.54 52.1773 263.921 49.5581 260.69 49.5581C257.459 49.5581 254.84 52.1773 254.84 55.4081C254.84 58.639 257.459 61.2581 260.69 61.2581Z" fill="#F5A6AC"/>
</svg>
