<svg width="275" height="131" viewBox="0 0 275 131" fill="none" xmlns="http://www.w3.org/2000/svg">
<path d="M274.98 76.1579V34.4479C274.98 25.9779 271.66 17.9879 265.63 11.9579C259.6 5.92792 251.61 2.60791 243.14 2.60791H34.2098C25.7398 2.60791 17.7498 5.92792 11.7198 11.9579C5.68982 17.9879 2.36981 25.9779 2.36981 34.4479V76.1579C2.36981 84.6279 5.68982 92.6179 11.7198 98.6479C17.7498 104.678 25.7398 107.998 34.2098 107.998H222.92C230.65 115.948 245.65 124.448 261.57 129.848C262.01 129.998 262.46 130.068 262.91 130.068C264.32 130.068 265.65 129.318 266.39 128.118C267.12 126.938 267.18 125.488 266.55 124.238C263.33 117.858 260.96 110.868 259.51 103.438C269.09 97.6679 274.98 87.3679 274.98 76.1579Z" fill="#F1F2F2"/>
<path d="M268.69 71.438V29.728C268.69 13.508 255.42 0.248047 239.21 0.248047H30.2798C14.0598 0.248047 0.799805 13.518 0.799805 29.728V71.438C0.799805 87.658 14.0698 100.918 30.2798 100.918H224.59C231.77 108.748 242.43 117.478 258.4 122.898C259.85 123.388 261.19 121.938 260.51 120.588C258.19 116.008 253.5 109.128 252.94 97.498C262.29 92.538 268.69 82.698 268.69 71.438Z" fill="white"/>
<path d="M222.244 56.0852C225.209 37.8169 212.803 20.604 194.534 17.6391C176.266 14.6743 159.053 27.0802 156.088 45.3486C153.123 63.6169 165.529 80.8297 183.798 83.7946C202.066 86.7594 219.279 74.3535 222.244 56.0852Z" fill="#FFD05D"/>
<path d="M206.69 22.1084C210.03 27.3184 211.96 33.5084 211.96 40.1584C211.96 58.6684 196.96 73.6684 178.45 73.6684C172.02 73.6684 166.02 71.8584 160.92 68.7184C166.88 78.0184 177.3 84.1784 189.16 84.1784C207.67 84.1784 222.67 69.1784 222.67 50.6684C222.66 38.5884 216.27 28.0084 206.69 22.1084Z" fill="#FDC453"/>
<path d="M160.2 54.248C160.2 37.068 174.13 23.138 191.31 23.138C201.35 23.138 210.28 27.898 215.97 35.288C210.6 25.958 200.53 19.688 188.99 19.688C171.81 19.688 157.88 33.618 157.88 50.798C157.88 57.938 160.29 64.508 164.33 69.758C161.7 65.188 160.2 59.888 160.2 54.248Z" fill="#FFD77F"/>
<path d="M175.42 55.778C174.56 54.938 173.17 55.868 173.62 56.988C176.1 63.178 182.14 67.548 189.21 67.548C196.16 67.548 202.13 63.318 204.68 57.298C205.15 56.198 203.75 55.248 202.89 56.078C197.99 60.828 187.58 67.598 175.42 55.778Z" fill="#5E4939"/>
<path d="M180.5 45.9083C179.55 43.5383 177.29 42.0083 174.74 42.0083C172.24 42.0083 170 43.4983 169.02 45.7983C168.83 46.2383 168.98 46.7383 169.38 47.0083C169.78 47.2783 170.29 47.2383 170.64 46.8983C172.5 45.0983 175.44 43.6483 178.88 46.9983C179.07 47.1883 179.32 47.2883 179.58 47.2883C179.77 47.2883 179.97 47.2283 180.14 47.1183C180.53 46.8483 180.68 46.3483 180.5 45.9083Z" fill="#303030"/>
<path d="M209.29 45.9083C208.34 43.5383 206.08 42.0083 203.53 42.0083C201.03 42.0083 198.79 43.4983 197.81 45.7983C197.62 46.2383 197.77 46.7383 198.17 47.0083C198.57 47.2783 199.08 47.2383 199.43 46.9083C201.29 45.1083 204.23 43.6583 207.67 47.0083C207.86 47.1983 208.11 47.2983 208.37 47.2983C208.56 47.2983 208.76 47.2383 208.93 47.1283C209.32 46.8483 209.47 46.3483 209.29 45.9083Z" fill="#303030"/>
<path d="M164.52 61.4783C167.751 61.4783 170.37 58.8592 170.37 55.6283C170.37 52.3975 167.751 49.7783 164.52 49.7783C161.289 49.7783 158.67 52.3975 158.67 55.6283C158.67 58.8592 161.289 61.4783 164.52 61.4783Z" fill="#F5A6AC"/>
<path d="M219.64 55.6283C219.64 58.8583 217.02 61.4783 213.79 61.4783C210.56 61.4783 207.94 58.8583 207.94 55.6283C207.94 52.3983 210.56 49.7783 213.79 49.7783C217.02 49.7783 219.64 52.3983 219.64 55.6283Z" fill="#F5A6AC"/>
<path d="M85.6998 31.4779C86.2498 32.0479 86.5198 32.7779 86.5198 33.6679V69.4079C86.5198 70.3079 86.2498 71.0379 85.6998 71.5979C85.1498 72.1579 84.4298 72.4479 83.5398 72.4479C82.6398 72.4479 81.9198 72.1779 81.3698 71.6279C80.8198 71.0779 80.5498 70.3379 80.5498 69.4079V53.6679H57.4998V69.4079C57.4998 70.3079 57.2298 71.0379 56.6798 71.5979C56.1298 72.1579 55.4098 72.4479 54.5198 72.4479C53.6198 72.4479 52.8998 72.1779 52.3598 71.6279C51.8098 71.0779 51.5398 70.3379 51.5398 69.4079V33.6679C51.5398 32.7679 51.8098 32.0379 52.3598 31.4779C52.8998 30.9179 53.6298 30.6279 54.5198 30.6279C55.4198 30.6279 56.1398 30.9079 56.6798 31.4779C57.2298 32.0479 57.4998 32.7779 57.4998 33.6679V48.7579H80.5498V33.6679C80.5498 32.7679 80.8198 32.0379 81.3698 31.4779C81.9198 30.9179 82.6398 30.6279 83.5398 30.6279C84.4298 30.6279 85.1498 30.9179 85.6998 31.4779Z" fill="#58595B"/>
<path d="M95.6998 36.3679C95.0398 35.7479 94.6998 34.9279 94.6998 33.9079C94.6998 32.8979 95.0298 32.0879 95.6998 31.4779C96.3598 30.8779 97.2598 30.5679 98.3898 30.5679C99.4798 30.5679 100.37 30.8679 101.05 31.4779C101.73 32.0879 102.07 32.8879 102.07 33.9079C102.07 34.9179 101.74 35.7379 101.08 36.3679C100.42 36.9879 99.5198 37.3079 98.3898 37.3079C97.2598 37.2979 96.3598 36.9879 95.6998 36.3679ZM96.2598 71.7579C95.6898 71.2879 95.4098 70.5879 95.4098 69.6479V45.8979C95.4098 44.9579 95.6898 44.2479 96.2598 43.7579C96.8198 43.2679 97.5398 43.0279 98.3898 43.0279C99.2498 43.0279 99.9498 43.2679 100.5 43.7579C101.05 44.2479 101.32 44.9579 101.32 45.8979V69.6479C101.32 70.5879 101.05 71.2879 100.5 71.7579C99.9498 72.2279 99.2498 72.4579 98.3898 72.4579C97.5298 72.4579 96.8198 72.2279 96.2598 71.7579Z" fill="#58595B"/>
<path d="M125.21 71.408C124.49 70.708 124.13 69.808 124.13 68.718C124.13 67.628 124.49 66.7179 125.21 65.9979C125.93 65.2779 126.82 64.918 127.87 64.918C128.92 64.918 129.8 65.2779 130.5 65.9979C131.2 66.7179 131.55 67.628 131.55 68.718C131.55 69.808 131.2 70.708 130.5 71.408C129.8 72.108 128.92 72.4579 127.87 72.4579C126.82 72.4579 125.93 72.108 125.21 71.408ZM126.65 60.528C126.3 60.178 126.1 59.708 126.07 59.128L124.32 34.3279C124.2 33.2379 124.49 32.3479 125.17 31.6679C125.85 30.9879 126.76 30.6479 127.89 30.6479C128.98 30.6479 129.87 30.9879 130.55 31.6679C131.23 32.3479 131.51 33.2379 131.4 34.3279L129.64 59.128C129.6 59.748 129.43 60.228 129.11 60.558C128.8 60.888 128.39 61.058 127.88 61.058C127.41 61.048 127 60.878 126.65 60.528Z" fill="#58595B"/>
</svg>
