<svg width="80" height="46" viewBox="0 0 80 46" fill="none" xmlns="http://www.w3.org/2000/svg">
<g transform="rotate(180 40 23)">
<mask id="path-1-inside-1_1_756" fill="white">
<path fill-rule="evenodd" clip-rule="evenodd" d="M79.4599 22.8428L41.7799 0.342773V13.1628H0.609924V32.5228H41.7799V45.3428L79.4599 22.8428Z"/>
</mask>
<path fill-rule="evenodd" clip-rule="evenodd" d="M79.4599 22.8428L41.7799 0.342773V13.1628H0.609924V32.5228H41.7799V45.3428L79.4599 22.8428Z" fill="#ffeb00"/>
<path d="M41.7799 0.342773L42.2926 -0.515803L40.7799 -1.41908V0.342773H41.7799ZM79.4599 22.8428L79.9726 23.7013L81.4104 22.8428L79.9726 21.9842L79.4599 22.8428ZM41.7799 13.1628V14.1628H42.7799V13.1628H41.7799ZM0.609924 13.1628V12.1628H-0.390076V13.1628H0.609924ZM0.609924 32.5228H-0.390076V33.5228H0.609924V32.5228ZM41.7799 32.5228H42.7799V31.5228H41.7799V32.5228ZM41.7799 45.3428H40.7799V47.1046L42.2926 46.2014L41.7799 45.3428ZM41.2673 1.20135L78.9472 23.7013L79.9726 21.9842L42.2926 -0.515803L41.2673 1.20135ZM42.7799 13.1628V0.342773H40.7799V13.1628H42.7799ZM41.7799 12.1628H0.609924V14.1628H41.7799V12.1628ZM-0.390076 13.1628V32.5228H1.60992V13.1628H-0.390076ZM0.609924 33.5228H41.7799V31.5228H0.609924V33.5228ZM42.7799 45.3428V32.5228H40.7799V45.3428H42.7799ZM78.9472 21.9842L41.2673 44.4842L42.2926 46.2014L79.9726 23.7013L78.9472 21.9842Z" fill="white" mask="url(#path-1-inside-1_1_756)"/>
</g>
</svg>
