<svg width="146" height="76" viewBox="-148 -2 146 76" fill="none" xmlns="http://www.w3.org/2000/svg">
<path transform="rotate(94)" d="M57.8018 117.003C59.5418 117.043 60.8918 115.993 62.3718 115.463C64.0018 114.873 65.6118 114.153 67.0718 113.133C68.2918 112.283 69.7918 111.933 71.2818 111.803C72.8118 111.673 73.3718 112.453 72.6118 113.773C71.0718 116.453 69.8118 119.303 67.5918 121.573C62.5318 126.733 57.6918 132.093 52.3018 136.933C50.2518 138.773 48.4018 140.843 46.4518 142.803C45.9218 143.333 45.3618 143.803 44.6218 144.043C43.5518 144.393 42.9618 144.173 42.8918 143.113C42.7518 141.163 42.6018 139.193 43.1418 137.263C45.4818 128.953 46.7118 120.493 46.4418 111.843C46.4118 111.023 46.3618 110.203 45.9718 109.473C45.2218 108.093 45.3218 106.593 45.3118 105.113C45.3118 104.713 45.3018 104.263 45.7518 104.063C46.2818 103.813 46.7018 104.103 46.9718 104.503C47.7218 105.623 48.4918 106.743 49.1218 107.933C50.4518 110.443 51.5518 113.053 52.4018 115.773C52.7018 116.723 53.0318 117.673 53.8918 118.303C54.7618 117.853 55.0018 117.023 55.3518 116.323C57.5018 112.023 59.0018 107.453 60.7418 102.983C62.5018 98.4531 63.9018 93.7931 66.0218 89.4031C66.7818 87.8331 67.1218 86.0731 67.8118 84.4531C70.3118 78.5331 72.3418 72.4431 73.9518 66.2231C75.0718 61.9031 75.7118 57.4531 75.6418 52.9931C75.5518 47.1631 73.9518 41.7031 71.0718 36.5831C69.4218 33.6531 67.4118 31.0731 64.7818 29.0131C61.4218 26.3831 57.5018 25.2731 53.3018 25.0131C52.9718 24.9931 52.6218 25.0131 52.2918 25.0631C50.3118 25.3731 50.3118 25.4131 50.5718 27.3831C52.1818 39.3131 50.4318 50.7031 44.8818 61.4231C43.5218 64.0631 41.9018 66.6231 38.9518 67.8631C36.5418 68.8831 34.1218 68.8331 32.0818 67.1431C28.7818 64.4231 26.6118 61.0131 26.4918 56.5631C26.4518 55.1431 26.2418 53.7431 26.2018 52.3131C26.0918 47.7231 27.0518 43.3431 28.4618 39.0131C30.9418 31.3931 35.9418 25.8731 42.7718 21.8931C43.5818 21.4231 44.4718 21.0831 45.3618 20.7631C46.0918 20.5031 46.3718 20.0031 46.0818 19.3531C43.9918 14.7431 42.1918 9.94314 37.8518 6.81314C35.6618 5.23314 33.1118 4.65314 30.5518 5.21314C25.6618 6.28314 21.3918 8.65314 17.5718 11.9131C13.2818 15.5731 10.4618 20.3331 7.3218 24.8931C5.0118 28.2531 3.0818 31.7931 1.2618 35.4231C1.2118 35.5231 1.0518 35.5731 0.791798 35.7431C0.331798 32.6531 0.741772 29.7431 2.17177 27.1131C4.19177 23.3731 6.41178 19.7331 8.65178 16.1231C12.7918 9.46314 18.4018 4.46314 25.6818 1.42314C27.1318 0.823136 28.6218 0.343137 30.1518 0.123137C33.3718 -0.336863 36.3418 0.493138 38.8518 2.59314C42.0918 5.30314 44.1618 8.86314 45.8518 12.6631C46.7018 14.5731 47.4918 16.5131 48.3318 18.4231C49.0318 20.0031 49.0618 19.9131 50.7718 19.8431C56.5118 19.6131 61.8018 20.9931 66.1818 24.8331C69.0118 27.3131 70.9418 30.5431 72.5818 33.9031C74.9818 38.8031 76.3718 43.9731 76.8018 49.4631C77.2618 55.3731 76.8618 61.1831 75.7918 66.9831C74.5118 73.9331 72.0818 80.5031 69.6118 87.0831C67.1618 93.5931 64.3518 99.9631 61.7918 106.433C60.5718 109.513 59.2418 112.543 57.9818 115.603C57.8318 115.963 57.5618 116.313 57.8018 117.003ZM49.3918 34.3031C49.5118 31.9131 49.1818 29.5631 48.7218 27.2531C48.4218 25.7231 48.1118 25.6531 46.6018 26.1031C44.5018 26.7331 42.6518 27.8531 40.9318 29.1631C38.2918 31.1731 35.8418 33.3631 33.9318 36.1331C30.9518 40.4531 29.3218 45.2831 28.4218 50.3931C27.7318 54.3031 28.1718 57.8631 31.2318 60.8731C34.4618 64.0531 39.0818 63.0731 41.4018 59.8431C43.8318 56.4531 45.4518 52.6931 46.8418 48.7931C48.4918 44.0831 49.1518 39.2331 49.3918 34.3031Z" fill="#51D346"/>
</svg>
