<svg width="349" height="131" viewBox="0 0 349 131" fill="none" xmlns="http://www.w3.org/2000/svg">
<path d="M348.89 76.758V35.048C348.89 26.578 345.57 18.588 339.54 12.558C333.51 6.52798 325.52 3.20801 317.05 3.20801H34.0798C25.6098 3.20801 17.6198 6.52798 11.5898 12.558C5.55984 18.588 2.23987 26.578 2.23987 35.048V76.758C2.23987 85.228 5.55984 93.218 11.5898 99.248C17.6198 105.278 25.6098 108.598 34.0798 108.598H296.84C304.57 116.548 319.57 125.048 335.49 130.448C335.93 130.598 336.38 130.668 336.83 130.668C338.24 130.668 339.57 129.918 340.31 128.718C341.04 127.538 341.1 126.088 340.47 124.838C337.25 118.458 334.88 111.468 333.42 104.038C343 98.268 348.89 87.968 348.89 76.758Z" fill="#F1F2F2"/>
<path d="M342.6 72.0381V30.3281C342.6 14.1081 329.33 0.848145 313.12 0.848145H30.1499C13.9299 0.848145 0.669922 14.1181 0.669922 30.3281V72.0381C0.669922 88.2581 13.9399 101.518 30.1499 101.518H298.5C305.68 109.348 316.34 118.078 332.31 123.498C333.76 123.988 335.1 122.538 334.42 121.188C332.1 116.608 327.41 109.728 326.85 98.0981C336.2 93.1381 342.6 83.3081 342.6 72.0381Z" fill="white"/>
<path d="M295.708 59.1072C299.961 41.0962 288.807 23.0476 270.796 18.7947C252.785 14.5418 234.737 25.695 230.484 43.706C226.231 61.7171 237.384 79.7655 255.395 84.0185C273.406 88.2714 291.455 77.1183 295.708 59.1072Z" fill="#FFD05D"/>
<path d="M280.6 22.7085C283.94 27.9185 285.87 34.1085 285.87 40.7585C285.87 59.2685 270.87 74.2685 252.36 74.2685C245.93 74.2685 239.93 72.4585 234.83 69.3185C240.79 78.6185 251.21 84.7785 263.07 84.7785C281.58 84.7785 296.58 69.7785 296.58 51.2685C296.57 39.1985 290.18 28.6085 280.6 22.7085Z" fill="#FDC453"/>
<path d="M234.11 54.8481C234.11 37.6681 248.04 23.7381 265.22 23.7381C275.26 23.7381 284.19 28.4981 289.88 35.8881C284.51 26.5581 274.44 20.2881 262.9 20.2881C245.72 20.2881 231.79 34.2181 231.79 51.3981C231.79 58.5381 234.2 65.1081 238.24 70.3581C235.62 65.7881 234.11 60.4981 234.11 54.8481Z" fill="#FFD77F"/>
<path d="M253.19 43.1785C253.19 45.4785 252.08 47.3386 250.72 47.3386C249.36 47.3386 248.25 45.4785 248.25 43.1785C248.25 40.8785 249.36 39.0186 250.72 39.0186C252.08 39.0186 253.19 40.8885 253.19 43.1785Z" fill="#303030"/>
<path d="M277.88 43.1785C277.88 45.4785 276.77 47.3386 275.41 47.3386C274.05 47.3386 272.94 45.4785 272.94 43.1785C272.94 40.8785 274.05 39.0186 275.41 39.0186C276.77 39.0186 277.88 40.8885 277.88 43.1785Z" fill="#303030"/>
<path d="M282.86 36.1582C282.5 36.0482 282.15 35.9582 281.81 35.8582C281.06 35.6482 280.35 35.4482 279.66 35.2082C278.63 34.8582 277.71 34.4682 276.84 34.0082C275.92 33.5182 275.09 32.9782 274.29 32.3482C273.42 31.6682 272.61 30.8782 271.86 30.1182C271.82 30.0782 271.75 30.0582 271.7 30.0882C271.64 30.1082 271.61 30.1682 271.61 30.2282C271.67 31.3682 272.12 32.5582 272.92 33.6482C273.65 34.6382 274.63 35.4682 275.75 36.0582C276.81 36.6182 277.99 36.9582 279.17 37.0382C279.22 37.0382 279.26 37.0482 279.31 37.0482C280.64 37.1182 281.84 36.9082 282.88 36.4182C282.93 36.3882 282.97 36.3382 282.96 36.2782C282.96 36.2282 282.92 36.1782 282.86 36.1582Z" fill="#414042"/>
<path d="M243.27 36.1582C243.63 36.0482 243.98 35.9582 244.32 35.8582C245.07 35.6482 245.78 35.4482 246.47 35.2082C247.5 34.8582 248.42 34.4682 249.29 34.0082C250.21 33.5182 251.04 32.9782 251.84 32.3482C252.71 31.6682 253.52 30.8782 254.27 30.1182C254.31 30.0782 254.38 30.0582 254.43 30.0882C254.49 30.1082 254.52 30.1682 254.52 30.2282C254.46 31.3682 254.01 32.5582 253.21 33.6482C252.48 34.6382 251.5 35.4682 250.38 36.0582C249.32 36.6182 248.14 36.9582 246.96 37.0382C246.91 37.0382 246.87 37.0482 246.82 37.0482C245.49 37.1182 244.29 36.9082 243.25 36.4182C243.2 36.3882 243.16 36.3382 243.17 36.2782C243.17 36.2282 243.21 36.1782 243.27 36.1582Z" fill="#414042"/>
<path d="M270.14 56.3883C268.23 54.7383 265.65 53.8084 263.06 53.8584C260.52 53.8684 257.96 54.7984 256.03 56.4084C255.06 57.2284 254.25 58.2383 253.68 59.3183C253.08 60.4983 252.77 61.6783 252.76 62.8383C252.76 63.1183 252.93 63.3683 253.19 63.4583C253.45 63.5483 253.74 63.4584 253.91 63.2384C254.6 62.3384 255.26 61.6283 255.92 61.0583C256.63 60.4583 257.38 59.9583 258.15 59.5683C259.69 58.7983 261.4 58.3883 263.08 58.3783C264.81 58.3683 266.44 58.7584 267.95 59.5384C269.5 60.3384 270.93 61.5784 272.19 63.2384C272.31 63.3984 272.51 63.4983 272.7 63.4983C272.77 63.4983 272.84 63.4883 272.91 63.4583C273.17 63.3683 273.35 63.1183 273.35 62.8383C273.33 60.4983 272.12 58.0883 270.14 56.3883Z" fill="#5E4939"/>
<path d="M278.36 49.498C268.43 60.848 269.54 67.3581 269.54 67.3581C269.54 72.2281 273.49 76.178 278.36 76.178C283.23 76.178 287.18 72.2281 287.18 67.3581C287.19 67.3681 288.29 60.858 278.36 49.498Z" fill="#7CC4E8"/>
<path d="M271.8 73.2682C273.42 75.0582 275.76 76.1882 278.36 76.1882C283.23 76.1882 287.18 72.2382 287.18 67.3682C287.18 67.3682 287.64 64.6282 285.26 59.6182C283.51 71.0482 276.33 73.1282 271.8 73.2682Z" fill="#62BBE8"/>
<path d="M63.6399 68.2982C60.9699 67.4782 58.8299 66.3481 57.2299 64.9081C56.4899 64.2881 56.1199 63.4881 56.1199 62.5081C56.1199 61.8081 56.3098 61.2081 56.7098 60.7281C57.0998 60.2381 57.5699 59.9981 58.1099 59.9981C58.6499 59.9981 59.3199 60.2481 60.0999 60.7581C63.5699 63.3281 67.5299 64.6181 71.9799 64.6181C75.0999 64.6181 77.4999 64.0281 79.1799 62.8681C80.8599 61.6981 81.6998 60.0181 81.6998 57.8381C81.6998 56.1181 80.9199 54.8381 79.3599 53.9781C77.7999 53.1181 75.2999 52.2981 71.8699 51.5181C68.5899 50.8181 65.8999 50.0181 63.7999 49.1181C61.6899 48.2181 60.0499 46.9981 58.8599 45.4581C57.6699 43.9181 57.0798 41.9581 57.0798 39.5781C57.0798 37.1981 57.7299 35.0881 59.0399 33.2281C60.3499 31.3781 62.1699 29.9381 64.5099 28.8981C66.8499 27.8681 69.5199 27.3481 72.5199 27.3481C75.2899 27.3481 77.8399 27.7381 80.1799 28.5181C82.5199 29.2981 84.5099 30.4481 86.1499 31.9681C86.9299 32.6281 87.3198 33.4281 87.3198 34.3681C87.3198 35.0281 87.1098 35.6181 86.7098 36.1181C86.2998 36.6281 85.8199 36.8781 85.2799 36.8781C84.7699 36.8781 84.1299 36.6281 83.3499 36.1181C81.5599 34.7581 79.8699 33.7682 78.2899 33.1682C76.7099 32.5682 74.8098 32.2581 72.5898 32.2581C69.5898 32.2581 67.2498 32.8681 65.5698 34.0981C63.8898 35.3281 63.0499 37.0381 63.0499 39.2181C63.0499 41.0881 63.7899 42.5081 65.2699 43.4581C66.7499 44.4181 69.1299 45.2781 72.4099 46.0581C75.8399 46.8381 78.6199 47.6482 80.7499 48.4882C82.8699 49.3282 84.5698 50.4781 85.8398 51.9381C87.1098 53.3981 87.7399 55.2781 87.7399 57.5781C87.7399 59.9181 87.0899 61.9981 85.7799 63.8081C84.4699 65.6181 82.6399 67.0281 80.2799 68.0181C77.9199 69.0081 75.1999 69.5081 72.1199 69.5081C69.1299 69.5281 66.3099 69.1182 63.6399 68.2982Z" fill="#58595B"/>
<path d="M99.4398 67.6581C97.3098 66.4481 95.6799 64.7281 94.5299 62.4781C93.3799 60.2381 92.7999 57.6282 92.7999 54.6682C92.7999 51.6682 93.3799 49.0482 94.5299 46.7982C95.6799 44.5582 97.3198 42.8281 99.4398 41.6181C101.56 40.4081 104.03 39.8081 106.84 39.8081C109.65 39.8081 112.11 40.4081 114.24 41.6181C116.36 42.8281 118 44.5482 119.15 46.7982C120.3 49.0382 120.88 51.6682 120.88 54.6682C120.88 57.6282 120.3 60.2381 119.15 62.4781C118 64.7181 116.36 66.4481 114.24 67.6581C112.11 68.8681 109.65 69.4681 106.84 69.4681C104.04 69.4681 101.57 68.8681 99.4398 67.6581ZM112.84 62.2181C114.22 60.5081 114.92 57.9882 114.92 54.6682C114.92 51.3882 114.22 48.8881 112.81 47.1481C111.41 45.4081 109.42 44.5482 106.84 44.5482C104.27 44.5482 102.28 45.4181 100.87 47.1481C99.4699 48.8881 98.7599 51.3882 98.7599 54.6682C98.7599 57.9882 99.4498 60.4981 100.84 62.2181C102.22 63.9381 104.22 64.7881 106.84 64.7881C109.46 64.7881 111.45 63.9381 112.84 62.2181Z" fill="#58595B"/>
<path d="M145.22 42.3283C145.22 43.1883 145.01 43.8283 144.58 44.2583C144.15 44.6883 143.41 44.9383 142.36 45.0183L140.61 45.1983C138.15 45.4283 136.33 46.2883 135.14 47.7683C133.95 49.2483 133.36 51.0483 133.36 53.1483V66.5483C133.36 67.4883 133.09 68.1883 132.54 68.6583C131.99 69.1283 131.29 69.3583 130.43 69.3583C129.57 69.3583 128.86 69.1283 128.3 68.6583C127.73 68.1883 127.45 67.4883 127.45 66.5483V42.7383C127.45 41.8383 127.73 41.1483 128.3 40.6583C128.86 40.1683 129.58 39.9282 130.43 39.9282C131.21 39.9282 131.86 40.1683 132.39 40.6583C132.92 41.1483 133.18 41.8182 133.18 42.6782V45.4883C133.96 43.7783 135.09 42.4683 136.57 41.5683C138.05 40.6683 139.73 40.1483 141.6 39.9883L142.42 39.9282C144.28 39.8082 145.22 40.6083 145.22 42.3283Z" fill="#58595B"/>
<path d="M166.63 42.3283C166.63 43.1883 166.42 43.8283 165.99 44.2583C165.56 44.6883 164.82 44.9383 163.77 45.0183L162.02 45.1983C159.56 45.4283 157.74 46.2883 156.55 47.7683C155.36 49.2483 154.77 51.0483 154.77 53.1483V66.5483C154.77 67.4883 154.5 68.1883 153.95 68.6583C153.4 69.1283 152.7 69.3583 151.84 69.3583C150.98 69.3583 150.27 69.1283 149.71 68.6583C149.14 68.1883 148.86 67.4883 148.86 66.5483V42.7383C148.86 41.8383 149.14 41.1483 149.71 40.6583C150.27 40.1683 150.99 39.9282 151.84 39.9282C152.62 39.9282 153.27 40.1683 153.8 40.6583C154.33 41.1483 154.59 41.8182 154.59 42.6782V45.4883C155.37 43.7783 156.5 42.4683 157.98 41.5683C159.46 40.6683 161.14 40.1483 163.01 39.9883L163.83 39.9282C165.69 39.8082 166.63 40.6083 166.63 42.3283Z" fill="#58595B"/>
<path d="M193.33 40.3983C193.78 40.1283 194.26 39.9883 194.76 39.9883C195.5 39.9883 196.15 40.2382 196.72 40.7482C197.28 41.2582 197.57 41.8582 197.57 42.5582C197.57 42.9482 197.49 43.3183 197.34 43.6683L181.08 78.1782C180.85 78.7282 180.5 79.1382 180.06 79.4382C179.61 79.7282 179.13 79.8782 178.63 79.8782C177.93 79.8782 177.29 79.6482 176.73 79.1782C176.16 78.7082 175.88 78.1282 175.88 77.4282C175.88 77.1182 175.98 76.7282 176.17 76.2582L180.21 67.6583L168.92 43.6782C168.76 43.3682 168.69 43.0182 168.69 42.6282C168.69 41.8882 169 41.2682 169.63 40.7582C170.25 40.2482 170.96 39.9982 171.74 39.9982C172.91 39.9982 173.75 40.5482 174.25 41.6382L183.32 61.7582L192.33 41.6982C192.54 41.0982 192.88 40.6683 193.33 40.3983Z" fill="#58595B"/>
</svg>
