<svg width="434" height="131" viewBox="0 0 434 131" fill="none" xmlns="http://www.w3.org/2000/svg">
<path d="M433.88 76.758V35.048C433.88 26.578 430.56 18.588 424.53 12.558C418.5 6.52798 410.51 3.20801 402.04 3.20801H33.5501C25.0801 3.20801 17.0901 6.52798 11.0601 12.558C5.03012 18.588 1.71014 26.578 1.71014 35.048V76.758C1.71014 85.228 5.03012 93.218 11.0601 99.248C17.0901 105.278 25.0801 108.598 33.5501 108.598H381.82C389.55 116.548 404.55 125.048 420.47 130.448C420.91 130.598 421.36 130.668 421.81 130.668C423.22 130.668 424.55 129.918 425.29 128.718C426.02 127.538 426.08 126.088 425.45 124.838C422.23 118.458 419.86 111.468 418.4 104.038C427.99 98.268 433.88 87.968 433.88 76.758Z" fill="#F1F2F2"/>
<path d="M427.59 72.0381V30.3281C427.59 14.1081 414.32 0.848145 398.11 0.848145H29.6201C13.4001 0.848145 0.140137 14.1181 0.140137 30.3281V72.0381C0.140137 88.2581 13.4101 101.518 29.6201 101.518H383.49C390.67 109.348 401.33 118.078 417.3 123.498C418.75 123.988 420.09 122.538 419.41 121.188C417.09 116.608 412.4 109.728 411.84 98.0981C421.19 93.1381 427.59 83.3081 427.59 72.0381Z" fill="white"/>
<path d="M82.6701 71.8381C82.6701 72.5781 82.3801 73.2282 81.7901 73.7982C81.2001 74.3582 80.5401 74.6481 79.8001 74.6481C78.9801 74.6481 78.2801 74.2981 77.6901 73.5981L65.0001 57.6281L52.2501 73.5981C51.6601 74.2981 50.9801 74.6481 50.2001 74.6481C49.4601 74.6481 48.8001 74.3682 48.2101 73.7982C47.6301 73.2282 47.3301 72.5781 47.3301 71.8381C47.3301 71.2181 47.5602 70.6081 48.0302 70.0281L61.4901 53.3582L48.6801 37.4481C48.2101 36.9381 47.9801 36.3381 47.9801 35.6381C47.9801 34.8981 48.2601 34.2481 48.8301 33.6781C49.3901 33.1181 50.0501 32.8281 50.7901 32.8281C51.6101 32.8281 52.3101 33.1781 52.9001 33.8781L65.0101 49.1481L77.1201 33.8781C77.6701 33.1781 78.3701 32.8281 79.2301 32.8281C79.9701 32.8281 80.6301 33.1081 81.2201 33.6781C81.8101 34.2481 82.1001 34.8981 82.1001 35.6381C82.1001 36.2981 81.8501 36.9081 81.3401 37.4481L68.5302 53.3582L81.9301 70.0281C82.4201 70.5781 82.6701 71.1781 82.6701 71.8381Z" fill="#58595B"/>
<path d="M95.0401 72.2482C92.1701 70.5282 89.9601 68.0982 88.4001 64.9382C86.8401 61.7782 86.0601 58.0582 86.0601 53.7682C86.0601 49.4382 86.8301 45.6882 88.3701 42.5082C89.9101 39.3282 92.1201 36.8882 95.0101 35.1982C97.9001 33.4982 101.29 32.6582 105.19 32.6582C109.13 32.6582 112.54 33.5082 115.43 35.1982C118.32 36.8982 120.53 39.3282 122.07 42.5082C123.61 45.6882 124.38 49.4182 124.38 53.7082C124.38 57.9982 123.61 61.7282 122.07 64.9082C120.53 68.0882 118.32 70.5382 115.43 72.2482C112.54 73.9682 109.13 74.8182 105.19 74.8182C101.29 74.8282 97.9101 73.9682 95.0401 72.2482ZM114.84 65.6982C117.14 62.8882 118.29 58.8982 118.29 53.7082C118.29 48.5182 117.15 44.5382 114.87 41.7482C112.59 38.9582 109.36 37.5682 105.19 37.5682C101.1 37.5682 97.9101 38.9682 95.6301 41.7482C93.3501 44.5382 92.2101 48.5282 92.2101 53.7082C92.2101 58.8982 93.3501 62.8882 95.6301 65.6982C97.9101 68.5082 101.1 69.9082 105.19 69.9082C109.33 69.9082 112.54 68.5082 114.84 65.6982Z" fill="#58595B"/>
<path d="M163.11 71.8381C163.11 72.5781 162.82 73.2282 162.23 73.7982C161.65 74.3582 160.98 74.6481 160.24 74.6481C159.42 74.6481 158.72 74.2981 158.13 73.5981L145.44 57.6281L132.69 73.5981C132.11 74.2981 131.42 74.6481 130.64 74.6481C129.9 74.6481 129.24 74.3682 128.65 73.7982C128.06 73.2282 127.77 72.5781 127.77 71.8381C127.77 71.2181 128 70.6081 128.47 70.0281L141.93 53.3582L129.12 37.4481C128.65 36.9381 128.42 36.3381 128.42 35.6381C128.42 34.8981 128.7 34.2481 129.27 33.6781C129.83 33.1181 130.49 32.8281 131.23 32.8281C132.05 32.8281 132.75 33.1781 133.34 33.8781L145.45 49.1481L157.56 33.8781C158.11 33.1781 158.81 32.8281 159.67 32.8281C160.41 32.8281 161.07 33.1081 161.66 33.6781C162.24 34.2481 162.54 34.8981 162.54 35.6381C162.54 36.2981 162.29 36.9081 161.78 37.4481L148.95 53.3582L162.35 70.0281C162.85 70.5781 163.11 71.1781 163.11 71.8381Z" fill="#58595B"/>
<path d="M175.48 72.2482C172.61 70.5282 170.4 68.0982 168.84 64.9382C167.28 61.7782 166.5 58.0582 166.5 53.7682C166.5 49.4382 167.27 45.6882 168.81 42.5082C170.35 39.3282 172.56 36.8882 175.45 35.1982C178.34 33.4982 181.73 32.6582 185.63 32.6582C189.57 32.6582 192.98 33.5082 195.87 35.1982C198.76 36.8982 200.97 39.3282 202.51 42.5082C204.05 45.6882 204.82 49.4182 204.82 53.7082C204.82 57.9982 204.05 61.7282 202.51 64.9082C200.97 68.0882 198.76 70.5382 195.87 72.2482C192.98 73.9682 189.57 74.8182 185.63 74.8182C181.73 74.8282 178.34 73.9682 175.48 72.2482ZM195.28 65.6982C197.58 62.8882 198.73 58.8982 198.73 53.7082C198.73 48.5182 197.59 44.5382 195.31 41.7482C193.03 38.9582 189.8 37.5682 185.63 37.5682C181.54 37.5682 178.35 38.9682 176.07 41.7482C173.79 44.5382 172.65 48.5282 172.65 53.7082C172.65 58.8982 173.79 62.8882 176.07 65.6982C178.35 68.5082 181.54 69.9082 185.63 69.9082C189.76 69.9082 192.98 68.5082 195.28 65.6982Z" fill="#58595B"/>
<path d="M348.05 84.6079C366.557 84.6079 381.56 69.605 381.56 51.0979C381.56 32.5908 366.557 17.5879 348.05 17.5879C329.543 17.5879 314.54 32.5908 314.54 51.0979C314.54 69.605 329.543 84.6079 348.05 84.6079Z" fill="#FFD05D"/>
<path d="M365.59 22.498C368.93 27.708 370.86 33.8981 370.86 40.5481C370.86 59.0581 355.86 74.058 337.35 74.058C330.92 74.058 324.92 72.2481 319.82 69.1081C325.78 78.4081 336.2 84.5681 348.06 84.5681C366.57 84.5681 381.57 69.568 381.57 51.058C381.56 38.978 375.17 28.398 365.59 22.498Z" fill="#FDC453"/>
<path d="M319.1 54.6381C319.1 37.4581 333.03 23.5281 350.21 23.5281C360.25 23.5281 369.18 28.2881 374.87 35.6781C369.5 26.3481 359.43 20.0781 347.89 20.0781C330.71 20.0781 316.78 34.0081 316.78 51.1881C316.78 58.3281 319.19 64.8981 323.23 70.1481C320.6 65.5781 319.1 60.2781 319.1 54.6381Z" fill="#FFD77F"/>
<path d="M339.4 44.088C338.45 41.718 336.19 40.188 333.64 40.188C331.14 40.188 328.9 41.678 327.92 43.978C327.73 44.418 327.88 44.918 328.28 45.188C328.68 45.458 329.19 45.418 329.54 45.078C331.4 43.278 334.34 41.828 337.78 45.178C337.97 45.368 338.22 45.468 338.48 45.468C338.67 45.468 338.87 45.408 339.04 45.298C339.43 45.028 339.58 44.528 339.4 44.088Z" fill="#303030"/>
<path d="M368.19 44.088C367.24 41.718 364.98 40.188 362.43 40.188C359.93 40.188 357.69 41.678 356.71 43.978C356.52 44.418 356.67 44.918 357.07 45.188C357.47 45.458 357.98 45.418 358.33 45.088C360.19 43.288 363.13 41.838 366.57 45.188C366.76 45.378 367.01 45.478 367.27 45.478C367.46 45.478 367.66 45.418 367.83 45.308C368.22 45.028 368.37 44.528 368.19 44.088Z" fill="#303030"/>
<path d="M333.07 57.418C333.07 57.398 333.07 57.378 333.07 57.368C333.07 54.028 330.65 50.958 327.02 50.958C324.13 50.958 322.46 53.038 321.88 54.978C321.31 53.038 319.63 50.958 316.74 50.958C313.1 50.958 310.69 54.018 310.69 57.368C310.69 57.388 310.69 57.408 310.69 57.418C310.67 58.148 310.69 65.548 321.88 71.578C333.07 65.548 333.09 58.138 333.07 57.418Z" fill="#EE5181"/>
<path d="M348.05 69.7377C345 69.7377 342.53 67.2577 342.53 64.2177C342.53 62.8877 343 61.6376 343.84 60.6476C343 59.6576 342.53 58.3976 342.53 57.0776C342.53 54.0276 345.01 51.5576 348.05 51.5576C349.91 51.5576 351.63 52.4776 352.66 54.0276C352.95 54.4676 352.83 55.0476 352.39 55.3376C351.95 55.6276 351.37 55.5076 351.08 55.0676C350.4 54.0476 349.27 53.4376 348.05 53.4376C346.05 53.4376 344.42 55.0676 344.42 57.0676C344.42 58.1676 344.92 59.2076 345.78 59.8976C346 60.0776 346.13 60.3476 346.13 60.6376C346.13 60.9276 346 61.1976 345.78 61.3776C344.91 62.0676 344.42 63.1076 344.42 64.2076C344.42 66.2076 346.05 67.8376 348.05 67.8376C349.26 67.8376 350.38 67.2377 351.06 66.2377C351.35 65.8077 351.94 65.6877 352.37 65.9877C352.8 66.2777 352.92 66.8677 352.62 67.2977C351.6 68.8277 349.89 69.7377 348.05 69.7377Z" fill="#5E4939"/>
<path d="M293.39 40.1179C293.39 40.0679 293.39 40.0079 293.39 39.9579C293.39 29.8479 286.08 20.5879 275.08 20.5879C266.34 20.5879 261.28 26.8679 259.55 32.7479C257.82 26.8679 252.76 20.5879 244.02 20.5879C233.03 20.5879 225.71 29.8479 225.71 39.9579C225.71 40.0079 225.71 40.0679 225.71 40.1179C225.65 42.3179 225.71 64.6979 259.53 82.9379C259.53 82.9379 259.53 82.9379 259.54 82.9379C259.54 82.9379 259.54 82.9379 259.55 82.9379C259.55 82.9379 259.55 82.9379 259.56 82.9379C259.56 82.9379 259.56 82.9379 259.57 82.9379C293.39 64.6979 293.45 42.3179 293.39 40.1179Z" fill="#F94343"/>
<path d="M259.57 82.9478C293.4 64.6978 293.45 42.3177 293.39 40.1177C293.39 40.0677 293.39 40.0078 293.39 39.9578C293.39 37.1678 292.83 34.4378 291.79 31.9478C288.79 62.5478 259.56 72.2278 247.37 75.1978C250.84 77.8178 254.87 80.4177 259.55 82.9377V82.9478C259.55 82.9478 259.55 82.9478 259.56 82.9478C259.56 82.9478 259.56 82.9478 259.57 82.9478C259.56 82.9478 259.56 82.9478 259.57 82.9478C259.57 82.9478 259.56 82.9478 259.57 82.9478Z" fill="#D63434"/>
<path d="M227.29 42.428C227.29 42.428 227.15 23.548 244.94 21.978C244.94 21.978 233.98 26.158 227.29 42.428Z" fill="#F46060"/>
</svg>
