<svg width="65" height="48" viewBox="0 0 65 48" fill="none" xmlns="http://www.w3.org/2000/svg">
<g transform="rotate(180 32.5 24)">
<mask id="path-1-inside-1_1_642" fill="white">
<path fill-rule="evenodd" clip-rule="evenodd" d="M27.5599 0.492737L64.3099 24.1627L27.5599 47.8327V34.4827H0.979919V24.1627V13.8427H27.5599V0.492737Z"/>
</mask>
<path fill-rule="evenodd" clip-rule="evenodd" d="M27.5599 0.492737L64.3099 24.1627L27.5599 47.8327V34.4827H0.979919V24.1627V13.8427H27.5599V0.492737Z" fill="black"/>
<path d="M64.3099 24.1627L64.8514 25.0034L66.1567 24.1627L64.8514 23.322L64.3099 24.1627ZM27.5599 0.492737L28.1014 -0.347973L26.5599 -1.34082V0.492737H27.5599ZM27.5599 47.8327H26.5599V49.6663L28.1014 48.6735L27.5599 47.8327ZM27.5599 34.4827H28.5599V33.4827H27.5599V34.4827ZM0.979919 34.4827H-0.0200806V35.4827H0.979919V34.4827ZM0.979919 13.8427V12.8427H-0.0200806V13.8427H0.979919ZM27.5599 13.8427V14.8427H28.5599V13.8427H27.5599ZM64.8514 23.322L28.1014 -0.347973L27.0184 1.33345L63.7684 25.0034L64.8514 23.322ZM28.1014 48.6735L64.8514 25.0034L63.7684 23.322L27.0184 46.992L28.1014 48.6735ZM26.5599 34.4827V47.8327H28.5599V34.4827H26.5599ZM0.979919 35.4827H27.5599V33.4827H0.979919V35.4827ZM-0.0200806 24.1627V34.4827H1.97992V24.1627H-0.0200806ZM-0.0200806 13.8427V24.1627H1.97992V13.8427H-0.0200806ZM27.5599 12.8427H0.979919V14.8427H27.5599V12.8427ZM26.5599 0.492737V13.8427H28.5599V0.492737H26.5599Z" fill="white" mask="url(#path-1-inside-1_1_642)"/>
</g>
</svg>
