<svg width="411" height="131" viewBox="0 0 411 131" fill="none" xmlns="http://www.w3.org/2000/svg">
<path d="M410.89 76.1579V34.4479C410.89 25.9779 407.57 17.9879 401.54 11.9579C395.51 5.92792 387.52 2.60791 379.05 2.60791H33.89C25.42 2.60791 17.43 5.92792 11.4 11.9579C5.37002 17.9879 2.05005 25.9779 2.05005 34.4479V76.1579C2.05005 84.6279 5.37002 92.6179 11.4 98.6479C17.43 104.678 25.42 107.998 33.89 107.998H358.83C366.56 115.948 381.56 124.448 397.48 129.848C397.92 129.998 398.37 130.068 398.82 130.068C400.23 130.068 401.56 129.318 402.3 128.118C403.03 126.938 403.09 125.488 402.46 124.238C399.24 117.858 396.87 110.868 395.41 103.438C405 97.6679 410.89 87.3679 410.89 76.1579Z" fill="#F1F2F2"/>
<path d="M404.6 71.438V29.728C404.6 13.508 391.33 0.248047 375.12 0.248047H29.96C13.74 0.248047 0.47998 13.518 0.47998 29.728V71.438C0.47998 87.658 13.75 100.918 29.96 100.918H360.5C367.68 108.748 378.34 117.478 394.31 122.898C395.76 123.388 397.1 121.938 396.42 120.588C394.1 116.008 389.41 109.128 388.85 97.498C398.2 92.538 404.6 82.698 404.6 71.438Z" fill="white"/>
<path d="M357.718 58.4974C361.971 40.4863 350.818 22.4378 332.807 18.1848C314.795 13.9319 296.747 25.0851 292.494 43.0962C288.241 61.1073 299.394 79.1557 317.405 83.4086C335.416 87.6615 353.465 76.5085 357.718 58.4974Z" fill="#FFD05D"/>
<path d="M342.6 22.1079C345.94 27.3179 347.87 33.5079 347.87 40.1579C347.87 58.6679 332.87 73.6679 314.36 73.6679C307.93 73.6679 301.93 71.8579 296.83 68.7179C302.79 78.0179 313.21 84.1779 325.07 84.1779C343.58 84.1779 358.58 69.1779 358.58 50.6679C358.57 38.5879 352.18 28.0079 342.6 22.1079Z" fill="#FDC453"/>
<path d="M296.11 54.248C296.11 37.068 310.04 23.138 327.22 23.138C337.26 23.138 346.19 27.898 351.88 35.288C346.51 25.958 336.44 19.688 324.9 19.688C307.72 19.688 293.79 33.618 293.79 50.798C293.79 57.938 296.2 64.508 300.24 69.758C297.62 65.188 296.11 59.888 296.11 54.248Z" fill="#FFD77F"/>
<path d="M315.19 42.578C315.19 44.878 314.08 46.738 312.72 46.738C311.36 46.738 310.25 44.878 310.25 42.578C310.25 40.278 311.36 38.418 312.72 38.418C314.08 38.418 315.19 40.278 315.19 42.578Z" fill="#303030"/>
<path d="M339.88 42.578C339.88 44.878 338.77 46.738 337.41 46.738C336.05 46.738 334.94 44.878 334.94 42.578C334.94 40.278 336.05 38.418 337.41 38.418C338.77 38.418 339.88 40.278 339.88 42.578Z" fill="#303030"/>
<path d="M331.12 60.1081C331.12 65.7781 328.41 70.3681 325.07 70.3681C321.73 70.3681 319.02 65.7781 319.02 60.1081C319.02 54.4381 321.73 49.8481 325.07 49.8481C328.41 49.8481 331.12 54.4481 331.12 60.1081Z" fill="#695342"/>
<path d="M330.17 65.6084C325.76 63.1784 322.16 64.5584 320.08 65.9384C321.17 68.6184 322.99 70.3684 325.06 70.3684C327.21 70.3684 329.1 68.4684 330.17 65.6084Z" fill="#F06669"/>
<path d="M274.144 56.0681C277.109 37.7997 264.703 20.5869 246.435 17.622C228.166 14.6572 210.953 27.0631 207.989 45.3314C205.024 63.5998 217.43 80.8127 235.698 83.7775C253.966 86.7423 271.179 74.3364 274.144 56.0681Z" fill="#FFD05D"/>
<path d="M258.57 22.1084C261.91 27.3184 263.84 33.5084 263.84 40.1584C263.84 58.6684 248.84 73.6684 230.33 73.6684C223.9 73.6684 217.9 71.8584 212.8 68.7184C218.76 78.0184 229.18 84.1784 241.04 84.1784C259.55 84.1784 274.55 69.1784 274.55 50.6684C274.55 38.5884 268.15 28.0084 258.57 22.1084Z" fill="#FDC453"/>
<path d="M212.08 54.2485C212.08 37.0685 226.01 23.1385 243.19 23.1385C253.23 23.1385 262.16 27.8985 267.85 35.2885C262.48 25.9585 252.41 19.6885 240.87 19.6885C223.69 19.6885 209.76 33.6185 209.76 50.7985C209.76 57.9385 212.17 64.5085 216.21 69.7585C213.59 65.1885 212.08 59.8885 212.08 54.2485Z" fill="#FFD77F"/>
<path d="M231.16 42.5785C231.16 44.8785 230.05 46.7385 228.69 46.7385C227.33 46.7385 226.22 44.8785 226.22 42.5785C226.22 40.2785 227.33 38.4185 228.69 38.4185C230.06 38.4185 231.16 40.2785 231.16 42.5785Z" fill="#303030"/>
<path d="M255.85 42.5785C255.85 44.8785 254.74 46.7385 253.38 46.7385C252.02 46.7385 250.91 44.8785 250.91 42.5785C250.91 40.2785 252.02 38.4185 253.38 38.4185C254.75 38.4185 255.85 40.2785 255.85 42.5785Z" fill="#303030"/>
<path d="M241.04 70.3681C244.381 70.3681 247.09 65.7746 247.09 60.1081C247.09 54.4417 244.381 49.8481 241.04 49.8481C237.699 49.8481 234.99 54.4417 234.99 60.1081C234.99 65.7746 237.699 70.3681 241.04 70.3681Z" fill="#695342"/>
<path d="M246.15 65.6084C241.74 63.1784 238.14 64.5584 236.06 65.9384C237.15 68.6184 238.97 70.3684 241.04 70.3684C243.19 70.3684 245.07 68.4684 246.15 65.6084Z" fill="#F06669"/>
<path d="M56.4399 71.6481C53.5699 69.9281 51.36 67.4981 49.8 64.3381C48.24 61.1781 47.46 57.4581 47.46 53.1681C47.46 48.8381 48.23 45.0881 49.77 41.9081C51.31 38.7281 53.52 36.2881 56.41 34.5981C59.3 32.8981 62.69 32.0581 66.59 32.0581C70.53 32.0581 73.94 32.9081 76.83 34.5981C79.72 36.2981 81.93 38.7281 83.47 41.9081C85.01 45.0881 85.78 48.8181 85.78 53.1081C85.78 57.3981 85.01 61.1281 83.47 64.3081C81.93 67.4881 79.72 69.9381 76.83 71.6481C73.94 73.3681 70.53 74.2181 66.59 74.2181C62.69 74.2181 59.3099 73.3681 56.4399 71.6481ZM76.25 65.0981C78.55 62.2881 79.7 58.2981 79.7 53.1081C79.7 47.9181 78.56 43.9381 76.28 41.1481C74 38.3581 70.77 36.9681 66.6 36.9681C62.51 36.9681 59.32 38.3681 57.04 41.1481C54.76 43.9381 53.62 47.9281 53.62 53.1081C53.62 58.2981 54.76 62.2881 57.04 65.0981C59.32 67.9081 62.51 69.3081 66.6 69.3081C70.73 69.3081 73.94 67.9081 76.25 65.0981Z" fill="#58595B"/>
<path d="M132.7 33.0682C133.25 33.6382 133.52 34.3682 133.52 35.2582V71.1782C133.52 72.0782 133.28 72.7783 132.79 73.2883C132.3 73.7983 131.63 74.0483 130.77 74.0483C129.95 74.0483 129.31 73.7983 128.84 73.2883C128.37 72.7783 128.14 72.0782 128.14 71.1782V43.9782L116.67 65.7983C115.93 67.1683 114.97 67.8483 113.8 67.8483C112.63 67.8483 111.67 67.1683 110.93 65.7983L99.41 44.2083V71.1782C99.41 72.0782 99.18 72.7783 98.71 73.2883C98.24 73.7983 97.58 74.0483 96.72 74.0483C95.9 74.0483 95.25 73.7882 94.76 73.2582C94.27 72.7282 94.03 72.0382 94.03 71.1782V35.2582C94.03 34.3582 94.3 33.6282 94.85 33.0682C95.4 32.5082 96.1 32.2183 96.96 32.2183C98.17 32.2183 99.14 32.9182 99.88 34.3282L113.86 61.0583L127.72 34.3282C128.46 32.9282 129.42 32.2183 130.59 32.2183C131.45 32.2183 132.15 32.5082 132.7 33.0682Z" fill="#58595B"/>
<path d="M175.96 52.5181C176.41 52.9481 176.63 53.5281 176.63 54.2781V67.9681C176.63 69.2981 176.44 70.2481 176.07 70.8381C175.7 71.4181 174.97 71.8881 173.88 72.2381C172.32 72.8581 170.47 73.3481 168.32 73.6981C166.17 74.0481 164.05 74.2281 161.94 74.2281C157.77 74.2281 154.16 73.3881 151.12 71.7081C148.08 70.0281 145.76 67.6181 144.16 64.4581C142.56 61.2981 141.76 57.5181 141.76 53.1081C141.76 48.7781 142.56 45.0381 144.16 41.8781C145.76 38.7181 148.05 36.2881 151.03 34.5981C154.01 32.8981 157.51 32.0581 161.53 32.0581C164.26 32.0581 166.78 32.4581 169.11 33.2581C171.43 34.0581 173.41 35.2181 175.05 36.7381C175.83 37.3581 176.22 38.1381 176.22 39.0781C176.22 39.7781 176.02 40.3781 175.64 40.8581C175.25 41.3481 174.78 41.5881 174.24 41.5881C173.89 41.5881 173.58 41.5281 173.3 41.4081C173.03 41.2881 172.68 41.0981 172.25 40.8281C170.34 39.4281 168.6 38.4381 167.04 37.8781C165.48 37.3181 163.69 37.0281 161.66 37.0281C157.21 37.0281 153.82 38.4081 151.48 41.1481C149.14 43.8981 147.97 47.8881 147.97 53.1081C147.97 58.4481 149.17 62.4981 151.57 65.2481C153.97 67.9981 157.49 69.3681 162.13 69.3681C165.25 69.3681 168.25 68.8981 171.14 67.9681V56.4481H163.48C162.7 56.4481 162.09 56.2381 161.64 55.8381C161.19 55.4281 160.97 54.8781 160.97 54.1681C160.97 53.4681 161.19 52.9081 161.64 52.4981C162.09 52.0881 162.7 51.8881 163.48 51.8881H174.19C174.91 51.8781 175.51 52.0881 175.96 52.5181Z" fill="#58595B"/>
</svg>
