<svg width="91" height="25" viewBox="0 -25 91 25" fill="none" xmlns="http://www.w3.org/2000/svg">
<path transform="rotate(270)" d="M21.76 79.923L15.7777 74.1334L14.93 73.313V74.4927V76.9327V77.1379L15.0741 77.284L21.76 84.0579V89.1726L13.1478 80.8335L12.7998 80.4966L12.452 80.8337L3.84998 89.1717V84.0579L10.5359 77.284L10.68 77.1379V76.9327V74.4927V73.313L9.83227 74.1334L3.84998 79.923V74.8079L10.5359 68.034L10.68 67.8879V67.6827V20.9827V20.1242L9.93326 20.5479L1.80064 25.162L12.8002 1.72903L23.8086 25.1616L15.6767 20.5479L14.93 20.1242V20.9827V67.6827V67.8879L15.0741 68.034L21.76 74.8079V79.923Z" fill="#51D346" stroke="white"/>
</svg>
