<svg width="291" height="131" viewBox="0 0 291 131" fill="none" xmlns="http://www.w3.org/2000/svg">
<path d="M290.89 76.5485V34.8385C290.89 26.3685 287.57 18.3785 281.54 12.3485C275.51 6.31854 267.52 2.99854 259.05 2.99854H34.4003C25.9303 2.99854 17.9403 6.31854 11.9103 12.3485C5.88028 18.3785 2.5603 26.3685 2.5603 34.8385V76.5485C2.5603 85.0185 5.88028 93.0085 11.9103 99.0385C17.9403 105.069 25.9303 108.389 34.4003 108.389H238.83C246.56 116.339 261.56 124.839 277.48 130.239C277.92 130.389 278.37 130.459 278.82 130.459C280.23 130.459 281.56 129.709 282.3 128.509C283.03 127.329 283.09 125.879 282.46 124.629C279.24 118.249 276.87 111.259 275.41 103.829C285 98.0685 290.89 87.7685 290.89 76.5485Z" fill="#F1F2F2"/>
<path d="M284.6 71.8384V30.1284C284.6 13.9084 271.33 0.648438 255.12 0.648438H30.4702C14.2502 0.648438 0.990234 13.9184 0.990234 30.1284V71.8384C0.990234 88.0584 14.2602 101.318 30.4702 101.318H240.5C247.68 109.148 258.34 117.878 274.31 123.298C275.76 123.788 277.1 122.338 276.42 120.988C274.1 116.408 269.41 109.528 268.85 97.8984C278.2 92.9384 284.6 83.0984 284.6 71.8384Z" fill="white"/>
<path d="M228.752 74.8068C241.838 61.7205 241.838 40.5033 228.752 27.417C215.666 14.3306 194.449 14.3306 181.362 27.417C168.276 40.5033 168.276 61.7204 181.362 74.8067C194.449 87.8931 215.666 87.8932 228.752 74.8068Z" fill="#FFD05D"/>
<path d="M222.6 22.5083C225.94 27.7183 227.87 33.9083 227.87 40.5583C227.87 59.0683 212.87 74.0683 194.36 74.0683C187.93 74.0683 181.93 72.2583 176.83 69.1183C182.79 78.4183 193.21 84.5783 205.07 84.5783C223.58 84.5783 238.58 69.5783 238.58 51.0683C238.57 38.9883 232.18 28.4083 222.6 22.5083Z" fill="#FDC453"/>
<path d="M176.11 54.6381C176.11 37.4581 190.04 23.5281 207.22 23.5281C217.26 23.5281 226.19 28.2881 231.88 35.6781C226.51 26.3481 216.44 20.0781 204.9 20.0781C187.72 20.0781 173.79 34.0081 173.79 51.1881C173.79 58.3281 176.2 64.8981 180.24 70.1481C177.62 65.5881 176.11 60.2881 176.11 54.6381Z" fill="#FFD77F"/>
<path d="M219.31 67.1685C218.5 60.0185 212.44 54.4585 205.07 54.4585C197.7 54.4585 191.64 60.0185 190.83 67.1685H219.31Z" fill="#695342"/>
<path d="M190.82 67.1682C190.82 67.1682 202.84 58.3082 219.3 67.1682H190.82Z" fill="#F06669"/>
<path d="M186.99 51.6481C186.57 51.6481 186.15 51.4581 185.87 51.0981C185.39 50.4781 185.5 49.5881 186.12 49.1081L190.95 45.3381L185.95 42.3981C185.27 41.9981 185.05 41.1281 185.45 40.4581C185.85 39.7781 186.72 39.5581 187.39 39.9581L194.19 43.9581C194.6 44.1981 194.86 44.6181 194.89 45.0881C194.92 45.5581 194.72 46.0081 194.35 46.2981L187.87 51.3481C187.6 51.5481 187.3 51.6481 186.99 51.6481Z" fill="#303030"/>
<path d="M223.14 51.6483C222.83 51.6483 222.53 51.5483 222.27 51.3483L215.79 46.2983C215.42 46.0083 215.21 45.5583 215.25 45.0883C215.28 44.6183 215.54 44.1983 215.95 43.9583L222.75 39.9583C223.42 39.5583 224.3 39.7883 224.69 40.4583C225.09 41.1383 224.86 42.0083 224.19 42.3983L219.19 45.3383L224.02 49.1083C224.64 49.5883 224.75 50.4783 224.27 51.0983C223.98 51.4583 223.56 51.6483 223.14 51.6483Z" fill="#303030"/>
<path d="M90.5802 33.4687C91.1102 34.0387 91.3702 34.7687 91.3702 35.6587V71.3987C91.3702 72.2987 91.1003 73.0287 90.5503 73.5887C90.0003 74.1487 89.3002 74.4387 88.4402 74.4387C87.4302 74.4387 86.6502 74.0486 86.1002 73.2686L63.1703 43.0287V71.3987C63.1703 72.2987 62.9102 73.0287 62.3802 73.5887C61.8502 74.1487 61.1603 74.4387 60.3003 74.4387C59.4403 74.4387 58.7602 74.1687 58.2502 73.6187C57.7402 73.0687 57.4902 72.3287 57.4902 71.3987V35.6587C57.4902 34.7587 57.7603 34.0287 58.3103 33.4687C58.8503 32.9087 59.5603 32.6187 60.4203 32.6187C61.4303 32.6187 62.2103 33.0086 62.7603 33.7886L85.6902 64.0887V35.6587C85.6902 34.7587 85.9402 34.0287 86.4502 33.4687C86.9602 32.9087 87.6402 32.6187 88.5002 32.6187C89.3602 32.6187 90.0502 32.9087 90.5802 33.4687Z" fill="#58595B"/>
<path d="M105.26 72.7484C103.13 71.5384 101.5 69.8184 100.35 67.5684C99.2002 65.3284 98.6202 62.7184 98.6202 59.7584C98.6202 56.7584 99.2002 54.1384 100.35 51.8884C101.5 49.6484 103.14 47.9184 105.26 46.7084C107.38 45.4984 109.85 44.8984 112.66 44.8984C115.47 44.8984 117.93 45.4984 120.06 46.7084C122.18 47.9184 123.82 49.6384 124.97 51.8884C126.12 54.1284 126.7 56.7584 126.7 59.7584C126.7 62.7184 126.12 65.3284 124.97 67.5684C123.82 69.8084 122.18 71.5384 120.06 72.7484C117.93 73.9584 115.47 74.5584 112.66 74.5584C109.85 74.5584 107.39 73.9584 105.26 72.7484ZM118.66 67.3084C120.04 65.5984 120.74 63.0784 120.74 59.7584C120.74 56.4784 120.04 53.9784 118.63 52.2384C117.23 50.4984 115.24 49.6384 112.66 49.6384C110.09 49.6384 108.1 50.5084 106.69 52.2384C105.29 53.9784 104.58 56.4784 104.58 59.7584C104.58 63.0784 105.27 65.5884 106.66 67.3084C108.04 69.0284 110.04 69.8784 112.66 69.8784C115.28 69.8784 117.27 69.0284 118.66 67.3084Z" fill="#58595B"/>
<path d="M136.97 73.3889C136.25 72.6889 135.89 71.7889 135.89 70.6989C135.89 69.6089 136.25 68.6989 136.97 67.9789C137.69 67.2589 138.58 66.8989 139.63 66.8989C140.68 66.8989 141.56 67.2589 142.26 67.9789C142.96 68.6989 143.31 69.6089 143.31 70.6989C143.31 71.7889 142.96 72.6889 142.26 73.3889C141.56 74.0889 140.68 74.4389 139.63 74.4389C138.58 74.4489 137.69 74.0989 136.97 73.3889ZM138.4 62.5089C138.05 62.1589 137.85 61.6889 137.82 61.1089L136.06 36.3089C135.94 35.2189 136.23 34.3289 136.91 33.6489C137.59 32.9689 138.5 32.6289 139.63 32.6289C140.72 32.6289 141.61 32.9689 142.29 33.6489C142.97 34.3289 143.25 35.2189 143.14 36.3089L141.38 61.1089C141.34 61.7289 141.17 62.2089 140.85 62.5389C140.54 62.8689 140.13 63.0389 139.62 63.0389C139.16 63.0389 138.75 62.8689 138.4 62.5089Z" fill="#58595B"/>
</svg>
