<svg width="327" height="131" viewBox="0 0 327 131" fill="none" xmlns="http://www.w3.org/2000/svg">
<path d="M326.98 76.3582V34.6481C326.98 26.1781 323.66 18.1881 317.63 12.1581C311.6 6.12814 303.61 2.80811 295.14 2.80811H34.3802C25.9102 2.80811 17.9202 6.12814 11.8902 12.1581C5.86021 18.1881 2.54021 26.1781 2.54021 34.6481V76.3582C2.54021 84.8282 5.86021 92.8181 11.8902 98.8481C17.9202 104.878 25.9102 108.198 34.3802 108.198H274.93C282.66 116.148 297.66 124.648 313.58 130.048C314.02 130.198 314.47 130.268 314.92 130.268C316.33 130.268 317.66 129.518 318.4 128.318C319.13 127.138 319.19 125.688 318.56 124.438C315.34 118.058 312.97 111.068 311.52 103.638C321.09 97.8781 326.98 87.5682 326.98 76.3582Z" fill="#F1F2F2"/>
<path d="M320.69 71.6382V29.9282C320.69 13.7082 307.42 0.448242 291.21 0.448242H30.4502C14.2302 0.448242 0.970215 13.7182 0.970215 29.9282V71.6382C0.970215 87.8582 14.2402 101.118 30.4502 101.118H276.59C283.77 108.948 294.43 117.678 310.4 123.098C311.85 123.588 313.19 122.138 312.51 120.788C310.19 116.208 305.5 109.328 304.94 97.6982C314.29 92.7482 320.69 82.9082 320.69 71.6382Z" fill="white"/>
<path d="M273.749 58.5012C278.002 40.4901 266.849 22.4416 248.837 18.1887C230.826 13.9357 212.778 25.0889 208.525 43.1C204.272 61.1111 215.425 79.1596 233.436 83.4125C251.447 87.6654 269.496 76.5123 273.749 58.5012Z" fill="#FFD05D"/>
<path d="M258.69 22.1382C262.03 27.3482 263.96 33.5382 263.96 40.1882C263.96 58.6982 248.96 73.6982 230.45 73.6982C224.02 73.6982 218.02 71.8882 212.92 68.7482C218.88 78.0482 229.3 84.2082 241.16 84.2082C259.67 84.2082 274.67 69.2082 274.67 50.6982C274.66 38.6182 268.27 28.0282 258.69 22.1382Z" fill="#FDC453"/>
<path d="M212.2 54.268C212.2 37.088 226.13 23.158 243.31 23.158C253.35 23.158 262.28 27.918 267.97 35.308C262.6 25.978 252.53 19.708 240.99 19.708C223.81 19.708 209.88 33.638 209.88 50.818C209.88 57.958 212.29 64.528 216.33 69.778C213.7 65.208 212.2 59.918 212.2 54.268Z" fill="#FFD77F"/>
<path d="M232.5 43.7281C231.55 41.3581 229.29 39.8281 226.74 39.8281C224.24 39.8281 222 41.3181 221.02 43.6181C220.83 44.0581 220.98 44.5581 221.38 44.8281C221.78 45.0981 222.29 45.0581 222.64 44.7181C224.5 42.9181 227.44 41.4681 230.88 44.8181C231.07 45.0081 231.32 45.1082 231.58 45.1082C231.77 45.1082 231.97 45.0481 232.14 44.9381C232.53 44.6581 232.68 44.1681 232.5 43.7281Z" fill="#303030"/>
<path d="M261.29 43.7281C260.34 41.3581 258.08 39.8281 255.53 39.8281C253.03 39.8281 250.79 41.3181 249.81 43.6181C249.62 44.0581 249.77 44.5581 250.17 44.8281C250.57 45.0981 251.08 45.0581 251.43 44.7281C253.29 42.9281 256.23 41.4781 259.67 44.8281C259.86 45.0181 260.11 45.1181 260.37 45.1181C260.56 45.1181 260.76 45.0581 260.93 44.9481C261.32 44.6581 261.47 44.1681 261.29 43.7281Z" fill="#303030"/>
<path d="M226.17 57.0484C226.17 57.0284 226.17 57.0084 226.17 56.9984C226.17 53.6584 223.75 50.5884 220.12 50.5884C217.23 50.5884 215.56 52.6684 214.98 54.6084C214.41 52.6684 212.73 50.5884 209.84 50.5884C206.2 50.5884 203.79 53.6484 203.79 56.9984C203.79 57.0184 203.79 57.0384 203.79 57.0484C203.77 57.7784 203.79 65.1784 214.98 71.2084C226.17 65.1784 226.19 57.7784 226.17 57.0484Z" fill="#EE5181"/>
<path d="M241.15 69.368C238.1 69.368 235.63 66.888 235.63 63.848C235.63 62.518 236.1 61.268 236.94 60.278C236.1 59.288 235.63 58.028 235.63 56.708C235.63 53.658 238.11 51.188 241.15 51.188C243.01 51.188 244.73 52.108 245.76 53.658C246.05 54.098 245.93 54.678 245.49 54.968C245.05 55.258 244.47 55.138 244.18 54.698C243.5 53.678 242.37 53.068 241.15 53.068C239.15 53.068 237.52 54.698 237.52 56.698C237.52 57.798 238.02 58.838 238.88 59.528C239.1 59.708 239.23 59.978 239.23 60.268C239.23 60.558 239.1 60.828 238.88 61.008C238.01 61.698 237.52 62.738 237.52 63.838C237.52 65.838 239.15 67.468 241.15 67.468C242.36 67.468 243.48 66.868 244.16 65.868C244.45 65.438 245.04 65.318 245.47 65.618C245.9 65.908 246.02 66.498 245.72 66.928C244.7 68.458 242.99 69.368 241.15 69.368Z" fill="#5E4939"/>
<path d="M61.5102 73.4083C60.9402 72.8383 60.6602 72.1083 60.6602 71.2183V37.7582H48.9602C47.0902 37.7582 46.1502 36.9182 46.1502 35.2482C46.1502 34.4282 46.3902 33.8082 46.8802 33.3782C47.3702 32.9482 48.0602 32.7383 48.9602 32.7383H78.4402C79.3402 32.7383 80.0302 32.9482 80.5202 33.3782C81.0102 33.8082 81.2502 34.4282 81.2502 35.2482C81.2502 36.9282 80.3102 37.7582 78.4402 37.7582H66.7402V71.2183C66.7402 72.1183 66.4702 72.8483 65.9202 73.4083C65.3702 73.9683 64.6302 74.2582 63.7002 74.2582C62.8002 74.2482 62.0702 73.9683 61.5102 73.4083Z" fill="#58595B"/>
<path d="M120.38 33.2783C120.93 33.8483 121.2 34.5783 121.2 35.4683V71.2083C121.2 72.1083 120.93 72.8383 120.38 73.3983C119.83 73.9583 119.11 74.2482 118.22 74.2482C117.32 74.2482 116.6 73.9782 116.05 73.4282C115.5 72.8782 115.23 72.1383 115.23 71.2083V55.4683H92.1802V71.2083C92.1802 72.1083 91.9102 72.8383 91.3602 73.3983C90.8102 73.9583 90.0902 74.2482 89.2002 74.2482C88.3002 74.2482 87.5802 73.9782 87.0402 73.4282C86.4902 72.8782 86.2202 72.1383 86.2202 71.2083V35.4683C86.2202 34.5683 86.4902 33.8383 87.0402 33.2783C87.5802 32.7183 88.3102 32.4282 89.2002 32.4282C90.1002 32.4282 90.8202 32.7083 91.3602 33.2783C91.9102 33.8483 92.1802 34.5783 92.1802 35.4683V50.5582H115.23V35.4683C115.23 34.5683 115.5 33.8383 116.05 33.2783C116.6 32.7183 117.32 32.4282 118.22 32.4282C119.12 32.4282 119.84 32.7083 120.38 33.2783Z" fill="#58595B"/>
<path d="M162.8 71.4485C162.8 72.1885 162.51 72.8385 161.92 73.4085C161.33 73.9685 160.67 74.2585 159.93 74.2585C159.11 74.2585 158.41 73.9085 157.82 73.2085L145.13 57.2385L132.38 73.2085C131.8 73.9085 131.11 74.2585 130.33 74.2585C129.59 74.2585 128.93 73.9785 128.34 73.4085C127.76 72.8385 127.46 72.1885 127.46 71.4485C127.46 70.8285 127.69 70.2185 128.16 69.6385L141.61 52.9685L128.8 37.0585C128.33 36.5485 128.1 35.9485 128.1 35.2485C128.1 34.5085 128.38 33.8585 128.95 33.2885C129.51 32.7285 130.17 32.4385 130.91 32.4385C131.73 32.4385 132.43 32.7885 133.02 33.4885L145.13 48.7585L157.24 33.4885C157.79 32.7885 158.49 32.4385 159.35 32.4385C160.09 32.4385 160.75 32.7185 161.34 33.2885C161.93 33.8585 162.22 34.5085 162.22 35.2485C162.22 35.9085 161.97 36.5185 161.46 37.0585L148.65 52.9685L162.05 69.6385C162.54 70.1785 162.8 70.7785 162.8 71.4485Z" fill="#58595B"/>
<path d="M173.24 73.1985C172.52 72.4985 172.16 71.5985 172.16 70.5085C172.16 69.4185 172.52 68.5085 173.24 67.7885C173.96 67.0685 174.85 66.7085 175.9 66.7085C176.95 66.7085 177.83 67.0685 178.53 67.7885C179.23 68.5085 179.58 69.4185 179.58 70.5085C179.58 71.5985 179.23 72.4985 178.53 73.1985C177.83 73.8985 176.95 74.2485 175.9 74.2485C174.85 74.2485 173.96 73.8985 173.24 73.1985ZM174.67 62.3185C174.32 61.9685 174.12 61.4985 174.09 60.9185L172.34 36.1185C172.22 35.0285 172.51 34.1385 173.19 33.4585C173.87 32.7785 174.78 32.4385 175.91 32.4385C177 32.4385 177.89 32.7785 178.57 33.4585C179.25 34.1385 179.53 35.0285 179.42 36.1185L177.66 60.9185C177.62 61.5385 177.45 62.0185 177.13 62.3485C176.82 62.6785 176.41 62.8485 175.9 62.8485C175.43 62.8485 175.02 62.6685 174.67 62.3185Z" fill="#58595B"/>
</svg>
