<svg width="373" height="131" viewBox="0 0 373 131" fill="none" xmlns="http://www.w3.org/2000/svg">
<path d="M372.89 76.3582V34.6481C372.89 26.1781 369.57 18.1881 363.54 12.1581C357.51 6.12814 349.52 2.80811 341.05 2.80811H33.64C25.17 2.80811 17.18 6.12814 11.15 12.1581C5.12002 18.1881 1.80005 26.1781 1.80005 34.6481V76.3582C1.80005 84.8282 5.12002 92.8181 11.15 98.8481C17.18 104.878 25.17 108.198 33.64 108.198H320.83C328.56 116.148 343.56 124.648 359.48 130.048C359.92 130.198 360.37 130.268 360.82 130.268C362.23 130.268 363.56 129.518 364.3 128.318C365.03 127.138 365.09 125.688 364.46 124.438C361.24 118.058 358.87 111.068 357.41 103.638C367 97.8781 372.89 87.5682 372.89 76.3582Z" fill="#F1F2F2"/>
<path d="M366.6 71.6382V29.9282C366.6 13.7082 353.33 0.448242 337.12 0.448242H29.71C13.49 0.448242 0.22998 13.7182 0.22998 29.9282V71.6382C0.22998 87.8582 13.5 101.118 29.71 101.118H322.5C329.68 108.948 340.34 117.678 356.31 123.098C357.76 123.588 359.1 122.138 358.42 120.788C356.1 116.208 351.41 109.328 350.85 97.6982C360.2 92.7482 366.6 82.9082 366.6 71.6382Z" fill="white"/>
<path d="M319.707 58.7191C323.96 40.708 312.807 22.6594 294.796 18.4065C276.785 14.1536 258.736 25.3068 254.484 43.3179C250.231 61.3289 261.384 79.3774 279.395 83.6303C297.406 87.8832 315.454 76.7301 319.707 58.7191Z" fill="#FFD05D"/>
<path d="M304.6 22.3184C307.94 27.5284 309.87 33.7183 309.87 40.3683C309.87 58.8783 294.87 73.8784 276.36 73.8784C269.93 73.8784 263.93 72.0683 258.83 68.9283C264.79 78.2283 275.21 84.3884 287.07 84.3884C305.58 84.3884 320.58 69.3884 320.58 50.8784C320.57 38.7984 314.18 28.2084 304.6 22.3184Z" fill="#FDC453"/>
<path d="M258.11 54.4487C258.11 37.2687 272.04 23.3387 289.22 23.3387C299.26 23.3387 308.19 28.0987 313.88 35.4887C308.51 26.1587 298.44 19.8887 286.9 19.8887C269.72 19.8887 255.79 33.8187 255.79 50.9987C255.79 58.1387 258.2 64.7087 262.24 69.9587C259.62 65.3887 258.11 60.0987 258.11 54.4487Z" fill="#FFD77F"/>
<path d="M277.19 42.7885C277.19 45.0885 276.08 46.9485 274.72 46.9485C273.36 46.9485 272.25 45.0885 272.25 42.7885C272.25 40.4885 273.36 38.6285 274.72 38.6285C276.08 38.6185 277.19 40.4885 277.19 42.7885Z" fill="#303030"/>
<path d="M301.88 42.7885C301.88 45.0885 300.77 46.9485 299.41 46.9485C298.05 46.9485 296.94 45.0885 296.94 42.7885C296.94 40.4885 298.05 38.6285 299.41 38.6285C300.77 38.6185 301.88 40.4885 301.88 42.7885Z" fill="#303030"/>
<path d="M293.12 60.3186C293.12 65.9886 290.41 70.5786 287.07 70.5786C283.73 70.5786 281.02 65.9886 281.02 60.3186C281.02 54.6486 283.73 50.0586 287.07 50.0586C290.41 50.0586 293.12 54.6486 293.12 60.3186Z" fill="#695342"/>
<path d="M292.17 65.8086C287.76 63.3786 284.16 64.7586 282.08 66.1386C283.17 68.8186 284.99 70.5686 287.06 70.5686C289.21 70.5686 291.1 68.6786 292.17 65.8086Z" fill="#F06669"/>
<path d="M103.73 31.7781C104.2 31.4681 104.72 31.3081 105.31 31.3081C106.05 31.3081 106.7 31.5481 107.27 32.0381C107.83 32.5281 108.12 33.1581 108.12 33.9381C108.12 34.3681 108.04 34.7582 107.89 35.1082L94.96 71.2581C94.69 71.9181 94.26 72.4281 93.67 72.7781C93.09 73.1281 92.44 73.3081 91.74 73.3081C91.08 73.3081 90.45 73.1381 89.87 72.7781C89.29 72.4281 88.88 71.9181 88.64 71.2581L77.99 41.0681L67.11 71.2581C66.88 71.9181 66.47 72.4281 65.88 72.7781C65.29 73.1281 64.67 73.3081 64.01 73.3081C63.31 73.3081 62.67 73.1381 62.11 72.7781C61.54 72.4281 61.12 71.9181 60.85 71.2581L47.92 35.1082C47.76 34.7582 47.6899 34.3681 47.6899 33.9381C47.6899 33.1581 47.9799 32.5281 48.5699 32.0381C49.1499 31.5481 49.8601 31.3081 50.6801 31.3081C51.2601 31.3081 51.8 31.4681 52.29 31.7781C52.78 32.0881 53.14 32.5581 53.37 33.1781L64.1899 64.2982L75.1899 33.4681C75.4199 32.8081 75.8 32.2981 76.33 31.9481C76.86 31.5981 77.4301 31.4182 78.0601 31.4182C78.6801 31.4182 79.25 31.6081 79.76 31.9781C80.27 32.3481 80.6601 32.8681 80.9301 33.5281L91.6899 64.5881L102.69 33.1781C102.91 32.5581 103.26 32.0881 103.73 31.7781Z" fill="#58595B"/>
<path d="M115.98 71.4979C113.85 70.2879 112.22 68.5679 111.07 66.3179C109.92 64.0779 109.34 61.4679 109.34 58.5079C109.34 55.5079 109.92 52.8879 111.07 50.6379C112.22 48.3979 113.86 46.6679 115.98 45.4579C118.1 44.2479 120.57 43.6479 123.38 43.6479C126.19 43.6479 128.65 44.2479 130.78 45.4579C132.9 46.6679 134.54 48.3879 135.69 50.6379C136.84 52.8779 137.42 55.5079 137.42 58.5079C137.42 61.4679 136.84 64.0779 135.69 66.3179C134.54 68.5579 132.9 70.2879 130.78 71.4979C128.65 72.7079 126.19 73.3079 123.38 73.3079C120.57 73.3079 118.11 72.7079 115.98 71.4979ZM129.38 66.0579C130.76 64.3479 131.46 61.8279 131.46 58.5079C131.46 55.2279 130.76 52.728 129.35 50.988C127.95 49.248 125.96 48.3879 123.38 48.3879C120.81 48.3879 118.82 49.258 117.41 50.988C116.01 52.728 115.3 55.2279 115.3 58.5079C115.3 61.8279 115.99 64.3379 117.38 66.0579C118.76 67.7779 120.76 68.6279 123.38 68.6279C125.99 68.6279 127.99 67.7679 129.38 66.0579Z" fill="#58595B"/>
<path d="M184.8 43.8281C185.54 43.8281 186.2 44.0781 186.79 44.5881C187.37 45.0981 187.67 45.7181 187.67 46.4581C187.67 46.8481 187.59 47.1981 187.44 47.5081L177.73 71.1981C177.5 71.8181 177.11 72.2981 176.56 72.6281C176.01 72.9581 175.41 73.1281 174.75 73.1281C174.13 73.1281 173.54 72.9581 173 72.6281C172.45 72.2981 172.06 71.8181 171.83 71.1981L164.23 52.4182L156.8 71.1981C156.57 71.8181 156.19 72.2981 155.66 72.6281C155.13 72.9581 154.54 73.1281 153.88 73.1281C153.26 73.1281 152.66 72.9581 152.1 72.6281C151.53 72.2981 151.11 71.8181 150.84 71.1981L141.19 47.5081C141.03 47.1981 140.96 46.8681 140.96 46.5181C140.96 45.7381 141.28 45.0981 141.92 44.5881C142.56 44.0781 143.27 43.8281 144.05 43.8281C145.22 43.8281 146.02 44.3981 146.45 45.5281L154 65.4781L161.72 45.7081C161.95 45.0881 162.32 44.6181 162.83 44.3081C163.34 43.9981 163.88 43.8381 164.47 43.8381C165.02 43.8381 165.54 43.9981 166.05 44.3081C166.56 44.6181 166.93 45.0881 167.16 45.7081L174.88 65.3681L182.43 45.5981C182.83 44.4081 183.63 43.8281 184.8 43.8281Z" fill="#58595B"/>
<path d="M196.88 72.1379C196.16 71.4379 195.8 70.5379 195.8 69.4479C195.8 68.3579 196.16 67.448 196.88 66.728C197.6 66.008 198.49 65.6479 199.54 65.6479C200.59 65.6479 201.47 66.008 202.17 66.728C202.87 67.448 203.22 68.3579 203.22 69.4479C203.22 70.5379 202.87 71.4379 202.17 72.1379C201.47 72.8379 200.59 73.1879 199.54 73.1879C198.49 73.1979 197.61 72.8379 196.88 72.1379ZM198.32 61.2579C197.97 60.9079 197.77 60.438 197.74 59.858L195.99 35.0579C195.87 33.9679 196.16 33.0779 196.84 32.3979C197.52 31.7179 198.43 31.3779 199.56 31.3779C200.65 31.3779 201.54 31.7179 202.22 32.3979C202.9 33.0779 203.18 33.9679 203.07 35.0579L201.31 59.858C201.27 60.478 201.1 60.958 200.78 61.288C200.47 61.618 200.06 61.788 199.55 61.788C199.08 61.788 198.67 61.6079 198.32 61.2579Z" fill="#58595B"/>
<path d="M211.98 72.1379C211.26 71.4379 210.9 70.5379 210.9 69.4479C210.9 68.3579 211.26 67.448 211.98 66.728C212.7 66.008 213.59 65.6479 214.64 65.6479C215.69 65.6479 216.57 66.008 217.27 66.728C217.97 67.448 218.32 68.3579 218.32 69.4479C218.32 70.5379 217.97 71.4379 217.27 72.1379C216.57 72.8379 215.69 73.1879 214.64 73.1879C213.58 73.1979 212.7 72.8379 211.98 72.1379ZM213.41 61.2579C213.06 60.9079 212.86 60.438 212.83 59.858L211.08 35.0579C210.96 33.9679 211.25 33.0779 211.93 32.3979C212.61 31.7179 213.52 31.3779 214.65 31.3779C215.74 31.3779 216.63 31.7179 217.31 32.3979C217.99 33.0779 218.27 33.9679 218.16 35.0579L216.4 59.858C216.36 60.478 216.19 60.958 215.87 61.288C215.56 61.618 215.15 61.788 214.64 61.788C214.17 61.788 213.76 61.6079 213.41 61.2579Z" fill="#58595B"/>
</svg>
