<svg width="280" height="131" viewBox="0 0 280 131" fill="none" xmlns="http://www.w3.org/2000/svg">
<path d="M279.24 76.1579V34.4479C279.24 25.9779 275.92 17.9879 269.89 11.9579C263.86 5.92792 255.87 2.60791 247.4 2.60791H34.16C25.69 2.60791 17.7 5.92792 11.67 11.9579C5.64004 17.9879 2.31995 25.9779 2.31995 34.4479V76.1579C2.31995 84.6279 5.64004 92.6179 11.67 98.6479C17.7 104.678 25.69 107.998 34.16 107.998H227.18C234.91 115.948 249.91 124.448 265.83 129.848C266.27 129.998 266.72 130.068 267.17 130.068C268.58 130.068 269.91 129.318 270.65 128.118C271.38 126.938 271.44 125.488 270.81 124.238C267.59 117.858 265.22 110.868 263.76 103.438C273.35 97.6679 279.24 87.3679 279.24 76.1579Z" fill="#F1F2F2"/>
<path d="M272.95 71.438V29.728C272.95 13.508 259.68 0.248047 243.47 0.248047H30.23C14.01 0.248047 0.75 13.518 0.75 29.728V71.438C0.75 87.658 14.02 100.918 30.23 100.918H228.85C236.03 108.748 246.69 117.478 262.66 122.898C264.11 123.388 265.45 121.938 264.77 120.588C262.45 116.008 257.76 109.128 257.2 97.498C266.54 92.538 272.95 82.698 272.95 71.438Z" fill="white"/>
<path d="M226.081 58.5222C230.334 40.5111 219.18 22.4625 201.169 18.2096C183.158 13.9567 165.11 25.1099 160.857 43.121C156.604 61.132 167.757 79.1806 185.768 83.4335C203.779 87.6864 221.828 76.5332 226.081 58.5222Z" fill="#FFD05D"/>
<path d="M210.94 22.1079C214.28 27.3179 216.21 33.5079 216.21 40.1579C216.21 58.6679 201.21 73.6679 182.7 73.6679C176.27 73.6679 170.27 71.8579 165.17 68.7179C171.13 78.0179 181.55 84.1779 193.41 84.1779C211.92 84.1779 226.92 69.1779 226.92 50.6679C226.92 38.5879 220.53 28.0079 210.94 22.1079Z" fill="#FDC453"/>
<path d="M164.46 54.248C164.46 37.068 178.39 23.138 195.57 23.138C205.61 23.138 214.54 27.898 220.23 35.288C214.86 25.958 204.79 19.688 193.25 19.688C176.07 19.688 162.14 33.618 162.14 50.798C162.14 57.938 164.55 64.508 168.59 69.758C165.96 65.188 164.46 59.888 164.46 54.248Z" fill="#FFD77F"/>
<path d="M183.53 42.578C183.53 44.878 182.42 46.738 181.06 46.738C179.7 46.738 178.59 44.878 178.59 42.578C178.59 40.278 179.7 38.418 181.06 38.418C182.43 38.418 183.53 40.278 183.53 42.578Z" fill="#303030"/>
<path d="M208.22 42.578C208.22 44.878 207.11 46.738 205.75 46.738C204.39 46.738 203.28 44.878 203.28 42.578C203.28 40.278 204.39 38.418 205.75 38.418C207.12 38.418 208.22 40.278 208.22 42.578Z" fill="#303030"/>
<path d="M170.89 53.8779C172.17 65.1879 181.76 73.9779 193.41 73.9779C205.06 73.9779 214.65 65.1879 215.93 53.8779H170.89V53.8779Z" fill="#695342"/>
<path d="M177.86 67.7876C181.92 71.6176 187.39 73.9776 193.41 73.9776C199.17 73.9776 204.43 71.8276 208.43 68.2776L208.22 67.7876C193.1 60.4176 178.06 67.6876 177.86 67.7876Z" fill="#F06669"/>
<path d="M62.1 71.1178C59.23 69.3978 57.02 66.9678 55.46 63.8078C53.9 60.6478 53.12 56.9278 53.12 52.6378C53.12 48.3078 53.8901 44.5578 55.4301 41.3778C56.9701 38.1978 59.1799 35.7578 62.0699 34.0678C64.9599 32.3678 68.35 31.5278 72.25 31.5278C76.19 31.5278 79.6 32.3778 82.49 34.0678C85.38 35.7678 87.59 38.1978 89.13 41.3778C90.67 44.5578 91.4399 48.2878 91.4399 52.5778C91.4399 56.8678 90.67 60.5978 89.13 63.7778C87.59 66.9578 85.38 69.4078 82.49 71.1178C79.6 72.8378 76.19 73.6878 72.25 73.6878C68.35 73.6978 64.97 72.8378 62.1 71.1178ZM81.9 64.5678C84.2 61.7578 85.35 57.7678 85.35 52.5778C85.35 47.3878 84.2101 43.4078 81.9301 40.6178C79.6501 37.8278 76.42 36.4378 72.25 36.4378C68.16 36.4378 64.9699 37.8378 62.6899 40.6178C60.4099 43.4078 59.27 47.3978 59.27 52.5778C59.27 57.7678 60.4099 61.7578 62.6899 64.5678C64.9699 67.3778 68.16 68.7778 72.25 68.7778C76.39 68.7778 79.6 67.3778 81.9 64.5678Z" fill="#58595B"/>
<path d="M131.33 70.708C131.33 71.448 131.05 72.088 130.48 72.638C129.91 73.188 129.26 73.458 128.52 73.458C127.78 73.458 127.1 73.148 126.47 72.518L105.64 53.738V70.468C105.64 71.408 105.38 72.148 104.85 72.688C104.32 73.238 103.57 73.508 102.6 73.508C101.7 73.508 100.98 73.238 100.44 72.688C99.8899 72.138 99.62 71.398 99.62 70.468V34.728C99.62 33.828 99.8899 33.098 100.44 32.538C100.98 31.978 101.71 31.688 102.6 31.688C103.54 31.688 104.28 31.958 104.82 32.508C105.37 33.058 105.64 33.798 105.64 34.728V50.758L125.59 32.568C126.14 32.018 126.78 31.748 127.52 31.748C128.26 31.748 128.9 32.018 129.45 32.568C130 33.118 130.27 33.738 130.27 34.438C130.27 35.178 129.94 35.858 129.27 36.488L111.84 52.048L130.33 68.658C131 69.288 131.33 69.968 131.33 70.708Z" fill="#58595B"/>
</svg>
