<svg width="385" height="131" viewBox="0 0 385 131" fill="none" xmlns="http://www.w3.org/2000/svg">
<path d="M384.88 76.1579V34.4479C384.88 25.9779 381.56 17.9879 375.53 11.9579C369.5 5.92792 361.51 2.60791 353.04 2.60791H34.08C25.61 2.60791 17.62 5.92792 11.59 11.9579C5.55997 17.9879 2.23993 25.9779 2.23993 34.4479V76.1579C2.23993 84.6279 5.55997 92.6179 11.59 98.6479C17.62 104.678 25.61 107.998 34.08 107.998H332.83C340.56 115.948 355.56 124.448 371.48 129.848C371.92 129.998 372.37 130.068 372.82 130.068C374.23 130.068 375.56 129.318 376.3 128.118C377.03 126.938 377.09 125.488 376.46 124.238C373.24 117.858 370.87 110.868 369.41 103.438C378.99 97.6679 384.88 87.3679 384.88 76.1579Z" fill="#F1F2F2"/>
<path d="M378.59 71.438V29.728C378.59 13.508 365.32 0.248047 349.11 0.248047H30.15C13.93 0.248047 0.669922 13.518 0.669922 29.728V71.438C0.669922 87.658 13.94 100.918 30.15 100.918H334.49C341.67 108.748 352.33 117.478 368.3 122.898C369.75 123.388 371.09 121.938 370.41 120.588C368.09 116.008 363.4 109.128 362.84 97.498C372.19 92.538 378.59 82.698 378.59 71.438Z" fill="white"/>
<path d="M76.89 56.0283V71.2383C76.89 72.0983 76.6199 72.7783 76.0699 73.2883C75.5199 73.7983 74.8 74.0483 73.9 74.0483C73 74.0483 72.29 73.7983 71.77 73.2883C71.24 72.7783 70.9799 72.0983 70.9799 71.2383V56.0883C70.9799 53.7483 70.4999 52.0283 69.5499 50.9383C68.5899 49.8483 67.0999 49.2982 65.0699 49.2982C62.6899 49.2982 60.78 50.0382 59.34 51.5182C57.9 52.9982 57.1799 54.9883 57.1799 57.4883V71.2383C57.1799 72.0983 56.92 72.7783 56.39 73.2883C55.86 73.7983 55.1499 74.0483 54.2499 74.0483C53.3499 74.0483 52.63 73.7983 52.09 73.2883C51.54 72.7783 51.27 72.0983 51.27 71.2383V35.0283C51.27 34.1683 51.5499 33.4882 52.1199 32.9782C52.6799 32.4682 53.4199 32.2183 54.3099 32.2183C55.1699 32.2183 55.86 32.4582 56.39 32.9482C56.92 33.4382 57.1799 34.0883 57.1799 34.9083V49.5283C58.1499 47.8883 59.4599 46.6482 61.0999 45.7882C62.7399 44.9282 64.6099 44.4983 66.7199 44.4983C73.4999 44.5083 76.89 48.3483 76.89 56.0283Z" fill="#58595B"/>
<path d="M105.41 47.3681C107.26 49.2781 108.19 52.1881 108.19 56.0881V71.2382C108.19 72.1382 107.94 72.8281 107.43 73.3181C106.92 73.8081 106.22 74.0482 105.32 74.0482C104.46 74.0482 103.78 73.7982 103.27 73.2882C102.76 72.7782 102.51 72.0982 102.51 71.2382V69.0781C101.77 70.7181 100.67 71.9781 99.2 72.8481C97.74 73.7281 96.03 74.1682 94.08 74.1682C92.21 74.1682 90.4899 73.7881 88.9299 73.0281C87.3699 72.2681 86.15 71.2081 85.27 69.8381C84.39 68.4681 83.95 66.9481 83.95 65.2781C83.95 63.2081 84.4899 61.5881 85.5599 60.3981C86.6299 59.2081 88.4099 58.3581 90.8799 57.8581C93.3599 57.3481 96.76 57.0981 101.09 57.0981H102.44V55.3981C102.44 53.2181 101.99 51.6381 101.09 50.6581C100.19 49.6881 98.7499 49.1981 96.7599 49.1981C95.3899 49.1981 94.11 49.3781 92.9 49.7281C91.69 50.0781 90.3599 50.5881 88.9199 51.2481C87.8699 51.8281 87.13 52.1281 86.7 52.1281C86.11 52.1281 85.64 51.9181 85.27 51.4881C84.9 51.0581 84.71 50.5181 84.71 49.8481C84.71 49.2681 84.88 48.7481 85.21 48.2981C85.54 47.8481 86.0799 47.4081 86.8199 46.9781C88.1799 46.2381 89.7799 45.6381 91.6199 45.1981C93.4499 44.7481 95.2299 44.5281 96.9399 44.5281C100.74 44.5081 103.56 45.4581 105.41 47.3681ZM100.41 67.5781C101.78 66.1181 102.46 64.2381 102.46 61.9381V60.4181H101.41C98.3699 60.4181 96.03 60.5581 94.39 60.8281C92.75 61.0981 91.5799 61.5581 90.8799 62.1981C90.1799 62.8381 89.83 63.7682 89.83 64.9782C89.83 66.3782 90.3399 67.5281 91.3499 68.4281C92.3599 69.3281 93.63 69.7781 95.15 69.7781C97.29 69.7781 99.0399 69.0481 100.41 67.5781Z" fill="#58595B"/>
<path d="M141.88 56.0283V71.2383C141.88 72.0983 141.61 72.7783 141.06 73.2883C140.51 73.7983 139.79 74.0483 138.9 74.0483C138 74.0483 137.29 73.7983 136.77 73.2883C136.24 72.7783 135.98 72.0983 135.98 71.2383V56.0883C135.98 53.7483 135.5 52.0283 134.55 50.9383C133.59 49.8483 132.1 49.2982 130.07 49.2982C127.69 49.2982 125.78 50.0382 124.34 51.5182C122.9 52.9982 122.17 54.9883 122.17 57.4883V71.2383C122.17 72.0983 121.91 72.7783 121.38 73.2883C120.85 73.7983 120.14 74.0483 119.24 74.0483C118.34 74.0483 117.62 73.7983 117.08 73.2883C116.53 72.7783 116.26 72.0983 116.26 71.2383V35.0283C116.26 34.1683 116.54 33.4882 117.11 32.9782C117.67 32.4682 118.41 32.2183 119.3 32.2183C120.16 32.2183 120.85 32.4582 121.38 32.9482C121.91 33.4382 122.17 34.0883 122.17 34.9083V49.5283C123.14 47.8883 124.45 46.6482 126.09 45.7882C127.73 44.9282 129.6 44.4983 131.71 44.4983C138.49 44.5083 141.88 48.3483 141.88 56.0283Z" fill="#58595B"/>
<path d="M170.4 47.3681C172.25 49.2781 173.18 52.1881 173.18 56.0881V71.2382C173.18 72.1382 172.93 72.8281 172.42 73.3181C171.91 73.8081 171.21 74.0482 170.31 74.0482C169.45 74.0482 168.77 73.7982 168.26 73.2882C167.75 72.7782 167.5 72.0982 167.5 71.2382V69.0781C166.76 70.7181 165.66 71.9781 164.19 72.8481C162.73 73.7281 161.02 74.1682 159.07 74.1682C157.2 74.1682 155.48 73.7881 153.92 73.0281C152.36 72.2681 151.14 71.2081 150.26 69.8381C149.38 68.4681 148.94 66.9481 148.94 65.2781C148.94 63.2081 149.48 61.5881 150.55 60.3981C151.62 59.2081 153.4 58.3581 155.87 57.8581C158.35 57.3481 161.75 57.0981 166.08 57.0981H167.43V55.3981C167.43 53.2181 166.98 51.6381 166.08 50.6581C165.18 49.6881 163.74 49.1981 161.75 49.1981C160.38 49.1981 159.1 49.3781 157.89 49.7281C156.68 50.0781 155.35 50.5881 153.91 51.2481C152.86 51.8281 152.12 52.1281 151.69 52.1281C151.11 52.1281 150.63 51.9181 150.26 51.4881C149.89 51.0581 149.7 50.5181 149.7 49.8481C149.7 49.2681 149.87 48.7481 150.2 48.2981C150.53 47.8481 151.07 47.4081 151.81 46.9781C153.17 46.2381 154.77 45.6381 156.61 45.1981C158.44 44.7481 160.22 44.5281 161.93 44.5281C165.73 44.5081 168.55 45.4581 170.4 47.3681ZM165.4 67.5781C166.77 66.1181 167.45 64.2381 167.45 61.9381V60.4181H166.4C163.36 60.4181 161.02 60.5581 159.38 60.8281C157.74 61.0981 156.57 61.5581 155.87 62.1981C155.17 62.8381 154.82 63.7682 154.82 64.9782C154.82 66.3782 155.33 67.5281 156.34 68.4281C157.35 69.3281 158.62 69.7781 160.14 69.7781C162.28 69.7781 164.03 69.0481 165.4 67.5781Z" fill="#58595B"/>
<path d="M206.87 56.0283V71.2383C206.87 72.0983 206.6 72.7783 206.05 73.2883C205.5 73.7983 204.78 74.0483 203.88 74.0483C202.98 74.0483 202.27 73.7983 201.75 73.2883C201.22 72.7783 200.96 72.0983 200.96 71.2383V56.0883C200.96 53.7483 200.48 52.0283 199.53 50.9383C198.57 49.8483 197.08 49.2982 195.05 49.2982C192.67 49.2982 190.76 50.0382 189.32 51.5182C187.88 52.9982 187.15 54.9883 187.15 57.4883V71.2383C187.15 72.0983 186.89 72.7783 186.36 73.2883C185.83 73.7983 185.12 74.0483 184.22 74.0483C183.32 74.0483 182.6 73.7983 182.06 73.2883C181.51 72.7783 181.24 72.0983 181.24 71.2383V35.0283C181.24 34.1683 181.52 33.4882 182.09 32.9782C182.65 32.4682 183.39 32.2183 184.28 32.2183C185.14 32.2183 185.83 32.4582 186.36 32.9482C186.89 33.4382 187.15 34.0883 187.15 34.9083V49.5283C188.12 47.8883 189.43 46.6482 191.07 45.7882C192.71 44.9282 194.58 44.4983 196.69 44.4983C203.48 44.5083 206.87 48.3483 206.87 56.0283Z" fill="#58595B"/>
<path d="M235.39 47.3681C237.24 49.2781 238.17 52.1881 238.17 56.0881V71.2382C238.17 72.1382 237.92 72.8281 237.41 73.3181C236.9 73.8081 236.2 74.0482 235.3 74.0482C234.44 74.0482 233.76 73.7982 233.25 73.2882C232.74 72.7782 232.49 72.0982 232.49 71.2382V69.0781C231.75 70.7181 230.65 71.9781 229.18 72.8481C227.72 73.7281 226.01 74.1682 224.06 74.1682C222.19 74.1682 220.47 73.7881 218.91 73.0281C217.35 72.2681 216.13 71.2081 215.25 69.8381C214.37 68.4681 213.93 66.9481 213.93 65.2781C213.93 63.2081 214.47 61.5881 215.54 60.3981C216.61 59.2081 218.39 58.3581 220.86 57.8581C223.34 57.3481 226.74 57.0981 231.07 57.0981H232.42V55.3981C232.42 53.2181 231.97 51.6381 231.07 50.6581C230.17 49.6881 228.73 49.1981 226.74 49.1981C225.37 49.1981 224.09 49.3781 222.88 49.7281C221.67 50.0781 220.34 50.5881 218.9 51.2481C217.85 51.8281 217.11 52.1281 216.68 52.1281C216.1 52.1281 215.62 51.9181 215.25 51.4881C214.88 51.0581 214.69 50.5181 214.69 49.8481C214.69 49.2681 214.85 48.7481 215.19 48.2981C215.52 47.8481 216.06 47.4081 216.8 46.9781C218.16 46.2381 219.76 45.6381 221.6 45.1981C223.43 44.7481 225.21 44.5281 226.92 44.5281C230.72 44.5081 233.54 45.4581 235.39 47.3681ZM230.39 67.5781C231.76 66.1181 232.44 64.2381 232.44 61.9381V60.4181H231.39C228.35 60.4181 226.01 60.5581 224.37 60.8281C222.73 61.0981 221.56 61.5581 220.86 62.1981C220.16 62.8381 219.81 63.7682 219.81 64.9782C219.81 66.3782 220.32 67.5281 221.33 68.4281C222.34 69.3281 223.61 69.7781 225.13 69.7781C227.27 69.7781 229.02 69.0481 230.39 67.5781Z" fill="#58595B"/>
<path d="M299.05 84.2183C317.557 84.2183 332.56 69.2153 332.56 50.7083C332.56 32.2012 317.557 17.1982 299.05 17.1982C280.543 17.1982 265.54 32.2012 265.54 50.7083C265.54 69.2153 280.543 84.2183 299.05 84.2183Z" fill="#FFD05D"/>
<path d="M316.59 22.1084C319.93 27.3184 321.86 33.5084 321.86 40.1584C321.86 58.6684 306.86 73.6684 288.35 73.6684C281.92 73.6684 275.92 71.8584 270.82 68.7184C276.78 78.0184 287.2 84.1784 299.06 84.1784C317.57 84.1784 332.57 69.1784 332.57 50.6684C332.56 38.5884 326.17 28.0084 316.59 22.1084Z" fill="#FDC453"/>
<path d="M270.1 54.2485C270.1 37.0685 284.03 23.1385 301.21 23.1385C311.25 23.1385 320.18 27.8985 325.87 35.2885C320.5 25.9585 310.43 19.6885 298.89 19.6885C281.71 19.6885 267.78 33.6185 267.78 50.7985C267.78 57.9385 270.19 64.5085 274.23 69.7585C271.6 65.1885 270.1 59.8885 270.1 54.2485Z" fill="#FFD77F"/>
<path d="M280.98 51.2482C280.56 51.2482 280.14 51.0582 279.86 50.6982C279.38 50.0782 279.49 49.1882 280.11 48.7082L284.94 44.9382L279.94 41.9982C279.26 41.5982 279.04 40.7282 279.44 40.0582C279.84 39.3782 280.71 39.1582 281.38 39.5582L288.18 43.5582C288.59 43.7982 288.85 44.2182 288.88 44.6882C288.91 45.1582 288.71 45.6082 288.34 45.8982L281.86 50.9482C281.59 51.1582 281.29 51.2482 280.98 51.2482Z" fill="#303030"/>
<path d="M317.13 51.2484C316.82 51.2484 316.52 51.1484 316.26 50.9484L309.78 45.8984C309.41 45.6084 309.2 45.1584 309.24 44.6884C309.27 44.2184 309.53 43.7984 309.94 43.5584L316.74 39.5584C317.41 39.1584 318.29 39.3884 318.68 40.0584C319.08 40.7384 318.85 41.6084 318.18 41.9984L313.18 44.9384L318.01 48.7084C318.63 49.1884 318.74 50.0784 318.26 50.6984C317.97 51.0584 317.55 51.2484 317.13 51.2484Z" fill="#303030"/>
<path d="M279.86 55.1484C280.95 64.7884 289.12 72.2784 299.06 72.2784C308.99 72.2784 317.17 64.7884 318.26 55.1484H279.86V55.1484Z" fill="#695342"/>
<path d="M285.79 67.0085C289.25 70.2785 293.91 72.2886 299.05 72.2886C303.96 72.2886 308.45 70.4485 311.86 67.4285L311.68 67.0085C298.79 60.7185 285.97 66.9185 285.79 67.0085Z" fill="#F06669"/>
</svg>
