<svg width="296" height="131" viewBox="0 0 296 131" fill="none" xmlns="http://www.w3.org/2000/svg">
<path d="M295.24 76.758V35.048C295.24 26.578 291.92 18.588 285.89 12.558C279.86 6.52798 271.87 3.20801 263.4 3.20801H33.45C24.98 3.20801 16.99 6.52798 10.96 12.558C4.92996 18.588 1.60999 26.578 1.60999 35.048V76.758C1.60999 85.228 4.92996 93.218 10.96 99.248C16.99 105.278 24.98 108.598 33.45 108.598H243.18C250.91 116.548 265.91 125.048 281.83 130.448C282.27 130.598 282.72 130.668 283.17 130.668C284.58 130.668 285.91 129.918 286.65 128.718C287.38 127.538 287.44 126.088 286.81 124.838C283.59 118.458 281.22 111.468 279.76 104.038C289.35 98.268 295.24 87.968 295.24 76.758Z" fill="#F1F2F2"/>
<path d="M288.95 72.0381V30.3281C288.95 14.1081 275.68 0.848145 259.47 0.848145H29.52C13.3 0.848145 0.0400391 14.1181 0.0400391 30.3281V72.0381C0.0400391 88.2581 13.31 101.518 29.52 101.518H244.85C252.03 109.348 262.69 118.078 278.66 123.498C280.11 123.988 281.45 122.538 280.77 121.188C278.45 116.608 273.76 109.728 273.2 98.0981C282.54 93.1381 288.95 83.3081 288.95 72.0381Z" fill="white"/>
<path d="M54.88 70.6582C54.33 70.1082 54.0601 69.3682 54.0601 68.4382V32.6982C54.0601 31.7982 54.33 31.0682 54.88 30.5082C55.42 29.9482 56.15 29.6582 57.04 29.6582C57.98 29.6582 58.72 29.9282 59.26 30.4782C59.81 31.0282 60.08 31.7682 60.08 32.6982V68.4382C60.08 69.3782 59.82 70.1182 59.29 70.6582C58.76 71.1982 58.01 71.4782 57.04 71.4782C56.15 71.4682 55.43 71.1982 54.88 70.6582Z" fill="#58595B"/>
<path d="M202.43 67.3779C199.58 64.5279 198.16 60.338 198.16 54.798V32.6879C198.16 31.7479 198.43 31.008 198.98 30.468C199.53 29.918 200.25 29.6479 201.14 29.6479C202.03 29.6479 202.76 29.918 203.31 30.468C203.86 31.018 204.13 31.7579 204.13 32.6879V55.2079C204.13 58.9879 205.04 61.8579 206.85 63.8079C208.66 65.7579 211.36 66.728 214.95 66.728C218.5 66.728 221.19 65.7579 223.02 63.8079C224.85 61.8579 225.77 58.9879 225.77 55.2079V32.6879C225.77 31.7879 226.04 31.0579 226.59 30.4979C227.14 29.9379 227.86 29.6479 228.75 29.6479C229.65 29.6479 230.37 29.918 230.91 30.468C231.46 31.018 231.73 31.7579 231.73 32.6879V54.798C231.73 60.298 230.3 64.478 227.43 67.348C224.56 70.218 220.4 71.6479 214.94 71.6479C209.45 71.6479 205.28 70.2279 202.43 67.3779Z" fill="#58595B"/>
<path d="M165.11 41.7083C165.11 41.6583 165.11 41.5983 165.11 41.5483C165.11 31.4383 157.8 22.1782 146.8 22.1782C138.06 22.1782 133 28.4582 131.27 34.3282C129.54 28.4482 124.48 22.1782 115.74 22.1782C104.75 22.1782 97.43 31.4383 97.43 41.5483C97.43 41.5983 97.43 41.6583 97.43 41.7083C97.37 43.9083 97.43 66.2883 131.25 84.5283C131.25 84.5283 131.25 84.5283 131.26 84.5283C131.26 84.5283 131.26 84.5283 131.27 84.5283C131.27 84.5283 131.27 84.5283 131.28 84.5283C131.28 84.5283 131.28 84.5283 131.29 84.5283C165.11 66.2883 165.17 43.9083 165.11 41.7083Z" fill="#F94343"/>
<path d="M131.29 84.5381C165.12 66.2881 165.17 43.9081 165.11 41.7081C165.11 41.6581 165.11 41.5981 165.11 41.5481C165.11 38.7581 164.55 36.0281 163.51 33.5381C160.51 64.1381 131.28 73.8181 119.09 76.7881C122.56 79.4081 126.59 82.0081 131.27 84.5281V84.5381C131.27 84.5381 131.27 84.5381 131.28 84.5381C131.28 84.5381 131.28 84.5381 131.29 84.5381C131.28 84.5381 131.28 84.5381 131.29 84.5381C131.29 84.5381 131.28 84.5381 131.29 84.5381Z" fill="#D63434"/>
<path d="M99.01 44.0184C99.01 44.0184 98.8701 25.1384 116.66 23.5684C116.66 23.5684 105.7 27.7384 99.01 44.0184Z" fill="#F46060"/>
</svg>
