<svg width="185" height="51" viewBox="-139 -107 185 51" fill="none" xmlns="http://www.w3.org/2000/svg">
<path transform="rotate(209)" d="M7.6419 83.5232C6.1119 83.7732 5.11191 84.9932 3.81191 85.6532C3.59191 85.7632 3.3519 86.1031 3.5519 86.3232C3.8619 86.6631 4.32192 86.8632 3.75192 87.3831C3.24192 87.8632 2.66192 88.2031 2.00192 88.3232C1.46192 88.4131 0.971906 87.9332 0.991906 87.5232C1.03191 86.7332 0.741906 86.0932 0.491906 85.3932C0.211906 84.6332 0.631924 84.0631 1.29192 83.7231C5.14192 81.7431 8.6319 79.2432 12.0819 76.6532C13.6719 75.4532 15.5019 74.5532 17.3819 73.7932C19.7819 72.8232 21.7219 71.0732 23.8519 69.6631C25.4819 68.5831 27.0419 67.3931 28.6319 66.2531C29.2319 65.8231 29.8819 65.4631 30.3219 64.8131C30.5019 64.5431 30.7519 64.2432 31.0419 64.1132C34.5119 62.5532 37.4619 60.1432 40.6119 58.0832C44.3519 55.6432 48.3319 53.6432 52.1819 51.4232C54.5019 50.0832 56.8819 48.8532 59.0419 47.2432C60.0119 46.5232 61.1019 45.9032 62.2319 45.4832C64.7319 44.5632 66.9019 43.1431 69.0819 41.6631C70.6819 40.5831 72.5519 39.8832 74.2719 38.9532C80.0319 35.8432 85.8419 32.8232 91.6019 29.7232C93.8019 28.5432 95.8719 27.1432 97.9619 25.7832C99.6019 24.7232 101.282 23.6832 103.052 22.8932C104.742 22.1432 106.082 20.8932 107.692 20.0431C108.222 19.7631 108.552 19.3031 108.332 18.7131C107.592 16.6931 108.052 14.5632 107.722 12.5132C107.662 12.1232 107.742 11.7532 107.482 11.3632C106.902 10.5032 106.692 7.59315 106.932 6.45315C107.132 5.49315 107.472 4.96316 108.572 5.30316C109.002 5.43316 109.512 5.40315 109.982 5.34315C113.282 4.91315 116.592 5.34315 119.882 5.20315C124.132 5.02315 128.412 4.88315 132.552 3.73315C134.592 3.16315 136.662 2.95316 138.772 3.03316C139.042 3.04316 139.392 3.16315 139.562 3.04315C141.222 1.87315 143.252 2.32315 145.042 1.76315C145.232 1.70315 145.432 1.60316 145.632 1.61316C149.572 1.70316 153.392 0.793152 157.252 0.263152C158.332 0.113152 159.032 0.933156 158.882 2.03316C158.822 2.46316 158.432 2.75316 158.362 3.11316C158.122 4.43316 156.392 5.85316 158.682 7.08316C159.322 7.42316 159.402 8.48315 158.972 9.32315C158.352 10.5431 157.572 11.6432 156.512 12.5032C154.812 13.8732 153.482 15.5732 152.192 17.3132C151.112 18.7732 149.442 19.6432 148.242 21.0332C145.692 23.9832 143.002 26.8032 140.662 29.9532C139.112 32.0432 137.542 34.1832 135.532 35.9232C134.832 36.5232 134.382 37.4232 133.822 38.1832C131.622 41.1432 129.232 43.9731 127.302 47.0931C126.302 48.7131 125.022 50.2431 124.412 52.0931C124.242 52.6031 123.972 52.9832 123.482 53.0432C122.832 53.1232 122.562 52.5732 122.322 52.0832C121.742 50.9232 121.452 49.6632 121.152 48.4232C120.912 47.4132 120.612 46.4132 119.972 45.6532C118.092 43.4332 117.252 40.7132 116.162 38.1132C115.902 37.4932 115.712 36.8332 115.432 36.2232C114.962 35.1932 114.562 35.0631 113.532 35.6331C109.652 37.7931 105.792 39.9831 101.912 42.1331C99.9119 43.2431 97.8419 44.2432 95.8519 45.3732C90.4019 48.4632 85.0019 51.6231 79.5419 54.6931C74.8919 57.3031 70.4219 60.2432 65.7319 62.7632C61.9819 64.7732 58.7119 67.4832 54.9919 69.4832C51.9519 71.1232 49.2219 73.2232 46.4219 75.2032C44.9519 76.2432 43.8119 77.7831 42.1119 78.5031C39.8419 79.4631 37.8619 80.8632 35.9119 82.3032C33.0819 84.3932 29.8719 85.8132 26.8919 87.6432C25.5119 88.4932 24.2119 89.4631 22.9619 90.4731C20.9619 92.0931 18.6619 93.3332 16.7919 95.0732C14.5619 97.1631 11.5719 98.1231 9.47192 100.353C8.73192 101.133 7.62192 101.093 6.69192 101.483C6.05192 101.753 5.70192 101.283 5.47192 100.743C5.17192 100.013 5.34193 99.3131 5.48193 98.5631C5.68193 97.4931 5.11191 97.0632 4.09191 97.3732C2.44191 97.8832 2.23192 97.7332 2.41192 96.0532C2.50192 95.1532 2.4119 94.3831 1.8919 93.5631C0.8419 91.9231 1.26191 90.5232 2.90191 89.4632C4.60191 88.3632 6.34191 87.2932 7.53191 85.5832C7.84191 85.1332 8.17191 84.7031 8.21191 84.1331C8.77191 84.4632 9.32191 84.5232 9.93191 84.2032C11.8419 83.1832 13.5619 81.8532 14.9219 80.2132C15.4519 79.5732 16.4519 79.1232 16.5319 78.0832C15.7119 77.6532 15.1519 78.1932 14.6019 78.4832C12.4719 79.6332 10.4619 80.9731 8.54192 82.4431C8.15192 82.7431 7.8319 83.0732 7.6419 83.5232ZM91.1519 35.8732C89.2619 35.2132 87.6119 35.7932 85.9419 37.7532C86.9019 38.0632 87.7019 37.7432 88.4719 37.3332C89.3619 36.8532 90.2319 36.3432 91.1019 35.8332C92.3419 35.1232 93.5819 34.4332 94.8019 33.7032C95.0819 33.5432 95.3719 33.2832 95.1819 32.9032C95.0319 32.6032 94.7219 32.6932 94.4819 32.7832C93.2719 33.2032 92.2519 33.9632 91.1819 34.6232C90.6719 34.9332 90.9519 35.4432 91.1519 35.8732ZM67.0619 46.3431C67.0519 46.9331 67.4919 46.9432 67.6919 47.1832C68.6919 48.3432 68.6919 48.3431 69.9119 47.5931C70.6519 47.1331 71.3919 46.6732 72.1519 46.2432C74.5519 44.8932 76.9519 43.5432 79.3619 42.2132C79.7519 42.0032 80.0719 41.8032 79.8519 41.3032C79.6319 40.8032 79.2619 40.8632 78.8419 41.0332C77.4019 41.6232 76.1319 42.5232 74.7419 43.1832C73.8519 43.6031 73.0119 45.1931 71.7519 43.6331C71.6819 43.5431 71.2419 43.6932 71.0219 43.8132C69.6119 44.5732 68.2319 45.3731 67.0619 46.3431ZM155.122 10.0231C153.472 9.57315 152.742 10.5432 151.972 11.1932C150.912 12.0932 150.082 13.2032 149.372 14.4432C148.202 16.4832 145.952 17.6931 144.962 19.9032C144.802 20.2432 144.422 20.5632 145.092 21.0332C148.252 17.3532 152.112 14.2831 155.122 10.0231ZM133.372 34.8831C133.212 34.6731 133.132 34.4531 132.982 34.3831C132.722 34.2631 132.422 34.3932 132.242 34.5932C130.662 36.3532 129.262 38.2432 127.972 40.2232C127.822 40.4632 127.792 40.7632 128.082 40.9332C128.362 41.0932 128.572 40.8932 128.762 40.6832C129.962 39.3332 131.202 38.0131 132.362 36.6331C132.792 36.1331 133.042 35.4831 133.372 34.8831ZM103.472 28.2131C101.332 27.3931 100.072 28.5332 98.7419 29.3932C98.3819 29.6232 97.7719 29.8332 98.0019 30.4232C98.2019 30.9232 98.8219 31.0132 99.2319 30.8932C100.822 30.4332 102.232 29.6331 103.472 28.2131ZM48.4519 58.7332C47.0919 58.9432 46.0619 59.6632 45.0319 60.3932C42.8819 61.9032 42.8919 61.9132 42.7019 63.3531C44.6719 61.5732 46.9219 60.6432 48.4519 58.7332ZM52.5319 57.3332C53.2619 56.9832 54.0419 56.6432 54.8019 56.2432C55.0219 56.1232 55.1819 55.8632 55.1019 55.5732C54.9919 55.2032 54.6519 55.0632 54.3319 55.0532C53.2519 55.0132 52.5319 55.7831 51.7319 56.3431C51.6319 56.4131 51.6319 56.7331 51.7019 56.8831C51.8419 57.1831 52.1119 57.3732 52.5319 57.3332ZM150.262 7.16315C151.342 7.18315 151.812 6.86316 152.172 6.33316C152.322 6.11316 152.522 5.89316 152.352 5.61316C152.192 5.35316 151.912 5.37315 151.652 5.34315C150.892 5.24315 150.232 5.66315 149.502 5.73315C149.182 5.76315 148.802 5.83316 148.762 6.25316C148.722 6.74316 149.112 6.95316 149.492 7.06316C149.872 7.16316 150.282 7.16315 150.262 7.16315ZM111.592 9.08316C111.582 9.22316 111.572 9.36316 111.562 9.50316C111.942 9.59316 112.312 9.72315 112.702 9.77315C113.172 9.83315 113.322 10.2032 113.582 10.5032C113.802 10.7532 115.932 10.0232 116.022 9.69316C116.142 9.25316 115.812 9.13315 115.482 9.02315C114.162 8.58315 112.872 8.77316 111.592 9.08316ZM125.392 45.1832C123.372 45.6732 123.092 45.9532 123.322 47.0832C123.452 47.7132 124.062 47.9532 124.512 47.4832C125.062 46.9032 125.542 46.2532 125.392 45.1832ZM139.662 5.98315C137.832 6.06315 137.812 6.16315 137.152 7.63315C136.862 8.27315 137.182 8.38315 137.552 8.40315C138.332 8.44315 139.212 8.20315 139.082 7.29315C138.982 6.60315 139.722 6.52315 139.662 5.98315Z" fill="#ffeb00"/>
</svg>
