<svg width="342" height="131" viewBox="0 0 342 131" fill="none" xmlns="http://www.w3.org/2000/svg">
<path d="M341.52 76.5485V34.8385C341.52 26.3685 338.2 18.3785 332.17 12.3485C326.14 6.31854 318.15 2.99854 309.68 2.99854H33.91C25.44 2.99854 17.45 6.31854 11.42 12.3485C5.39004 18.3785 2.06995 26.3685 2.06995 34.8385V76.5485C2.06995 85.0185 5.39004 93.0085 11.42 99.0385C17.45 105.069 25.44 108.389 33.91 108.389H289.47C297.2 116.339 312.2 124.839 328.12 130.239C328.56 130.389 329.01 130.459 329.46 130.459C330.87 130.459 332.2 129.709 332.94 128.509C333.67 127.329 333.73 125.879 333.1 124.629C329.88 118.249 327.51 111.259 326.05 103.829C335.63 98.0685 341.52 87.7685 341.52 76.5485Z" fill="#F1F2F2"/>
<path d="M335.23 71.8384V30.1284C335.23 13.9084 321.96 0.648438 305.75 0.648438H29.98C13.76 0.648438 0.5 13.9184 0.5 30.1284V71.8384C0.5 88.0584 13.77 101.318 29.98 101.318H291.14C298.32 109.148 308.98 117.878 324.95 123.298C326.4 123.788 327.74 122.338 327.06 120.988C324.74 116.408 320.05 109.528 319.49 97.8984C328.82 92.9384 335.23 83.0984 335.23 71.8384Z" fill="#F76363"/>
<path d="M52.58 74.4487C52.05 73.9387 51.79 73.2587 51.79 72.3987V36.7187C51.79 35.8187 52.06 35.0887 52.61 34.5287C53.15 33.9687 53.88 33.6787 54.77 33.6787C55.71 33.6787 56.45 33.9487 56.99 34.4987C57.54 35.0487 57.8101 35.7887 57.8101 36.7187V70.1787H75.59C76.49 70.1787 77.18 70.3887 77.67 70.8187C78.16 71.2487 78.4 71.8687 78.4 72.6887C78.4 73.5087 78.16 74.1287 77.67 74.5587C77.18 74.9887 76.49 75.1987 75.59 75.1987H54.71C53.81 75.2087 53.1 74.9587 52.58 74.4487Z" fill="white"/>
<path d="M89.2 73.1086C86.33 71.3886 84.1201 68.9586 82.5601 65.7986C81.0001 62.6386 80.22 58.9186 80.22 54.6286C80.22 50.2986 80.99 46.5486 82.53 43.3686C84.07 40.1886 86.28 37.7486 89.17 36.0586C92.06 34.3586 95.45 33.5186 99.35 33.5186C103.29 33.5186 106.7 34.3686 109.59 36.0586C112.48 37.7586 114.69 40.1886 116.23 43.3686C117.77 46.5486 118.54 50.2785 118.54 54.5685C118.54 58.8585 117.77 62.5886 116.23 65.7686C114.69 68.9486 112.48 71.3986 109.59 73.1086C106.7 74.8286 103.29 75.6786 99.35 75.6786C95.45 75.6786 92.06 74.8286 89.2 73.1086ZM109 66.5586C111.3 63.7486 112.45 59.7585 112.45 54.5685C112.45 49.3785 111.31 45.3986 109.03 42.6086C106.75 39.8186 103.52 38.4286 99.35 38.4286C95.26 38.4286 92.07 39.8286 89.79 42.6086C87.51 45.3986 86.37 49.3885 86.37 54.5685C86.37 59.7585 87.51 63.7486 89.79 66.5586C92.07 69.3686 95.26 70.7686 99.35 70.7686C103.48 70.7686 106.7 69.3686 109 66.5586Z" fill="white"/>
<path d="M158.37 33.6187C159.15 33.6187 159.85 33.8787 160.48 34.4087C161.1 34.9387 161.42 35.5687 161.42 36.3087C161.42 36.5787 161.32 36.9486 161.13 37.4186L144.63 73.5686C144.36 74.1886 143.93 74.6787 143.34 75.0287C142.76 75.3787 142.13 75.5587 141.47 75.5587C140.81 75.5587 140.17 75.3887 139.57 75.0287C138.96 74.6787 138.53 74.1886 138.25 73.5686L121.81 37.4186C121.61 36.9486 121.52 36.5787 121.52 36.3087C121.52 35.5287 121.84 34.8887 122.48 34.3787C123.12 33.8687 123.84 33.6187 124.62 33.6187C125.83 33.6187 126.69 34.1686 127.19 35.2586L141.52 67.3787L155.85 35.2586C156.36 34.1686 157.2 33.6187 158.37 33.6187Z" fill="white"/>
<path d="M167.52 74.4185C166.99 73.8885 166.73 73.1785 166.73 72.2885V36.8985C166.73 35.9985 166.99 35.2885 167.52 34.7685C168.05 34.2385 168.78 33.9785 169.71 33.9785H191.24C192.14 33.9785 192.83 34.1885 193.32 34.6185C193.81 35.0485 194.05 35.6485 194.05 36.4285C194.05 37.2085 193.81 37.7985 193.32 38.2085C192.83 38.6185 192.14 38.8185 191.24 38.8185H172.64V51.8085H190.07C190.97 51.8085 191.66 52.0185 192.15 52.4485C192.64 52.8785 192.88 53.4785 192.88 54.2585C192.88 55.0385 192.64 55.6385 192.15 56.0685C191.66 56.4985 190.97 56.7085 190.07 56.7085H172.64V70.3385H191.24C193.11 70.3385 194.05 71.1385 194.05 72.7385C194.05 73.5185 193.81 74.1185 193.32 74.5485C192.83 74.9785 192.14 75.1885 191.24 75.1885H169.71C168.78 75.2085 168.05 74.9485 167.52 74.4185Z" fill="white"/>
<path d="M285.57 43.9285C285.57 43.8785 285.57 43.8285 285.57 43.7885C285.57 34.7585 279.04 26.4985 269.23 26.4985C261.43 26.4985 256.91 32.1085 255.36 37.3485C253.82 32.0985 249.29 26.4985 241.49 26.4985C231.67 26.4985 225.15 34.7685 225.15 43.7885C225.15 43.8385 225.15 43.8885 225.15 43.9285C225.1 45.8885 225.15 65.8785 255.35 82.1685C285.57 65.8785 285.62 45.8885 285.57 43.9285Z" fill="white"/>
</svg>
