<svg width="141" height="125" viewBox="0 0 141 125" fill="none" xmlns="http://www.w3.org/2000/svg">
<path d="M121.695 56.1283C121.695 84.1983 98.9453 106.948 70.8753 106.948C55.8353 106.948 42.3253 100.418 33.0153 90.0383C32.9153 89.9183 32.8053 89.8083 32.7153 89.6883C41.6853 97.6283 53.4753 102.438 66.3853 102.438C94.4553 102.438 117.205 79.6883 117.205 51.6183C117.205 38.7183 112.395 26.9483 104.485 17.9883C104.575 18.0683 104.665 18.1483 104.755 18.2283C115.145 27.5383 121.695 41.0783 121.695 56.1283Z" fill="#F04271"/>
<path d="M117.195 51.6281C117.195 79.6981 94.4453 102.448 66.3753 102.448C53.4653 102.448 41.6753 97.6281 32.7053 89.6981C24.8353 80.7381 20.0553 68.9981 20.0553 56.1281C20.0553 28.0581 42.8053 5.30811 70.8753 5.30811C83.7553 5.30811 95.5253 10.0981 104.475 17.9981C112.395 26.9581 117.195 38.7381 117.195 51.6281Z" fill="#F3F2F4"/>
<path d="M104.475 17.9981C95.5153 10.0981 83.7553 5.30811 70.8753 5.30811C42.8053 5.30811 20.0553 28.0581 20.0553 56.1281C20.0553 68.9981 24.8353 80.7481 32.7053 89.6981C31.2253 88.3981 29.8253 87.0081 28.5053 85.5481C20.4553 76.5481 15.5553 64.6681 15.5553 51.6281C15.5553 23.5581 38.3053 0.808105 66.3753 0.808105C79.3853 0.808105 91.2653 5.6981 100.245 13.7381C101.735 15.0781 103.155 16.4981 104.475 17.9981Z" fill="#59E6FF"/>
<path d="M133.985 89.5283C133.575 90.3383 133.675 91.2883 134.195 91.9983C133.695 91.4283 133.145 90.8883 132.565 90.3883C131.735 89.6783 131.495 88.4983 131.985 87.5283C132.885 85.7383 133.935 84.1583 135.075 82.8283C137.175 80.3883 137.265 76.9583 135.685 74.4883C139.115 76.6683 139.845 81.6083 137.075 84.8283C135.935 86.1583 134.885 87.7383 133.985 89.5283Z" fill="#F04271"/>
<path d="M140.345 110.928C137.785 120.728 127.765 126.608 117.955 124.048C114.185 123.068 111.005 120.988 108.665 118.238C110.705 119.998 113.175 121.318 115.955 122.048C125.765 124.608 135.785 118.728 138.345 108.928C139.925 102.848 138.265 96.6881 134.445 92.2681C134.485 92.3181 134.525 92.3481 134.565 92.3881C139.695 96.8181 142.165 103.928 140.345 110.928Z" fill="#F04271"/>
<path d="M138.345 108.928C135.785 118.728 125.765 124.608 115.955 122.048C113.175 121.318 110.705 119.998 108.665 118.238C107.505 116.898 106.565 115.398 105.845 113.788C105.865 113.788 105.875 113.788 105.875 113.788C105.875 113.788 105.455 110.408 108.065 109.568C108.065 109.568 104.375 106.948 105.565 102.408C106.745 97.8883 110.835 97.3383 110.835 97.3383C110.835 97.3383 109.045 93.8383 112.995 90.6683L113.005 90.6583C115.375 89.2083 118.075 88.2883 120.905 88.0283C120.765 86.1583 121.025 84.1383 121.715 82.1383C123.875 75.8783 129.485 72.1483 134.245 73.7883C134.385 73.8383 134.515 73.8883 134.645 73.9383C135.015 74.0883 135.365 74.2783 135.685 74.4883C137.265 76.9583 137.175 80.3883 135.075 82.8283C133.935 84.1583 132.885 85.7383 131.985 87.5283C131.495 88.4983 131.735 89.6783 132.565 90.3883C133.145 90.8883 133.695 91.4283 134.195 91.9983C134.195 91.9983 134.205 91.9983 134.205 92.0083C134.275 92.0983 134.355 92.1883 134.445 92.2683C138.265 96.6883 139.925 102.848 138.345 108.928Z" fill="#F3F2F4"/>
<path d="M135.685 74.4883C135.365 74.2783 135.015 74.0883 134.645 73.9383C134.515 73.8883 134.385 73.8383 134.245 73.7883C129.485 72.1483 123.875 75.8783 121.715 82.1383C121.025 84.1383 120.765 86.1583 120.905 88.0283C118.075 88.2883 115.375 89.2083 113.005 90.6583L112.995 90.6683C109.045 93.8383 110.835 97.3383 110.835 97.3383C110.835 97.3383 106.745 97.8883 105.565 102.408C104.375 106.948 108.065 109.568 108.065 109.568C105.455 110.408 105.875 113.788 105.875 113.788C105.875 113.788 105.865 113.788 105.845 113.788C106.565 115.398 107.505 116.898 108.665 118.238C106.585 116.468 104.945 114.258 103.845 111.788C103.865 111.788 103.875 111.788 103.875 111.788C103.875 111.788 103.455 108.408 106.065 107.568C106.065 107.568 102.375 104.948 103.565 100.408C104.745 95.8883 108.835 95.3383 108.835 95.3383C108.835 95.3383 107.045 91.8383 110.995 88.6683L111.005 88.6583C113.375 87.2083 116.075 86.2883 118.905 86.0283C118.765 84.1583 119.025 82.1383 119.715 80.1383C121.875 73.8783 127.485 70.1483 132.245 71.7883C132.385 71.8383 132.515 71.8883 132.645 71.9383C133.965 72.4883 134.995 73.3983 135.685 74.4883Z" fill="#59E6FF"/>
<path d="M20.3354 86.0281C20.4654 84.1581 20.2154 82.1381 19.5254 80.1381C18.9254 78.3981 18.0554 76.8581 17.0154 75.5781C18.9454 77.1081 20.5654 79.3781 21.5254 82.1381C22.0054 83.5381 22.2754 84.9581 22.3454 86.3281C21.6854 86.1881 21.0154 86.0881 20.3354 86.0281Z" fill="#F04271"/>
<path d="M32.7253 96.2583C31.4953 95.4883 30.3953 95.3383 30.3953 95.3383C30.3953 95.3383 31.5853 93.0283 29.9153 90.4683C30.0253 90.5283 30.1253 90.5983 30.2353 90.6583L30.2453 90.6683C32.8453 92.7583 32.9553 94.9883 32.7253 96.2583Z" fill="#F04271"/>
<path d="M37.3653 113.788C37.3653 113.788 37.3753 113.788 37.3953 113.788C35.1953 118.698 30.8853 122.588 25.2753 124.048C18.2653 125.878 11.1353 123.388 6.70532 118.228C11.1153 121.998 17.2353 123.628 23.2753 122.048C28.8853 120.588 33.1953 116.698 35.3953 111.788C35.3753 111.788 35.3653 111.788 35.3653 111.788C35.3653 111.788 35.7853 108.408 33.1753 107.568C33.1753 107.568 36.8553 104.948 35.6753 100.408C35.4553 99.5781 35.1453 98.8781 34.7653 98.2881C35.8953 98.9981 37.1153 100.258 37.6753 102.408C38.8553 106.948 35.1753 109.568 35.1753 109.568C37.7853 110.408 37.3653 113.788 37.3653 113.788Z" fill="#F04271"/>
<path d="M35.3654 111.788C35.3654 111.788 35.3754 111.788 35.3954 111.788C33.1954 116.698 28.8854 120.588 23.2754 122.048C17.2354 123.628 11.1154 121.998 6.70536 118.228C4.95536 116.188 3.62535 113.718 2.89535 110.928C1.07535 103.928 3.54536 96.818 8.67536 92.388C9.50536 91.678 9.74536 90.498 9.25536 89.528C8.35536 87.738 7.30536 86.158 6.16536 84.828C3.13536 81.308 4.29536 75.728 8.59536 73.938C8.72536 73.888 8.85536 73.838 8.99536 73.788C11.6554 72.868 14.5754 73.628 17.0154 75.578C18.0554 76.858 18.9254 78.398 19.5254 80.138C20.2154 82.138 20.4654 84.158 20.3354 86.028C21.0154 86.088 21.6854 86.188 22.3454 86.328C24.4354 86.758 26.4354 87.558 28.2354 88.658L28.2454 88.668C28.9854 89.268 29.5254 89.868 29.9154 90.468C31.5854 93.028 30.3954 95.338 30.3954 95.338C30.3954 95.338 31.4954 95.488 32.7254 96.258C33.4254 96.698 34.1654 97.348 34.7654 98.288C35.1454 98.878 35.4554 99.578 35.6754 100.408C36.8554 104.948 33.1754 107.568 33.1754 107.568C35.7854 108.408 35.3654 111.788 35.3654 111.788Z" fill="#F3F2F4"/>
<path d="M6.16536 84.8282C7.30536 86.1582 8.35536 87.7382 9.25536 89.5282C9.74536 90.4982 9.50536 91.6782 8.67536 92.3882C3.54536 96.8182 1.07535 103.928 2.89535 110.928C3.62536 113.718 4.95536 116.188 6.70536 118.228C3.95536 115.868 1.87535 112.688 0.895355 108.928C-0.924645 101.928 1.54536 94.8182 6.67536 90.3882C7.50536 89.6782 7.74536 88.4982 7.25536 87.5282C6.35536 85.7382 5.30536 84.1582 4.16536 82.8282C1.13536 79.3082 2.29536 73.7282 6.59536 71.9382C6.72536 71.8882 6.85536 71.8382 6.99536 71.7882C10.4354 70.5982 14.3154 72.2182 17.0154 75.5782C14.5754 73.6282 11.6554 72.8682 8.99536 73.7882C8.85536 73.8382 8.72536 73.8882 8.59536 73.9382C4.29536 75.7282 3.13536 81.3082 6.16536 84.8282Z" fill="#59E6FF"/>
<path d="M90.9853 28.9783C90.6953 28.7983 90.3953 28.6384 90.0853 28.5284C89.2453 28.1684 88.3253 27.9784 87.3553 27.9984C83.6253 28.0684 80.6553 31.1584 80.7153 34.8684C80.7353 35.8384 80.9553 36.7584 81.3453 37.5884C81.4853 37.8884 81.6453 38.1983 81.8353 38.4783C81.1253 38.0483 80.5053 37.4983 80.0053 36.8483L79.9953 36.8384C79.1353 35.7284 78.6153 34.3584 78.5853 32.8284C78.5153 29.1084 81.4853 26.0284 85.2253 25.9584C86.7553 25.9284 88.1653 26.4083 89.3153 27.2583C89.9753 27.6983 90.5453 28.2983 90.9853 28.9783Z" fill="#F04271"/>
<path d="M94.2354 34.6185C94.3054 38.3685 91.3354 41.4385 87.6154 41.5085C85.2154 41.5485 83.0753 40.3385 81.8553 38.4685C82.9053 39.1185 84.1554 39.4785 85.4854 39.4585C89.2154 39.3885 92.1854 36.3085 92.1254 32.5785C92.1054 31.2485 91.6953 30.0085 90.9953 28.9785C92.8953 30.1385 94.1954 32.2185 94.2354 34.6185Z" fill="#59E6FF"/>
<path d="M92.1153 32.5685C92.1853 36.2985 89.2153 39.3785 85.4753 39.4485C84.1353 39.4685 82.8953 39.1085 81.8453 38.4585C81.6553 38.1785 81.4953 37.8685 81.3553 37.5685C80.9653 36.7385 80.7453 35.8285 80.7253 34.8485C80.6553 31.1385 83.6253 28.0485 87.3653 27.9785C88.3253 27.9585 89.2553 28.1485 90.0953 28.5085C90.4053 28.6185 90.7053 28.7785 90.9953 28.9585C91.6853 30.0085 92.0953 31.2485 92.1153 32.5685Z" fill="#030505"/>
<path d="M55.4054 28.9783C55.1154 28.7983 54.8154 28.6384 54.5054 28.5284C53.6654 28.1684 52.7454 27.9784 51.7754 27.9984C48.0454 28.0684 45.0754 31.1584 45.1354 34.8684C45.1554 35.8384 45.3754 36.7584 45.7654 37.5884C45.9054 37.8884 46.0654 38.1983 46.2554 38.4783C45.5454 38.0483 44.9254 37.4983 44.4254 36.8483L44.4154 36.8384C43.5554 35.7284 43.0354 34.3584 43.0054 32.8284C42.9354 29.1084 45.9054 26.0284 49.6454 25.9584C51.1754 25.9284 52.5854 26.4083 53.7354 27.2583C54.3954 27.6983 54.9654 28.2983 55.4054 28.9783Z" fill="#F04271"/>
<path d="M58.6454 34.6185C58.7154 38.3685 55.7454 41.4385 52.0254 41.5085C49.6254 41.5485 47.4854 40.3385 46.2654 38.4685C47.3154 39.1185 48.5654 39.4785 49.8954 39.4585C53.6254 39.3885 56.5954 36.3085 56.5354 32.5785C56.5154 31.2485 56.1054 30.0085 55.4054 28.9785C57.3054 30.1385 58.6054 32.2185 58.6454 34.6185Z" fill="#59E6FF"/>
<path d="M56.5354 32.5685C56.6054 36.2985 53.6354 39.3785 49.8954 39.4485C48.5554 39.4685 47.3154 39.1085 46.2654 38.4585C46.0754 38.1785 45.9154 37.8685 45.7754 37.5685C45.3854 36.7385 45.1654 35.8285 45.1454 34.8485C45.0754 31.1385 48.0454 28.0485 51.7854 27.9785C52.7454 27.9585 53.6754 28.1485 54.5154 28.5085C54.8254 28.6185 55.1254 28.7785 55.4154 28.9585C56.1054 30.0085 56.5054 31.2485 56.5354 32.5685Z" fill="#030505"/>
<path d="M99.0853 66.5977C98.2953 71.5477 96.3053 76.0877 93.4053 79.9277C87.9353 87.1577 79.2553 91.8377 69.4753 91.8377C60.5653 91.8377 52.5753 87.9477 47.0953 81.7677C52.3753 86.4577 59.3253 89.2977 66.9353 89.2977C76.7053 89.2977 85.3853 84.6177 90.8653 77.3877C93.7553 73.5577 95.7553 69.0077 96.5453 64.0577C96.6553 63.3677 96.5853 62.7077 96.3653 62.0977C98.1953 62.7177 99.4053 64.5877 99.0853 66.5977Z" fill="#59E6FF"/>
<path d="M96.5553 64.0579C95.7653 69.0079 93.7753 73.5479 90.8753 77.3879C85.4053 84.6179 76.7253 89.2979 66.9453 89.2979C59.3353 89.2979 52.3853 86.4579 47.1053 81.7679C46.9653 81.6179 46.8353 81.4679 46.6953 81.3079C46.3153 80.8579 45.9453 80.3979 45.5753 79.9179C42.6753 76.0979 40.6753 71.5379 39.8853 66.5879C39.4953 64.0979 41.4153 61.8579 43.9253 61.8579H95.0253C95.2453 61.8579 95.4653 61.8779 95.6753 61.9179C95.9153 61.9479 96.1453 62.0079 96.3553 62.0879C96.5953 62.7079 96.6653 63.3779 96.5553 64.0579Z" fill="#030505"/>
<path d="M96.3753 62.0979C96.1653 62.0179 95.9353 61.9579 95.6953 61.9279C95.4853 61.8879 95.2653 61.8679 95.0453 61.8679H43.9453C41.4353 61.8679 39.5153 64.1079 39.9053 66.5979C40.6953 71.5479 42.6853 76.0979 45.5953 79.9279C45.9553 80.3979 46.3353 80.8679 46.7153 81.3179C46.8553 81.4679 46.9753 81.6179 47.1253 81.7779C46.0753 80.8579 45.0953 79.8479 44.1853 78.7879C43.8053 78.3379 43.4353 77.8779 43.0653 77.3979C40.1653 73.5779 38.1653 69.0179 37.3753 64.0679C36.9853 61.5779 38.9053 59.3379 41.4153 59.3379H92.5153C92.7353 59.3379 92.9553 59.3579 93.1653 59.3979C94.6753 59.6279 95.9053 60.6979 96.3753 62.0979Z" fill="#F04271"/>
</svg>
