<svg width="107" height="107" viewBox="0 0 107 107" fill="none" xmlns="http://www.w3.org/2000/svg">
<path d="M106.696 55.5882C106.696 83.6582 83.9456 106.408 55.8756 106.408C40.8356 106.408 27.3256 99.8782 18.0156 89.4982C17.9156 89.3782 17.8056 89.2682 17.7156 89.1482C26.6856 97.0882 38.4756 101.898 51.3856 101.898C79.4556 101.898 102.206 79.1482 102.206 51.0782C102.206 38.1782 97.3956 26.4082 89.4856 17.4482C89.5756 17.5282 89.6656 17.6082 89.7556 17.6882C100.146 26.9982 106.696 40.5382 106.696 55.5882Z" fill="#F04271"/>
<path d="M102.196 51.0881C102.196 79.1581 79.4455 101.908 51.3755 101.908C38.4655 101.908 26.6755 97.0881 17.7055 89.1581C9.83554 80.1981 5.05554 68.4581 5.05554 55.5881C5.05554 27.5181 27.8055 4.76807 55.8755 4.76807C68.7555 4.76807 80.5256 9.55806 89.4755 17.4581C97.3955 26.4181 102.196 38.1981 102.196 51.0881Z" fill="#F3F2F4"/>
<path d="M89.4755 17.4581C80.5155 9.55807 68.7555 4.76807 55.8755 4.76807C27.8055 4.76807 5.05554 27.5181 5.05554 55.5881C5.05554 68.4581 9.83554 80.2081 17.7055 89.1581C16.2255 87.8581 14.8255 86.4681 13.5055 85.0081C5.45555 76.0081 0.555542 64.1281 0.555542 51.0881C0.555542 23.0181 23.3055 0.268066 51.3755 0.268066C64.3855 0.268066 76.2655 5.15806 85.2455 13.1981C86.7355 14.5381 88.1555 15.9581 89.4755 17.4581Z" fill="#59E6FF"/>
<path d="M66.2155 79.8883V82.8483C63.0355 84.1583 59.0155 84.9483 54.6255 84.9483C46.6955 84.9483 39.9155 82.3683 37.2755 78.7383C40.6155 81.2783 46.2455 82.9483 52.6255 82.9483C57.9955 82.9483 62.8255 81.7683 66.2155 79.8883Z" fill="#49EAFF"/>
<path d="M73.1656 75.6982H73.1756V87.7083C73.1756 89.0783 72.0656 90.1982 70.6956 90.1982C69.4756 90.1982 68.4656 89.3182 68.2556 88.1582C68.3956 88.1882 68.5456 88.1982 68.6956 88.1982C70.0656 88.1982 71.1756 87.0783 71.1756 85.7083V73.6982H71.1656C71.1756 73.5782 71.1756 73.4582 71.1756 73.3382C71.1756 72.1482 70.7556 70.9982 69.9856 69.9482C71.9956 71.4882 73.1756 73.3382 73.1756 75.3382C73.1756 75.4582 73.1756 75.5782 73.1656 75.6982Z" fill="#49EAFF"/>
<path d="M71.1656 73.6983H71.1756V85.7083C71.1756 87.0783 70.0656 88.1983 68.6956 88.1983C68.5456 88.1983 68.3956 88.1883 68.2556 88.1583C67.0956 87.9483 66.2156 86.9283 66.2156 85.7083V79.8883C62.8256 81.7683 57.9956 82.9483 52.6256 82.9483C46.2456 82.9483 40.6156 81.2783 37.2756 78.7383C36.4956 77.6783 36.0756 76.5383 36.0756 75.3383C36.0756 70.0383 44.3856 65.7383 54.6256 65.7383C61.0156 65.7383 66.6456 67.4083 69.9856 69.9483C70.7556 70.9983 71.1756 72.1483 71.1756 73.3383C71.1756 73.4583 71.1756 73.5783 71.1656 73.6983Z" fill="#030505"/>
<path d="M69.9856 69.9483C66.6456 67.4083 61.0156 65.7383 54.6256 65.7383C44.3856 65.7383 36.0756 70.0383 36.0756 75.3383C36.0756 76.5383 36.4956 77.6783 37.2756 78.7383C35.2556 77.1983 34.0756 75.3383 34.0756 73.3383C34.0756 68.0383 42.3856 63.7383 52.6256 63.7383C60.5656 63.7383 67.3356 66.3183 69.9856 69.9483Z" fill="#F04271"/>
<path d="M48.7956 35.5078C48.7956 43.1378 42.6056 49.3278 34.9756 49.3278C30.6256 49.3278 26.7456 47.3178 24.2156 44.1778C26.5856 46.0878 29.5956 47.2278 32.8756 47.2278C40.5056 47.2278 46.6956 41.0378 46.6956 33.4078C46.6956 30.1278 45.5456 27.1078 43.6356 24.7378C46.7756 27.2778 48.7956 31.1578 48.7956 35.5078Z" fill="#49EAFF"/>
<path d="M46.6955 33.4078C46.6955 41.0378 40.5055 47.2278 32.8755 47.2278C29.5955 47.2278 26.5755 46.0878 24.2155 44.1778C22.3055 41.8078 21.1655 38.7978 21.1655 35.5078C21.1655 27.8778 27.3455 21.6978 34.9755 21.6978C38.2555 21.6978 41.2655 22.8378 43.6355 24.7478C45.5455 27.1078 46.6955 30.1278 46.6955 33.4078Z" fill="#030505"/>
<path d="M43.6356 24.7479C41.2656 22.8379 38.2555 21.6979 34.9755 21.6979C27.3455 21.6979 21.1656 27.8779 21.1656 35.5079C21.1656 38.7879 22.3056 41.8079 24.2156 44.1779C21.0756 41.6479 19.0656 37.7579 19.0656 33.4179C19.0656 25.7879 25.2455 19.6079 32.8755 19.6079C37.2255 19.5979 41.1056 21.6079 43.6356 24.7479Z" fill="#F04271"/>
<path d="M39.2055 28.5979C39.2055 31.5179 36.8455 33.8779 33.9255 33.8779C31.0155 33.8779 28.6455 31.5179 28.6455 28.5979C28.6455 25.6779 31.0055 23.3179 33.9255 23.3179C36.8455 23.3179 39.2055 25.6779 39.2055 28.5979Z" fill="white"/>
<path d="M88.1856 35.5078C88.1856 43.1378 81.9956 49.3278 74.3656 49.3278C70.0156 49.3278 66.1356 47.3178 63.6056 44.1778C65.9756 46.0878 68.9856 47.2278 72.2656 47.2278C79.8956 47.2278 86.0856 41.0378 86.0856 33.4078C86.0856 30.1278 84.9356 27.1078 83.0256 24.7378C86.1656 27.2778 88.1856 31.1578 88.1856 35.5078Z" fill="#49EAFF"/>
<path d="M86.0855 33.4078C86.0855 41.0378 79.8955 47.2278 72.2655 47.2278C68.9855 47.2278 65.9655 46.0878 63.6055 44.1778C61.6955 41.8078 60.5555 38.7978 60.5555 35.5078C60.5555 27.8778 66.7355 21.6978 74.3655 21.6978C77.6455 21.6978 80.6556 22.8378 83.0256 24.7478C84.9356 27.1078 86.0855 30.1278 86.0855 33.4078Z" fill="#030505"/>
<path d="M83.0256 24.7479C80.6556 22.8379 77.6456 21.6979 74.3656 21.6979C66.7356 21.6979 60.5556 27.8779 60.5556 35.5079C60.5556 38.7879 61.6956 41.8079 63.6056 44.1779C60.4656 41.6479 58.4556 37.7579 58.4556 33.4179C58.4556 25.7879 64.6356 19.6079 72.2656 19.6079C76.6156 19.5979 80.4956 21.6079 83.0256 24.7479Z" fill="#F04271"/>
<path d="M78.5955 28.5979C78.5955 31.5179 76.2355 33.8779 73.3155 33.8779C70.3955 33.8779 68.0355 31.5179 68.0355 28.5979C68.0355 25.6779 70.3955 23.3179 73.3155 23.3179C76.2355 23.3179 78.5955 25.6779 78.5955 28.5979Z" fill="white"/>
</svg>
