<svg width="84" height="93" viewBox="0 0 84 93" fill="none" xmlns="http://www.w3.org/2000/svg">
<path d="M26.4056 53.128C24.8656 52.198 23.1756 51.388 21.3056 50.638C19.6956 49.988 11.5456 49.898 11.5456 49.898C10.2456 49.898 9.03558 48.008 8.09558 44.958C10.6256 45.038 14.2856 45.228 15.3056 45.638C19.9256 47.488 23.4056 49.708 26.4056 53.128Z" fill="#F04271"/>
<path d="M82.4455 51.9882C82.4555 52.3882 82.4155 52.7782 82.3655 53.1482C81.7455 56.9482 77.7455 59.1282 70.7855 59.1582H55.5355C58.5455 63.2182 61.0455 66.2482 63.1655 69.5182C66.7955 75.0682 67.3355 80.8882 64.7855 86.4382C64.3755 87.3482 63.8755 88.2482 63.2955 89.1382C62.0655 91.0382 58.7255 92.0682 56.2155 92.3882C55.1555 92.5282 53.3455 90.0782 52.5055 88.4682C52.2655 88.0182 52.0455 87.5582 51.8255 87.0982C53.9955 86.6082 56.3155 85.6482 57.2955 84.1382C57.8755 83.2482 58.3755 82.3482 58.7855 81.4382C61.3355 75.8882 60.7955 70.0682 57.1655 64.5182C55.0455 61.2482 52.5455 58.2182 49.5355 54.1582H64.7855C71.7455 54.1282 75.7455 51.9482 76.3655 48.1482C76.4155 47.7782 76.4555 47.3882 76.4455 46.9882C76.4255 44.9382 76.6255 41.6782 73.7555 39.7482C76.5455 38.3482 77.1455 34.4582 76.9755 32.4082C76.8255 30.4782 76.5455 27.4982 73.1755 25.1382C75.5155 23.4182 75.1355 19.4982 75.0455 17.7082C74.8855 14.7882 72.2655 11.5282 69.2155 11.4982C69.7155 9.0182 69.8755 7.0082 69.6355 5.4082C75.1855 6.0082 76.6855 9.2482 75.2155 16.4982C78.2655 16.5282 80.8855 19.7882 81.0455 22.7082C81.1355 24.4982 81.5155 28.4182 79.1755 30.1382C82.5455 32.4982 82.8255 35.4782 82.9755 37.4082C83.1455 39.4582 82.5455 43.3482 79.7555 44.7482C82.6255 46.6782 82.4255 49.9382 82.4455 51.9882Z" fill="#F04271"/>
<path d="M76.4456 46.988C76.4556 47.388 76.4156 47.778 76.3656 48.148C75.7456 51.948 71.7456 54.128 64.7856 54.158H49.5356C52.5456 58.218 55.0456 61.248 57.1656 64.518C60.7956 70.068 61.3356 75.888 58.7856 81.438C58.3756 82.348 57.8756 83.248 57.2956 84.138C56.3156 85.648 53.9956 86.608 51.8256 87.098C51.2656 87.228 50.7256 87.318 50.2156 87.388C49.1556 87.528 47.3456 85.078 46.5056 83.468C44.3656 79.358 43.0856 74.728 40.5256 70.948C36.9156 65.588 32.1756 61.008 28.4556 55.728C27.7956 54.788 27.1156 53.928 26.4056 53.128C23.4056 49.708 19.9256 47.488 15.3056 45.638C14.2856 45.228 10.6256 45.038 8.09558 44.958C6.86558 40.988 6.07556 35.068 6.07556 28.818C6.07556 17.778 8.53556 8.80797 11.5456 8.80797C11.5756 8.80797 11.6056 8.80797 11.6356 8.81797V8.80797C11.6356 8.77797 12.1656 8.76798 13.0556 8.76798C16.8956 8.75798 27.3056 8.95798 28.5256 9.00798C32.2756 9.16798 35.7756 8.32797 39.4856 7.98797C48.5556 7.15797 57.5856 5.56797 66.6556 5.30797C67.7556 5.27797 68.7556 5.30798 69.6356 5.40798C69.8756 7.00798 69.7156 9.01797 69.2156 11.498C72.2656 11.528 74.8856 14.788 75.0456 17.708C75.1356 19.498 75.5156 23.418 73.1756 25.138C76.5456 27.498 76.8256 30.478 76.9756 32.408C77.1456 34.458 76.5456 38.348 73.7556 39.748C76.6256 41.678 76.4256 44.938 76.4456 46.988Z" fill="#F3F2F4"/>
<path d="M69.6356 5.40822C68.7556 5.30822 67.7556 5.27822 66.6556 5.30822C57.5856 5.56822 48.5556 7.15822 39.4856 7.98822C35.7756 8.32822 32.2756 9.16822 28.5256 9.00822C27.3056 8.95822 16.8956 8.75822 13.0556 8.76822C12.1656 8.76822 11.6356 8.77822 11.6356 8.80822V8.81822C11.6056 8.80822 11.5756 8.80822 11.5456 8.80822C8.53556 8.80822 6.07556 17.7782 6.07556 28.8182C6.07556 35.0682 6.86558 40.9882 8.09558 44.9582C6.63558 44.9082 5.54556 44.8982 5.54556 44.8982C2.53556 44.8982 0.0755615 34.8782 0.0755615 23.8182C0.0755615 12.7782 2.53556 3.80822 5.54556 3.80822C5.57556 3.80822 5.60556 3.80822 5.63556 3.81822V3.80822C5.63556 3.77822 6.16557 3.76822 7.05557 3.76822C10.8956 3.75822 21.3056 3.95822 22.5256 4.00822C26.2756 4.16822 29.7756 3.32822 33.4856 2.98822C42.5556 2.15822 51.5856 0.568222 60.6556 0.308222C66.2856 0.148222 69.0756 1.59822 69.6356 5.40822Z" fill="#59E6FF"/>
</svg>
