<svg width="108" height="108" viewBox="0 0 108 108" fill="none" xmlns="http://www.w3.org/2000/svg">
<path d="M107.136 56.1883C107.136 84.2583 84.3855 107.008 56.3155 107.008C41.2755 107.008 27.7655 100.478 18.4555 90.0983C18.3555 89.9783 18.2455 89.8684 18.1555 89.7484C27.1255 97.6884 38.9155 102.498 51.8255 102.498C79.8955 102.498 102.646 79.7483 102.646 51.6783C102.646 38.7783 97.8355 27.0083 89.9255 18.0483C90.0155 18.1283 90.1055 18.2083 90.1955 18.2883C100.586 27.6083 107.136 41.1383 107.136 56.1883Z" fill="#F04271"/>
<path d="M102.635 51.6882C102.635 79.7582 79.8855 102.508 51.8155 102.508C38.9055 102.508 27.1155 97.6882 18.1455 89.7582C10.2755 80.7982 5.49548 69.0582 5.49548 56.1882C5.49548 28.1182 28.2455 5.36816 56.3155 5.36816C69.1955 5.36816 80.9655 10.1582 89.9155 18.0582C97.8255 27.0182 102.635 38.7982 102.635 51.6882Z" fill="#F3F2F4"/>
<path d="M89.9155 18.0582C80.9555 10.1582 69.1955 5.36816 56.3155 5.36816C28.2455 5.36816 5.49548 28.1182 5.49548 56.1882C5.49548 69.0582 10.2755 80.8082 18.1455 89.7582C16.6655 88.4582 15.2655 87.0682 13.9455 85.6082C5.8955 76.6082 0.995483 64.7282 0.995483 51.6882C0.995483 23.6182 23.7455 0.868164 51.8155 0.868164C64.8255 0.868164 76.7055 5.75817 85.6855 13.7982C87.1755 15.1382 88.5855 16.5582 89.9155 18.0582Z" fill="#59E6FF"/>
<path d="M79.0054 34.2878C77.5254 33.2278 75.6554 32.5178 73.6954 32.3378C71.6854 32.1578 67.8554 32.4378 64.8354 36.3478C64.1654 37.2178 62.9054 37.3778 62.0354 36.7078C61.5254 36.3078 61.2554 35.7178 61.2554 35.1178C61.8554 35.1178 62.4454 34.8578 62.8354 34.3478C65.8554 30.4378 69.6854 30.1578 71.6954 30.3378C74.7154 30.6078 77.5354 32.1578 79.0054 34.2878Z" fill="#59E6FF"/>
<path d="M84.1354 37.8578C83.8454 38.0178 83.5255 38.0878 83.2155 38.0878C82.4955 38.0878 81.7954 37.6878 81.4454 37.0078C81.2754 36.6778 81.0654 36.3578 80.8354 36.0478C80.9554 36.0778 81.0855 36.0878 81.2155 36.0878C81.5255 36.0878 81.8454 36.0178 82.1354 35.8578C83.1154 35.3578 83.5055 34.1478 82.9955 33.1678C82.6855 32.5678 82.3154 31.9878 81.8654 31.4478C83.1854 32.4878 84.2655 33.7478 84.9955 35.1678C85.5055 36.1478 85.1154 37.3578 84.1354 37.8578Z" fill="#59E6FF"/>
<path d="M41.2354 34.2879C38.7054 32.3379 36.0054 32.198 34.4254 32.3379C31.0854 32.6379 27.9754 34.5179 26.6854 37.0079C26.3354 37.6879 25.6354 38.088 24.9054 38.088C24.5954 38.088 24.2854 38.018 23.9954 37.858C23.3054 37.508 22.9154 36.818 22.9154 36.088C23.6454 36.088 24.3354 35.6879 24.6854 35.0079C25.9754 32.5179 29.0854 30.638 32.4254 30.338C34.4354 30.158 38.2354 30.4379 41.2354 34.2879Z" fill="#59E6FF"/>
<path d="M46.0955 36.7082C45.2155 37.3782 43.9655 37.2182 43.2855 36.3482C42.8655 35.7982 42.4255 35.3182 41.9755 34.9082C42.6355 35.2382 43.4655 35.1882 44.0955 34.7082C44.9655 34.0282 45.1255 32.7782 44.4555 31.8982C44.3255 31.7282 44.1955 31.5682 44.0555 31.4082C44.9155 32.1182 45.7255 32.9482 46.4555 33.8982C47.1255 34.7782 46.9655 36.0282 46.0955 36.7082Z" fill="#59E6FF"/>
<path d="M79.6454 58.1078C79.0754 58.5878 78.4954 59.0478 77.9054 59.4878L77.7054 56.6478C77.6354 55.4978 77.2654 54.4378 76.6754 53.5278C78.2554 54.5378 79.3754 56.1878 79.6454 58.1078Z" fill="#59E6FF"/>
<path d="M85.8154 61.7981C83.3954 63.9681 80.8354 65.8881 78.1954 67.4981C74.8154 69.5581 71.2255 71.1781 67.5255 72.3081C63.2654 73.6181 58.9255 74.2481 54.6255 74.2481C42.5255 74.2481 30.7354 69.2381 21.9554 59.9281C30.4754 67.9481 41.4155 72.2481 52.6255 72.2481C56.9255 72.2481 61.2654 71.6181 65.5255 70.3081C69.2255 69.1781 72.8154 67.5581 76.1954 65.4981C78.8354 63.8881 81.3954 61.9681 83.8154 59.7981C84.2554 59.3981 84.4754 58.8581 84.4754 58.3081C85.0254 58.3081 85.5755 58.5281 85.9655 58.9681C86.7055 59.7881 86.6354 61.0581 85.8154 61.7981Z" fill="#59E6FF"/>
<path d="M82.1355 35.858C81.8455 36.018 81.5255 36.088 81.2155 36.088C81.0855 36.088 80.9555 36.078 80.8355 36.048C80.2555 35.938 79.7355 35.568 79.4455 35.008C79.3155 34.758 79.1755 34.518 79.0055 34.288C77.5355 32.158 74.7155 30.608 71.6955 30.338C69.6855 30.158 65.8555 30.438 62.8355 34.348C62.4455 34.858 61.8555 35.118 61.2555 35.118C61.2555 34.688 61.3955 34.268 61.6755 33.898C64.7755 29.878 69.1755 27.908 74.0555 28.358C76.9755 28.618 79.7355 29.738 81.8655 31.448C82.3155 31.988 82.6855 32.568 82.9955 33.168C83.5055 34.148 83.1155 35.358 82.1355 35.858Z" fill="#030505"/>
<path d="M81.8655 31.448C79.7355 29.738 76.9755 28.618 74.0555 28.358C69.1755 27.908 64.7755 29.878 61.6755 33.898C61.3955 34.268 61.2555 34.688 61.2555 35.118C60.8255 35.118 60.3955 34.988 60.0355 34.708C59.1655 34.028 58.9955 32.778 59.6755 31.898C62.7755 27.878 67.1755 25.908 72.0555 26.358C76.0155 26.708 79.6755 28.648 81.8655 31.448Z" fill="#F04271"/>
<path d="M44.0955 34.7082C43.4655 35.1882 42.6355 35.2382 41.9755 34.9082C41.7355 34.6782 41.4855 34.4782 41.2355 34.2882C38.2355 30.4382 34.4355 30.1582 32.4255 30.3382C29.0855 30.6382 25.9755 32.5182 24.6855 35.0082C24.3355 35.6882 23.6455 36.0882 22.9155 36.0882C22.9055 35.7782 22.9855 35.4682 23.1355 35.1682C25.0555 31.4582 29.3455 28.7782 34.0655 28.3582C37.8055 28.0182 41.2555 29.0882 44.0555 31.4082C44.1955 31.5682 44.3255 31.7282 44.4555 31.8982C45.1255 32.7782 44.9655 34.0282 44.0955 34.7082Z" fill="#030505"/>
<path d="M44.0555 31.408C41.2555 29.088 37.8055 28.018 34.0655 28.358C29.3455 28.778 25.0555 31.458 23.1355 35.168C22.9855 35.468 22.9055 35.778 22.9155 36.088H22.9055C22.5955 36.088 22.2855 36.018 21.9955 35.858C21.0155 35.358 20.6255 34.148 21.1355 33.168C23.0555 29.458 27.3455 26.778 32.0655 26.358C36.7555 25.938 40.9855 27.728 44.0555 31.408Z" fill="#F04271"/>
<path d="M41.2355 34.2881C41.4855 34.4781 41.7355 34.6781 41.9755 34.9081C41.7155 34.7781 41.4755 34.5981 41.2855 34.3481C41.2655 34.3281 41.2555 34.3081 41.2355 34.2881Z" fill="#030505"/>
<path d="M84.4755 58.3081C84.4755 58.8581 84.2555 59.3981 83.8155 59.7981C81.3955 61.9681 78.8355 63.8881 76.1955 65.4981C72.8155 67.5581 69.2255 69.1781 65.5255 70.3081C61.2655 71.6181 56.9255 72.2481 52.6255 72.2481C41.4155 72.2481 30.4755 67.9481 21.9555 59.9281C21.9455 59.9181 21.9455 59.9081 21.9455 59.9081C21.1955 59.1081 21.2255 57.8381 22.0355 57.0781C22.8355 56.3281 24.1055 56.3681 24.8655 57.1681C35.6955 68.6781 51.5955 73.0181 66.3555 68.4881C66.5255 68.4381 66.6955 68.3681 66.8655 68.3081L66.3055 59.3381C66.0755 55.7081 68.8955 52.6181 72.5955 52.4281C74.0955 52.3581 75.5155 52.7681 76.6755 53.5281C77.2655 54.4381 77.6355 55.4981 77.7055 56.6481L77.9055 59.4881C78.4955 59.0481 79.0755 58.5881 79.6455 58.1081C80.1455 57.6981 80.6455 57.2681 81.1355 56.8281C81.9555 56.0781 83.2255 56.1481 83.9655 56.9681C84.3055 57.3481 84.4755 57.8281 84.4755 58.3081Z" fill="#030505"/>
<path d="M76.6755 53.5279C75.5155 52.7679 74.0955 52.3579 72.5955 52.4279C68.8955 52.6179 66.0755 55.7078 66.3055 59.3378L66.8655 68.3078C66.6955 68.3678 66.5255 68.4379 66.3555 68.4879C51.5955 73.0179 35.6955 68.6779 24.8655 57.1679C24.1055 56.3679 22.8355 56.3279 22.0355 57.0779C21.2255 57.8379 21.1955 59.1079 21.9455 59.9079C21.2655 59.2679 20.5955 58.5979 19.9455 57.9079C19.1955 57.1079 19.2255 55.8379 20.0355 55.0779C20.8355 54.3279 22.1055 54.3679 22.8655 55.1679C33.6955 66.6779 49.5955 71.0179 64.3555 66.4879C64.5255 66.4379 64.6955 66.3679 64.8655 66.3078L64.3055 57.3378C64.0755 53.7078 66.8955 50.6179 70.5955 50.4279C73.1255 50.3079 75.4155 51.5579 76.6755 53.5279Z" fill="#F04271"/>
</svg>
