<svg width="108" height="107" viewBox="0 0 108 107" fill="none" xmlns="http://www.w3.org/2000/svg">
<path d="M107.136 55.9784C107.136 84.0484 84.3855 106.798 56.3155 106.798C41.2755 106.798 27.7655 100.268 18.4555 89.8884C18.3555 89.7684 18.2455 89.6584 18.1555 89.5384C27.1255 97.4784 38.9155 102.288 51.8255 102.288C79.8955 102.288 102.646 79.5384 102.646 51.4684C102.646 38.5684 97.8355 26.7984 89.9255 17.8384C90.0155 17.9184 90.1055 17.9984 90.1955 18.0784C100.586 27.3884 107.136 40.9184 107.136 55.9784Z" fill="#F04271"/>
<path d="M102.635 51.4782C102.635 79.5482 79.8855 102.298 51.8155 102.298C38.9055 102.298 27.1155 97.4782 18.1455 89.5482C10.2755 80.5882 5.49548 68.8482 5.49548 55.9782C5.49548 27.9082 28.2455 5.1582 56.3155 5.1582C69.1955 5.1582 80.9655 9.94821 89.9155 17.8482C97.8255 26.8082 102.635 38.5882 102.635 51.4782Z" fill="#F3F2F4"/>
<path d="M89.9155 17.8482C80.9555 9.94821 69.1955 5.1582 56.3155 5.1582C28.2455 5.1582 5.49548 27.9082 5.49548 55.9782C5.49548 68.8482 10.2755 80.5982 18.1455 89.5482C16.6655 88.2482 15.2655 86.8582 13.9455 85.3982C5.8955 76.3982 0.995483 64.5182 0.995483 51.4782C0.995483 23.4082 23.7455 0.658203 51.8155 0.658203C64.8255 0.658203 76.7055 5.54823 85.6855 13.5882C87.1755 14.9282 88.5855 16.3482 89.9155 17.8482Z" fill="#59E6FF"/>
<path d="M69.7655 70.7484C69.7655 71.5784 69.0955 72.2484 68.2655 72.2484H45.3956C44.9856 74.7484 43.4655 77.1284 40.8255 79.3284C40.5455 79.5584 40.2056 79.6784 39.8656 79.6784C39.4356 79.6784 39.0055 79.4984 38.7155 79.1384C38.5855 78.9784 38.4855 78.7984 38.4355 78.6084C38.5755 78.6584 38.7156 78.6784 38.8656 78.6784C39.2056 78.6784 39.5455 78.5584 39.8255 78.3284C42.4655 76.1284 43.9856 73.7484 44.3956 71.2484H67.2655C68.0955 71.2484 68.7655 70.5784 68.7655 69.7484C68.7655 69.5984 68.7455 69.4584 68.6955 69.3184C69.3155 69.4984 69.7655 70.0684 69.7655 70.7484Z" fill="#59E6FF"/>
<path d="M39.2955 64.8086C39.0955 64.6286 38.9755 64.5286 38.9655 64.5186C38.7955 64.3886 38.6555 64.2186 38.5555 64.0386C38.7655 64.2386 39.0255 64.4986 39.2955 64.8086Z" fill="#030505"/>
<path d="M45.1156 68.2483H44.3656C43.9156 65.8683 42.5556 63.9382 41.4456 62.6982C42.4556 63.6182 44.3056 65.5983 45.1156 68.2483Z" fill="#59E6FF"/>
<path d="M83.3155 39.9785C83.3155 45.6385 78.7255 50.2285 73.0655 50.2285C69.7355 50.2285 66.7655 48.6285 64.8955 46.1585C66.6155 47.4585 68.7555 48.2285 71.0655 48.2285C76.0455 48.2285 80.1955 44.6785 81.1155 39.9785H83.3155Z" fill="#59E6FF"/>
<path d="M45.3055 39.9785C45.3055 45.6385 40.7155 50.2285 35.0555 50.2285C31.7255 50.2285 28.7555 48.6285 26.8855 46.1585C28.6055 47.4585 30.7355 48.2285 33.0555 48.2285C38.0355 48.2285 42.1855 44.6785 43.1055 39.9785H45.3055Z" fill="#59E6FF"/>
<path d="M71.7455 26.0384C71.3455 25.9684 70.9255 26.0884 70.6255 26.3884C70.3255 26.6884 64.3055 32.5884 56.6655 29.1884C56.8755 29.0284 57.0555 28.8884 57.2155 28.7584C56.7055 28.6084 56.1855 28.4184 55.6655 28.1884C56.2055 27.7784 56.5755 27.4584 56.7655 27.2884C57.9155 26.3084 58.6655 24.8584 58.6655 23.2284C58.6655 22.0184 58.2555 20.8984 57.5655 19.9984C56.6655 19.3084 55.5455 18.8984 54.3355 18.8984C51.3955 18.8984 49.0055 21.2884 49.0055 24.2284C49.0055 25.5484 49.4955 26.7584 50.2955 27.6984C50.4055 27.8284 50.5255 27.9584 50.6555 28.0784C50.6855 28.1184 50.7155 28.1684 50.7555 28.2184C50.7755 28.2484 50.7955 28.2684 50.8255 28.2984C51.1755 28.6084 51.5355 28.8884 51.8855 29.1684C48.4955 30.6384 43.4355 31.2584 37.9955 26.4284C37.4755 25.9684 36.6855 26.0184 36.2255 26.5284C35.8855 26.9184 35.8255 27.4584 36.0355 27.8984L36.0455 27.9084C39.5255 30.7484 42.8855 31.7184 45.8555 31.7184C48.7855 31.7184 51.3255 30.7784 53.2355 29.7484C55.7455 31.1684 58.1555 31.7184 60.3455 31.7184C66.7455 31.7184 71.3255 27.2184 71.3955 27.1484C71.6955 26.8484 71.8155 26.4284 71.7455 26.0384ZM51.9055 25.6784C51.0655 25.1884 50.5055 24.2784 50.5055 23.2284C50.5055 21.6684 51.7755 20.3984 53.3355 20.3984C54.3755 20.3984 55.2855 20.9584 55.7655 21.7984C56.6055 22.2784 57.1655 23.1884 57.1655 24.2284C57.1655 25.0584 56.8055 25.7984 56.2455 26.3184C56.2155 26.3384 56.1655 26.3584 56.1355 26.3884C56.1155 26.4084 56.0755 26.4484 56.0055 26.5084C55.5355 26.8584 54.9655 27.0684 54.3355 27.0684C53.3055 27.0684 52.3955 26.5084 51.9055 25.6784Z" fill="#030505"/>
<path d="M59.6655 24.2285C59.6655 25.8585 58.9155 27.3085 57.7655 28.2885C57.6455 28.3885 57.4655 28.5485 57.2155 28.7585C56.7055 28.6085 56.1855 28.4185 55.6655 28.1885C56.2055 27.7785 56.5755 27.4585 56.7655 27.2885C57.9155 26.3085 58.6655 24.8585 58.6655 23.2285C58.6655 22.0185 58.2555 20.8985 57.5655 19.9985C58.8455 20.9685 59.6655 22.4985 59.6655 24.2285Z" fill="#59E6FF"/>
<path d="M72.3955 28.1486C72.3255 28.2186 67.7456 32.7186 61.3456 32.7186C59.1556 32.7186 56.7455 32.1686 54.2355 30.7486C52.3255 31.7786 49.7855 32.7186 46.8555 32.7186C43.6855 32.7186 40.0655 31.6086 36.3355 28.2986C36.2055 28.1886 36.1055 28.0486 36.0455 27.9086C39.5255 30.7486 42.8855 31.7186 45.8555 31.7186C48.7855 31.7186 51.3255 30.7786 53.2355 29.7486C55.7455 31.1686 58.1556 31.7186 60.3456 31.7186C66.7456 31.7186 71.3255 27.2186 71.3955 27.1486C71.6955 26.8486 71.8155 26.4286 71.7455 26.0386C71.9855 26.0786 72.2155 26.1986 72.3955 26.3786C72.8855 26.8686 72.8855 27.6586 72.3955 28.1486Z" fill="#59E6FF"/>
<path d="M68.7656 69.7484C68.7656 70.5784 68.0956 71.2484 67.2656 71.2484H44.3956C43.9856 73.7484 42.4656 76.1284 39.8256 78.3284C39.5456 78.5584 39.2056 78.6784 38.8656 78.6784C38.7156 78.6784 38.5756 78.6584 38.4356 78.6084C38.2656 78.0484 38.4256 77.4284 38.9056 77.0284C41.3656 74.9684 42.5856 72.8484 42.5256 70.7084C42.4556 67.8884 40.1856 65.5984 39.3056 64.8184L39.2956 64.8084C39.0256 64.4984 38.7656 64.2384 38.5556 64.0384C38.2756 63.5384 38.2956 62.8984 38.6656 62.4184C39.1656 61.7584 40.1056 61.6184 40.7656 62.1184C40.8056 62.1484 41.0056 62.2984 41.3056 62.5684C41.3556 62.5984 41.3956 62.6484 41.4456 62.6984C42.5556 63.9384 43.9156 65.8684 44.3656 68.2484H67.2656C67.9456 68.2484 68.5156 68.6984 68.6956 69.3184C68.7456 69.4584 68.7656 69.5984 68.7656 69.7484Z" fill="#030505"/>
<path d="M41.3055 62.5684C41.0055 62.2984 40.8055 62.1484 40.7655 62.1184C40.1055 61.6184 39.1655 61.7584 38.6655 62.4184C38.2955 62.8984 38.2755 63.5384 38.5555 64.0384C38.2055 63.7084 37.9755 63.5284 37.9655 63.5184C37.3055 63.0184 37.1655 62.0784 37.6655 61.4184C38.1655 60.7584 39.1055 60.6184 39.7655 61.1184C39.8355 61.1684 40.5055 61.6884 41.3055 62.5684Z" fill="#F04271"/>
<path d="M42.5256 70.7084C42.5856 72.8484 41.3656 74.9684 38.9056 77.0284C38.4255 77.4284 38.2655 78.0484 38.4355 78.6084C38.1555 78.5384 37.9055 78.3784 37.7155 78.1384C37.1855 77.4984 37.2656 76.5584 37.9056 76.0284C40.3656 73.9684 41.5856 71.8484 41.5256 69.7084C41.4756 67.6884 40.2956 65.9384 39.3056 64.8184C40.1856 65.5984 42.4556 67.8884 42.5256 70.7084Z" fill="#F04271"/>
<path d="M81.1156 39.9785C80.1956 44.6785 76.0456 48.2285 71.0656 48.2285C68.7556 48.2285 66.6156 47.4585 64.8956 46.1585C63.5856 44.4385 62.8156 42.2985 62.8156 39.9785H81.1156Z" fill="#030505"/>
<path d="M81.1156 39.9785H62.8156C62.8156 42.2985 63.5856 44.4385 64.8956 46.1585C62.4156 44.2885 60.8156 41.3185 60.8156 37.9785H81.3156C81.3156 38.6585 81.2456 39.3285 81.1156 39.9785Z" fill="#F04271"/>
<path d="M43.1055 39.9785C42.1855 44.6785 38.0355 48.2285 33.0555 48.2285C30.7355 48.2285 28.6055 47.4585 26.8855 46.1585C25.5755 44.4385 24.8055 42.2985 24.8055 39.9785H43.1055Z" fill="#030505"/>
<path d="M43.1055 39.9785H24.8055C24.8055 42.2985 25.5755 44.4385 26.8855 46.1585C24.4055 44.2885 22.8055 41.3185 22.8055 37.9785H43.3055C43.3055 38.6585 43.2355 39.3285 43.1055 39.9785Z" fill="#F04271"/>
<path d="M71.7455 26.0384C71.3455 25.9684 70.9255 26.0884 70.6255 26.3884C70.3255 26.6884 64.3055 32.5884 56.6655 29.1884C56.8755 29.0284 57.0555 28.8884 57.2155 28.7584C56.7055 28.6084 56.1855 28.4184 55.6655 28.1884C56.2055 27.7784 56.5755 27.4584 56.7655 27.2884C57.9155 26.3084 58.6655 24.8584 58.6655 23.2284C58.6655 22.0184 58.2555 20.8984 57.5655 19.9984C56.6655 19.3084 55.5455 18.8984 54.3355 18.8984C51.3955 18.8984 49.0055 21.2884 49.0055 24.2284C49.0055 25.5484 49.4955 26.7584 50.2955 27.6984C50.4955 27.8584 50.6955 28.0084 50.8855 28.1684C50.8455 28.1884 50.7955 28.2084 50.7555 28.2184C50.7755 28.2484 50.7955 28.2684 50.8255 28.2984C51.1755 28.6084 51.5355 28.8884 51.8855 29.1684C48.4955 30.6384 43.4355 31.2584 37.9955 26.4284C37.4755 25.9684 36.6855 26.0184 36.2255 26.5284C35.8855 26.9184 35.8255 27.4584 36.0355 27.8984L36.0455 27.9084C39.5255 30.7484 42.8855 31.7184 45.8555 31.7184C48.7855 31.7184 51.3255 30.7784 53.2355 29.7484C55.7455 31.1684 58.1555 31.7184 60.3455 31.7184C66.7455 31.7184 71.3255 27.2184 71.3955 27.1484C71.6955 26.8484 71.8155 26.4284 71.7455 26.0384ZM51.9055 25.6784C51.0655 25.1884 50.5055 24.2784 50.5055 23.2284C50.5055 21.6684 51.7755 20.3984 53.3355 20.3984C54.3755 20.3984 55.2855 20.9584 55.7655 21.7984C56.6055 22.2784 57.1655 23.1884 57.1655 24.2284C57.1655 25.0584 56.8055 25.7984 56.2455 26.3184C56.2155 26.3384 56.1655 26.3584 56.1355 26.3884C56.1155 26.4084 56.0755 26.4484 56.0055 26.5084C55.5355 26.8584 54.9655 27.0684 54.3355 27.0684C53.3055 27.0684 52.3955 26.5084 51.9055 25.6784Z" fill="#030505"/>
<path d="M71.7455 26.0383C71.3455 25.9683 70.9255 26.0883 70.6255 26.3883C70.3255 26.6883 64.3055 32.5883 56.6655 29.1883C56.8755 29.0283 57.0555 28.8883 57.2155 28.7583C64.1055 30.8083 69.3455 25.6683 69.6255 25.3883C70.1055 24.8983 70.9055 24.8983 71.3955 25.3783C71.5855 25.5583 71.7055 25.7983 71.7455 26.0383Z" fill="#F04271"/>
<path d="M51.8855 29.1682C48.4955 30.6382 43.4355 31.2582 37.9955 26.4282C37.4755 25.9682 36.6855 26.0182 36.2255 26.5282C35.8855 26.9182 35.8255 27.4582 36.0355 27.8982C35.8055 27.7082 35.5655 27.5082 35.3355 27.2982C34.8155 26.8382 34.7755 26.0482 35.2255 25.5282C35.6855 25.0182 36.4755 24.9682 36.9955 25.4282C42.3655 30.1982 47.3655 29.6482 50.7555 28.2182C50.7755 28.2482 50.7955 28.2682 50.8255 28.2982C51.1755 28.6082 51.5355 28.8882 51.8855 29.1682Z" fill="#F04271"/>
<path d="M57.5655 19.9984C56.6655 19.3084 55.5455 18.8984 54.3355 18.8984C51.3955 18.8984 49.0055 21.2884 49.0055 24.2284C49.0055 25.5484 49.4955 26.7584 50.2955 27.6984C50.1355 27.5684 49.9855 27.4384 49.8255 27.2984C49.7455 27.2284 49.7055 27.1484 49.6555 27.0784C48.6455 26.0984 48.0055 24.7384 48.0055 23.2284C48.0055 20.2884 50.3955 17.8984 53.3355 17.8984C55.0655 17.8984 56.5955 18.7184 57.5655 19.9984Z" fill="#F04271"/>
<path d="M57.1655 24.2283C57.1655 25.0583 56.8055 25.7983 56.2455 26.3183C56.2155 26.3383 56.1655 26.3583 56.1355 26.3883C56.1155 26.4083 56.0755 26.4483 56.0055 26.5083C55.5355 26.8583 54.9655 27.0683 54.3355 27.0683C53.3055 27.0683 52.3955 26.5083 51.9055 25.6783C52.3255 25.9283 52.8155 26.0683 53.3355 26.0683C53.9655 26.0683 54.5355 25.8583 55.0055 25.5083C55.0755 25.4483 55.1155 25.4083 55.1355 25.3883C55.1655 25.3583 55.2155 25.3383 55.2455 25.3183C55.8055 24.7983 56.1655 24.0583 56.1655 23.2283C56.1655 22.7083 56.0255 22.2183 55.7655 21.7983C56.6055 22.2783 57.1655 23.1883 57.1655 24.2283Z" fill="#F04271"/>
<path d="M55.7655 21.7984C55.3455 21.5384 54.8555 21.3984 54.3355 21.3984C52.7755 21.3984 51.5055 22.6684 51.5055 24.2284C51.5055 24.7584 51.6555 25.2584 51.9055 25.6784C51.0655 25.1884 50.5055 24.2784 50.5055 23.2284C50.5055 21.6684 51.7755 20.3984 53.3355 20.3984C54.3755 20.3984 55.2855 20.9584 55.7655 21.7984Z" fill="#59E6FF"/>
</svg>
