<svg width="108" height="107" viewBox="0 0 108 107" fill="none" xmlns="http://www.w3.org/2000/svg">
<path d="M107.136 55.5882C107.136 83.6582 84.3855 106.408 56.3155 106.408C41.2755 106.408 27.7655 99.8782 18.4555 89.4982C18.3555 89.3782 18.2455 89.2682 18.1555 89.1482C27.1255 97.0882 38.9155 101.898 51.8255 101.898C79.8955 101.898 102.646 79.1482 102.646 51.0782C102.646 38.1782 97.8355 26.4082 89.9255 17.4482C90.0155 17.5282 90.1055 17.6082 90.1955 17.6882C100.586 26.9982 107.136 40.5382 107.136 55.5882Z" fill="#F04271"/>
<path d="M102.635 51.0881C102.635 79.1581 79.8855 101.908 51.8155 101.908C38.9055 101.908 27.1155 97.0881 18.1455 89.1581C10.2755 80.1981 5.49548 68.4581 5.49548 55.5881C5.49548 27.5181 28.2455 4.76807 56.3155 4.76807C69.1955 4.76807 80.9655 9.55806 89.9155 17.4581C97.8255 26.4181 102.635 38.1981 102.635 51.0881Z" fill="#F3F2F4"/>
<path d="M89.9155 17.4581C80.9555 9.55807 69.1955 4.76807 56.3155 4.76807C28.2455 4.76807 5.49548 27.5181 5.49548 55.5881C5.49548 68.4581 10.2755 80.2081 18.1455 89.1581C16.6655 87.8581 15.2655 86.4681 13.9455 85.0081C5.8955 76.0081 0.995483 64.1281 0.995483 51.0881C0.995483 23.0181 23.7455 0.268066 51.8155 0.268066C64.8255 0.268066 76.7055 5.15806 85.6855 13.1981C87.1755 14.5381 88.5855 15.9581 89.9155 17.4581Z" fill="#59E6FF"/>
<path d="M43.0255 89.6681C47.4355 88.9081 51.8754 88.5181 56.3154 88.5181C60.7354 88.5181 65.1655 88.9081 69.5455 89.6581C69.5755 89.8081 69.5654 89.9681 69.5354 90.1281C69.3954 90.9481 68.6055 91.4981 67.7955 91.3581C59.3255 89.8781 50.7255 89.8781 42.2655 91.3581C42.1055 91.3881 41.9455 91.3881 41.7955 91.3581C41.6855 90.5481 42.2255 89.8081 43.0255 89.6681Z" fill="#030505"/>
<path d="M41.7355 88.378C46.1455 87.618 50.5855 87.228 55.0255 87.228C59.4655 87.228 63.9055 87.618 68.3055 88.378C68.9655 88.498 69.4555 89.028 69.5355 89.658C65.1555 88.898 60.7255 88.518 56.3055 88.518C51.8655 88.518 47.4255 88.908 43.0155 89.668C42.2155 89.808 41.6755 90.558 41.7855 91.358C41.1555 91.278 40.6255 90.788 40.5055 90.128C40.3755 89.308 40.9155 88.528 41.7355 88.378Z" fill="#F04271"/>
<path d="M41.7955 91.3582C41.9455 91.3882 42.1055 91.3882 42.2655 91.3582C50.7355 89.8782 59.3355 89.8782 67.7955 91.3582C68.6155 91.4982 69.3955 90.9582 69.5355 90.1282C69.5655 89.9682 69.5655 89.8182 69.5455 89.6582C69.5655 89.6582 69.5756 89.6682 69.5956 89.6682C70.4156 89.8182 70.9755 90.5982 70.8255 91.4182C70.6855 92.2382 69.8955 92.7882 69.0855 92.6482C60.6155 91.1682 52.0155 91.1682 43.5555 92.6482C42.7355 92.7882 41.9455 92.2482 41.8055 91.4182C41.7955 91.3982 41.7955 91.3782 41.7955 91.3582Z" fill="#59E6FF"/>
<path d="M86.2055 62.4483C83.1855 64.3183 79.9955 65.6683 76.9655 66.6483C77.7555 67.9383 78.2155 69.4683 78.2155 71.0883C78.2155 75.7883 74.4055 79.5883 69.7155 79.5883C66.8555 79.5883 64.3255 78.1783 62.7955 76.0083C64.1755 77.0083 65.8755 77.5883 67.7155 77.5883C72.4055 77.5883 76.2155 73.7883 76.2155 69.0883C76.2155 67.4683 75.7555 65.9383 74.9655 64.6483C77.9955 63.6683 81.1855 62.3183 84.2055 60.4483C84.4555 60.2883 84.6555 60.0683 84.7655 59.8183C85.4455 59.4883 86.2955 59.7183 86.6955 60.3783C87.1355 61.0883 86.9155 62.0083 86.2055 62.4483Z" fill="#59E6FF"/>
<path d="M46.0655 69.1485C46.2155 69.7685 46.2955 70.4185 46.2955 71.0885C46.2955 75.7885 42.4855 79.5885 37.7955 79.5885C34.9355 79.5885 32.4055 78.1785 30.8755 76.0085C32.2555 77.0085 33.9555 77.5885 35.7955 77.5885C40.4855 77.5885 44.2955 73.7885 44.2955 69.0885C44.2955 68.4185 44.2155 67.7685 44.0655 67.1485C44.5155 67.0085 44.8755 66.6585 45.0255 66.2085C45.3855 66.2285 45.5855 66.2285 45.6055 66.2285C46.4355 66.2285 47.1055 66.8985 47.1055 67.7285C47.1055 68.3985 46.6655 68.9585 46.0655 69.1485Z" fill="#59E6FF"/>
<path d="M84.7655 59.8179C84.6555 60.0679 84.4555 60.2879 84.2055 60.4479C81.1855 62.3179 77.9955 63.6679 74.9655 64.6479C75.7555 65.9379 76.2155 67.4679 76.2155 69.0879C76.2155 73.7879 72.4055 77.5879 67.7155 77.5879C65.8755 77.5879 64.1755 77.0079 62.7955 76.0079C61.7955 74.6279 61.2155 72.9279 61.2155 71.0879C61.2155 70.4179 61.2955 69.7679 61.4455 69.1479C60.8455 68.9579 60.4055 68.3979 60.4055 67.7279C60.4055 66.8979 61.0755 66.2279 61.9055 66.2279C61.9255 66.2279 62.2255 66.2279 62.7655 66.1979C64.6355 66.1079 69.3255 65.7379 74.6755 64.1879C77.9155 63.2579 81.3855 61.8879 84.6355 59.8879C84.6755 59.8579 84.7155 59.8379 84.7655 59.8179Z" fill="#030505"/>
<path d="M84.7655 59.8179C84.7155 59.8379 84.6755 59.8579 84.6355 59.8879C81.3855 61.8879 77.9155 63.2579 74.6755 64.1879C69.3255 65.7379 64.6355 66.1079 62.7655 66.1979C62.2255 66.2279 61.9255 66.2279 61.9055 66.2279C61.0755 66.2279 60.4055 66.8979 60.4055 67.7279C60.4055 68.3979 60.8455 68.9579 61.4455 69.1479C61.2955 69.7679 61.2155 70.4179 61.2155 71.0879C61.2155 72.9279 61.7955 74.6279 62.7955 76.0079C60.6255 74.4779 59.2155 71.9479 59.2155 69.0879C59.2155 68.4179 59.2955 67.7679 59.4455 67.1479C58.8455 66.9579 58.4055 66.3979 58.4055 65.7279C58.4055 64.8979 59.0755 64.2279 59.9055 64.2279C59.9255 64.2279 60.2255 64.2279 60.7655 64.1979C62.6355 64.1079 67.3255 63.7379 72.6755 62.1879C75.9155 61.2579 79.3855 59.8879 82.6355 57.8879C83.3355 57.4579 84.2655 57.6779 84.6955 58.3779C84.9755 58.8379 84.9855 59.3779 84.7655 59.8179Z" fill="#F04271"/>
<path d="M44.0654 67.1479C44.2154 67.7679 44.2954 68.4179 44.2954 69.0879C44.2954 73.7879 40.4854 77.5879 35.7954 77.5879C33.9554 77.5879 32.2554 77.0079 30.8754 76.0079C29.8754 74.6279 29.2954 72.9279 29.2954 71.0879C29.2954 69.4679 29.7554 67.9379 30.5454 66.6479C29.7054 66.3779 28.8454 66.0779 27.9854 65.7379C25.7554 64.8779 23.4855 63.7979 21.3055 62.4479C20.8555 62.1679 20.5954 61.6979 20.5854 61.2079C20.5854 60.9279 20.6554 60.6379 20.8154 60.3779C21.2454 59.6779 22.1754 59.4579 22.8754 59.8879C26.1254 61.8879 29.5954 63.2579 32.8354 64.1879C38.1854 65.7379 42.8754 66.1079 44.7454 66.1979C44.8454 66.2079 44.9455 66.2079 45.0255 66.2079C44.8755 66.6579 44.5154 67.0079 44.0654 67.1479Z" fill="#030505"/>
<path d="M30.8755 76.0078C28.7055 74.4778 27.2955 71.9478 27.2955 69.0878C27.2955 67.9078 27.5455 66.7678 27.9855 65.7378C28.8455 66.0778 29.7055 66.3778 30.5455 66.6478C29.7555 67.9378 29.2955 69.4678 29.2955 71.0878C29.2955 72.9278 29.8755 74.6278 30.8755 76.0078Z" fill="#F04271"/>
<path d="M45.1055 65.7279C45.1055 65.8979 45.0755 66.0579 45.0255 66.2079C44.9455 66.2079 44.8455 66.2079 44.7455 66.1979C42.8755 66.1079 38.1855 65.7379 32.8355 64.1879C29.5955 63.2579 26.1255 61.8879 22.8755 59.8879C22.1755 59.4579 21.2455 59.6779 20.8155 60.3779C20.6555 60.6379 20.5855 60.9279 20.5855 61.2079C20.1555 60.9579 19.7255 60.7079 19.3055 60.4479C18.5955 60.0079 18.3755 59.0879 18.8155 58.3779C19.2455 57.6779 20.1755 57.4579 20.8755 57.8879C24.1255 59.8879 27.5955 61.2579 30.8355 62.1879C36.1855 63.7379 40.8755 64.1079 42.7455 64.1979C43.2855 64.2279 43.5855 64.2279 43.6055 64.2279C44.4355 64.2279 45.1055 64.8979 45.1055 65.7279Z" fill="#F04271"/>
<path d="M85.7355 32.9178C85.6955 32.9278 85.6355 32.9478 85.5855 32.9578L81.1655 34.6878C79.2755 35.4278 78.3455 37.5478 79.0855 39.4378L80.8155 43.8578C80.8355 43.9078 80.8555 43.9678 80.9055 44.0078C80.5555 44.0778 80.2155 43.8878 80.0755 43.5478L78.3455 39.1278C77.6055 37.2378 78.5455 35.1078 80.4255 34.3778L84.8455 32.6478C85.1755 32.5178 85.5455 32.6278 85.7355 32.9178Z" fill="#F04271"/>
<path d="M77.2655 32.4781C76.2155 32.1681 75.3155 31.3981 74.8855 30.2981L73.1555 25.8781C73.0055 25.4881 73.1955 25.0381 73.5955 24.8881C73.9255 24.7581 74.2855 24.8681 74.4955 25.1581C74.4455 25.1681 74.3855 25.1881 74.3355 25.1981C73.9455 25.3481 73.7455 25.7981 73.8955 26.1881L75.6255 30.6181C75.9655 31.4481 76.5455 32.0881 77.2655 32.4781Z" fill="#F04271"/>
<path d="M74.3654 38.2078C73.5954 37.9678 72.7654 37.9878 71.9654 38.2978L67.5454 40.0278C67.1454 40.1878 66.9554 40.6278 67.1054 41.0278C67.1254 41.0778 67.1454 41.1378 67.1954 41.1778C66.8554 41.2378 66.5054 41.0478 66.3654 40.7078C66.2054 40.3178 66.4054 39.8678 66.7954 39.7178L71.2154 37.9878C72.2854 37.5578 73.4454 37.6778 74.3654 38.2078Z" fill="#F04271"/>
<path d="M77.1154 45.5079C76.7554 45.5679 76.4254 45.3779 76.2754 45.0379L74.5454 40.6179C74.3754 40.1979 74.1054 39.8579 73.7554 39.6279C74.4354 39.7579 75.0154 40.2379 75.2854 40.9279L77.0154 45.3479C77.0554 45.4179 77.0854 45.4679 77.1154 45.5079Z" fill="#030505"/>
<path d="M70.6255 34.8679L66.2055 36.5979C65.8155 36.7479 65.6155 37.1979 65.7655 37.5879C65.7955 37.6479 65.8155 37.7079 65.8655 37.7479C65.5055 37.7979 65.1655 37.6179 65.0255 37.2679C64.8755 36.8779 65.0655 36.4379 65.4655 36.2779L69.8855 34.5479C70.9755 34.1079 71.5255 32.8679 71.0955 31.7679L69.3655 27.3479C69.2055 26.9579 69.4055 26.5079 69.7955 26.3579C70.1355 26.2279 70.5055 26.3479 70.6955 26.6379C70.6455 26.6379 70.5955 26.6579 70.5455 26.6779C70.1455 26.8279 69.9555 27.2779 70.1055 27.6679L71.8355 32.0879C72.2655 33.1979 71.7255 34.4479 70.6255 34.8679Z" fill="#F04271"/>
<path d="M86.1456 34.378L81.7255 36.1081C80.6255 36.5381 80.0755 37.778 80.5055 38.878L82.2355 43.3081C82.3855 43.6981 82.1955 44.1481 81.7955 44.2981C81.4555 44.4281 81.0856 44.2981 80.8956 44.0181C80.9456 44.0181 81.0056 43.9981 81.0556 43.9781C81.4456 43.8281 81.6455 43.3781 81.4855 42.9881L79.7555 38.5681C79.3255 37.4781 79.8756 36.2281 80.9656 35.7881L85.3855 34.0581C85.7755 33.9081 85.9755 33.4581 85.8255 33.0681C85.7955 33.0081 85.7755 32.9481 85.7255 32.8981C86.0755 32.8481 86.4255 33.038 86.5655 33.378C86.7355 33.788 86.5356 34.228 86.1456 34.378Z" fill="#59E6FF"/>
<path d="M85.3955 34.068L80.9755 35.798C79.8855 36.238 79.3355 37.478 79.7655 38.578L81.4955 42.998C81.6555 43.388 81.4555 43.838 81.0655 43.988C81.0155 44.008 80.9555 44.028 80.9055 44.028C80.8655 43.988 80.8355 43.928 80.8155 43.878L79.0855 39.458C78.3455 37.568 79.2855 35.448 81.1655 34.708L85.5855 32.978C85.6355 32.958 85.6955 32.938 85.7355 32.938C85.7755 32.988 85.8055 33.048 85.8355 33.108C85.9855 33.478 85.7955 33.918 85.3955 34.068Z" fill="#030505"/>
<path d="M84.8055 30.968L80.3855 32.698C79.3255 33.118 78.1955 32.998 77.2755 32.488C78.0355 32.718 78.8555 32.698 79.6555 32.388L84.0755 30.6581C84.4655 30.5081 84.6655 30.058 84.5055 29.668C84.4755 29.608 84.4555 29.548 84.4155 29.508C84.7755 29.448 85.1055 29.6381 85.2555 29.9781C85.3955 30.3581 85.1955 30.808 84.8055 30.968Z" fill="#59E6FF"/>
<path d="M84.0655 30.6477L79.6455 32.3777C78.8555 32.6877 78.0255 32.7077 77.2655 32.4777C76.5455 32.0877 75.9555 31.4477 75.6255 30.6177L73.8955 26.1877C73.7455 25.7977 73.9355 25.3477 74.3355 25.1977C74.3855 25.1777 74.4455 25.1577 74.4955 25.1577C74.5355 25.1977 74.5555 25.2577 74.5855 25.3177L76.3155 29.7477C76.5955 30.4277 77.1655 30.8977 77.8355 31.0377C78.2355 31.1477 78.6755 31.1177 79.0855 30.9577L83.5055 29.2277C83.8355 29.1077 84.2055 29.2177 84.4055 29.5077C84.4455 29.5477 84.4655 29.6077 84.4955 29.6677C84.6555 30.0477 84.4555 30.4977 84.0655 30.6477Z" fill="#030505"/>
<path d="M77.8255 31.0378C77.1555 30.8978 76.5755 30.4278 76.3055 29.7478L74.5755 25.3178C74.5455 25.2578 74.5255 25.1978 74.4855 25.1578C74.8255 25.1078 75.1755 25.2978 75.3155 25.6378L77.0455 30.0578C77.2155 30.4678 77.4955 30.7978 77.8255 31.0378Z" fill="#59E6FF"/>
<path d="M77.2755 45.4675C77.2255 45.4875 77.1655 45.5075 77.1155 45.5075C77.0755 45.4675 77.0555 45.4075 77.0255 45.3475L75.2954 40.9275C75.0254 40.2375 74.4454 39.7575 73.7654 39.6275L73.7554 39.6175C73.1854 39.2375 72.4555 39.1275 71.7755 39.3975L67.3554 41.1275C67.3054 41.1475 67.2454 41.1675 67.1954 41.1675C67.1554 41.1275 67.1254 41.0675 67.1054 41.0175C66.9554 40.6175 67.1454 40.1775 67.5454 40.0175L71.9655 38.2875C72.7655 37.9775 73.6055 37.9575 74.3655 38.1975C75.0755 38.5975 75.6554 39.2275 75.9754 40.0475L77.7055 44.4675C77.8555 44.8675 77.6655 45.3175 77.2755 45.4675Z" fill="#030505"/>
<path d="M73.7554 39.6173C73.3554 39.5273 72.9254 39.5573 72.5154 39.7173L68.0955 41.4473C67.7555 41.5773 67.3854 41.4573 67.1954 41.1673C67.2454 41.1673 67.3054 41.1473 67.3554 41.1273L71.7755 39.3973C72.4555 39.1273 73.1854 39.2373 73.7554 39.6173Z" fill="#59E6FF"/>
<path d="M78.0155 45.7875C77.6855 45.9075 77.3155 45.7975 77.1155 45.5075C77.1655 45.4975 77.2255 45.4775 77.2755 45.4675C77.6655 45.3175 77.8555 44.8675 77.7055 44.4775L75.9755 40.0575C75.6555 39.2375 75.0755 38.6075 74.3655 38.2075C75.3955 38.5175 76.2855 39.2875 76.7155 40.3675L78.4455 44.7875C78.6055 45.1875 78.4055 45.6275 78.0155 45.7875Z" fill="#59E6FF"/>
<path d="M70.4355 35.9777L66.0155 37.7077C65.9655 37.7277 65.9055 37.7477 65.8655 37.7477C65.8255 37.7077 65.7955 37.6477 65.7655 37.5877C65.6155 37.1977 65.8055 36.7477 66.2055 36.5977L70.6255 34.8677C71.7255 34.4377 72.2755 33.1977 71.8355 32.0877L70.1055 27.6677C69.9555 27.2777 70.1455 26.8277 70.5455 26.6777C70.5955 26.6577 70.6455 26.6377 70.6955 26.6377C70.7355 26.6777 70.7655 26.7377 70.7855 26.7877L72.5155 31.2077C73.2555 33.1077 72.3255 35.2477 70.4355 35.9777Z" fill="#030505"/>
<path d="M71.1855 36.2977L66.7655 38.0277C66.4255 38.1477 66.0655 38.0377 65.8655 37.7477C65.9055 37.7377 65.9655 37.7177 66.0155 37.7077L70.4355 35.9777C72.3255 35.2377 73.2555 33.1077 72.5155 31.2177L70.7855 26.7977C70.7655 26.7477 70.7455 26.6877 70.6955 26.6477C71.0455 26.5877 71.3855 26.7777 71.5355 27.1177L73.2655 31.5377C73.9955 33.4177 73.0555 35.5577 71.1855 36.2977Z" fill="#59E6FF"/>
</svg>
