<svg width="107" height="108" viewBox="0 0 107 108" fill="none" xmlns="http://www.w3.org/2000/svg">
<path d="M106.696 56.1883C106.696 84.2583 83.9456 107.008 55.8756 107.008C40.8356 107.008 27.3256 100.478 18.0156 90.0983C17.9156 89.9783 17.8056 89.8684 17.7156 89.7484C26.6856 97.6884 38.4756 102.498 51.3856 102.498C79.4556 102.498 102.206 79.7483 102.206 51.6783C102.206 38.7783 97.3956 27.0083 89.4856 18.0483C89.5756 18.1283 89.6656 18.2083 89.7556 18.2883C100.146 27.6083 106.696 41.1383 106.696 56.1883Z" fill="#F04271"/>
<path d="M102.196 51.6882C102.196 79.7582 79.4455 102.508 51.3755 102.508C38.4655 102.508 26.6755 97.6882 17.7055 89.7582C9.83554 80.7982 5.05554 69.0582 5.05554 56.1882C5.05554 28.1182 27.8055 5.36816 55.8755 5.36816C68.7555 5.36816 80.5256 10.1582 89.4755 18.0582C97.3955 27.0182 102.196 38.7982 102.196 51.6882Z" fill="#F3F2F4"/>
<path d="M89.4755 18.0582C80.5155 10.1582 68.7555 5.36816 55.8755 5.36816C27.8055 5.36816 5.05554 28.1182 5.05554 56.1882C5.05554 69.0582 9.83554 80.8082 17.7055 89.7582C16.2255 88.4582 14.8255 87.0682 13.5055 85.6082C5.45555 76.6082 0.555542 64.7282 0.555542 51.6882C0.555542 23.6182 23.3055 0.868164 51.3755 0.868164C64.3855 0.868164 76.2655 5.75817 85.2455 13.7982C86.7355 15.1382 88.1555 16.5582 89.4755 18.0582Z" fill="#59E6FF"/>
<path d="M76.0655 41.7182H67.2855C66.4555 41.7182 65.7555 41.1682 65.5355 40.4082C65.7055 40.4682 65.8755 40.4882 66.0555 40.4882H75.7255C75.8055 40.9082 75.9155 41.3282 76.0655 41.7182Z" fill="#59E6FF"/>
<path d="M95.6755 39.8884C95.6755 40.1584 95.6255 40.3984 95.5155 40.6284C95.1355 45.4684 91.1155 49.2884 86.1655 49.2884C83.2755 49.2884 80.6955 47.9884 78.9855 45.9284C80.5955 47.2584 82.6755 48.0584 84.9355 48.0584C89.8755 48.0584 93.9155 44.2384 94.2855 39.3884C94.3855 39.1684 94.4455 38.9084 94.4455 38.6584C94.4455 38.4784 94.4155 38.2884 94.3655 38.1284C95.1255 38.3584 95.6755 39.0584 95.6755 39.8884Z" fill="#59E6FF"/>
<path d="M37.4455 41.7182H28.6655C27.8355 41.7182 27.1355 41.1682 26.9155 40.4082C27.0855 40.4682 27.2555 40.4882 27.4355 40.4882H37.1055C37.1855 40.9082 37.2955 41.3282 37.4455 41.7182Z" fill="#59E6FF"/>
<path d="M57.0556 39.8884C57.0556 40.1584 56.9956 40.3984 56.8956 40.6284C56.5156 45.4684 52.4856 49.2884 47.5456 49.2884C44.6456 49.2884 42.0656 47.9784 40.3356 45.9184C41.9556 47.2584 44.0456 48.0685 46.3156 48.0685C51.2556 48.0685 55.2956 44.2484 55.6656 39.3984C55.7656 39.1784 55.8256 38.9184 55.8256 38.6684C55.8256 38.4884 55.7956 38.3084 55.7456 38.1484C56.5056 38.3584 57.0556 39.0584 57.0556 39.8884Z" fill="#59E6FF"/>
<path d="M94.4456 38.6581C94.4456 38.9181 94.3956 39.1681 94.2856 39.3881C93.9056 44.2381 89.8756 48.0581 84.9356 48.0581C82.6656 48.0581 80.5956 47.2581 78.9856 45.9281C77.6556 44.8381 76.6356 43.3881 76.0656 41.7181C75.9156 41.3281 75.8056 40.9081 75.7256 40.4881H66.0556C65.8756 40.4881 65.6956 40.4581 65.5356 40.4081C65.4856 40.2381 65.4556 40.0681 65.4556 39.8881C65.4556 38.8781 66.2856 38.0581 67.2856 38.0581H93.8356C94.0156 38.0581 94.1956 38.0881 94.3556 38.1281C94.4156 38.2881 94.4456 38.4681 94.4456 38.6581Z" fill="#030505"/>
<path d="M94.3656 38.1283C94.1956 38.0783 94.0256 38.0583 93.8456 38.0583H67.2956C66.2856 38.0583 65.4656 38.8883 65.4656 39.8883C65.4656 40.0683 65.4956 40.2483 65.5456 40.4083C64.7856 40.1883 64.2356 39.4783 64.2356 38.6583C64.2356 37.6383 65.0656 36.8283 66.0656 36.8283H92.6156C93.4456 36.8183 94.1356 37.3683 94.3656 38.1283Z" fill="#F04271"/>
<path d="M55.8256 38.6581C55.8256 38.9181 55.7656 39.1681 55.6656 39.3881C55.2856 44.2381 51.2556 48.0581 46.3156 48.0581C44.0456 48.0581 41.9556 47.2481 40.3356 45.9081C40.3256 45.8981 40.3256 45.8981 40.3156 45.8881C39.0156 44.7981 38.0056 43.3581 37.4456 41.7181C37.2956 41.3281 37.1856 40.9081 37.1056 40.4881H27.4356C27.2556 40.4881 27.0756 40.4581 26.9156 40.4081C26.8556 40.2381 26.8356 40.0681 26.8356 39.8881C26.8356 38.8781 27.6656 38.0581 28.6656 38.0581H55.2156C55.3956 38.0581 55.5756 38.0881 55.7356 38.1381C55.7956 38.2981 55.8256 38.4681 55.8256 38.6581Z" fill="#030505"/>
<path d="M55.7456 38.1383C55.5756 38.0783 55.4056 38.0583 55.2256 38.0583H28.6656C27.6556 38.0583 26.8356 38.8883 26.8356 39.8883C26.8356 40.0683 26.8656 40.2483 26.9156 40.4083C26.1556 40.1883 25.6056 39.4783 25.6056 38.6583C25.6056 37.6383 26.4356 36.8283 27.4356 36.8283H53.9856C54.8156 36.8183 55.5256 37.3683 55.7456 38.1383Z" fill="#F04271"/>
<path d="M89.6256 61.4285C89.5856 61.5785 85.6856 76.1085 65.2556 76.1085C64.4256 76.1085 63.7256 75.5585 63.5056 74.7985C63.6756 74.8585 63.8456 74.8785 64.0256 74.8785C84.4456 74.8785 88.3556 60.3385 88.3956 60.1985C88.4756 59.8685 88.4556 59.5285 88.3656 59.2285C89.3056 59.4985 89.8656 60.4685 89.6256 61.4285Z" fill="#59E6FF"/>
<path d="M88.4055 60.1985C88.3655 60.3485 84.4655 74.8785 64.0355 74.8785C63.8555 74.8785 63.6755 74.8485 63.5155 74.7985C63.4555 74.6285 63.4355 74.4585 63.4355 74.2785C63.4355 73.2685 64.2655 72.4485 65.2655 72.4485C82.7255 72.4485 85.9455 61.0085 86.0755 60.5285C86.3355 59.5585 87.3355 58.9585 88.3155 59.2185C88.3355 59.2285 88.3655 59.2285 88.3755 59.2385C88.4655 59.5285 88.4855 59.8685 88.4055 60.1985Z" fill="#030505"/>
<path d="M88.3756 59.2284C88.3556 59.2184 88.3256 59.2184 88.3156 59.2084C87.3356 58.9484 86.3356 59.5484 86.0756 60.5184C85.9456 61.0084 82.7256 72.4384 65.2656 72.4384C64.2556 72.4384 63.4356 73.2684 63.4356 74.2684C63.4356 74.4484 63.4656 74.6284 63.5156 74.7884C62.7556 74.5684 62.2056 73.8584 62.2056 73.0384C62.2056 72.0184 63.0356 71.2084 64.0356 71.2084C81.4956 71.2084 84.7156 59.7684 84.8456 59.2884C85.1056 58.3084 86.1056 57.7184 87.0756 57.9784C87.7256 58.1484 88.1956 58.6284 88.3756 59.2284Z" fill="#F04271"/>
</svg>
