<svg width="107" height="107" viewBox="0 0 107 107" fill="none" xmlns="http://www.w3.org/2000/svg">
<path d="M106.605 55.9784C106.605 84.0484 83.8552 106.798 55.7852 106.798C40.7452 106.798 27.2352 100.268 17.9252 89.8884C17.8252 89.7684 17.7152 89.6584 17.6252 89.5384C26.5952 97.4784 38.3852 102.288 51.2952 102.288C79.3652 102.288 102.115 79.5384 102.115 51.4684C102.115 38.5684 97.3052 26.7984 89.3952 17.8384C89.4852 17.9184 89.5752 17.9984 89.6652 18.0784C100.055 27.3884 106.605 40.9184 106.605 55.9784Z" fill="#F04271"/>
<path d="M102.105 51.4782C102.105 79.5482 79.3552 102.298 51.2852 102.298C38.3752 102.298 26.5852 97.4782 17.6152 89.5482C9.7452 80.5882 4.96521 68.8482 4.96521 55.9782C4.96521 27.9082 27.7152 5.1582 55.7852 5.1582C68.6652 5.1582 80.4352 9.94821 89.3852 17.8482C97.3052 26.8082 102.105 38.5882 102.105 51.4782Z" fill="#F3F2F4"/>
<path d="M89.3852 17.8482C80.4252 9.94821 68.6652 5.1582 55.7852 5.1582C27.7152 5.1582 4.96521 27.9082 4.96521 55.9782C4.96521 68.8482 9.7452 80.5982 17.6152 89.5482C16.1352 88.2482 14.7352 86.8582 13.4152 85.3982C5.36519 76.3982 0.46521 64.5182 0.46521 51.4782C0.46521 23.4082 23.2152 0.658203 51.2852 0.658203C64.2952 0.658203 76.1752 5.54823 85.1552 13.5882C86.6452 14.9282 88.0652 16.3482 89.3852 17.8482Z" fill="#59E6FF"/>
<path d="M47.6452 41.8478L47.0252 42.9878C45.9152 45.0278 44.2152 46.5378 42.2352 47.4178C39.4152 48.6878 36.0452 48.6678 33.1152 47.0778C30.0952 45.4278 28.2352 42.4678 27.8652 39.2778C28.6452 41.6678 30.3052 43.7778 32.6852 45.0778C35.6052 46.6678 38.9752 46.6878 41.8052 45.4178C43.7752 44.5378 45.4752 43.0278 46.5852 40.9878L47.0952 40.0678L47.1352 40.0878C47.7652 40.4278 47.9952 41.2178 47.6452 41.8478Z" fill="#59E6FF"/>
<path d="M73.9552 47.0782C71.0352 48.6682 67.6552 48.6882 64.8352 47.4182C62.8552 46.5382 61.1552 45.0282 60.0452 42.9882L59.4252 41.8481C59.2052 41.4581 59.2152 41.0082 59.4152 40.6382L59.6052 40.9882C60.7252 43.0282 62.4252 44.5382 64.3952 45.4182C67.2252 46.6882 70.5952 46.6682 73.5152 45.0782C77.3052 43.0182 79.2652 38.9082 78.7852 34.8682C80.3052 39.4782 78.3752 44.6682 73.9552 47.0782Z" fill="#59E6FF"/>
<path d="M84.2552 29.778L78.3752 32.988C78.1852 32.368 77.9252 31.758 77.6052 31.168L83.8152 27.778C83.9652 27.698 84.0952 27.588 84.1852 27.458C84.4252 27.568 84.6352 27.758 84.7752 28.008C85.1152 28.638 84.8852 29.428 84.2552 29.778Z" fill="#59E6FF"/>
<path d="M67.2852 91.6884H65.1752L64.5252 89.6884H65.2852L62.9552 61.8784L63.3752 60.5684H64.6752L67.2852 91.6884Z" fill="#59E6FF"/>
<path d="M59.4752 64.4584L58.7952 66.5684L56.8652 60.5684H58.2252L59.4752 64.4584Z" fill="#59E6FF"/>
<path d="M61.2152 83.6283L58.6252 91.6883H48.4552L47.8152 89.6883H56.6252L59.8952 79.5283L61.2152 83.6283Z" fill="#59E6FF"/>
<path d="M47.0951 40.068L46.5851 40.988C45.4751 43.028 43.7751 44.538 41.8051 45.418C38.9751 46.688 35.6051 46.668 32.6851 45.078C30.3051 43.778 28.6451 41.668 27.8651 39.278C27.6151 37.238 27.9751 35.108 29.0351 33.168L27.9651 32.588L22.8151 29.778C22.1851 29.428 21.9551 28.638 22.2951 28.008C22.3351 27.938 22.3851 27.868 22.4351 27.808C22.8251 27.328 23.5051 27.188 24.0651 27.498L47.0951 40.068Z" fill="#030505"/>
<path d="M27.8651 39.2784C27.1551 37.1484 27.1551 34.7984 27.9651 32.5884L29.0351 33.1684C27.9751 35.1084 27.6151 37.2384 27.8651 39.2784Z" fill="#F04271"/>
<path d="M47.2152 39.8482L47.0952 40.0682L24.0651 27.4982C23.5051 27.1882 22.8252 27.3282 22.4352 27.8082L22.3752 27.7782C21.7452 27.4282 21.5151 26.6382 21.8651 26.0082C22.2051 25.3782 22.9952 25.1482 23.6252 25.4982L46.6951 38.0882C47.3251 38.4282 47.5552 39.2182 47.2152 39.8482Z" fill="#F04271"/>
<path d="M84.1851 27.4583C84.0951 27.5883 83.965 27.6983 83.815 27.7783L77.605 31.1683C77.925 31.7583 78.1851 32.3683 78.3751 32.9883C78.5751 33.6083 78.715 34.2383 78.785 34.8683C79.265 38.9083 77.305 43.0183 73.515 45.0783C70.595 46.6683 67.225 46.6883 64.3951 45.4183C62.4251 44.5383 60.725 43.0283 59.605 40.9883L59.415 40.6383C59.525 40.4083 59.705 40.2183 59.945 40.0883L83.015 27.4983C83.395 27.2883 83.8251 27.2883 84.1851 27.4583Z" fill="#030505"/>
<path d="M84.1851 27.4582C83.8251 27.2882 83.3951 27.2882 83.0151 27.4982L59.9451 40.0882C59.7051 40.2182 59.5251 40.4082 59.4151 40.6382L58.9851 39.8482C58.6451 39.2182 58.8751 38.4282 59.5051 38.0882L82.5751 25.4982C83.2051 25.1482 83.9951 25.3782 84.3351 26.0082C84.6051 26.4882 84.5251 27.0582 84.1851 27.4582Z" fill="#F04271"/>
<path d="M65.2852 89.6884H63.1752L61.2152 83.6284L59.8952 79.5284L56.6252 89.6884H47.8152L45.1852 81.5284L44.5052 83.6284L41.9052 91.6884H39.7852L39.9652 89.4884L42.3952 60.5684H44.9452L45.9152 64.0084L47.1952 68.5684L49.4452 60.5684H56.8652L58.7952 66.5684L59.4752 64.4584L61.3752 58.5684H62.6752L62.9552 61.8784L65.2852 89.6884Z" fill="#030505"/>
<path d="M43.5052 60.5684H42.3952L39.9652 89.4884L39.9052 89.6884H37.7852L40.3952 58.5684H42.9452L43.5052 60.5684Z" fill="#F04271"/>
<path d="M47.8151 89.6883H46.4551L44.5051 83.6283L45.1852 81.5283L47.8151 89.6883Z" fill="#030505"/>
<path d="M56.8652 60.5684H49.4452L47.1952 68.5684L45.9152 64.0084L47.4452 58.5684H56.2252L56.8652 60.5684Z" fill="#F04271"/>
</svg>
