<svg width="107" height="108" viewBox="0 0 107 108" fill="none" xmlns="http://www.w3.org/2000/svg">
<path d="M106.605 56.1883C106.605 84.2583 83.8552 107.008 55.7852 107.008C40.7452 107.008 27.2352 100.478 17.9252 90.0983C17.8252 89.9783 17.7152 89.8684 17.6252 89.7484C26.5952 97.6884 38.3852 102.498 51.2952 102.498C79.3652 102.498 102.115 79.7483 102.115 51.6783C102.115 38.7783 97.3052 27.0083 89.3952 18.0483C89.4852 18.1283 89.5752 18.2083 89.6652 18.2883C100.055 27.6083 106.605 41.1383 106.605 56.1883Z" fill="#F04271"/>
<path d="M102.105 51.6882C102.105 79.7582 79.3552 102.508 51.2852 102.508C38.3752 102.508 26.5852 97.6882 17.6152 89.7582C9.7452 80.7982 4.96521 69.0582 4.96521 56.1882C4.96521 28.1182 27.7152 5.36816 55.7852 5.36816C68.6652 5.36816 80.4352 10.1582 89.3852 18.0582C97.3052 27.0182 102.105 38.7982 102.105 51.6882Z" fill="#F3F2F4"/>
<path d="M89.3852 18.0582C80.4252 10.1582 68.6652 5.36816 55.7852 5.36816C27.7152 5.36816 4.96521 28.1182 4.96521 56.1882C4.96521 69.0582 9.7452 80.8082 17.6152 89.7582C16.1352 88.4582 14.7352 87.0682 13.4152 85.6082C5.36519 76.6082 0.46521 64.7282 0.46521 51.6882C0.46521 23.6182 23.2152 0.868164 51.2852 0.868164C64.2952 0.868164 76.1752 5.75817 85.1552 13.7982C86.6452 15.1382 88.0652 16.5582 89.3852 18.0582Z" fill="#59E6FF"/>
<path d="M94.7852 55.2082C93.5752 55.6382 92.1652 55.7482 90.8052 55.4882C89.4052 55.2182 86.8652 54.2682 85.5852 51.0282C85.3052 50.3082 84.4752 49.9482 83.7552 50.2382C83.3352 50.4082 83.0352 50.7582 82.9152 51.1582C83.3252 51.2782 83.6752 51.5682 83.8352 51.9882C85.1152 55.2382 87.6552 56.1782 89.0552 56.4482C91.1552 56.8582 93.3752 56.3582 94.7852 55.2082Z" fill="#F04271"/>
<path d="M98.9652 53.7984C98.7952 53.6284 98.5952 53.5184 98.3852 53.4584C97.8952 53.3184 97.3452 53.4484 96.9752 53.8384C96.7952 54.0284 96.5852 54.2084 96.3752 54.3684C96.4652 54.3684 96.5552 54.3884 96.6452 54.4184C96.8552 54.4784 97.0552 54.5884 97.2252 54.7584C97.7952 55.2884 97.8152 56.1884 97.2752 56.7484C96.9452 57.0984 96.5852 57.4184 96.1752 57.6884C97.2752 57.2384 98.2552 56.5984 99.0252 55.7784C99.5652 55.2284 99.5352 54.3284 98.9652 53.7984Z" fill="#F04271"/>
<path d="M97.2252 54.7584C97.0552 54.5884 96.8552 54.4784 96.6452 54.4184C96.5552 54.3884 96.4652 54.3784 96.3752 54.3684C95.9652 54.3284 95.5352 54.4784 95.2252 54.7984C95.0852 54.9384 94.9451 55.0784 94.7851 55.1984C93.3651 56.3584 91.1552 56.8484 89.0552 56.4384C87.6552 56.1684 85.1152 55.2184 83.8352 51.9784C83.6752 51.5584 83.3252 51.2684 82.9152 51.1484C82.8352 51.4384 82.8452 51.7484 82.9552 52.0584C84.2652 55.3984 86.8652 57.5984 90.2652 58.2484C92.2952 58.6484 94.3852 58.4284 96.1652 57.6884C96.5752 57.4084 96.9452 57.0884 97.2652 56.7484C97.8152 56.1884 97.7852 55.2884 97.2252 54.7584Z" fill="#030505"/>
<path d="M96.1651 57.6983C94.3851 58.4383 92.2951 58.6583 90.2651 58.2583C86.8651 57.6083 84.2751 55.3983 82.9551 52.0683C82.8351 51.7583 82.8251 51.4483 82.9151 51.1583C82.6251 51.0783 82.3051 51.0783 82.0051 51.1983C81.2851 51.4883 80.9251 52.2983 81.2051 53.0283C82.5151 56.3683 85.1151 58.5683 88.5151 59.2183C91.2651 59.7583 94.1351 59.1683 96.1651 57.6983Z" fill="#59E6FF"/>
<path d="M58.1552 56.8481C59.4352 56.9681 60.8251 56.7381 62.0851 56.1481C63.3751 55.5481 65.6151 54.0081 66.0651 50.5481C66.1651 49.7781 66.8751 49.2381 67.6451 49.3381C68.0951 49.3981 68.4752 49.6681 68.6852 50.0281C68.3152 50.2381 68.0551 50.6081 67.9951 51.0581C67.5451 54.5181 65.3051 56.0481 64.0151 56.6581C62.0851 57.5681 59.8152 57.6281 58.1552 56.8481Z" fill="#59E6FF"/>
<path d="M53.7551 56.4983C53.8751 56.2983 54.0451 56.1383 54.2351 56.0283C54.6751 55.7683 55.2451 55.7683 55.6951 56.0583C55.9151 56.1983 56.1552 56.3183 56.4052 56.4283C56.3252 56.4483 56.2352 56.4883 56.1552 56.5383C55.9652 56.6483 55.7951 56.8083 55.6751 57.0083C55.2551 57.6583 55.4451 58.5383 56.1051 58.9583C56.5051 59.2183 56.9352 59.4383 57.4052 59.6083C56.2252 59.4383 55.1251 59.0583 54.1751 58.4483C53.5351 58.0283 53.3351 57.1483 53.7551 56.4983Z" fill="#59E6FF"/>
<path d="M55.6851 57.0083C55.8051 56.8083 55.9751 56.6483 56.1651 56.5383C56.2451 56.4883 56.3251 56.4483 56.4151 56.4283C56.8051 56.2883 57.2551 56.3283 57.6351 56.5683C57.8051 56.6783 57.9751 56.7683 58.1551 56.8483C59.8051 57.6283 62.0851 57.5683 64.0151 56.6583C65.3051 56.0583 67.5451 54.5183 67.9951 51.0583C68.0551 50.6083 68.3151 50.2383 68.6851 50.0283C68.8351 50.2883 68.9051 50.5983 68.8651 50.9183C68.4051 54.4683 66.4151 57.2383 63.2851 58.6983C61.4151 59.5783 59.3251 59.8783 57.4251 59.5883C56.9551 59.4183 56.5251 59.1983 56.1251 58.9383C55.4651 58.5383 55.2651 57.6583 55.6851 57.0083Z" fill="#030505"/>
<path d="M57.4252 59.5981C59.3352 59.8881 61.4152 59.5882 63.2852 58.7081C66.4252 57.2481 68.4052 54.4782 68.8652 50.9282C68.9052 50.5982 68.8452 50.2981 68.6852 50.0381C68.9452 49.8881 69.2552 49.8081 69.5752 49.8581C70.3452 49.9681 70.8952 50.6681 70.7952 51.4481C70.3352 54.9981 68.3452 57.7681 65.2152 59.2281C62.6752 60.4081 59.7552 60.5281 57.4252 59.5981Z" fill="#F04271"/>
<path d="M87.7651 73.6185C87.7651 78.0785 84.1452 81.6985 79.6852 81.6985C77.8851 81.6985 76.2051 81.0985 74.8651 80.1185C73.8651 78.7685 73.2751 77.0985 73.2751 75.2985C73.2751 70.8285 76.8951 67.2085 81.3651 67.2085C83.1651 67.2085 84.8351 67.8085 86.1852 68.7985C87.1751 70.1385 87.7651 71.8185 87.7651 73.6185Z" fill="#030505"/>
<path d="M89.4452 75.2983C89.4452 79.7583 85.8252 83.3783 81.3652 83.3783C78.7052 83.3783 76.3452 82.0983 74.8652 80.1183C76.2052 81.1083 77.8852 81.6983 79.6852 81.6983C84.1452 81.6983 87.7652 78.0783 87.7652 73.6183C87.7652 71.8183 87.1652 70.1383 86.1852 68.7983C88.1652 70.2683 89.4452 72.6383 89.4452 75.2983Z" fill="#59E6FF"/>
<path d="M86.1852 68.7983C84.8352 67.7983 83.1652 67.2083 81.3652 67.2083C76.8952 67.2083 73.2752 70.8283 73.2752 75.2983C73.2752 77.0983 73.8752 78.7683 74.8652 80.1183C72.8752 78.6383 71.5952 76.2783 71.5952 73.6183C71.5952 69.1483 75.2152 65.5283 79.6852 65.5283C82.3452 65.5283 84.6952 66.8083 86.1852 68.7983Z" fill="#F04271"/>
<path d="M39.1052 29.9982L38.3852 30.7182H33.5952C33.0152 30.7182 32.5152 30.3682 32.2852 29.8682C32.4652 29.9582 32.6652 29.9982 32.8752 29.9982H39.1052Z" fill="#030505"/>
<path d="M43.2852 39.9585C43.2852 40.7585 42.6352 41.3984 41.8452 41.3984H32.5952C32.0352 41.3984 31.5152 41.0684 31.2952 40.5484C31.4752 40.6384 31.6652 40.6785 31.8752 40.6785H41.1252C41.9152 40.6785 42.5652 40.0384 42.5652 39.2384C42.5652 39.0284 42.5252 38.8284 42.4352 38.6484C42.9352 38.8784 43.2852 39.3785 43.2852 39.9585Z" fill="#F04271"/>
<path d="M44.3052 30.2983L36.7952 37.8083H35.3552L43.5852 29.5783C44.0052 29.1683 44.1252 28.5483 43.9052 28.0083C43.8952 27.9983 43.8952 27.9883 43.8852 27.9683C44.2152 28.1083 44.4852 28.3783 44.6252 28.7183C44.8352 29.2683 44.7152 29.8883 44.3052 30.2983Z" fill="#F04271"/>
<path d="M43.5852 29.5784L35.3552 37.8084H36.7952L36.0752 38.5284H41.8552C42.0652 38.5284 42.2652 38.5684 42.4452 38.6584C42.5352 38.8384 42.5752 39.0384 42.5752 39.2484C42.5752 40.0484 41.9252 40.6884 41.1352 40.6884H31.8852C31.6752 40.6884 31.4852 40.6484 31.3052 40.5584C31.2952 40.5484 31.2951 40.5384 31.2851 40.5184C31.0651 39.9784 31.1852 39.3584 31.5952 38.9484L39.8252 30.7184H38.3852L39.1052 29.9984H32.8852C32.6752 29.9984 32.4752 29.9584 32.2952 29.8684C32.2052 29.6884 32.1652 29.4884 32.1652 29.2784C32.1652 28.4884 32.8152 27.8384 33.6052 27.8384H43.2952C43.5052 27.8384 43.7052 27.8784 43.8852 27.9684C43.8952 27.9784 43.8952 27.9884 43.9052 28.0084C44.1252 28.5484 43.9952 29.1684 43.5852 29.5784Z" fill="#030505"/>
<path d="M31.5952 38.9485C31.1852 39.3585 31.0652 39.9785 31.2852 40.5185C31.2952 40.5285 31.2952 40.5385 31.3052 40.5585C30.9752 40.4185 30.7052 40.1485 30.5652 39.8085C30.3452 39.2685 30.4652 38.6485 30.8752 38.2385L38.3852 30.7285H39.8252L31.5952 38.9485Z" fill="#59E6FF"/>
<path d="M42.4452 38.6483C42.2652 38.5583 42.0652 38.5183 41.8552 38.5183H36.0752L36.7952 37.7983H41.1352C41.7152 37.8083 42.2152 38.1583 42.4452 38.6483Z" fill="#030505"/>
<path d="M43.8752 27.9784C43.6952 27.8884 43.4952 27.8484 43.2852 27.8484H33.5952C32.8052 27.8484 32.1552 28.4984 32.1552 29.2884C32.1552 29.4984 32.1952 29.6984 32.2852 29.8784C31.7852 29.6584 31.4352 29.1484 31.4352 28.5684C31.4352 27.7784 32.0852 27.1284 32.8752 27.1284H42.5652C43.1352 27.1284 43.6552 27.4684 43.8752 27.9784Z" fill="#59E6FF"/>
<path d="M26.0352 22.4782L25.5352 22.9782H22.2252C21.8252 22.9782 21.4752 22.7382 21.3252 22.3882C21.4452 22.4482 21.5852 22.4782 21.7352 22.4782H26.0352Z" fill="#030505"/>
<path d="M28.9353 29.3685C28.9353 29.9185 28.4853 30.3585 27.9453 30.3585H21.5453C21.1553 30.3585 20.7953 30.1285 20.6453 29.7685C20.7653 29.8285 20.9053 29.8585 21.0453 29.8585H27.4453C27.9953 29.8585 28.4353 29.4185 28.4353 28.8685C28.4353 28.7285 28.4053 28.5885 28.3453 28.4585C28.6853 28.6185 28.9353 28.9585 28.9353 29.3685Z" fill="#F04271"/>
<path d="M29.6353 22.6784L24.4353 27.8784H23.4453L29.1353 22.1884C29.4253 21.9084 29.5053 21.4784 29.3553 21.1084C29.3553 21.0984 29.3553 21.0984 29.3453 21.0884C29.5753 21.1884 29.7553 21.3684 29.8553 21.6084C30.0053 21.9684 29.9253 22.3984 29.6353 22.6784Z" fill="#F04271"/>
<path d="M29.1352 22.1783L23.4452 27.8683H24.4352L23.9352 28.3683H27.9352C28.0752 28.3683 28.2153 28.3983 28.3453 28.4583C28.4053 28.5783 28.4352 28.7183 28.4352 28.8683C28.4352 29.4183 27.9852 29.8583 27.4452 29.8583H21.0452C20.9052 29.8583 20.7652 29.8283 20.6452 29.7683C20.6352 29.7583 20.6352 29.7583 20.6352 29.7483C20.4852 29.3783 20.5653 28.9483 20.8453 28.6683L26.5352 22.9783H25.5452L26.0452 22.4783H21.7352C21.5952 22.4783 21.4552 22.4483 21.3252 22.3883C21.2652 22.2683 21.2352 22.1283 21.2352 21.9783C21.2352 21.4283 21.6852 20.9883 22.2252 20.9883H28.9352C29.0752 20.9883 29.2153 21.0183 29.3453 21.0783C29.3553 21.0883 29.3552 21.0883 29.3552 21.0983C29.5052 21.4683 29.4252 21.8983 29.1352 22.1783Z" fill="#030505"/>
<path d="M20.8352 28.6683C20.5552 28.9483 20.4652 29.3783 20.6252 29.7483C20.6252 29.7583 20.6252 29.7583 20.6352 29.7683C20.4052 29.6683 20.2252 29.4883 20.1252 29.2483C19.9752 28.8783 20.0552 28.4483 20.3352 28.1683L25.5352 22.9683H26.5252L20.8352 28.6683Z" fill="#59E6FF"/>
<path d="M28.3452 28.4582C28.2252 28.3982 28.0852 28.3682 27.9352 28.3682H23.9352L24.4352 27.8682H27.4452C27.8452 27.8782 28.1952 28.1182 28.3452 28.4582Z" fill="#030505"/>
<path d="M29.3352 21.0683C29.2152 21.0083 29.0752 20.9783 28.9252 20.9783H22.2152C21.6652 20.9783 21.2252 21.4283 21.2252 21.9683C21.2252 22.1083 21.2552 22.2483 21.3152 22.3783C20.9752 22.2283 20.7252 21.8783 20.7252 21.4783C20.7252 20.9283 21.1752 20.4883 21.7152 20.4883H28.4252C28.8252 20.4883 29.1852 20.7183 29.3352 21.0683Z" fill="#59E6FF"/>
<path d="M51.2351 39.8581L50.7351 40.3581H47.4251C47.0251 40.3581 46.6751 40.1181 46.5251 39.7681C46.6451 39.8281 46.7852 39.8581 46.9352 39.8581H51.2351Z" fill="#030505"/>
<path d="M54.1352 46.7484C54.1352 47.2984 53.6852 47.7384 53.1452 47.7384H46.7452C46.3552 47.7384 45.9952 47.5084 45.8452 47.1484C45.9652 47.2084 46.1052 47.2384 46.2452 47.2384H52.6452C53.1952 47.2384 53.6352 46.7984 53.6352 46.2484C53.6352 46.1084 53.6052 45.9684 53.5452 45.8384C53.8952 45.9984 54.1352 46.3484 54.1352 46.7484Z" fill="#F04271"/>
<path d="M54.8353 40.0583L49.6353 45.2583H48.6453L54.3353 39.5683C54.6253 39.2883 54.7053 38.8583 54.5553 38.4883C54.5553 38.4783 54.5553 38.4783 54.5453 38.4683C54.7753 38.5683 54.9553 38.7483 55.0553 38.9883C55.2053 39.3483 55.1253 39.7783 54.8353 40.0583Z" fill="#F04271"/>
<path d="M54.3352 39.5684L48.6452 45.2584H49.6352L49.1352 45.7584H53.1352C53.2752 45.7584 53.4152 45.7884 53.5452 45.8484C53.6052 45.9684 53.6352 46.1084 53.6352 46.2584C53.6352 46.8084 53.1852 47.2484 52.6452 47.2484H46.2452C46.1052 47.2484 45.9652 47.2184 45.8452 47.1584C45.8352 47.1484 45.8352 47.1484 45.8352 47.1384C45.6852 46.7684 45.7652 46.3384 46.0452 46.0584L51.7352 40.3684H50.7452L51.2452 39.8684H46.9352C46.7952 39.8684 46.6552 39.8384 46.5252 39.7784C46.4652 39.6584 46.4352 39.5184 46.4352 39.3684C46.4352 38.8184 46.8852 38.3784 47.4252 38.3784H54.1352C54.2752 38.3784 54.4152 38.4084 54.5452 38.4684C54.5552 38.4784 54.5552 38.4784 54.5552 38.4884C54.7152 38.8584 54.6252 39.2784 54.3352 39.5684Z" fill="#030505"/>
<path d="M46.0452 46.0481C45.7652 46.3281 45.6752 46.7581 45.8352 47.1281C45.8352 47.1381 45.8352 47.1381 45.8452 47.1481C45.6152 47.0481 45.4352 46.8681 45.3352 46.6281C45.1852 46.2581 45.2652 45.8281 45.5452 45.5481L50.7452 40.3481H51.7352L46.0452 46.0481Z" fill="#59E6FF"/>
<path d="M53.5451 45.8483C53.4251 45.7883 53.2851 45.7583 53.1351 45.7583H49.1351L49.6351 45.2583H52.6451C53.0451 45.2583 53.3951 45.5083 53.5451 45.8483Z" fill="#030505"/>
<path d="M54.5452 38.4582C54.4252 38.3982 54.2852 38.3682 54.1352 38.3682H47.4252C46.8752 38.3682 46.4352 38.8182 46.4352 39.3582C46.4352 39.4982 46.4652 39.6382 46.5252 39.7682C46.1852 39.6182 45.9352 39.2682 45.9352 38.8682C45.9352 38.3182 46.3852 37.8782 46.9252 37.8782H53.6352C54.0352 37.8682 54.3852 38.1082 54.5452 38.4582Z" fill="#59E6FF"/>
</svg>
