<svg width="20" height="20" viewBox="8 1 20 20" fill="none" xmlns="http://www.w3.org/2000/svg">
<g>
<path d="M14.4645 2.53553C16.4171 0.582913 19.5829 0.582913 21.5355 2.53553L26.4647 7.4647C28.4173 9.41732 28.4173 12.5831 26.4647 14.5358L21.5355 19.4649C19.5829 21.4176 16.4171 21.4176 14.4645 19.4649L9.5353 14.5358C7.58268 12.5831 7.58268 9.41732 9.5353 7.4647L14.4645 2.53553Z" fill="white"/>
<path d="M15.1716 3.24264C16.7337 1.68054 19.2663 1.68054 20.8284 3.24264L25.7576 8.1718C27.3197 9.7339 27.3197 12.2666 25.7576 13.8287L20.8284 18.7578C19.2663 20.3199 16.7337 20.3199 15.1716 18.7578L10.2424 13.8287C8.68031 12.2666 8.68031 9.7339 10.2424 8.17181L15.1716 3.24264Z" stroke="#D9304F" stroke-width="2"/>
</g>
</svg>
