<svg width="18" height="16" viewBox="0 0 18 16" fill="none" xmlns="http://www.w3.org/2000/svg">
<path d="M8.99998 15.5C8.46248 15.0233 7.85498 14.5275 7.21248 14H7.20414C4.94165 12.15 2.37748 10.0567 1.24498 7.54834C0.87291 6.74978 0.675732 5.88095 0.666635 5.00001C0.664151 3.79124 1.14895 2.63249 2.01149 1.78565C2.87402 0.938797 4.04147 0.475335 5.24998 0.500006C6.23384 0.50156 7.19651 0.785907 8.02331 1.31917C8.38662 1.55498 8.71533 1.84022 8.99998 2.16667C9.28622 1.8415 9.61502 1.55643 9.97748 1.31917C10.8039 0.785802 11.7664 0.501438 12.75 0.500006C13.9585 0.475335 15.1259 0.938797 15.9885 1.78565C16.851 2.63249 17.3358 3.79124 17.3333 5.00001C17.3248 5.88235 17.1276 6.75267 16.755 7.55251C15.6225 10.0608 13.0591 12.1533 10.7966 14L10.7883 14.0067C10.145 14.5308 9.53831 15.0267 9.00081 15.5067L8.99998 15.5ZM5.24998 2.16667C4.47374 2.15696 3.72504 2.45404 3.16665 2.99334C2.62863 3.52181 2.32794 4.24588 2.33324 5.00001C2.34275 5.64209 2.48817 6.27488 2.75998 6.85667C3.29457 7.93893 4.0159 8.91838 4.89081 9.75001C5.71665 10.5833 6.66664 11.39 7.48831 12.0683C7.71581 12.2558 7.94748 12.445 8.17915 12.6342L8.32498 12.7533C8.54748 12.935 8.77748 13.1233 8.99998 13.3083L9.01081 13.2983L9.01581 13.2942H9.02081L9.02831 13.2883H9.03248H9.03664L9.05165 13.2758L9.08581 13.2483L9.09164 13.2433L9.10081 13.2367H9.10581L9.11331 13.23L9.66665 12.7758L9.81164 12.6567C10.0458 12.4658 10.2775 12.2767 10.505 12.0892C11.3266 11.4108 12.2775 10.605 13.1033 9.76751C13.9783 8.93631 14.6997 7.9571 15.2341 6.87501C15.5109 6.28817 15.6584 5.64876 15.6667 5.00001C15.6701 4.24821 15.3696 3.52692 14.8333 3.00001C14.276 2.45827 13.5272 2.15874 12.75 2.16667C11.8016 2.15861 10.8949 2.55615 10.2583 3.25917L8.99998 4.70917L7.74164 3.25917C7.10503 2.55615 6.19838 2.15861 5.24998 2.16667Z" fill="gray"/>
</svg>
