<svg width="53" height="53" viewBox="8 1 53 53" fill="none" xmlns="http://www.w3.org/2000/svg">
<g>
<circle cx="34.5" cy="27.5" r="26.5" fill="#D9304F"/>
</g>
<path d="M34.5002 45.2744C24.6882 45.2636 16.7366 37.3121 16.7258 27.5V27.1445C16.9212 17.3767 24.9635 9.59756 34.7325 9.72718C44.5014 9.8568 52.3345 17.8465 52.2707 27.6161C52.2068 37.3857 44.27 45.2724 34.5002 45.2744ZM34.4718 41.7195H34.5002C42.3507 41.7117 48.7094 35.3433 48.7055 27.4929C48.7016 19.6425 42.3364 13.2805 34.486 13.2805C26.6356 13.2805 20.2704 19.6425 20.2665 27.4929C20.2626 35.3433 26.6213 41.7117 34.4718 41.7195ZM39.8325 34.6098H36.2777V20.3903H39.8325V34.6098ZM32.7228 34.6098H29.1679V20.3903H32.7228V34.6098Z" fill="#E3E3E3"/>
</svg>
