<svg width="53" height="53" viewBox="8 1 53 53" fill="none" xmlns="http://www.w3.org/2000/svg">
<g>
<circle cx="34.5" cy="27.5" r="26.5" fill="#FF002F"/>
</g>
<path d="M34.5 45.2744C24.6835 45.2744 16.7256 37.3165 16.7256 27.5C16.7256 17.6835 24.6835 9.72559 34.5 9.72559C44.3165 9.72559 52.2744 17.6835 52.2744 27.5C52.2636 37.312 44.312 45.2636 34.5 45.2744ZM20.2805 27.8057C20.3646 35.6286 26.7523 41.9142 34.5756 41.8723C42.3989 41.8301 48.7187 35.4762 48.7187 27.6528C48.7187 19.8294 42.3989 13.4756 34.5756 13.4333C26.7523 13.3915 20.3646 19.677 20.2805 27.5V27.8057ZM30.9451 35.4985V19.5015L41.6097 27.5L30.9451 35.4985Z" fill="#FFFFFF"/>
</svg>
