<svg width="512" height="512" viewBox="0 0 512 512" fill="none" xmlns="http://www.w3.org/2000/svg">
<path fill-rule="evenodd" clip-rule="evenodd" d="M254.85 509.304C395.6 509.304 509.7 395.811 509.7 255.81C509.7 115.809 395.6 2.31516 254.85 2.31516C114.1 2.31516 0 115.809 0 255.81C0 395.811 114.1 509.304 254.85 509.304ZM479.747 259.704C412.18 353.572 373.64 323.711 336.978 295.305C319.935 282.099 303.297 269.208 284.338 269.208C260.983 269.208 254.85 287.973 254.85 296.197C254.85 288.027 248.717 269.208 225.362 269.208C206.393 269.208 189.752 282.101 172.707 295.306C136.043 323.709 97.5105 353.561 29.9261 259.677C28.0369 410.553 172.3 446.23 254.85 351.864C337.4 446.23 481.663 410.581 479.747 259.704ZM434.352 219.452C444.838 214.904 457.104 209.048 468.193 203.111C469.131 202.545 469.85 201.68 470.232 200.657C470.615 199.634 470.639 198.513 470.301 197.474C468.987 193.008 466.495 185.328 462.909 176.667C462.659 176.044 462.281 175.48 461.799 175.01C461.317 174.541 460.742 174.176 460.111 173.941C459.48 173.705 458.806 173.603 458.132 173.641C457.459 173.679 456.801 173.856 456.201 174.162C445.468 179.608 436.871 183.476 428.821 186.853V121.491C428.82 120.345 428.412 119.236 427.671 118.359C406.563 93.1151 380.128 72.8018 350.242 58.8608C320.355 44.9198 287.75 37.6928 254.741 37.6928C221.731 37.6928 189.126 44.9198 159.24 58.8608C129.354 72.8018 102.919 93.1151 81.8109 118.359C81.0694 119.236 80.6622 120.345 80.6609 121.491V186.853C72.666 183.476 64.0688 179.608 53.2812 174.162C52.678 173.86 52.0186 173.686 51.3444 173.649C50.6702 173.613 49.9958 173.716 49.3634 173.951C48.731 174.186 48.1543 174.549 47.6695 175.017C47.1846 175.484 46.8021 176.046 46.5458 176.667C42.9865 185.328 40.4675 193.089 39.1533 197.474C38.8314 198.54 38.89 199.683 39.3192 200.711C39.7483 201.738 40.5217 202.586 41.508 203.111C52.6241 209.103 64.8902 214.958 75.3766 219.452C78.8379 220.922 82.5649 221.673 86.3285 221.658H423.4C427.163 221.67 430.889 220.919 434.352 219.452Z" fill="#5241BF"/>
</svg>
