<svg width="53" height="53" viewBox="8 1 53 53" fill="none" xmlns="http://www.w3.org/2000/svg">
<g>
<circle cx="34.5" cy="27.5" r="26.5" fill="#D9304F"/>
</g>
<path d="M45.1663 13.2805H41.6115V17.8256C39.4963 16.1635 36.8291 15.1722 33.9304 15.1722C27.0588 15.1722 21.4883 20.7428 21.4883 27.6143C21.4883 34.4859 27.0588 40.0564 33.9304 40.0564C37.7527 40.0564 41.1725 38.3328 43.4549 35.6203L40.5766 33.5144C38.9487 35.3469 36.5743 36.5015 33.9304 36.5015C29.0221 36.5015 25.0432 32.5226 25.0432 27.6143C25.0432 22.7061 29.0221 18.7271 33.9304 18.7271C35.8622 18.7271 37.65 19.3435 39.1079 20.3903L34.5017 20.3903V23.9452H45.1663V13.2805Z" fill="#E3E3E3"/>
</svg>
